<?xml version="1.0" encoding="UTF-8"?>
<svg width="16px" height="16px" viewBox="0 0 16 16" version="1.1" xmlns="http://www.w3.org/2000/svg" xmlns:xlink="http://www.w3.org/1999/xlink">
    <title>bank</title>
    <g id="Page-1" stroke="none" stroke-width="1" fill="none" fill-rule="evenodd">
        <g id="Review-and-Payment" transform="translate(-602.000000, -2243.000000)" fill="#000000" fill-rule="nonzero">
            <g id="Group-9" transform="translate(602.000000, 2240.000000)">
                <g id="bank" transform="translate(0.000000, 3.000000)">
                    <path d="M14.42781,5.72562 C14.92407,5.72562 15.32781,5.32188 15.32781,4.82562 L15.32781,3.6603 C15.32781,3.29079 15.1065,2.96328 14.76381,2.82537 L8.01525,0.06597 C7.7955,-0.02256 7.55769,-0.021 7.34352,0.06471 C7.33854,0.06672 7.45647,0.01851 0.59178,2.8254 C0.24909,2.96328 0.02778,3.29082 0.02778,3.66033 L0.02778,4.82568 C0.02778,5.32194 0.43152,5.72568 0.92778,5.72568 L1.46778,5.72568 L1.46778,12.50568 L0.92778,12.50568 C0.43152,12.50568 0.02778,12.90942 0.02778,13.40568 L0.02778,14.45568 C0.02778,14.95194 0.43152,15.35568 0.92778,15.35568 L14.42778,15.35568 C14.92404,15.35568 15.32781,14.95194 15.32781,14.45568 L15.32781,13.40568 C15.32781,12.90942 14.92404,12.50568 14.42778,12.50568 L13.88778,12.50568 L13.88778,5.72568 L14.42781,5.72568 L14.42781,5.72562 Z M14.42781,13.40562 C14.42838,14.47965 14.43081,14.45562 14.42781,14.45562 L0.92781,14.45562 L0.92781,13.40562 L14.42781,13.40562 Z M2.36781,12.50562 L2.36781,5.72562 L3.38781,5.72562 L3.38781,12.50562 L2.36781,12.50562 Z M4.28781,12.50562 L4.28781,5.72562 L6.26781,5.72562 L6.26781,12.50562 L4.28781,12.50562 Z M7.16781,12.50562 L7.16781,5.72562 L8.18781,5.72562 L8.18781,12.50562 L7.16781,12.50562 Z M9.08781,12.50562 L9.08781,5.72562 L11.06781,5.72562 L11.06781,12.50562 L9.08781,12.50562 Z M11.96781,12.50562 L11.96781,5.72562 L12.98781,5.72562 L12.98781,12.50562 L11.96781,12.50562 Z M0.92781,4.82562 C0.92781,3.57033 0.92646,3.66084 0.93096,3.65901 L7.67781,0.9003 L14.42466,3.65901 C14.42931,3.66087 14.42781,3.5733 14.42781,4.82562 C14.27823,4.82562 1.10556,4.82562 0.92781,4.82562 Z" id="Shape"></path>
                    <path d="M7.67781,1.94562 C7.42929,1.94562 7.22781,2.1471 7.22781,2.39562 L7.22781,3.35562 C7.22781,3.60414 7.42929,3.80562 7.67781,3.80562 C7.92633,3.80562 8.12781,3.60414 8.12781,3.35562 L8.12781,2.39562 C8.12781,2.1471 7.92633,1.94562 7.67781,1.94562 L7.67781,1.94562 Z" id="Path"></path>
                </g>
            </g>
        </g>
    </g>
</svg>