<?xml version="1.0" encoding="UTF-8"?>
<svg width="25px" height="25px" viewBox="0 0 25 25" version="1.1" xmlns="http://www.w3.org/2000/svg" xmlns:xlink="http://www.w3.org/1999/xlink">
    <title>calendar_bl</title>
    <g id="Page-1" stroke="none" stroke-width="1" fill="none" fill-rule="evenodd">
        <g id="Package-Detail" transform="translate(-495.000000, -2062.000000)" fill="#31A1D0" fill-rule="nonzero">
            <g id="Group-4" transform="translate(392.000000, 2044.000000)">
                <g id="calendar_bl" transform="translate(103.000000, 18.000000)">
                    <path d="M5.952,2.06057393e-13 L5.952,1.92 L18.624,1.92 L18.624,2.06057393e-13 L20.544,2.06057393e-13 L20.544,1.92 L21.696,1.92 C23.284032,1.92 24.576,3.211968 24.576,4.8 L24.576,4.8 L24.576,21.696 C24.576,23.284032 23.284032,24.576 21.696,24.576 L21.696,24.576 L2.88,24.576 C1.291968,24.576 9.30810984e-13,23.284032 9.30810984e-13,21.696 L9.30810984e-13,21.696 L9.30810984e-13,4.8 C9.30810984e-13,3.211968 1.291968,1.92 2.88,1.92 L2.88,1.92 L4.032,1.92 L4.032,2.06057393e-13 L5.952,2.06057393e-13 Z M22.656,9.024 L1.92,9.024 L1.92,21.696 C1.92,22.225344 2.350656,22.656 2.88,22.656 L2.88,22.656 L21.696,22.656 C22.225344,22.656 22.656,22.225344 22.656,21.696 L22.656,21.696 L22.656,9.024 Z M5.568,18.72 L5.568,20.64 L3.648,20.64 L3.648,18.72 L5.568,18.72 Z M9.408,18.72 L9.408,20.64 L7.488,20.64 L7.488,18.72 L9.408,18.72 Z M13.248,18.72 L13.248,20.64 L11.328,20.64 L11.328,18.72 L13.248,18.72 Z M17.088,18.72 L17.088,20.64 L15.168,20.64 L15.168,18.72 L17.088,18.72 Z M5.568,14.88 L5.568,16.8 L3.648,16.8 L3.648,14.88 L5.568,14.88 Z M9.408,14.88 L9.408,16.8 L7.488,16.8 L7.488,14.88 L9.408,14.88 Z M13.248,14.88 L13.248,16.8 L11.328,16.8 L11.328,14.88 L13.248,14.88 Z M17.088,14.88 L17.088,16.8 L15.168,16.8 L15.168,14.88 L17.088,14.88 Z M20.928,14.88 L20.928,16.8 L19.008,16.8 L19.008,14.88 L20.928,14.88 Z M5.568,11.04 L5.568,12.96 L3.648,12.96 L3.648,11.04 L5.568,11.04 Z M9.408,11.04 L9.408,12.96 L7.488,12.96 L7.488,11.04 L9.408,11.04 Z M13.248,11.04 L13.248,12.96 L11.328,12.96 L11.328,11.04 L13.248,11.04 Z M17.088,11.04 L17.088,12.96 L15.168,12.96 L15.168,11.04 L17.088,11.04 Z M20.928,11.04 L20.928,12.96 L19.008,12.96 L19.008,11.04 L20.928,11.04 Z M4.032,3.84 L2.88,3.84 C2.350656,3.84 1.92,4.270656 1.92,4.8 L1.92,4.8 L1.92,7.104 L22.656,7.104 L22.656,4.8 C22.656,4.270656 22.225344,3.84 21.696,3.84 L21.696,3.84 L20.544,3.84 L20.544,5.76 L18.624,5.76 L18.624,3.84 L5.952,3.84 L5.952,5.76 L4.032,5.76 L4.032,3.84 Z" id="Combined-Shape"></path>
                </g>
            </g>
        </g>
    </g>
</svg>