<?xml version="1.0" encoding="UTF-8"?>
<svg width="36px" height="35px" viewBox="0 0 36 35" version="1.1" xmlns="http://www.w3.org/2000/svg" xmlns:xlink="http://www.w3.org/1999/xlink">
    <title>checkmark</title>
    <g id="Page-1" stroke="none" stroke-width="1" fill="none" fill-rule="evenodd">
        <g id="About-Us" transform="translate(-441.000000, -4636.000000)" fill="#20C9CC" fill-rule="nonzero">
            <g id="Group-2" transform="translate(425.000000, 4619.000000)">
                <g id="checkmark" transform="translate(16.000000, 17.000000)">
                    <path d="M30.9151172,17.3315625 L30.113125,15.0527343 L21.4623828,23.70375 C20.6171875,24.5505859 19.4911718,25.01625 18.2948828,25.01625 C17.0988672,25.01625 15.9728516,24.5505859 15.1276563,23.70375 L8.78089842,17.3569922 C7.9340625,16.5117968 7.468125,15.3857813 7.468125,14.1897657 C7.468125,12.9934766 7.9340625,11.8674609 8.78089842,11.0222657 C9.62609375,10.1757032 10.7521093,9.70976566 11.948125,9.70976566 C13.1444141,9.70976566 14.2704297,10.1757032 15.115625,11.0222657 L18.2948828,14.2001563 L26.8130078,5.68230467 L26.2393359,4.05453125 L25.9751953,2.47460934 C25.8094922,1.46207033 25.1417578,0.62289066 24.1934766,0.22996092 C23.2408203,-0.16570316 22.1776953,-0.04320316 21.3428907,0.555625 L17.1929297,3.56015625 L12.9964843,0.54796875 C12.1542968,-0.04621092 11.0881641,-0.16433592 10.14125,0.23296875 C9.200625,0.62726566 8.53890625,1.46507816 8.37320316,2.47160158 L7.56082033,7.529375 L2.47296875,8.37457033 C1.46207033,8.54054684 0.62289066,9.20800783 0.22859375,10.1562891 C-0.16570316,11.1075782 -0.04320316,12.1737109 0.555625,13.0085157 L3.55878908,17.1584766 L0.54660158,21.3546484 C-0.04621092,22.1968359 -0.16570316,23.2646093 0.23160158,24.2098828 C0.62726566,25.1507813 1.4634375,25.8122266 2.46996092,25.9782032 L7.52800783,26.7919532 L8.37320316,31.8781641 C8.53753908,32.8876953 9.200625,33.7255078 10.14125,34.1198047 C11.0895313,34.5168359 12.1573047,34.3989843 13.0071484,33.7971484 L17.1571093,30.7926172 L21.3428907,33.7971484 C21.8550391,34.1630078 22.4508593,34.3512231 23.0557032,34.3512231 C23.4393359,34.3512231 23.8246093,34.2764843 24.1934766,34.1228125 C25.1433984,33.7285157 25.8094922,32.8893359 25.9751953,31.8811718 L26.7889453,26.8233984 L31.8751563,25.9782032 C32.8846875,25.8122266 33.7211328,25.1507813 34.1167968,24.2098828 C34.5141016,23.2646093 34.3959766,22.1968359 33.7941407,21.3442578 L30.9151172,17.3315625 Z" id="Path"></path>
                    <path d="M18.2948828,22.0297657 C17.9126172,22.0297657 17.5303516,21.8834766 17.2391407,21.5922657 L10.8923828,15.2455078 C10.3085938,14.6617188 10.3085938,13.7178125 10.8923828,13.1340234 C11.4764453,12.5499609 12.4200782,12.5499609 13.0041407,13.1340234 L18.2948828,18.4247657 L33.2923828,3.42726566 C33.8764453,2.84347658 34.8200782,2.84347658 35.4041407,3.42726566 C35.9879297,4.01105467 35.9879297,4.95496092 35.4041407,5.53875 L19.350625,21.5922657 C19.0594141,21.8834766 18.6771484,22.0297657 18.2948828,22.0297657 Z" id="Path"></path>
                </g>
            </g>
        </g>
    </g>
</svg>