<?xml version="1.0" encoding="UTF-8"?>
<svg width="19px" height="19px" viewBox="0 0 19 19" version="1.1" xmlns="http://www.w3.org/2000/svg" xmlns:xlink="http://www.w3.org/1999/xlink">
    <title>enter</title>
    <g id="Page-1" stroke="none" stroke-width="1" fill="none" fill-rule="evenodd">
        <g id="Customise-Your-Trip" transform="translate(-1554.000000, -423.000000)" fill="#000000" fill-rule="nonzero">
            <g id="Group-11" transform="translate(1554.000000, 419.000000)">
                <g id="enter" transform="translate(0.000000, 4.000000)">
                    <path d="M16.8959531,1.77635684e-15 C16.9281057,1.77635684e-15 16.9596456,0.00263878268 16.9903681,0.00771145316 C17.7835959,0.0623350473 18.432,0.719000613 18.432,1.53604688 L18.432,15.3600469 C18.432,16.0159219 18.0142031,16.6010625 17.3929219,16.817625 L12.7771875,18.3567656 C12.609,18.4089375 12.4531875,18.432 12.2879531,18.432 C11.4408281,18.432 10.7520469,17.7430781 10.7520469,16.8959531 L10.7515574,16.128 L8.25595312,16.128 C7.090875,16.128 6.14404688,15.1810312 6.14404688,14.0159531 L6.14404688,12.8639531 C6.14404688,12.546 6.40209377,12.2879531 6.72004688,12.2879531 C7.038,12.2879531 7.29604688,12.546 7.29604688,12.8639531 L7.29604688,14.0159531 C7.29604688,14.545125 7.72678123,14.976 8.25595312,14.976 L10.7515574,14.976 L10.7520469,3.07195312 C10.7520469,2.415375 11.1698438,1.82939062 11.7918281,1.61353123 L13.1745574,1.152 L8.25595312,1.152 C7.72678123,1.152 7.29604688,1.582875 7.29604688,2.11204688 L7.29604688,3.26404688 C7.29604688,3.582 7.038,3.84004688 6.72004688,3.84004688 C6.40209377,3.84004688 6.14404688,3.582 6.14404688,3.26404688 L6.14404688,2.11204688 C6.14404688,0.946968768 7.090875,1.77635684e-15 8.25595312,1.77635684e-15 L16.8959531,1.77635684e-15 Z M16.8959531,1.152 C16.8460312,1.152 16.8038438,1.1581875 16.7585625,1.17196877 L12.1636406,2.70407812 C12.0130312,2.75639062 11.9040469,2.90840623 11.9040469,3.07195312 L11.9040469,16.8959531 C11.9040469,17.1579375 12.1881094,17.3345625 12.4254844,17.2600312 L17.0204062,15.7279219 C17.1701719,15.6756094 17.28,15.5235938 17.28,15.3600469 L17.28,1.53604688 C17.28,1.32482812 17.1080156,1.152 16.8959531,1.152 Z M3.04875,5.16875 C3.27389062,4.94375 3.63867188,4.94375 3.86367188,5.16875 C4.08867188,5.39375 4.08867188,5.75853127 3.86367188,5.98367188 L3.86367188,5.98367188 L1.84555741,8 L7.87204688,8 C8.15820469,8 8.39583844,8.20901798 8.44050362,8.48260939 L8.44804688,8.576 C8.44804688,8.89395312 8.19,9.152 7.87204688,9.152 L7.87204688,9.152 L2.08755741,9.152 L3.86367188,10.92875 C4.06367188,11.12875 4.08589411,11.4391945 3.93033855,11.6638364 L3.86367188,11.7436719 C3.75145315,11.8564531 3.60407815,11.9125625 3.4565625,11.9125625 C3.3091875,11.9125625 3.16167188,11.8564531 3.04875,11.7436719 L3.04875,11.7436719 L0.438131651,9.1353733 C0.186685404,9.07353806 3.3075766e-12,8.84643877 3.3075766e-12,8.576 C3.3075766e-12,8.55638162 0.000982423858,8.5369913 0.00290072646,8.51787561 C-0.0147338984,8.35093718 0.0403994845,8.17710052 0.16875,8.04875 L0.16875,8.04875 Z" id="Combined-Shape"></path>
                </g>
            </g>
        </g>
    </g>
</svg>