<?xml version="1.0" encoding="UTF-8"?>
<svg width="53px" height="53px" viewBox="0 0 53 53" version="1.1" xmlns="http://www.w3.org/2000/svg" xmlns:xlink="http://www.w3.org/1999/xlink">
    <title>CA6EB962-762B-4011-9456-9E0E0D8AFA69</title>
    <g id="Page-1" stroke="none" stroke-width="1" fill="none" fill-rule="evenodd">
        <g id="Homepage-03" transform="translate(-793.000000, -3029.000000)" fill="#31A1D0" fill-rule="nonzero" stroke="#27D2D5" stroke-width="0.5">
            <g id="Group-26" transform="translate(390.000000, 2842.000000)">
                <g id="Group-16" transform="translate(299.000000, 125.000000)">
                    <g id="Group-18" transform="translate(72.000000, 30.000000)">
                        <g id="hand(1)" transform="translate(33.000000, 33.000000)">
                            <path d="M44.2066406,22.6175781 C45.6335938,20.9628906 48.1421875,20.7601562 49.8167969,22.1714844 C51.5019531,23.5960938 51.7148438,26.1242188 50.2917969,27.8078125 C42.3283359,37.3255781 41.3860038,38.4589464 41.2559979,38.6078684 L41.247928,38.6170226 C41.2388232,38.6272178 41.2358751,38.629924 41.2335241,38.6317671 C41.231486,38.6333195 41.2311737,38.6335601 41.2308381,38.6338261 C39.5355469,40.2832031 37.3070312,41.1886719 34.9492188,41.1886719 L34.9492188,41.1886719 L21.6589844,41.1886719 C20.8777344,41.1886719 20.1386719,41.4875 19.5773438,42.0296875 L19.5773438,42.0296875 L18.5347656,43.0351562 C18.896875,44.0949219 18.6464844,45.3140625 17.8230469,46.1375 L17.8230469,46.1375 L12.9761719,50.9125 C12.5835938,51.2992188 11.9527344,51.2949219 11.5652344,50.9042969 L11.5652344,50.9042969 L0.3402344,39.59375 C-0.0472656,39.203125 -0.0464844,38.5730469 0.3417969,38.1835938 L0.3417969,38.1835938 L5.0976562,33.4136719 C5.81875,32.6925781 6.8210938,32.4050781 7.7714844,32.5851562 C10.0273438,28.4164062 14.2308594,26.1929688 19.0449219,26.1929688 C20.7816406,26.1929688 22.4648438,26.5289062 24.0511719,27.1925781 L24.0511719,27.1925781 L35.1992188,27.1925781 C36.4265625,27.1925781 37.5625,27.7640625 38.3074219,28.6808594 L38.3074219,28.6808594 Z M7.7503906,34.6859375 C7.3484375,34.4375 6.8421875,34.496875 6.5125,34.8265625 L6.5125,34.8265625 L2.4597656,38.8910156 L12.2828125,48.7890625 L16.4148438,44.7183594 C16.7875,44.3457031 16.8089844,43.7089844 16.409375,43.309375 C16.3106628,43.2108001 16.2130953,43.1133631 16.1166591,43.0170508 L15.5515096,42.452566 C15.4595447,42.3606991 15.3686841,42.2699304 15.2789144,42.1802465 L14.7532789,41.6550561 C14.1550583,41.0572751 13.6089708,40.5113557 13.1103965,40.0127551 L12.3013795,39.2035166 C11.6645482,38.5663661 11.1192954,38.0204869 10.6521523,37.5526347 L10.2524494,37.1522774 C10.2103005,37.1100546 10.1688922,37.0685723 10.1282112,37.0278173 L9.57085375,36.4693843 C9.53710822,36.4355711 9.50402257,36.4024191 9.47158334,36.3699148 L9.03179193,35.9292828 C8.90023266,35.7974975 8.78315006,35.6802523 8.67886055,35.5758918 L8.31144817,35.2087966 C8.23967947,35.1372682 8.17834683,35.0763067 8.12576668,35.0242567 L8.04021142,34.9398332 C7.91216161,34.8139759 7.85379275,34.7593811 7.81964805,34.7313496 L7.80717437,34.7214477 C7.78437993,34.7040535 7.77320997,34.6998455 7.7503906,34.6859375 Z M48.5273438,23.6992188 C47.6859375,22.9898438 46.4210938,23.0964844 45.7085938,23.9375 C45.7080394,23.9381615 45.7072845,23.9390268 45.706312,23.9401137 L45.6977252,23.9494375 C45.6919867,23.955572 45.6839767,23.9640227 45.6732269,23.975272 L45.6479358,24.0016452 C45.3849433,24.2751597 44.1331905,25.5596396 39.1628906,30.66875 C39.1855469,30.8414062 39.1980469,31.015625 39.1980469,31.1914062 C39.1980469,33.3964844 37.4042969,35.1902344 35.1992188,35.1902344 L35.1992188,35.1902344 L27.0425781,35.1902344 C26.490625,35.1902344 26.0429688,34.7429688 26.0429688,34.190625 C26.0429688,33.6386719 26.490625,33.1910156 27.0425781,33.1910156 L27.0425781,33.1910156 L35.1992188,33.1910156 C36.3019531,33.1910156 37.1988281,32.2941406 37.1988281,31.1914062 C37.1988281,30.0761719 36.2832031,29.1921875 35.1992188,29.1921875 L35.1992188,29.1921875 L23.8464844,29.1921875 C23.7085938,29.1921875 23.5722656,29.1636719 23.4457031,29.1082031 C22.05625,28.5003906 20.5757812,28.1921875 19.0445312,28.1921875 C14.7722656,28.1921875 11.3375,30.1453125 9.5070312,33.5792969 L9.5070312,33.5792969 L17.3390625,41.4109375 L18.1886719,40.5910156 C19.1238281,39.6875 20.3566406,39.1894531 21.6589844,39.1894531 L21.6589844,39.1894531 L34.9492188,39.1894531 C36.7664062,39.1894531 38.4855469,38.4976562 39.7949219,37.240625 L39.7949219,37.240625 L48.7617188,26.5210938 C49.4761719,25.6753906 49.3695312,24.4113281 48.5273438,23.6992188 Z M22.1648438,33.3117188 C22.5558594,32.921875 23.1886719,32.921875 23.5792969,33.3117188 C23.9695312,33.7027344 23.9695312,34.3355469 23.5792969,34.7265625 C23.1886719,35.1164062 22.5558594,35.1164062 22.1648438,34.7265625 C21.775,34.3355469 21.775,33.7027344 22.1648438,33.3117188 Z M29.8417969,-1.86517468e-13 C35.9054688,-1.86517468e-13 40.8386719,4.9332031 40.8386719,10.996875 C40.8386719,17.0605469 35.9054688,21.9941406 29.8417969,21.9941406 C23.778125,21.9941406 18.8449219,17.0605469 18.8449219,10.996875 C18.8449219,4.9332031 23.778125,-1.86517468e-13 29.8417969,-1.86517468e-13 Z M29.8417969,1.9996094 C24.8804688,1.9996094 20.8441406,6.0359375 20.8441406,10.996875 C20.8441406,15.9582031 24.8804688,19.9945312 29.8417969,19.9945312 C34.803125,19.9945312 38.8394531,15.9582031 38.8394531,10.996875 C38.8394531,6.0359375 34.803125,1.9996094 29.8417969,1.9996094 Z M29.6417969,3.9988281 C30.19375,3.9988281 30.6414062,4.4464844 30.6414062,4.9988281 L30.6414062,4.9988281 L30.6414062,6.1632812 C31.0984375,6.3148438 31.60625,6.5925781 32.1136719,7.0835938 C32.5101562,7.4675781 32.5207031,8.1003906 32.1367188,8.4972656 C31.7527344,8.89375 31.1199219,8.9042969 30.7230469,8.5203125 C30.3699219,8.1785156 29.9960938,7.9976562 29.6417969,7.9976562 C29.090625,7.9976562 28.6421875,8.4464844 28.6421875,8.9976562 C28.6421875,9.5488281 29.090625,9.9972656 29.6417969,9.9972656 C31.2957031,9.9972656 32.6410156,11.3425781 32.6410156,12.9964844 C32.6410156,14.2996094 31.8050781,15.4109375 30.6414062,15.8238281 L30.6414062,15.8238281 L30.6414062,16.9953125 C30.6414062,17.5476562 30.19375,17.9949219 29.6417969,17.9949219 C29.0898438,17.9949219 28.6421875,17.5476562 28.6421875,16.9953125 L28.6421875,16.9953125 L28.6421875,15.8285156 C27.9761719,15.6050781 27.3476562,15.1621094 26.8132812,14.5265625 C26.4578125,14.1039062 26.5125,13.4734375 26.9351562,13.1179688 C27.3578125,12.7628906 27.9882812,12.8171875 28.34375,13.2398438 C28.7535156,13.7277344 29.2148438,13.9960938 29.6417969,13.9960938 C30.1929688,13.9960938 30.6414062,13.5476562 30.6414062,12.9964844 C30.6414062,12.4453125 30.1929688,11.996875 29.6417969,11.996875 C27.9878906,11.996875 26.6425781,10.6511719 26.6425781,8.9976562 C26.6425781,7.6941406 27.4785156,6.5828125 28.6421875,6.1703125 L28.6421875,6.1703125 L28.6421875,4.9988281 C28.6421875,4.4464844 29.0898438,3.9988281 29.6417969,3.9988281 Z" id="Combined-Shape"></path>
                        </g>
                    </g>
                </g>
            </g>
        </g>
    </g>
</svg>