<?xml version="1.0" encoding="UTF-8"?>
<svg width="47px" height="47px" viewBox="0 0 47 47" version="1.1" xmlns="http://www.w3.org/2000/svg" xmlns:xlink="http://www.w3.org/1999/xlink">
    <title>B5238CD3-A92E-447F-B4CA-F80723802DE2</title>
    <g id="Page-1" stroke="none" stroke-width="1" fill="none" fill-rule="evenodd">
        <g id="Contact-Us" transform="translate(-1344.000000, -727.000000)" fill="#31A1D0" fill-rule="nonzero">
            <g id="call" transform="translate(1344.000000, 727.000000)">
                <path d="M42.38256,30.24624 C39.56136,30.24624 36.79128,29.805 34.16628,28.93752 C32.88,28.4988 31.29876,28.90128 30.51372,29.70756 L25.33248,33.61884 C19.32372,30.41136 15.62244,26.71128 12.45876,20.74764 L16.25496,15.7014 C17.24124,14.71644 17.595,13.27764 17.17116,11.92764 C16.29996,9.28884 15.8574,6.52008 15.8574,3.69768 C15.85752,1.65876 14.19876,0 12.15996,0 L3.69756,0 C1.65876,0 0,1.65876 0,3.69756 C0,27.06756 19.01256,46.08 42.38256,46.08 C44.42136,46.08 46.08012,44.42124 46.08012,42.38244 L46.08012,33.94368 C46.08012,31.905 44.42124,30.24624 42.38256,30.24624 Z" id="Path"></path>
            </g>
        </g>
    </g>
</svg>