<?xml version="1.0" encoding="UTF-8"?>
<svg width="21px" height="15px" viewBox="0 0 21 15" version="1.1" xmlns="http://www.w3.org/2000/svg" xmlns:xlink="http://www.w3.org/1999/xlink">
    <title>credit-card</title>
    <g id="Page-1" stroke="none" stroke-width="1" fill="none" fill-rule="evenodd">
        <g id="Review-and-Payment" transform="translate(-411.000000, -2245.000000)" fill="#282929" fill-rule="nonzero">
            <g id="Group-9" transform="translate(411.000000, 2240.000000)">
                <g id="credit-card" transform="translate(0.000000, 5.000000)">
                    <path d="M18.24,-7.28306304e-14 C19.47512,-7.28306304e-14 20.48,1.00488 20.48,2.24 L20.48,2.24 L20.48,11.84 C20.48,13.07512 19.47512,14.08 18.24,14.08 L18.24,14.08 L2.24,14.08 C1.00488,14.08 -4.07496259e-12,13.07512 -4.07496259e-12,11.84 L-4.07496259e-12,11.84 L-4.07496259e-12,2.24 C-4.07496259e-12,1.00488 1.00488,-7.28306304e-14 2.24,-7.28306304e-14 L2.24,-7.28306304e-14 Z M19.2,4.8 L1.28,4.8 L1.28,11.84 C1.28,12.36932 1.71068,12.8 2.24,12.8 L2.24,12.8 L18.24,12.8 C18.76932,12.8 19.2,12.36932 19.2,11.84 L19.2,11.84 L19.2,4.8 Z M4.48,8.96 C4.83344,8.96 5.12,9.24656 5.12,9.6 L5.12,10.24 C5.12,10.59344 4.83344,10.88 4.48,10.88 L3.84,10.88 C3.48656,10.88 3.2,10.59344 3.2,10.24 L3.2,9.6 C3.2,9.24656 3.48656,8.96 3.84,8.96 L4.48,8.96 Z M18.24,1.28 L2.24,1.28 C1.71068,1.28 1.28,1.71068 1.28,2.24 L1.28,2.24 L1.28,3.52 L19.2,3.52 L19.2,2.24 C19.2,1.71068 18.76932,1.28 18.24,1.28 L18.24,1.28 Z" id="Combined-Shape"></path>
                </g>
            </g>
        </g>
    </g>
</svg>