<?xml version="1.0" encoding="UTF-8"?>
<svg width="21px" height="21px" viewBox="0 0 21 21" version="1.1" xmlns="http://www.w3.org/2000/svg" xmlns:xlink="http://www.w3.org/1999/xlink">
    <title>edit</title>
    <g id="Page-1" stroke="none" stroke-width="1" fill="none" fill-rule="evenodd">
        <g id="Credit-and-payment" transform="translate(-843.000000, -449.000000)" fill="#282929" fill-rule="nonzero">
            <g id="Group-21" transform="translate(391.000000, 424.000000)">
                <g id="edit" transform="translate(452.000000, 25.000000)">
                    <path d="M9.38671876,3.43265624 C9.85859376,3.43265624 10.24,3.815 10.24,4.28609376 C10.24,4.75703124 9.85859376,5.139375 9.38671876,5.139375 L9.38671876,5.139375 L2.56,5.139375 C2.08890624,5.139375 1.70671876,5.5225 1.70671876,5.99265624 L1.70671876,5.99265624 L1.70671876,17.939375 C1.70671876,18.4095312 2.08890624,18.7926562 2.56,18.7926562 L2.56,18.7926562 L14.5067188,18.7926562 C14.9776562,18.7926562 15.36,18.4095312 15.36,17.939375 L15.36,17.939375 L15.36,11.1126562 C15.36,10.6417188 15.7414062,10.259375 16.2132812,10.259375 C16.6851562,10.259375 17.0667188,10.6407812 17.0667188,11.1126562 L17.0667188,11.1126562 L17.0667188,17.939375 C17.0667188,19.3507812 15.918125,20.499375 14.5067188,20.499375 L14.5067188,20.499375 L2.56,20.499375 C1.14859376,20.499375 -2.54374299e-12,19.3507812 -2.54374299e-12,17.939375 L-2.54374299e-12,17.939375 L-2.54374299e-12,5.99265624 C-2.54374299e-12,4.58125 1.14859376,3.43265624 2.56,3.43265624 L2.56,3.43265624 Z M14.7532812,2.73046876 L17.7698438,5.746875 L11.0182812,12.4984375 C10.959375,12.5582812 10.8834375,12.5982812 10.7998438,12.6154688 L10.7998438,12.6154688 L7.78328124,13.21875 C7.75515624,13.2246875 7.726875,13.2271875 7.69968752,13.2271875 C7.58781248,13.2271875 7.47859376,13.18375 7.3975,13.1026562 C7.296875,13.0010938 7.2525,12.856875 7.280625,12.7170312 L7.280625,12.7170312 L7.88390624,9.69953124 C7.90093752,9.61765624 7.94109376,9.54171876 8.00078124,9.48203124 L8.00078124,9.48203124 L14.7532812,2.73046876 Z M16.83875,0.64406248 C17.67,-0.18796876 19.0234375,-0.18796876 19.8553125,0.64406248 C20.258125,1.04671876 20.48,1.58265624 20.48,2.15265624 C20.48,2.72265624 20.258125,3.25859376 19.8553125,3.66046876 L19.8553125,3.66046876 L18.674375,4.84156248 L15.6578125,1.825 Z" id="Combined-Shape"></path>
                </g>
            </g>
        </g>
    </g>
</svg>