<?xml version="1.0" encoding="UTF-8"?>
<svg width="15px" height="12px" viewBox="0 0 15 12" version="1.1" xmlns="http://www.w3.org/2000/svg" xmlns:xlink="http://www.w3.org/1999/xlink">
    <title>C015C0B7-3588-4F6B-AA4A-FC16FD7F4151</title>
    <g id="Page-1" stroke="none" stroke-width="1" fill="none" fill-rule="evenodd">
        <g id="Login" transform="translate(-829.000000, -269.000000)" fill="#7E7E7E" fill-rule="nonzero">
            <g id="Group-3" transform="translate(785.000000, 166.000000)">
                <g id="Group" transform="translate(30.000000, 89.000000)">
                    <g id="email_ic" transform="translate(14.000000, 14.000000)">
                        <path d="M14.9998828,2.2341875 L14.9998828,10.2676875 C14.9998828,11.2182188 14.2749023,11.9915313 13.38375,11.9915313 L13.38375,11.9915313 L1.61619141,11.9915313 C0.725009766,11.9915313 -2.70894418e-13,11.2182188 -2.70894418e-13,10.2676875 L-2.70894418e-13,10.2676875 L-2.70894418e-13,2.2341875 L6.27697266,6.69778125 C6.27703125,6.6978125 6.27706055,6.69784375 6.27711914,6.697875 L6.42971956,6.79491226 C6.74567482,6.97405293 7.12276507,7.06359375 7.49994141,7.06359375 C7.93989258,7.06359375 8.37999023,6.9416875 8.72282227,6.69790625 L8.72282227,6.69790625 L8.72302734,6.69775 L14.9998828,2.2341875 Z M13.3836621,0.00834375 C14.0904199,0.00834375 14.6922949,0.49496875 14.9112598,1.17046875 L14.9112598,1.17046875 L8.23552734,5.9176875 L8.23552734,5.9176875 L8.12159715,5.98688465 C7.7210534,6.19409892 7.120712,6.17105398 6.76464844,5.91784375 L6.76444336,5.91771875 L0.0885644531,1.17046875 C0.307558594,0.49496875 0.909404297,0.00834375 1.61619141,0.00834375 L1.61619141,0.00834375 Z" id="Combined-Shape"></path>
                    </g>
                </g>
            </g>
        </g>
    </g>
</svg>