<?xml version="1.0" encoding="UTF-8"?>
<svg width="28px" height="28px" viewBox="0 0 28 28" version="1.1" xmlns="http://www.w3.org/2000/svg" xmlns:xlink="http://www.w3.org/1999/xlink">
    <title>exchange</title>
    <g id="Page-1" stroke="none" stroke-width="1" fill="none" fill-rule="evenodd">
        <g id="Package-Detail" transform="translate(-745.000000, -2062.000000)" fill="#31A1D0" fill-rule="nonzero">
            <g id="Group-4" transform="translate(643.000000, 2044.000000)">
                <g id="exchange" transform="translate(102.000000, 18.000000)">
                    <path d="M5.2389744,3.6610464 L5.6531376,8.394936 L4.0751568,8.5329552 L3.8935776,6.45744 C2.3943216,8.4921936 1.584,10.9421136 1.584,13.5168 C1.584,16.7041776 2.8252224,19.700736 5.0790432,21.9545568 C7.3328112,24.2083776 10.3294224,25.4496 13.5168,25.4496 L13.5168,25.4496 L13.5168,27.0336 C9.906336,27.0336 6.5119824,25.6275888 3.958944,23.074656 C1.4059584,20.5216176 5.75095527e-12,17.127264 5.75095527e-12,13.5168 C5.75095527e-12,10.5824928 0.9286992,7.7909568 2.6469696,5.4778416 L2.6469696,5.4778416 L0.6430512,5.6531376 L0.505032,4.0751568 L5.2389744,3.6610464 Z M13.5168,-2.20268248e-13 C17.127264,-2.20268248e-13 20.5216176,1.4060112 23.074656,3.958944 C25.6276416,6.5119824 27.0336,9.906336 27.0336,13.5168 C27.0336,16.4511072 26.1049008,19.2426432 24.3865776,21.5557584 L24.3865776,21.5557584 L26.3905488,21.3804096 L26.528568,22.9583904 L21.7946256,23.3725536 L21.3804624,18.638664 L22.9584432,18.5006448 L23.1400224,20.57616 C24.6392784,18.5414064 25.4496,16.0914864 25.4496,13.5168 C25.4496,10.3294224 24.2083776,7.332864 21.9545568,5.0790432 C19.7007888,2.8252224 16.7041776,1.584 13.5168,1.584 L13.5168,1.584 Z M14.3088,5.544 L14.3088,7.1770512 C15.131424,7.2792192 15.9058944,7.5384672 16.6014816,7.9236432 L16.6014816,7.9236432 L17.562336,6.6011088 L18.8438448,7.532184 L17.8818288,8.8563024 C18.4696512,9.4072176 18.9534576,10.0676928 19.300512,10.8048336 L19.300512,10.8048336 L20.8546272,10.2998544 L21.344136,11.8062912 L19.7909712,12.3109536 C19.8658944,12.7016208 19.9056,13.1046432 19.9056,13.5168 C19.9056,13.9289568 19.8658944,14.3319792 19.7909712,14.7226464 L19.7909712,14.7226464 L21.344136,15.2273088 L20.8546272,16.7337456 L19.300512,16.2287664 C18.9535104,16.96596 18.4696512,17.6263824 17.8818288,18.1772976 L17.8818288,18.1772976 L18.8438448,19.501416 L17.562336,20.4324912 L16.6014816,19.1099568 C15.9058944,19.49508 15.131424,19.7543808 14.3088,19.8565488 L14.3088,19.8565488 L14.3088,21.4896 L12.7248,21.4896 L12.7248,19.8565488 C11.902176,19.7543808 11.1277056,19.4951328 10.4321184,19.1099568 L10.4321184,19.1099568 L9.471264,20.4324912 L8.1897552,19.501416 L9.1517712,18.1772976 C8.5639488,17.6263824 8.0801424,16.9659072 7.733088,16.2287664 L7.733088,16.2287664 L6.1789728,16.7337456 L5.689464,15.2273088 L7.2426288,14.7226464 C7.1677056,14.3319792 7.128,13.9289568 7.128,13.5168 C7.128,13.1046432 7.1677056,12.7016208 7.2426288,12.3109536 L7.2426288,12.3109536 L5.689464,11.8062912 L6.1789728,10.2998544 L7.733088,10.8048336 C8.0800896,10.06764 8.5639488,9.4072176 9.1517712,8.8563024 L9.1517712,8.8563024 L8.1897552,7.532184 L9.471264,6.6011088 L10.4321184,7.9236432 C11.1277056,7.53852 11.902176,7.2792192 12.7248,7.1770512 L12.7248,7.1770512 L12.7248,5.544 L14.3088,5.544 Z M13.5168,9.504 C11.3041104,9.504 9.504,11.3041632 9.504,13.5168 C9.504,15.7294368 11.3041104,17.5296 13.5168,17.5296 C15.7294896,17.5296 17.5296,15.7294368 17.5296,13.5168 C17.5296,11.3041632 15.7294896,9.504 13.5168,9.504 Z M13.5168,11.088 C14.8581892,11.088 15.9456,12.1754108 15.9456,13.5168 C15.9456,14.8581892 14.8581892,15.9456 13.5168,15.9456 C12.1754108,15.9456 11.088,14.8581892 11.088,13.5168 C11.088,12.1754108 12.1754108,11.088 13.5168,11.088 Z" id="Combined-Shape"></path>
                </g>
            </g>
        </g>
    </g>
</svg>