<?xml version="1.0" encoding="UTF-8"?>
<svg width="45px" height="45px" viewBox="0 0 45 45" version="1.1" xmlns="http://www.w3.org/2000/svg" xmlns:xlink="http://www.w3.org/1999/xlink">
    <title>CB9FE85B-FC3C-4223-8BBB-6BA0BB6708E5</title>
    <g id="Page-1" stroke="none" stroke-width="1" fill="none" fill-rule="evenodd">
        <g id="Travel-Insurance" transform="translate(-1330.000000, -2484.000000)" fill-rule="nonzero">
            <g id="Footer" transform="translate(0.000000, 2246.000000)">
                <g id="Group-15" transform="translate(1220.000000, 238.000000)">
                    <g id="linkedin_ic" transform="translate(110.000000, 0.000000)">
                        <circle id="Oval" fill="#F2F2F2" cx="22.5" cy="22.5" r="22.5"></circle>
                        <g id="in_icon" transform="translate(13.000000, 13.000000)" fill="#7C7C7C">
                            <path d="M18.9668789,11.0355721 L18.9668789,17.9817642 L14.9000459,17.9817642 L14.9000459,11.497559 C14.9000459,9.86730131 14.3136639,8.75931878 12.8421357,8.75931878 C11.7167724,8.75931878 11.0529228,9.50946288 10.7565783,10.2313886 C10.6498768,10.4913668 10.6174697,10.8554541 10.6174697,11.2148646 L10.6174697,17.9809389 L6.55464301,17.9809389 C6.55464301,17.9809389 6.60918372,7.00298253 6.55464301,5.86603493 L10.6183027,5.86603493 L10.6183027,7.58318777 C10.6127891,7.59729694 10.600929,7.60900873 10.5953758,7.62468996 L10.6183027,7.62468996 L10.6183027,7.58318777 C11.1612109,6.75789956 12.1229916,5.58176856 14.2828434,5.58176856 C16.9635094,5.58176856 18.9668789,7.31306987 18.9668789,11.0355721 Z M2.30050731,0.024720524 C0.910413361,0.024720524 0,0.928336245 0,2.12010917 C0,3.27977293 0.883559499,4.21392576 2.24834656,4.21392576 L2.27286013,4.21392576 C3.69377453,4.21392576 4.57416075,3.27977293 4.57416075,2.12010917 C4.54651357,0.928336245 3.6938142,0.024720524 2.30050731,0.024720524 Z M0.242636743,17.9817249 L4.30708977,17.9817249 L4.30708977,5.86528821 L0.242636743,5.86528821 L0.242636743,17.9817249 Z" id="LinkedIn_3_"></path>
                        </g>
                    </g>
                </g>
            </g>
        </g>
    </g>
</svg>