<?xml version="1.0" encoding="UTF-8"?>
<svg width="45px" height="45px" viewBox="0 0 45 45" version="1.1" xmlns="http://www.w3.org/2000/svg" xmlns:xlink="http://www.w3.org/1999/xlink">
    <title>A783BC85-4003-4DA1-A28B-FC6A90ECD28B</title>
    <g id="Page-1" stroke="none" stroke-width="1" fill="none" fill-rule="evenodd">
        <g id="Travel-Insurance" transform="translate(-1385.000000, -2484.000000)">
            <g id="Footer" transform="translate(0.000000, 2246.000000)">
                <g id="Group-15" transform="translate(1220.000000, 238.000000)">
                    <g id="youtube-ic" transform="translate(165.000000, 0.000000)">
                        <circle id="Oval" fill="#F2F2F2" fill-rule="nonzero" cx="22.5" cy="22.5" r="22.5"></circle>
                        <g id="youtube_icon" transform="translate(12.000000, 15.000000)" fill="#7C7C7C">
                            <path d="M10.6617904,0.000724010943 C13.1005295,0.00606313131 15.7222917,0.0412575758 16.82,0.117090909 C18.01875,0.185818182 18.6075,0.366545455 19.15,1.34909091 C19.715,2.33036364 20,4.02054545 20,6.99745455 L20,6.99745455 L20,7.00763636 C20,9.97054545 19.715,11.6734545 19.15125,12.6445455 C18.60875,13.6270909 18.02,13.8052727 16.82125,13.888 C15.8722396,13.9434167 13.78727,13.9812847 11.665349,13.9946578 L10.9953223,13.9980586 C10.6609766,13.9993437 10.3285938,14 10.0025,14 C9.67578125,14 9.34283203,13.9993437 9.00797607,13.9980561 L8.00201172,13.9923239 C5.9959375,13.9771705 4.076875,13.9401818 3.17875,13.8867273 C1.9825,13.804 1.39375,13.6258182 0.84625,12.6432727 C0.2875,11.6721818 0,9.96927273 0,7.00636364 L0,7.00636364 L0,6.99618182 C0,4.02054545 0.2875,2.33036364 0.84625,1.34909091 C1.39375,0.365272727 1.98375,0.185818182 3.18,0.115818182 C4.0771875,0.0547272727 5.99601563,0.020125 8.00203125,0.00664204545 L8.67265046,0.00292255892 L8.67265046,0.00292255892 L9.34203704,0.000723274411 L9.34203704,0.000723274411 Z M7.5,3.18181818 L7.5,10.8181818 L13.75,7 L7.5,3.18181818 Z" id="Combined-Shape"></path>
                        </g>
                    </g>
                </g>
            </g>
        </g>
    </g>
</svg>