<?xml version="1.0" encoding="UTF-8"?>
<svg width="45px" height="45px" viewBox="0 0 45 45" version="1.1" xmlns="http://www.w3.org/2000/svg" xmlns:xlink="http://www.w3.org/1999/xlink">
    <title>AE86E158-EC8D-4B7E-8376-4B121A91C10D</title>
    <g id="Page-1" stroke="none" stroke-width="1" fill="none" fill-rule="evenodd">
        <g id="Travel-Insurance" transform="translate(-1220.000000, -2484.000000)">
            <g id="Footer" transform="translate(0.000000, 2246.000000)">
                <g id="fb_ic" transform="translate(1220.000000, 238.000000)">
                    <circle id="Oval" fill="#F2F2F2" fill-rule="nonzero" cx="22.5" cy="22.5" r="22.5"></circle>
                    <g id="fb_icon" transform="translate(18.000000, 13.000000)" fill="#7C7C7C">
                        <path d="M5.99404091,6.21917197 L5.99404091,4.58376008 C5.99404091,4.33825265 6.00549545,4.1480913 6.02877273,4.01376008 C6.05196818,3.87922718 6.10474091,3.74691295 6.18664091,3.61629299 C6.26841818,3.48575372 6.40084091,3.39563482 6.58370455,3.34569427 C6.76681364,3.29567304 7.01014091,3.2707431 7.31393182,3.2707431 L8.97234545,3.2707431 L8.97234545,0 L6.32106818,0 C4.78697727,0 3.68517273,0.358902335 3.01549091,1.07670701 C2.34589091,1.79467304 2.01113182,2.85221868 2.01113182,4.24974735 L2.01113182,6.21913163 L0.0253227273,6.21913163 L0.0253227273,9.49011677 L2.01100909,9.49011677 L2.01100909,18.9802739 L5.994,18.9802739 L5.994,9.49015711 L8.64511364,9.49015711 L8.99554091,6.21917197 L5.99404091,6.21917197 Z" id="Path"></path>
                    </g>
                </g>
            </g>
        </g>
    </g>
</svg>