<?xml version="1.0" encoding="UTF-8"?>
<svg width="198px" height="147px" viewBox="0 0 198 147" version="1.1" xmlns="http://www.w3.org/2000/svg" xmlns:xlink="http://www.w3.org/1999/xlink">
    <title>undraw_forgot_password_gi2d(1)</title>
    <defs>
        <linearGradient x1="49.9987036%" y1="99.9974619%" x2="49.9987036%" y2="-0.00636991182%" id="linearGradient-1">
            <stop stop-color="#808080" stop-opacity="0.25" offset="0%"></stop>
            <stop stop-color="#808080" stop-opacity="0.12" offset="54%"></stop>
            <stop stop-color="#808080" stop-opacity="0.1" offset="100%"></stop>
        </linearGradient>
    </defs>
    <g id="Page-1" stroke="none" stroke-width="1" fill="none" fill-rule="evenodd">
        <g id="Forgot-Password" transform="translate(-862.000000, -254.000000)">
            <g id="Group-3" transform="translate(785.000000, 166.000000)">
                <g id="undraw_forgot_password_gi2d(1)" transform="translate(77.000000, 88.000000)">
                    <g id="Group" opacity="0.1" transform="translate(150.660000, 86.040000)">
                        <path d="M7.6428,17.667 C7.6428,17.667 -6.4548,15.8364 4.059,38.6532 C4.059,38.6532 13.6404,34.5474 14.022,25.2864 C14.1825999,21.5561087 11.5279236,18.2951795 7.8426,17.6958 L7.6428,17.667 Z" id="Path" fill="#31A1D0" fill-rule="nonzero"></path>
                        <path d="M7.8498,17.6328 C7.8498,17.6328 11.0412,30.3552 4.0698,38.655" id="Path" stroke="#535461" stroke-width="0.5"></path>
                        <path d="M3.879,39.8304 C3.879,39.8304 8.955,27.3204 18.4338,22.68 C22.4250534,20.7590173 25.6849807,17.5944686 27.7236,13.662 C28.6762683,11.7889682 29.4553245,9.83259119 30.051,7.8174" id="Path" stroke="#535461" stroke-width="0.5"></path>
                        <path d="M36.0072,4.86 C35.019,6.102 29.9052,7.92 29.9052,7.92 C29.9052,7.92 30.5208,2.52 31.509,1.287 C32.12326,0.409937218 33.1733961,-0.0539325837 34.2354189,0.0826766188 C35.2974417,0.219285821 36.1959985,0.933818204 36.5682997,1.93778349 C36.940601,2.94174877 36.7251752,4.0693802 36.009,4.8654 L36.0072,4.86 Z" id="Path" fill="#31A1D0" fill-rule="nonzero"></path>
                        <path d="M34.2522,14.697 C32.7474,15.2028 27.4698,13.9446 27.4698,13.9446 C27.4698,13.9446 30.9168,9.7542 32.4216,9.2484 C33.4149396,8.84128942 34.5522627,9.02045586 35.3723323,9.71323907 C36.1924018,10.4060223 36.5590853,11.4974194 36.3236756,12.5448185 C36.088266,13.5922176 35.2898414,14.4217493 34.2522,14.697 Z" id="Path" fill="#31A1D0" fill-rule="nonzero"></path>
                        <path d="M24.7374,26.3268 C23.184,26.0046 19.2618,22.2534 19.2618,22.2534 C19.2618,22.2534 24.3522,20.376 25.9074,20.6982 C27.3677033,21.1051995 28.2624939,22.5745586 27.9538763,24.058772 C27.6452587,25.5429854 26.2389033,26.5338591 24.7374,26.325 L24.7374,26.3268 Z" id="Path" fill="#31A1D0" fill-rule="nonzero"></path>
                        <path d="M15.5574,33.5052 C13.9716,33.4494 9.4716,30.4164 9.4716,30.4164 C9.4716,30.4164 14.1732,27.702 15.759,27.7596 C17.2676993,27.9131174 18.3988734,29.2102706 18.3456793,30.7258271 C18.2924853,32.2413836 17.0731499,33.4560369 15.5574,33.5034 L15.5574,33.5052 Z" id="Path" fill="#31A1D0" fill-rule="nonzero"></path>
                        <path d="M22.5558,10.422 C22.7592,11.997 26.1954,16.1946 26.1954,16.1946 C26.1954,16.1946 28.458,11.2626 28.2564,9.6876 C28.1890165,8.61584281 27.53094,7.67059179 26.5491993,7.23540313 C25.5674586,6.80021447 24.4251333,6.94737857 23.5857469,7.61718038 C22.7463605,8.2869822 22.3493458,9.3681591 22.5558,10.422 L22.5558,10.422 Z" id="Path" fill="#31A1D0" fill-rule="nonzero"></path>
                        <path d="M11.925,18.9612 C12.5892,20.4012 17.1252,23.3802 17.1252,23.3802 C17.1252,23.3802 17.8092,17.9964 17.145,16.5564 C16.759326,15.5548513 15.8487393,14.8508371 14.7823535,14.7297353 C13.7159678,14.6086334 12.670705,15.0905356 12.0702708,15.9800989 C11.4698366,16.8696623 11.4138478,18.0193011 11.925,18.963 L11.925,18.9612 Z" id="Path" fill="#31A1D0" fill-rule="nonzero"></path>
                        <path d="M2.7306,28.6704 C3.141,30.204 7.11,33.9048 7.11,33.9048 C7.11,33.9048 8.694,28.7154 8.2818,27.1818 C8.07290496,26.1277244 7.29455555,25.2776129 6.2629412,24.9768068 C5.23132685,24.6760007 4.1180461,24.9745361 3.37534777,25.7511388 C2.63264945,26.5277414 2.38407384,27.6532313 2.7306,28.6704 Z" id="Path" fill="#31A1D0" fill-rule="nonzero"></path>
                        <path d="M36.0072,4.86 C35.019,6.102 29.9052,7.92 29.9052,7.92 C29.9052,7.92 30.5208,2.52 31.509,1.287 C32.12326,0.409937218 33.1733961,-0.0539325837 34.2354189,0.0826766188 C35.2974417,0.219285821 36.1959985,0.933818204 36.5682997,1.93778349 C36.940601,2.94174877 36.7251752,4.0693802 36.009,4.8654 L36.0072,4.86 Z" id="Path" fill="#000000" fill-rule="nonzero" opacity="0.25"></path>
                        <path d="M34.2522,14.697 C32.7474,15.2028 27.4698,13.9446 27.4698,13.9446 C27.4698,13.9446 30.9168,9.7542 32.4216,9.2484 C33.4149396,8.84128942 34.5522627,9.02045586 35.3723323,9.71323907 C36.1924018,10.4060223 36.5590853,11.4974194 36.3236756,12.5448185 C36.088266,13.5922176 35.2898414,14.4217493 34.2522,14.697 Z" id="Path" fill="#000000" fill-rule="nonzero" opacity="0.25"></path>
                        <path d="M24.7374,26.3268 C23.184,26.0046 19.2618,22.2534 19.2618,22.2534 C19.2618,22.2534 24.3522,20.376 25.9074,20.6982 C27.3677033,21.1051995 28.2624939,22.5745586 27.9538763,24.058772 C27.6452587,25.5429854 26.2389033,26.5338591 24.7374,26.325 L24.7374,26.3268 Z" id="Path" fill="#000000" fill-rule="nonzero" opacity="0.25"></path>
                        <path d="M15.5574,33.5052 C13.9716,33.4494 9.4716,30.4164 9.4716,30.4164 C9.4716,30.4164 14.1732,27.702 15.759,27.7596 C17.2676993,27.9131174 18.3988734,29.2102706 18.3456793,30.7258271 C18.2924853,32.2413836 17.0731499,33.4560369 15.5574,33.5034 L15.5574,33.5052 Z" id="Path" fill="#000000" fill-rule="nonzero" opacity="0.25"></path>
                        <path d="M22.5558,10.422 C22.7592,11.997 26.1954,16.1946 26.1954,16.1946 C26.1954,16.1946 28.458,11.2626 28.2564,9.6876 C28.1890165,8.61584281 27.53094,7.67059179 26.5491993,7.23540313 C25.5674586,6.80021447 24.4251333,6.94737857 23.5857469,7.61718038 C22.7463605,8.2869822 22.3493458,9.3681591 22.5558,10.422 L22.5558,10.422 Z" id="Path" fill="#000000" fill-rule="nonzero" opacity="0.25"></path>
                        <path d="M11.925,18.9612 C12.5892,20.4012 17.1252,23.3802 17.1252,23.3802 C17.1252,23.3802 17.8092,17.9964 17.145,16.5564 C16.759326,15.5548513 15.8487393,14.8508371 14.7823535,14.7297353 C13.7159678,14.6086334 12.670705,15.0905356 12.0702708,15.9800989 C11.4698366,16.8696623 11.4138478,18.0193011 11.925,18.963 L11.925,18.9612 Z" id="Path" fill="#000000" fill-rule="nonzero" opacity="0.25"></path>
                        <path d="M2.7306,28.6704 C3.141,30.204 7.11,33.9048 7.11,33.9048 C7.11,33.9048 8.694,28.7154 8.2818,27.1818 C8.07290496,26.1277244 7.29455555,25.2776129 6.2629412,24.9768068 C5.23132685,24.6760007 4.1180461,24.9745361 3.37534777,25.7511388 C2.63264945,26.5277414 2.38407384,27.6532313 2.7306,28.6704 Z" id="Path" fill="#000000" fill-rule="nonzero" opacity="0.25"></path>
                        <path d="M10.6398,45.522 C10.6398,45.522 15.7158,33.012 25.1946,28.3716 C29.1841222,26.4492003 32.442085,23.2840876 34.479,19.3518 C35.4316683,17.4787682 36.2107245,15.5223912 36.8064,13.5072" id="Path" stroke="#535461" stroke-width="0.5"></path>
                        <path d="M42.759,10.548 C41.7708,11.79 36.657,13.608 36.657,13.608 C36.657,13.608 37.2726,8.208 38.2608,6.975 C39.2791594,5.84310628 41.0026102,5.69943341 42.194328,6.64708737 C43.3860457,7.59474134 43.6342419,9.3062679 42.7608,10.5534 L42.759,10.548 Z" id="Path" fill="#31A1D0" fill-rule="nonzero"></path>
                        <path d="M41.0076,20.385 C39.5028,20.8908 34.2252,19.6326 34.2252,19.6326 C34.2252,19.6326 37.6722,15.4422 39.177,14.9364 C40.6443919,14.5471512 42.1619624,15.3638077 42.6454626,16.8028981 C43.1289627,18.2419885 42.4123421,19.8092801 41.0076,20.385 Z" id="Path" fill="#31A1D0" fill-rule="nonzero"></path>
                        <path d="M31.4928,32.022 C29.9394,31.6998 26.0172,27.9486 26.0172,27.9486 C26.0172,27.9486 31.1076,26.0712 32.6628,26.3934 C34.1231033,26.8003995 35.0178939,28.2697586 34.7092763,29.753972 C34.4006587,31.2381854 32.9943033,32.2290591 31.4928,32.0202 L31.4928,32.022 Z" id="Path" fill="#31A1D0" fill-rule="nonzero"></path>
                        <path d="M22.311,39.1914 C20.7252,39.1356 16.2252,36.1026 16.2252,36.1026 C16.2252,36.1026 20.9268,33.3918 22.5126,33.4476 C24.0212993,33.6011174 25.1524734,34.8982706 25.0992793,36.4138271 C25.0460853,37.9293836 23.8267499,39.1440369 22.311,39.1914 L22.311,39.1914 Z" id="Path" fill="#31A1D0" fill-rule="nonzero"></path>
                        <path d="M29.3094,16.1172 C29.5128,17.6922 32.949,21.8898 32.949,21.8898 C32.949,21.8898 35.2116,16.9578 35.01,15.3828 C34.9426165,14.3110428 34.28454,13.3657918 33.3027993,12.9306031 C32.3210586,12.4954145 31.1787333,12.6425786 30.3393469,13.3123804 C29.4999605,13.9821822 29.1029458,15.0633591 29.3094,16.1172 L29.3094,16.1172 Z" id="Path" fill="#31A1D0" fill-rule="nonzero"></path>
                        <path d="M18.6804,24.642 C19.3446,26.082 23.8806,29.061 23.8806,29.061 C23.8806,29.061 24.5646,23.6772 23.9004,22.2372 C23.1771338,20.9018922 21.541314,20.3576229 20.1622181,20.9934337 C18.7831221,21.6292445 18.1346819,23.2266364 18.6804,24.6438 L18.6804,24.642 Z" id="Path" fill="#31A1D0" fill-rule="nonzero"></path>
                        <path d="M9.486,34.362 C9.8964,35.8956 13.8654,39.5964 13.8654,39.5964 C13.8654,39.5964 15.4494,34.407 15.0372,32.8734 C14.5481771,31.4379564 13.0298246,30.62764 11.5651163,31.0204136 C10.1004079,31.4131872 9.1912042,32.8744728 9.486,34.362 L9.486,34.362 Z" id="Path" fill="#31A1D0" fill-rule="nonzero"></path>
                    </g>
                    <path d="M2.313,77.5746 C5.4378,90.9306 12.0528,102.4758 22.5072,108.072 C44.2332,119.7018 93.231,113.7042 129.7998,106.812 C148.276713,103.342253 165.04852,93.7558272 177.4152,79.596 L2.313,77.5746 Z" id="Path" fill="#31A1D0" fill-rule="nonzero" opacity="0.1"></path>
                    <path d="M194.076,14.7078 L174.0114,14.7078 C173.053573,14.7078 172.2771,13.9313274 172.2771,12.9735 C172.2771,12.0156726 173.053573,11.2392 174.0114,11.2392 L177.48,11.2392 C176.522173,11.2392 175.7457,10.4627274 175.7457,9.5049 C175.7457,8.54707256 176.522173,7.7706 177.48,7.7706 L175.0032,7.7706 C174.045373,7.7706 173.2689,6.99412744 173.2689,6.0363 C173.2689,5.07847256 174.045373,4.302 175.0032,4.302 L185.4756,4.302 C183.1518,3.222 180.4356,2.4534 177.3072,2.0502 C148.752,-1.6182 138.5568,0.8082 134.9604,3.3102 C130.5234,6.3882 125.5734,8.6526 120.2832,9.7434 C102.663,13.374 69.714,17.748 39.8502,8.3394 C25.0074,3.6594 13.9752,11.565 7.3638,24.7698 L197.559,24.7698 C197.3106,20.9322 196.5672,17.3898 195.2028,14.2866 C194.889936,14.5577057 194.489983,14.7072093 194.076,14.7078 Z" id="Path" fill="#31A1D0" fill-rule="nonzero" opacity="0.1"></path>
                    <path d="M0.6102,49.698 C-0.160107526,57.4659389 0.101971971,65.3016921 1.3896,73.0008 L177.552,79.443 C182.455806,73.8019847 186.57321,67.5229436 189.792,60.777 L0.6102,49.698 Z M70.2846,66.321 L66.816,66.321 C67.7738274,66.321 68.5503,67.0974726 68.5503,68.0553 C68.5503,69.0131274 67.7738274,69.7896 66.816,69.7896 L46.7514,69.7896 C45.7935726,69.7896 45.0171,69.0131274 45.0171,68.0553 C45.0171,67.0974726 45.7935726,66.321 46.7514,66.321 L50.22,66.321 C49.2621726,66.321 48.4857,65.5445274 48.4857,64.5867 C48.4857,63.6288726 49.2621726,62.8524 50.22,62.8524 L47.7432,62.8524 C46.7853726,62.8524 46.0089,62.0759274 46.0089,61.1181 C46.0089,60.1602726 46.7853726,59.3838 47.7432,59.3838 L67.8078,59.3838 C68.7656274,59.3838 69.5421,60.1602726 69.5421,61.1181 C69.5421,62.0759274 68.7656274,62.8524 67.8078,62.8524 L70.2846,62.8524 C71.2424274,62.8524 72.0189,63.6288726 72.0189,64.5867 C72.0189,65.5445274 71.2424274,66.321 70.2846,66.321 L70.2846,66.321 Z" id="Shape" fill="#31A1D0" fill-rule="nonzero" opacity="0.1"></path>
                    <path d="M197.568,24.8904 L5.2398,29.5704 C2.9016,35.5842 1.359,42.3828 0.639,49.4298 L194.1984,49.4298 C195.462184,45.2902154 196.396893,41.0572416 196.9938,36.7704 C197.5698,32.6286 197.8002,28.6218 197.568,24.8904 Z M39.6846,40.221 L36.216,40.221 C37.1738274,40.221 37.9503,40.9974726 37.9503,41.9553 C37.9503,42.9131274 37.1738274,43.6896 36.216,43.6896 L16.1514,43.6896 C15.1935726,43.6896 14.4171,42.9131274 14.4171,41.9553 C14.4171,40.9974726 15.1935726,40.221 16.1514,40.221 L19.62,40.221 C18.6621726,40.221 17.8857,39.4445274 17.8857,38.4867 C17.8857,37.5288726 18.6621726,36.7524 19.62,36.7524 L17.1432,36.7524 C16.1853726,36.7524 15.4089,35.9759274 15.4089,35.0181 C15.4089,34.0602726 16.1853726,33.2838 17.1432,33.2838 L37.2078,33.2838 C38.1656274,33.2838 38.9421,34.0602726 38.9421,35.0181 C38.9421,35.9759274 38.1656274,36.7524 37.2078,36.7524 L39.6846,36.7524 C40.6424274,36.7524 41.4189,37.5288726 41.4189,38.4867 C41.4189,39.4445274 40.6424274,40.221 39.6846,40.221 Z" id="Shape" fill="#31A1D0" fill-rule="nonzero" opacity="0.1"></path>
                    <path d="M169.1424,146.214 C169.1424,146.214 161.1216,102.222 145.827,95.0832 C132.867,89.0298 118.8522,84.9492 114.867,83.8422 C114.271911,82.8836371 113.584001,81.9859173 112.8132,81.162 C107.3664,75.4758 104.094,75.582 103.5648,75.6522 C103.313632,74.5245811 103.133279,73.3823487 103.0248,72.2322 C103.0086,72.0522 102.9924,71.8848 102.978,71.7066 L103.0248,71.6832 C102.9924,71.343 102.9636,70.992 102.9384,70.6302 C105.161869,69.4435209 107.208984,67.9525616 109.0206,66.2004 C109.044,66.2778 109.0638,66.3552 109.089,66.4344 C113.0142,63.1164 116.8584,59.7084 120.6216,56.2104 C121.7016,55.2006 122.8356,54.1044 123.2028,52.6806 C123.320395,52.1906224 123.365874,51.6861089 123.3378,51.183 C123.3864,50.103 123.1308,48.9996 123.0876,47.9052 C123.0876,47.7252 123.1074,47.5578 123.1308,47.3868 C123.3828,45.5958 124.6284,44.1252 125.6508,42.6222 C128.205106,38.8239589 129.538383,34.3361605 129.4722,29.7594 C129.500168,27.5664064 129.196746,25.3817667 128.5722,23.2794 C127.7748,20.6118 126.1152,17.8092 123.3522,17.226 C122.283,17.001 121.1724,17.1414 120.0816,17.0712 C115.5654,16.7832 112.185,13.1112 108.5832,10.4202 C104.187254,7.15177975 98.9886669,5.13404614 93.5388,4.581 C91.8378,4.401 90.081,4.3884 88.4628,4.9284 C84.8286,6.138 82.6218,9.873 79.1208,11.4084 C76.5324,12.5496 73.5408,12.3642 70.8408,13.221 C66.8214,14.499 63.4104,18.621 63.3204,22.8564 C63.3204,23.013 63.3204,23.1696 63.3204,23.3262 C63.3204,23.3532 63.3204,23.3802 63.3204,23.4054 C63.2754,25.5456 64.0404,27.7254 64.1016,29.916 C64.1016,30.114 64.1046,30.3126 64.1106,30.5118 C64.0908,32.877 63.8082,35.2494 62.946,37.4724 C62.4816,38.6694 61.884,40.0554 61.9812,41.2524 C61.9272,41.985 62.0694,42.6726 62.5788,43.2324 L63.4482,42.4656 C63.1566242,44.0436997 63.0102125,45.6451901 63.0108,47.25 C63.0108,55.3392 66.69,62.5824 72.4932,67.4568 C72.5268,67.9956 72.5592,68.5728 72.5904,69.1884 C72.7272,71.856 72.8352,75.2022 72.8046,78.849 L64.3158,86.652 L42.4926,96.552 C42.4926,96.552 22.5342,100.7676 26.8326,128.8062 L28.8846,146.2158 L47.106,146.2158 L47.0646,146.3076 L74.1096,146.3076 L74.1258,146.2158 L138.4722,146.2158 L138.4596,146.3076 L140.9796,146.3076 L140.9796,146.2158 L169.1424,146.214 Z M103.725,76.0986 C104.276621,77.239628 104.710852,78.4337633 105.021,79.6626 C104.384144,78.4800952 103.913506,77.2153676 103.6224,75.9042 L103.6494,75.9528 L103.725,76.0986 Z M72.7974,79.6986 C72.7974,80.0418 72.7914,80.388 72.7794,80.7372 L72.7362,80.7984 C72.7332893,80.4278814 72.7537298,80.0575476 72.7974,79.6896 L72.7974,79.6986 Z" id="Shape" fill="url(#linearGradient-1)" fill-rule="nonzero"></path>
                    <path d="M110.844,84.114 L107.244,118.494 L87.984,124.614 C87.984,124.614 62.964,119.934 69.444,106.434 C74.0538,96.831 73.926,79.6698 73.4688,70.5618 C73.2888,66.8646 73.044,64.494 73.044,64.494 C73.044,64.494 105.804,35.874 103.104,61.614 C102.582,66.5982 102.5514,70.4952 102.8412,73.5408 C104.0562,86.22 110.844,84.114 110.844,84.114 Z" id="Path" fill="#FDC2CC" fill-rule="nonzero"></path>
                    <path d="M110.844,84.114 L107.244,118.494 L87.984,124.614 C87.984,124.614 62.964,119.934 69.444,106.434 C74.0538,96.831 73.926,79.6698 73.4688,70.5618 C73.2888,66.8646 73.044,64.494 73.044,64.494 C73.044,64.494 105.804,35.874 103.104,61.614 C102.582,66.5982 102.5514,70.4952 102.8412,73.5408 C104.0562,86.22 110.844,84.114 110.844,84.114 Z" id="Path" fill="#000000" fill-rule="nonzero" opacity="0.03"></path>
                    <path d="M103.104,61.074 C102.582,66.0582 102.5514,69.9552 102.8412,73.0008 C93.3747179,78.1689812 81.7048554,76.9854034 73.4688,70.0218 C73.2888,66.3246 73.044,63.954 73.044,63.954 C73.044,63.954 105.804,35.334 103.104,61.074 Z" id="Path" fill="#000000" fill-rule="nonzero" opacity="0.1"></path>
                    <circle id="Oval" fill="#FDC2CC" fill-rule="nonzero" cx="90.324" cy="49.0158" r="26.1"></circle>
                    <circle id="Oval" fill="#000000" fill-rule="nonzero" opacity="0.03" cx="90.324" cy="49.0158" r="26.1"></circle>
                    <path d="M166.644,146.214 L31.284,146.214 L29.304,129.114 C25.164,101.574 44.424,97.434 44.424,97.434 L65.484,87.714 L73.854,79.884 C71.154,90.144 91.584,111.474 91.584,111.474 L91.584,111.474 C91.7152712,111.352 91.8396629,111.222801 91.9566,111.087 C92.5074,110.4858 93.8232,108.981 96.9048,105.2478 C98.0064,103.9104 99.3366,102.2886 100.9386,100.3194 C108.6426,90.8514 104.6898,79.6644 103.509,77.3514 L103.4352,77.2074 C103.3902,77.1246 103.356,77.058 103.329,77.0112 C103.321559,76.9941819 103.312518,76.9779089 103.302,76.9626 C103.294546,76.9510898 103.287929,76.9390589 103.2822,76.9266 L113.1822,84.6666 C113.1822,84.6666 113.562,84.7674 114.2622,84.9654 C118.1142,86.0454 131.6466,90.0612 144.1422,96.0066 C158.904,103.014 166.644,146.214 166.644,146.214 Z" id="Path" fill="#31A1D0" fill-rule="nonzero"></path>
                    <path d="M120.564,104.994 C118.944,103.374 107.964,101.394 107.964,101.394 C108.324,105.714 95.004,112.374 95.004,112.374 L95.994,146.214 L89.6076,146.214 L88.5276,115.794 L91.5876,111.474 L91.5876,111.474 L91.9602,111.087 C93.7334142,109.248999 95.3862444,107.298551 96.9084,105.2478 C98.01,103.9104 99.3402,102.2886 100.9422,100.3194 C108.6462,90.8514 104.6934,79.6644 103.5126,77.3514 L103.4388,77.2074 C103.3956,77.1228 103.3614,77.058 103.3326,77.0112 C103.325159,76.9941819 103.316118,76.9779089 103.3056,76.9626 C103.298146,76.9510898 103.291529,76.9390589 103.2858,76.9266 L103.2858,76.9266 C103.2858,76.9266 106.5258,76.2066 112.2858,82.3266 C113.030403,83.1394194 113.693571,84.0232418 114.2658,84.9654 C118.9458,92.475 121.9914,106.4214 120.564,104.994 Z" id="Path" fill="#31A1D0" fill-rule="nonzero"></path>
                    <path d="M120.564,104.994 C118.944,103.374 107.964,101.394 107.964,101.394 C108.324,105.714 95.004,112.374 95.004,112.374 L95.994,146.214 L89.6076,146.214 L88.5276,115.794 L91.5876,111.474 L91.5876,111.474 L91.9602,111.087 C93.7334142,109.248999 95.3862444,107.298551 96.9084,105.2478 C98.01,103.9104 99.3402,102.2886 100.9422,100.3194 C108.6462,90.8514 104.6934,79.6644 103.5126,77.3514 L103.4388,77.2074 C103.3956,77.1228 103.3614,77.058 103.3326,77.0112 C103.325159,76.9941819 103.316118,76.9779089 103.3056,76.9626 C103.298146,76.9510898 103.291529,76.9390589 103.2858,76.9266 L103.2858,76.9266 C103.2858,76.9266 106.5258,76.2066 112.2858,82.3266 C113.030403,83.1394194 113.693571,84.0232418 114.2658,84.9654 C118.9458,92.475 121.9914,106.4214 120.564,104.994 Z" id="Path" fill="#000000" fill-rule="nonzero" opacity="0.1"></path>
                    <path d="M47.304,118.854 C47.304,118.854 55.764,136.134 56.214,146.304" id="Path" fill="#000000" fill-rule="nonzero" opacity="0.1"></path>
                    <polygon id="Path" fill="#000000" fill-rule="nonzero" opacity="0.1" points="139.464 128.7558 137.034 146.3058 139.464 146.3058"></polygon>
                    <path d="M49.194,146.304 L62.604,115.794 C62.604,115.794 66.384,108.594 67.284,101.394 C68.184,94.194 73.044,82.854 73.044,82.854 C73.044,82.854 85.104,67.554 90.684,69.714 C96.264,71.874 85.824,79.974 85.824,79.974 C85.824,79.974 101.124,85.914 90.684,103.554 C80.244,121.194 80.064,117.954 80.064,117.954 L74.934,146.304 L49.194,146.304 Z" id="Path" fill="#000000" fill-rule="nonzero" opacity="0.1"></path>
                    <path d="M48.834,146.304 L62.244,115.794 C62.244,115.794 66.024,108.594 66.924,101.394 C67.4964,96.8166 69.669,90.5652 71.1756,86.6178 C72.1590209,84.0371199 73.6060141,81.6579995 75.4452,79.5978 C79.344,75.2346 86.4252,68.1984 90.324,69.7104 C95.904,71.8704 85.464,79.9704 85.464,79.9704 C85.464,79.9704 100.764,85.9104 90.324,103.5504 C79.884,121.1904 79.704,117.9504 79.704,117.9504 L74.574,146.3004 L48.834,146.304 Z" id="Path" fill="#FDC2CC" fill-rule="nonzero"></path>
                    <circle id="Oval" fill="#FFFFFF" fill-rule="nonzero" opacity="0.15" cx="98.334" cy="34.3458" r="1"></circle>
                    <circle id="Oval" fill="#FFFFFF" fill-rule="nonzero" opacity="0.15" cx="95.814" cy="35.4258" r="1"></circle>
                    <path d="M71.7822,16.1244 C74.3868,15.282 77.2776,15.4638 79.776,14.3442 C83.1546,12.8286 85.284,9.1602 88.7904,7.9722 C90.3528,7.443 92.0484,7.4628 93.6882,7.632 C98.961268,8.18079013 103.982919,10.1649213 108.207,13.3686 C111.6828,16.0128 114.9444,19.6182 119.3022,19.9008 C120.3552,19.9692 121.4262,19.8306 122.4576,20.052 C125.1288,20.6244 126.729,23.3766 127.4976,25.992 C129.296976,32.2644518 128.267404,39.0099242 124.6788,44.46 C123.6924,45.936 122.49,47.3814 122.247,49.14 C122.0094,50.8644 122.7438,52.6518 122.3154,54.3402 C121.9554,55.7388 120.8754,56.8152 119.8242,57.807 C116.1942,61.2402 112.4844,64.5852 108.6948,67.842 C106.7256,61.5852 109.6146,54.8478 109.1646,48.3048 C108.9846,45.756 108.0846,42.9732 105.8364,41.7708 C103.7322,40.6476 101.043,41.2308 98.9136,40.1508 C96.5376,38.9538 95.562,36.1188 93.7656,34.1568 C90.7056,30.8088 85.3938,30.3768 81.1152,31.8888 C76.8366,33.4008 73.3392,36.5112 69.9552,39.5442 L63.8046,45.0612 C62.604,43.7076 63.5148,41.6304 64.1646,39.9384 C65.133,37.4022 65.3454,34.668 65.2806,31.9752 C65.2284,29.8152 64.4832,27.6822 64.5264,25.5798 C64.6128,21.4326 67.9032,17.379 71.7822,16.1244 Z" id="Path" fill="#000000" fill-rule="nonzero" opacity="0.1"></path>
                    <path d="M71.7822,15.5844 C74.3868,14.742 77.2776,14.9238 79.776,13.8042 C83.1546,12.2886 85.284,8.6202 88.7904,7.4322 C90.3528,6.903 92.0484,6.9228 93.6882,7.092 C98.961268,7.64079013 103.982919,9.62492128 108.207,12.8286 C111.6828,15.4728 114.9444,19.0782 119.3022,19.3608 C120.3552,19.4292 121.4262,19.2906 122.4576,19.512 C125.1288,20.0844 126.729,22.8366 127.4976,25.452 C129.296976,31.7244518 128.267404,38.4699242 124.6788,43.92 C123.6924,45.396 122.49,46.8414 122.247,48.6 C122.0094,50.3244 122.7438,52.1118 122.3154,53.8002 C121.9554,55.1988 120.8754,56.2752 119.8242,57.267 C116.1942,60.7002 112.4844,64.0452 108.6948,67.302 C106.7256,61.0452 109.6146,54.3078 109.1646,47.7648 C108.9846,45.216 108.0846,42.4332 105.8364,41.2308 C103.7322,40.1076 101.043,40.6908 98.9136,39.6108 C96.5376,38.4138 95.562,35.5788 93.7656,33.6168 C90.7056,30.2688 85.3938,29.8368 81.1152,31.3488 C76.8366,32.8608 73.3392,35.9712 69.9552,39.0042 L63.8046,44.5212 C62.604,43.1676 63.5148,41.0904 64.1646,39.3984 C65.133,36.8622 65.3454,34.128 65.2806,31.4352 C65.2284,29.2752 64.4832,27.1422 64.5264,25.0398 C64.6128,20.8926 67.9032,16.839 71.7822,15.5844 Z" id="Path" fill="#865A61" fill-rule="nonzero"></path>
                </g>
            </g>
        </g>
    </g>
</svg>