<?xml version="1.0" encoding="UTF-8"?>
<svg width="45px" height="45px" viewBox="0 0 45 45" version="1.1" xmlns="http://www.w3.org/2000/svg" xmlns:xlink="http://www.w3.org/1999/xlink">
    <title>4200EEC5-3B4B-4546-ACA4-17C5BA3643F6</title>
    <g id="Page-1" stroke="none" stroke-width="1" fill="none" fill-rule="evenodd">
        <g id="Login" transform="translate(-1003.000000, -541.000000)">
            <g id="Group-3" transform="translate(785.000000, 166.000000)">
                <g id="Group-4" transform="translate(88.000000, 375.000000)">
                    <g id="google" transform="translate(130.000000, 0.000000)">
                        <rect id="Rectangle" stroke="#CECECE" fill="#FFFFFF" x="0.5" y="0.5" width="44" height="44" rx="4"></rect>
                        <g id="search" transform="translate(14.000000, 14.000000)" fill-rule="nonzero">
                            <path d="M3.74451,10.210464 L3.156384,12.40602 L1.006797,12.451494 C0.364386,11.259963 0,9.8967 0,8.448 C0,7.047117 0.340692,5.726061 0.944592,4.562844 L0.945054,4.562844 L2.85879,4.9137 L3.697122,6.815952 C3.521661,7.327485 3.426027,7.876605 3.426027,8.448 C3.426093,9.068136 3.538425,9.662301 3.74451,10.210464 Z" id="Path" fill="#FBBB00"></path>
                            <path d="M16.748391,6.869808 C16.845411,7.380846 16.896,7.908615 16.896,8.448 C16.896,9.052824 16.832409,9.642798 16.711266,10.211883 C16.30002,12.148422 15.225441,13.839408 13.736844,15.036054 L13.736382,15.035592 L11.32593,14.912601 L10.984776,12.782946 C11.972532,12.203664 12.744468,11.297121 13.151094,10.211883 L8.633724,10.211883 L8.633724,6.869808 L13.216995,6.869808 L16.748391,6.869808 L16.748391,6.869808 Z" id="Path" fill="#518EF8"></path>
                            <path d="M13.736349,15.035592 L13.736811,15.036054 C12.289068,16.199733 10.449978,16.896 8.448,16.896 C5.230797,16.896 2.433684,15.097797 1.006797,12.451527 L3.74451,10.210497 C4.457937,12.114531 6.294684,13.46994 8.448,13.46994 C9.373551,13.46994 10.240659,13.219734 10.98471,12.782946 L13.736349,15.035592 Z" id="Path" fill="#28B446"></path>
                            <path d="M13.840332,1.944888 L11.103543,4.185456 C10.333488,3.704118 9.423216,3.42606 8.448,3.42606 C6.245943,3.42606 4.374843,4.843641 3.697155,6.815952 L0.945054,4.562844 L0.944592,4.562844 C2.35059,1.852059 5.18298,0 8.448,0 C10.497795,0 12.377244,0.730158 13.840332,1.944888 Z" id="Path" fill="#F14336"></path>
                        </g>
                    </g>
                </g>
            </g>
        </g>
    </g>
</svg>