<?xml version="1.0" encoding="UTF-8"?>
<svg width="31px" height="28px" viewBox="0 0 31 28" version="1.1" xmlns="http://www.w3.org/2000/svg" xmlns:xlink="http://www.w3.org/1999/xlink">
    <title>heart</title>
    <g id="Page-1" stroke="none" stroke-width="1" fill="none" fill-rule="evenodd">
        <g id="About-Us" transform="translate(-444.000000, -4224.000000)" fill="#31A1D0" fill-rule="nonzero">
            <g id="Group-2" transform="translate(425.000000, 4204.000000)">
                <g id="heart" transform="translate(19.000000, 20.000000)">
                    <path d="M28.2829687,2.6746875 C26.6927344,0.94992186 24.5107031,0 22.1383594,0 C20.3650781,0 18.7410937,0.560625 17.3114063,1.66617186 C16.59,2.22421872 15.9363281,2.90695314 15.36,3.70382814 C14.7839063,2.9071875 14.13,2.22421872 13.4083594,1.66617186 C11.9789063,0.560625 10.3549219,0 8.58164064,0 C6.20929686,0 4.02703128,0.94992186 2.43679686,2.6746875 C0.86554686,4.37929686 3.41060513e-15,6.70804686 3.41060513e-15,9.23226564 C3.41060513e-15,11.8303125 0.96820314,14.2085156 3.046875,16.7167969 C4.90640628,18.9604687 7.57898436,21.238125 10.6739063,23.8755469 C11.7307031,24.77625 12.9285937,25.7971875 14.1724219,26.8846875 C14.5010156,27.1725 14.9226563,27.3309375 15.36,27.3309375 C15.7971094,27.3309375 16.2189844,27.1725 16.5471094,26.8851563 C17.7909375,25.7974219 18.9895313,24.7760156 20.0467969,23.8748437 C23.14125,21.2378906 25.8138281,18.9604687 27.6733594,16.7165625 C29.7520313,14.2085156 30.72,11.8303125 30.72,9.23203128 C30.72,6.70804686 29.8544531,4.37929686 28.2829687,2.6746875 Z" id="Path"></path>
                </g>
            </g>
        </g>
    </g>
</svg>