<?xml version="1.0" encoding="UTF-8"?>
<svg width="164px" height="56px" viewBox="0 0 164 56" version="1.1" xmlns="http://www.w3.org/2000/svg" xmlns:xlink="http://www.w3.org/1999/xlink">
    <title>iOS_btn</title>
    <g id="Page-1" stroke="none" stroke-width="1" fill="none" fill-rule="evenodd">
        <g id="Homepage-03" transform="translate(-390.000000, -5472.000000)">
            <g id="Footer" transform="translate(0.000000, 4796.000000)">
                <g id="Group-3" transform="translate(390.000000, 646.000000)">
                    <g id="iOS_btn" transform="translate(0.000000, 30.000000)">
                        <rect id="Rectangle" fill="#373535" x="0" y="0" width="164" height="56" rx="3"></rect>
                        <g id="apple" transform="translate(17.000000, 16.000000)" fill="#FFFFFF" fill-rule="nonzero">
                            <path d="M6.29963095,23 C2.85244286,22.9802793 0.000995238095,15.9925918 0.000995238095,12.4339258 C0.000995238095,6.62085547 4.39248333,5.34821875 6.08493095,5.34821875 C6.84764524,5.34821875 7.66206667,5.64564648 8.38040238,5.90884375 C8.88272619,6.09243945 9.40224048,6.28196484 9.69117619,6.28196484 C9.86412143,6.28196484 10.2716714,6.12074023 10.6314952,5.97928125 C11.398869,5.67592383 12.3537548,5.29889453 13.4657071,5.29889453 C13.4676976,5.29889453 13.4703667,5.29889453 13.4723119,5.29889453 C14.3026119,5.29889453 16.8201119,5.47983984 18.3336429,7.73689453 L18.6881738,8.26593945 L18.1779333,8.64826953 C17.4490119,9.19442969 16.1190119,10.190707 16.1190119,12.1641699 C16.1190119,14.5015 17.6252595,15.4003867 18.3488881,15.8327148 C18.6683143,16.023543 18.9989595,16.2203008 18.9989595,16.6506523 C18.9989595,16.9316387 16.7405833,22.9651406 13.4610476,22.9651406 C12.658569,22.9651406 12.0913286,22.7256172 11.5909952,22.5143945 C11.0847357,22.3005215 10.6480071,22.1162969 9.92636905,22.1162969 C9.56057381,22.1162969 9.09801429,22.2880332 8.6083119,22.4703262 C7.93910476,22.7183398 7.1816381,23 6.32215952,23 L6.29963095,23 Z" id="Path"></path>
                            <path d="M13.8131357,0 C13.8985452,3.05810156 11.6961286,5.17967188 9.49629048,5.04661328 C9.13379762,2.60614258 11.6958571,0 13.8131357,0 Z" id="Path"></path>
                        </g>
                        <text id="Available-on" font-family="BeVietnam-Medium, Be Vietnam" font-size="13" font-weight="400" fill="#FFFFFF">
                            <tspan x="50" y="22">Available on</tspan>
                        </text>
                        <text id="App-Store" font-family="BeVietnam-Bold, Be Vietnam" font-size="20" font-weight="bold" fill="#FFFFFF">
                            <tspan x="50" y="41">App Store</tspan>
                        </text>
                    </g>
                </g>
            </g>
        </g>
    </g>
</svg>