<?xml version="1.0" encoding="UTF-8"?>
<svg width="21px" height="21px" viewBox="0 0 21 21" version="1.1" xmlns="http://www.w3.org/2000/svg" xmlns:xlink="http://www.w3.org/1999/xlink">
    <title>logout</title>
    <g id="Page-1" stroke="none" stroke-width="1" fill="none" fill-rule="evenodd">
        <g id="My-Account" transform="translate(-1445.000000, -192.000000)" fill="#31A1D0" fill-rule="nonzero">
            <g id="Group-3" transform="translate(1445.000000, 188.000000)">
                <g id="logout" transform="translate(0.000000, 4.000000)">
                    <path d="M14.50748,0.00023903108 C14.97876,0.00023903108 15.3608,0.38228 15.3608,0.85356 L15.3608,0.85356 L15.3608,5.97356 C15.3608,6.44484 14.97876,6.82688 14.50748,6.82688 C14.0362,6.82688 13.65416,6.44484 13.65416,5.97356 L13.65416,5.97356 L13.65416,1.70688 L6.66828,1.70688 L9.63268,2.5962 C9.9936,2.70448 10.2408,3.03672 10.2408,3.41356 L10.2408,3.41356 L10.2408,17.06688 L13.65412,17.06688 L13.65412,12.8002 C13.65412,12.32892 14.03616,11.94688 14.50744,11.94688 C14.97872,11.94688 15.3608,12.32892 15.3608,12.80024 L15.3608,12.80024 L15.3608,17.92024 C15.3608,18.39152 14.97872,18.77356 14.50744,18.77356 L14.50744,18.77356 L10.24076,18.77356 L10.24076,19.62724 C10.24076,20.16572 9.74812,20.5696 9.22008,20.464 L9.22008,20.464 L0.68676,18.75732 C0.28788,18.67756 0.00076,18.32732 0.00076,17.92056 L0.00076,17.92056 L0.00075,0.83881 L0.00075,0.83881 L0.0032,0.79148 L0.0032,0.79148 L0.0094,0.73352 C0.00984,0.73056 0.01032,0.72764 0.01076,0.72468 C0.01392,0.70376 0.01776,0.68312 0.02236,0.6628 C0.02284,0.66064 0.02324,0.65848 0.02372,0.65636 C0.02836,0.6366 0.03356,0.61708 0.03952,0.59796 C0.13224,0.29056 0.3874,0.03308 0.77884,0.00356 C0.80364,0.0014 0.82864,0.00023903108 0.85388,0.00023903108 Z M1.70744,2.0008 L1.70744,17.221 L8.53412,18.58632 L8.53412,4.0488 L1.70744,2.0008 Z M16.46404,6.22384 C16.79728,5.8906 17.3376,5.8906 17.67084,6.22384 L17.67084,6.22384 L20.23084,8.78384 L20.23084,8.78384 C20.251,8.80404 20.26964,8.8248 20.28736,8.84636 C20.29548,8.85624 20.30256,8.86668 20.31016,8.87684 C20.31924,8.88896 20.32864,8.90084 20.33708,8.91344 C20.3452,8.9256 20.35224,8.9382 20.35968,8.95068 C20.36648,8.96212 20.37368,8.97328 20.37996,8.98504 C20.38676,8.99776 20.39252,9.01084 20.39864,9.02384 C20.40444,9.03608 20.41056,9.04816 20.41576,9.06072 L20.41576,9.06072 L20.42976,9.099 C20.4346,9.11244 20.43976,9.12576 20.44392,9.13952 C20.4478,9.15232 20.45064,9.16532 20.45388,9.17828 L20.45388,9.17828 L20.4642,9.22048 C20.4672,9.23544 20.46896,9.25056 20.47112,9.26568 C20.47292,9.27812 20.47528,9.29036 20.47652,9.30296 C20.48204,9.35896 20.48204,9.4154 20.47652,9.4714 C20.47528,9.484 20.47288,9.49628 20.47112,9.50872 C20.46896,9.5238 20.4672,9.53892 20.46424,9.55392 L20.46424,9.55392 L20.45392,9.59616 C20.45068,9.60908 20.44784,9.62208 20.44396,9.63488 C20.43976,9.64868 20.4346,9.662 20.42976,9.67548 L20.42976,9.67548 L20.41576,9.71372 C20.41056,9.72628 20.40444,9.73836 20.39864,9.75064 C20.39252,9.7636 20.38676,9.77668 20.37996,9.7894 C20.37364,9.8012 20.36648,9.81236 20.35964,9.8238 C20.3522,9.83628 20.34516,9.84888 20.33704,9.861 C20.3286,9.87364 20.31916,9.88552 20.31008,9.89768 C20.30252,9.9078 20.29548,9.9182 20.28736,9.92808 C20.26964,9.94968 20.251,9.9704 20.23124,9.99016 C20.23108,9.99032 20.23096,9.99048 20.2308,9.99064 L17.6708,12.55064 C17.33756,12.88388 16.79724,12.88388 16.464,12.55064 C16.13076,12.2174 16.13076,11.67708 16.464,11.34384 L16.464,11.34384 L17.56728,10.24056 L12.80076,10.24056 C12.32948,10.24056 11.94744,9.85852 11.94744,9.38724 C11.94744,8.91596 12.32948,8.53392 12.80076,8.53392 L12.80076,8.53392 L17.56732,8.53392 L16.46404,7.43064 C16.1308,7.0974 16.1308,6.55708 16.46404,6.22384 Z" id="Combined-Shape"></path>
                </g>
            </g>
        </g>
    </g>
</svg>