<?xml version="1.0" encoding="UTF-8"?>
<svg width="46px" height="46px" viewBox="0 0 46 46" version="1.1" xmlns="http://www.w3.org/2000/svg" xmlns:xlink="http://www.w3.org/1999/xlink">
    <title>tlt</title>
    <defs>
        <circle id="path-1" cx="23" cy="23" r="23"></circle>
    </defs>
    <g id="Symbols" stroke="none" stroke-width="1" fill="none" fill-rule="evenodd">
        <g id="Top-Contact" transform="translate(-390.000000, -18.000000)">
            <g id="tlt" transform="translate(390.000000, 18.000000)">
                <mask id="mask-2" fill="white">
                    <use xlink:href="#path-1"></use>
                </mask>
                <use id="Mask" fill="#000000" fill-rule="nonzero" xlink:href="#path-1"></use>
                <g mask="url(#mask-2)" id="path-4-link">
                    <g transform="translate(12.020723, 10.500000)">
                        <g>
                            <path d="M3.5212064,21.6235037 C3.6514677,21.6072211 3.84685965,21.5339491 4.10738225,21.4036878 C4.36790485,21.2734265 4.6365688,21.1146705 4.91337405,20.9274199 C5.1901793,20.7401693 5.44663125,20.548848 5.68272985,20.3534561 C5.91882845,20.1580641 6.08572575,19.9870962 6.18342175,19.8405522 C6.16713905,19.7428562 6.11014975,19.6207362 6.01245375,19.4741923 C5.67051785,19.7509975 5.27973395,19.9789548 4.84010205,20.1580641 C4.40047015,20.3371734 3.9364143,20.4592934 3.4479344,20.524424 C2.91060655,20.4430107 2.6419426,20.0440855 2.6419426,19.3276483 C2.6419426,18.8228858 2.7030026,18.2529926 2.82512255,17.6179687 C2.94724255,16.9829449 3.1182105,16.3072144 3.33802645,15.5907772 C3.5578424,14.8743401 3.8265063,14.1294083 4.14401825,13.3559818 C4.46153015,12.5825553 4.8238194,11.8050582 5.23088595,11.0234904 C6.37067235,10.990925 7.33949075,10.8280984 8.13734125,10.5350105 C8.13734125,10.4047492 8.11291725,10.2785586 8.06406925,10.1564386 C8.01522125,10.0343186 7.9500906,9.93255195 7.8686773,9.85113865 C7.5267414,9.88370395 7.18887615,9.90812795 6.85508155,9.9244106 C6.52128695,9.9406933 6.19156305,9.9488346 5.8659098,9.9488346 C6.27297635,9.2649628 6.6515483,8.6584336 7.0016255,8.12924705 C7.35170275,7.60006055 7.77098135,7.02609665 8.2594612,6.4073555 C8.1780479,6.3096595 8.03150395,6.21196355 7.8198293,6.11426755 C7.6081547,6.0165716 7.3720561,5.9229463 7.1115335,5.83339165 C6.8510109,5.743837 6.59455895,5.670565 6.3421777,5.6135757 C6.0897964,5.55658635 5.88219245,5.5280917 5.71936585,5.5280917 C5.58910455,5.609505 5.4059246,5.7886143 5.169826,6.0654196 C4.93372735,6.34222485 4.6813461,6.6800901 4.41268215,7.0790153 C4.14401825,7.47794055 3.86721295,7.91757245 3.58226635,8.397911 C3.29731975,8.87824955 3.0327265,9.36265875 2.78848655,9.85113865 C2.4628333,9.834856 2.10461475,9.81450265 1.71383083,9.79007865 C1.32304693,9.76565465 0.915980365,9.73716 0.492631135,9.70459465 C0.492631135,9.93255195 0.52519646,10.2052866 0.59032711,10.5227985 C0.65545776,10.8403104 0.728729745,11.0479144 0.810143055,11.1456103 L0.810143055,11.1456103 L2.2023107,11.1456103 C1.89294012,11.8946128 1.60799353,12.6517566 1.34747093,13.4170418 C1.08694832,14.1823269 0.858991045,14.9150467 0.663599095,15.6152012 C0.46820714,16.3153557 0.31759251,16.9625916 0.211755205,17.5569088 C0.105917895,18.1512259 0.052999245,18.6437765 0.052999245,19.0345604 C0.052999245,19.3276483 0.15883655,19.6248069 0.370511165,19.9260362 C0.58218578,20.2272654 0.85492038,20.5 1.18871496,20.74424 C1.52250955,20.9884799 1.89294012,21.1920132 2.3000067,21.3548398 C2.70707325,21.5176664 3.1141398,21.6072211 3.5212064,21.6235037 Z M10.0179888,22.2829516 C10.0017061,22.2178209 9.9935648,22.1526903 9.9935648,22.0875596 L9.9935648,22.0875596 L9.9935648,21.5746558 C9.9935648,20.548848 10.1726741,19.2665883 10.5308927,17.7278767 C10.8891113,16.1891651 11.4101565,14.4591322 12.0940283,12.537778 C12.8918788,10.3070532 13.7711425,8.3287097 14.7318196,6.60274745 C15.6924967,4.8767852 16.8078591,3.2648016 18.0779068,1.76679665 C18.0127762,1.66910065 17.8703029,1.53883935 17.6504869,1.37601275 C17.430671,1.2131861 17.1823604,1.05443015 16.9055551,0.89974485 C16.6287498,0.74505955 16.3478739,0.60258625 16.0629273,0.47232495 C15.7779807,0.34206365 15.5378114,0.26065035 15.3424195,0.228085 C14.495721,1.25389275 13.6286692,2.6826964 12.7412641,4.51449595 C11.853859,6.3462955 10.9053939,8.63808025 9.8958688,11.3898503 C9.27712765,13.1158125 8.7967891,14.6260295 8.45485315,15.9205012 C8.11291725,17.2149728 7.9419493,18.2204273 7.9419493,18.9368644 C7.9419493,19.4579096 7.9907973,19.9260362 8.08849325,20.3412441 C8.18618925,20.756452 8.3083092,21.0129039 8.45485315,21.1105999 C8.5688318,21.1920132 8.6990931,21.3100625 8.84563705,21.4647478 C8.99218105,21.6194331 9.08173565,21.7374824 9.114301,21.8188957 C9.163149,21.9328743 9.2689863,22.0305703 9.4318129,22.1119836 C9.59463955,22.1933969 9.7900315,22.2503863 10.0179888,22.2829516 Z M17.8825149,21.6235037 C18.0127762,21.6072211 18.2081681,21.5339491 18.4686907,21.4036878 C18.7292133,21.2734265 18.9978772,21.1146705 19.2746825,20.9274199 C19.5514878,20.7401693 19.8079397,20.548848 20.0440383,20.3534561 C20.2801369,20.1580641 20.4470342,19.9870962 20.5447302,19.8405522 C20.5284475,19.7428562 20.4714582,19.6207362 20.3737622,19.4741923 C20.0318263,19.7509975 19.6410424,19.9789548 19.2014105,20.1580641 C18.7617786,20.3371734 18.2977227,20.4592934 17.8092429,20.524424 C17.271915,20.4430107 17.0032511,20.0440855 17.0032511,19.3276483 C17.0032511,18.8228858 17.0643111,18.2529926 17.186431,17.6179687 C17.308551,16.9829449 17.479519,16.3072144 17.6993349,15.5907772 C17.9191508,14.8743401 18.1878148,14.1294083 18.5053267,13.3559818 C18.8228386,12.5825553 19.1851279,11.8050582 19.5921944,11.0234904 C20.7319808,10.990925 21.7007992,10.8280984 22.4986497,10.5350105 C22.4986497,10.4047492 22.4742257,10.2785586 22.4253777,10.1564386 C22.3765297,10.0343186 22.3113991,9.93255195 22.2299858,9.85113865 C21.8880499,9.88370395 21.5501846,9.90812795 21.21639,9.9244106 C20.8825954,9.9406933 20.5528715,9.9488346 20.2272183,9.9488346 C20.6342848,9.2649628 21.0128567,8.6584336 21.362934,8.12924705 C21.7130112,7.60006055 22.1322898,7.02609665 22.6207697,6.4073555 C22.5393564,6.3096595 22.3928124,6.21196355 22.1811378,6.11426755 C21.9694632,6.0165716 21.7333646,5.9229463 21.472842,5.83339165 C21.2123194,5.743837 20.9558674,5.670565 20.7034862,5.6135757 C20.4511049,5.55658635 20.2435009,5.5280917 20.0806743,5.5280917 C19.950413,5.609505 19.7672331,5.7886143 19.5311344,6.0654196 C19.2950358,6.34222485 19.0426546,6.6800901 18.7739906,7.0790153 C18.5053267,7.47794055 18.2285214,7.91757245 17.9435748,8.397911 C17.6586282,8.87824955 17.394035,9.36265875 17.149795,9.85113865 C16.8241418,9.834856 16.4659232,9.81450265 16.0751393,9.79007865 C15.6843554,9.76565465 15.2772888,9.73716 14.8539396,9.70459465 C14.8539396,9.93255195 14.8865049,10.2052866 14.9516356,10.5227985 C15.0167662,10.8403104 15.0900382,11.0479144 15.1714515,11.1456103 L15.1714515,11.1456103 L16.5636192,11.1456103 C16.2542486,11.8946128 15.969302,12.6517566 15.7087794,13.4170418 C15.4482568,14.1823269 15.2202995,14.9150467 15.0249076,15.6152012 C14.8295156,16.3153557 14.678901,16.9625916 14.5730637,17.5569088 C14.4672264,18.1512259 14.4143077,18.6437765 14.4143077,19.0345604 C14.4143077,19.3276483 14.520145,19.6248069 14.7318196,19.9260362 C14.9434942,20.2272654 15.2162288,20.5 15.5500234,20.74424 C15.883818,20.9884799 16.2542486,21.1920132 16.6613152,21.3548398 C17.0683817,21.5176664 17.4754483,21.6072211 17.8825149,21.6235037 Z" id="path-4" fill="#FFFFFF" fill-rule="nonzero"></path>
                        </g>
                        <g transform="translate(0.052999, 0.228085)">
                            <path d="M3.46820715,21.3954187 C3.59846846,21.3791361 3.7938604,21.3058641 4.05438301,21.1756028 C4.3149056,21.0453415 4.58356956,20.8865855 4.8603748,20.6993349 C5.13718005,20.5120843 5.393632,20.320763 5.6297306,20.1253711 C5.8658292,19.9299791 6.0327265,19.7590112 6.13042251,19.6124672 C6.1141398,19.5147712 6.0571505,19.3926512 5.95945451,19.2461073 C5.6175186,19.5229125 5.22673471,19.7508698 4.7871028,19.9299791 C4.3474709,20.1090884 3.88341505,20.2312084 3.39493516,20.296339 C2.8576073,20.2149257 2.58894336,19.8160005 2.58894336,19.0995633 C2.58894336,18.5948008 2.65000335,18.0249076 2.7721233,17.3898837 C2.89424331,16.7548599 3.06521125,16.0791294 3.28502721,15.3626922 C3.50484316,14.6462551 3.77350706,13.9013233 4.091019,13.1278968 C4.4085309,12.3544703 4.77082015,11.5769732 5.1778867,10.7954054 C6.3176731,10.76284 7.2864915,10.6000134 8.084342,10.3069255 C8.084342,10.1766642 8.05991801,10.0504736 8.01107,9.92835355 C7.962222,9.8062336 7.89709135,9.70446695 7.81567805,9.62305365 C7.47374216,9.65561895 7.1358769,9.68004295 6.8020823,9.6963256 C6.4682877,9.7126083 6.1385638,9.7207496 5.81291056,9.7207496 C6.2199771,9.0368778 6.59854905,8.4303486 6.94862625,7.90116205 C7.2987035,7.37197555 7.7179821,6.79801165 8.20646195,6.1792705 C8.12504865,6.0815745 7.9785047,5.98387855 7.76683005,5.88618255 C7.55515545,5.7884866 7.31905685,5.6948613 7.05853425,5.60530665 C6.79801165,5.515752 6.5415597,5.44248 6.28917846,5.3854907 C6.03679716,5.32850135 5.8291932,5.3000067 5.66636661,5.3000067 C5.5361053,5.38142 5.35292535,5.5605293 5.11682675,5.8373346 C4.8807281,6.11413985 4.62834686,6.4520051 4.3596829,6.8509303 C4.091019,7.24985555 3.8142137,7.68948745 3.52926711,8.169826 C3.2443205,8.65016455 2.97972725,9.13457375 2.7354873,9.62305365 C2.40983405,9.606771 2.0516155,9.58641765 1.66083158,9.56199365 C1.27004769,9.53756965 0.86298112,9.509075 0.43963189,9.47650965 C0.43963189,9.70446695 0.472197215,9.97720155 0.537327865,10.2947135 C0.602458515,10.6122254 0.6757305,10.8198294 0.75714381,10.9175253 L0.75714381,10.9175253 L2.14931145,10.9175253 C1.83994087,11.6665278 1.55499428,12.4236716 1.29447168,13.1889568 C1.03394908,13.9542419 0.8059918,14.6869617 0.61059985,15.3871162 C0.415207895,16.0872707 0.264593265,16.7345066 0.15875596,17.3288238 C0.05291865,17.9231409 0,18.4156915 0,18.8064754 C0,19.0995633 0.105837305,19.3967219 0.31751192,19.6979512 C0.529186535,19.9991804 0.801921135,20.271915 1.13571572,20.516155 C1.4695103,20.7603949 1.83994087,20.9639282 2.24700745,21.1267548 C2.654074,21.2895814 3.06114056,21.3791361 3.46820715,21.3954187 Z M9.96498956,22.0548665 C9.94870686,21.9897359 9.94056556,21.9246052 9.94056556,21.8594746 L9.94056556,21.8594746 L9.94056556,21.3465708 C9.94056556,20.320763 10.1196748,19.0385033 10.4778934,17.4997917 C10.836112,15.96108 11.3571572,14.2310471 12.041029,12.309693 C12.8388795,10.0789682 13.7181433,8.1006247 14.6788204,6.37466245 C15.6394975,4.6487002 16.7548599,3.0367166 18.0249076,1.53871165 C17.9597769,1.44101565 17.8173036,1.31075435 17.5974877,1.14792775 C17.3776717,0.9851011 17.1293611,0.82634515 16.8525558,0.67165985 C16.5757506,0.51697455 16.2948746,0.37450125 16.0099281,0.24423995 C15.7249815,0.11397865 15.4848122,0.03256535 15.2894202,0 C14.4427218,1.02580775 13.57567,2.4546114 12.6882649,4.28641095 C11.8008598,6.1182105 10.8523947,8.40999525 9.84286956,11.1617652 C9.22412841,12.8877275 8.74378985,14.3979445 8.4018539,15.6924161 C8.05991801,16.9868878 7.88895005,17.9923423 7.88895005,18.7087794 C7.88895005,19.2298246 7.93779806,19.6979512 8.03549401,20.1131591 C8.13319,20.5283669 8.25530995,20.7848189 8.4018539,20.8825148 C8.51583255,20.9639282 8.64609386,21.0819775 8.79263781,21.2366628 C8.9391818,21.3913481 9.02873641,21.5093974 9.06130175,21.5908107 C9.11014976,21.7047893 9.21598705,21.8024853 9.37881366,21.8838986 C9.54164031,21.9653119 9.73703226,22.0223012 9.96498956,22.0548665 Z M17.8295156,21.3954187 C17.9597769,21.3791361 18.1551689,21.3058641 18.4156915,21.1756028 C18.6762141,21.0453415 18.944878,20.8865855 19.2216833,20.6993349 C19.4984885,20.5120843 19.7549405,20.320763 19.9910391,20.1253711 C20.2271377,19.9299791 20.394035,19.7590112 20.4917309,19.6124672 C20.4754483,19.5147712 20.418459,19.3926512 20.320763,19.2461073 C19.9788271,19.5229125 19.5880432,19.7508698 19.1484113,19.9299791 C18.7087794,20.1090884 18.2447235,20.2312084 17.7562436,20.296339 C17.2189158,20.2149257 16.9502518,19.8160005 16.9502518,19.0995633 C16.9502518,18.5948008 17.0113118,18.0249076 17.1334318,17.3898837 C17.2555517,16.7548599 17.4265197,16.0791294 17.6463356,15.3626922 C17.8661516,14.6462551 18.1348155,13.9013233 18.4523274,13.1278968 C18.7698394,12.3544703 19.1321286,11.5769732 19.5391952,10.7954054 C20.6789816,10.76284 21.6478,10.6000134 22.4456505,10.3069255 C22.4456505,10.1766642 22.4212265,10.0504736 22.3723785,9.92835355 C22.3235305,9.8062336 22.2583998,9.70446695 22.1769865,9.62305365 C21.8350506,9.65561895 21.4971854,9.68004295 21.1633908,9.6963256 C20.8295962,9.7126083 20.4998723,9.7207496 20.174219,9.7207496 C20.5812856,9.0368778 20.9598575,8.4303486 21.3099347,7.90116205 C21.660012,7.37197555 22.0792905,6.79801165 22.5677704,6.1792705 C22.4863571,6.0815745 22.3398132,5.98387855 22.1281385,5.88618255 C21.9164639,5.7884866 21.6803653,5.6948613 21.4198427,5.60530665 C21.1593201,5.515752 20.9028682,5.44248 20.6504869,5.3854907 C20.3981056,5.32850135 20.1905017,5.3000067 20.0276751,5.3000067 C19.8974138,5.38142 19.7142338,5.5605293 19.4781352,5.8373346 C19.2420366,6.11413985 18.9896553,6.4520051 18.7209914,6.8509303 C18.4523274,7.24985555 18.1755222,7.68948745 17.8905756,8.169826 C17.605629,8.65016455 17.3410357,9.13457375 17.0967958,9.62305365 C16.7711425,9.606771 16.412924,9.58641765 16.02214,9.56199365 C15.6313561,9.53756965 15.2242896,9.509075 14.8009404,9.47650965 C14.8009404,9.70446695 14.8335057,9.97720155 14.8986363,10.2947135 C14.963767,10.6122254 15.037039,10.8198294 15.1184523,10.9175253 L15.1184523,10.9175253 L16.5106199,10.9175253 C16.2012493,11.6665278 15.9163027,12.4236716 15.6557801,13.1889568 C15.3952575,13.9542419 15.1673003,14.6869617 14.9719083,15.3871162 C14.7765164,16.0872707 14.6259017,16.7345066 14.5200644,17.3288238 C14.4142271,17.9231409 14.3613085,18.4156915 14.3613085,18.8064754 C14.3613085,19.0995633 14.4671458,19.3967219 14.6788204,19.6979512 C14.890495,19.9991804 15.1632296,20.271915 15.4970242,20.516155 C15.8308188,20.7603949 16.2012493,20.9639282 16.6083159,21.1267548 C17.0153825,21.2895814 17.422449,21.3791361 17.8295156,21.3954187 Z" id="path-4" fill="#FFFFFF" fill-rule="nonzero"></path>
                        </g>
                    </g>
                </g>
            </g>
        </g>
    </g>
</svg>