<?xml version="1.0" encoding="UTF-8"?>
<svg width="36px" height="29px" viewBox="0 0 36 29" version="1.1" xmlns="http://www.w3.org/2000/svg" xmlns:xlink="http://www.w3.org/1999/xlink">
    <title>gift-card_1_</title>
    <g id="Page-1" stroke="none" stroke-width="1" fill="none" fill-rule="evenodd">
        <g id="My-Account" transform="translate(-1212.000000, -472.000000)" fill="#31A1D0" fill-rule="nonzero">
            <g id="Group-16" transform="translate(1169.000000, 426.000000)">
                <g id="Group-17" transform="translate(20.000000, 20.000000)">
                    <g id="gift-card_1_" transform="translate(23.000000, 26.000000)">
                        <path d="M0,14.72 L0,1 L17.92,1 L35.84,1 L35.84,14.72 L35.84,28.44 L17.92,28.44 L0,28.44 L0,14.72 Z M8.386,23.673 L8.365,20.999 L7.987,20.901 C7.028,20.663 6.146,19.928 5.677,18.99 C5.53,18.689 5.383,18.311 5.355,18.157 L5.306,17.87 L3.703,17.87 L2.1,17.87 L2.1,22.105 L2.1,26.34 L5.25,26.34 L8.4,26.34 L8.386,23.673 Z M12.656,23.505 L12.67,20.705 L12.39,20.544 C12.236,20.46 11.998,20.292 11.865,20.173 L11.62,19.956 L11.249,20.236 C11.053,20.39 10.815,20.551 10.731,20.593 L10.57,20.677 L10.57,23.512 L10.57,26.347 L11.606,26.326 L12.635,26.305 L12.656,23.505 Z M33.74,22.105 L33.74,17.87 L25.802,17.87 L17.871,17.87 L17.822,18.171 C17.794,18.332 17.661,18.696 17.528,18.976 C17.087,19.893 16.156,20.656 15.183,20.901 L14.805,20.999 L14.784,23.673 L14.77,26.34 L24.255,26.34 L33.74,26.34 L33.74,22.105 Z M9.471,18.843 C9.828,18.745 10.213,18.395 10.388,18.01 C10.5,17.758 10.535,17.506 10.556,16.736 L10.584,15.77 L9.653,15.77 C8.645,15.777 8.351,15.84 7.952,16.148 C7.434,16.54 7.252,17.373 7.539,18.01 C7.868,18.745 8.638,19.074 9.471,18.843 Z M14.826,18.815 C15.911,18.36 16.128,16.883 15.218,16.134 C14.875,15.847 14.511,15.77 13.517,15.77 L12.67,15.77 L12.67,16.743 C12.67,17.765 12.719,17.996 13.027,18.388 C13.384,18.843 14.259,19.046 14.826,18.815 Z M5.796,15.49 C5.88,15.336 6.048,15.098 6.167,14.965 L6.384,14.72 L6.167,14.475 C6.048,14.342 5.88,14.104 5.796,13.95 L5.635,13.67 L3.871,13.67 L2.1,13.67 L2.1,14.72 L2.1,15.77 L3.871,15.77 L5.635,15.77 L5.796,15.49 Z M33.74,14.72 L33.74,13.67 L25.662,13.67 L17.591,13.67 L17.339,14.041 C17.199,14.237 17.031,14.475 16.968,14.566 C16.863,14.706 16.863,14.734 16.968,14.881 C17.031,14.965 17.199,15.203 17.339,15.406 L17.591,15.77 L25.662,15.77 L33.74,15.77 L33.74,14.72 Z M10.556,12.711 C10.535,11.857 10.514,11.703 10.36,11.395 C9.786,10.24 8.141,10.233 7.567,11.381 C7.14,12.242 7.546,13.243 8.449,13.572 C8.617,13.628 9.051,13.663 9.653,13.67 L10.584,13.67 L10.556,12.711 Z M14.84,13.523 C15.617,13.173 15.96,12.431 15.722,11.626 C15.309,10.205 13.216,10.163 12.747,11.563 C12.705,11.696 12.67,12.221 12.67,12.732 L12.67,13.67 L13.601,13.67 C14.378,13.67 14.574,13.642 14.84,13.523 Z M5.355,11.283 C5.383,11.129 5.53,10.751 5.677,10.45 C6.146,9.512 7.028,8.777 7.987,8.539 L8.365,8.441 L8.386,5.767 L8.4,3.1 L5.25,3.1 L2.1,3.1 L2.1,7.335 L2.1,11.57 L3.703,11.57 L5.306,11.57 L5.355,11.283 Z M33.74,7.335 L33.74,3.1 L24.255,3.1 L14.77,3.1 L14.784,5.767 L14.805,8.441 L15.183,8.539 C16.156,8.784 17.087,9.547 17.528,10.464 C17.661,10.744 17.794,11.108 17.822,11.276 L17.871,11.57 L25.802,11.57 L33.74,11.57 L33.74,7.335 Z M11.872,9.26 C12.005,9.148 12.236,8.98 12.39,8.896 L12.67,8.735 L12.656,5.935 L12.635,3.135 L11.606,3.114 L10.57,3.093 L10.57,5.928 L10.57,8.763 L10.766,8.868 C10.871,8.924 11.095,9.078 11.27,9.218 C11.445,9.358 11.599,9.47 11.613,9.47 C11.627,9.47 11.746,9.379 11.872,9.26 Z" id="Shape" transform="translate(17.920000, 14.720000) scale(-1, 1) rotate(-180.000000) translate(-17.920000, -14.720000) "></path>
                    </g>
                </g>
            </g>
        </g>
    </g>
</svg>