<?xml version="1.0" encoding="UTF-8"?>
<svg width="71px" height="71px" viewBox="0 0 71 71" version="1.1" xmlns="http://www.w3.org/2000/svg" xmlns:xlink="http://www.w3.org/1999/xlink">
    <title>26545620-2844-4A9D-A88D-2C5741A0F969</title>
    <g id="Page-1" stroke="none" stroke-width="1" fill="none" fill-rule="evenodd">
        <g id="Homepage-03" transform="translate(-390.000000, -4626.000000)">
            <g id="Footer" transform="translate(0.000000, 4592.000000)">
                <g id="Group-14" transform="translate(390.000000, 31.000000)">
                    <g id="newsletter_ic" transform="translate(0.000000, 3.000000)">
                        <circle id="Oval" fill="#31A1D0" cx="35.5" cy="35.5" r="35.5"></circle>
                        <g id="email(6)" transform="translate(23.000000, 26.000000)" fill="#FFFFFF" fill-rule="nonzero">
                            <path d="M11.7253906,9.36991927 C12.4042852,9.81092708 13.5955117,9.81097656 14.2745586,9.36986979 C14.2746602,9.36982031 14.2748125,9.36972135 14.2749141,9.36967187 L25.8461836,1.85324219 C25.4666445,0.783700521 24.4233945,0.0132109375 23.1983477,0.0132109375 L2.80139844,0.0132109375 C1.57630078,0.0132109375 0.533101562,0.783700521 0.153511719,1.85324219 L11.7250352,9.36972135 C11.7251875,9.36982031 11.7252891,9.36982031 11.7253906,9.36991927 Z" id="Path"></path>
                            <path d="M15.1199141,10.6047708 C15.1197617,10.6048698 15.1196602,10.6049688 15.1195586,10.6050182 C14.5253164,10.9910052 13.7624805,11.1840234 12.9998984,11.1840234 C12.2371641,11.1840234 11.4746328,10.9910547 10.8803398,10.6049688 C10.8802383,10.6049193 10.8801875,10.6048698 10.8800859,10.6048203 L0,3.53746354 L0,16.2571719 C0,17.7621797 1.25668359,18.9865911 2.80139844,18.9865911 L23.1985,18.9865911 C24.7431641,18.9865911 25.9997969,17.7621797 25.9997969,16.2571719 L25.9997969,3.53746354 L15.1199141,10.6047708 Z" id="Path"></path>
                        </g>
                    </g>
                </g>
            </g>
        </g>
    </g>
</svg>