<?xml version="1.0" encoding="UTF-8"?>
<svg width="14px" height="14px" viewBox="0 0 14 14" version="1.1" xmlns="http://www.w3.org/2000/svg" xmlns:xlink="http://www.w3.org/1999/xlink">
    <title>Path</title>
    <g id="Page-1" stroke="none" stroke-width="1" fill="none" fill-rule="evenodd">
        <g id="Homepage-03" transform="translate(-665.000000, -2094.000000)" fill="#31A1D0" fill-rule="nonzero">
            <g id="Group-28" transform="translate(390.000000, 1489.000000)">
                <g id="Group-12" transform="translate(0.000000, 578.000000)">
                    <g id="Group-6" transform="translate(275.000000, 22.000000)">
                        <path d="M7.50552251,19 C7.50552251,17.1697793 8.10025489,15.6564799 9.28971963,14.4601019 C10.4474653,13.295416 11.9699802,12.6378042 13.8572642,12.4872666 C13.8889833,12.4872666 13.9286321,12.483305 13.9762107,12.475382 L13.9762107,12.475382 L14,12.475382 L13.9881054,12 L14,11.524618 C12.0492778,11.3978495 10.4791844,10.7362762 9.28971963,9.53989813 C8.10025489,8.34352009 7.50552251,6.83022071 7.50552251,5 L7.50552251,5 L6.99405268,5.01188455 L6.49447749,5 C6.49447749,6.83022071 5.89974511,8.34352009 4.71028037,9.53989813 C3.52081563,10.7362762 1.95072218,11.3978495 0,11.524618 L0,11.524618 L0.0118946474,12 L0,12.475382 L0.0118946474,12.475382 C0.067403002,12.483305 0.114981592,12.4872666 0.154630416,12.4872666 C2.03398471,12.6378042 3.55253469,13.295416 4.71028037,14.4601019 C5.89974511,15.6564799 6.49447749,17.1697793 6.49447749,19 L6.49447749,19 L7.00594732,18.9881154 L7.50552251,19 Z" id="Path"></path>
                    </g>
                </g>
            </g>
        </g>
    </g>
</svg>