<?xml version="1.0" encoding="UTF-8"?>
<svg width="22px" height="22px" viewBox="0 0 22 22" version="1.1" xmlns="http://www.w3.org/2000/svg" xmlns:xlink="http://www.w3.org/1999/xlink">
    <title>3C64EBD8-15E6-46EA-8AAF-3B28A25700E7</title>
    <g id="Page-1" stroke="none" stroke-width="1" fill="none" fill-rule="evenodd">
        <g id="Homepage-03" transform="translate(-792.000000, -32.000000)" fill="#000000" fill-rule="nonzero" stroke="#000000" stroke-width="0.3">
            <g id="Group-21" transform="translate(793.038506, 32.000000)">
                <g id="telephone(3)" transform="translate(0.000000, 1.000000)">
                    <path d="M4.11533301,13.550592 C6.12595701,15.954048 8.54630901,17.8464 11.308805,19.185408 C12.360581,19.68384 13.767173,20.2752 15.334277,20.376576 C15.431429,20.3808 15.524357,20.385024 15.621509,20.385024 C16.673285,20.385024 17.518085,20.02176 18.206597,19.274112 C18.210821,19.269888 18.219269,19.26144 18.223493,19.252992 C18.468485,18.957312 18.747269,18.6912 19.038725,18.408192 C19.237253,18.218112 19.440005,18.019584 19.634309,17.816832 C20.534021,16.879104 20.534021,15.687936 19.625861,14.779776 L17.087237,12.241152 C16.656389,11.793408 16.141061,11.556864 15.600389,11.556864 C15.059717,11.556864 14.540165,11.793408 14.096645,12.236928 L12.584453,13.74912 C12.445061,13.668864 12.301445,13.597056 12.166277,13.529472 C11.997317,13.444992 11.841029,13.364736 11.701637,13.276032 C10.324613,12.401664 9.07430901,11.261184 7.87891701,9.795456 C7.27488501,9.030912 6.86938101,8.388864 6.58637301,7.734144 C6.98342901,7.375104 7.35514101,6.999168 7.71418101,6.63168 C7.84090101,6.500736 7.97184501,6.369792 8.10278901,6.238848 C8.55898101,5.782656 8.80397301,5.254656 8.80397301,4.718208 C8.80397301,4.18176 8.56320501,3.65376 8.10278901,3.197568 L6.84403701,1.938816 C6.69619701,1.790976 6.55680501,1.64736 6.41318901,1.49952 C6.13440501,1.212288 5.84294901,0.916608 5.55571701,0.650496 C5.12064501,0.223872 4.60954101,0 4.06886901,0 C3.53242101,0 3.01709301,0.223872 2.56512501,0.65472 L0.985349012,2.234496 C0.410885012,2.80896 0.0856370115,3.50592 0.0180530115,4.312704 C-0.0622029885,5.32224 0.123653012,6.395136 0.605189012,7.691904 C1.34438901,9.698304 2.45952501,11.561088 4.11533301,13.550592 Z M1.04870901,4.401408 C1.09939701,3.839616 1.31482101,3.370752 1.72032501,2.965248 L3.29165301,1.39392 C3.53664501,1.157376 3.80698101,1.03488 4.06886901,1.03488 C4.32653301,1.03488 4.58842101,1.157376 4.82918901,1.402368 C5.11219701,1.664256 5.37830901,1.938816 5.66554101,2.230272 C5.80915701,2.378112 5.95699701,2.525952 6.10483701,2.678016 L7.36358901,3.936768 C7.62547701,4.198656 7.76064501,4.464768 7.76064501,4.726656 C7.76064501,4.988544 7.62547701,5.254656 7.36358901,5.516544 C7.23264501,5.647488 7.10170101,5.782656 6.97075701,5.9136 C6.57792501,6.310656 6.21043701,6.686592 5.80493301,7.045632 C5.79648501,7.05408 5.79226101,7.058304 5.78381301,7.066752 C5.43322101,7.417344 5.48813301,7.75104 5.57261301,8.00448 C5.57683701,8.017152 5.58106101,8.0256 5.58528501,8.038272 C5.91053301,8.819712 6.36250101,9.563136 7.06790901,10.450176 C8.33510901,12.013056 9.66989301,13.225344 11.139845,14.158848 C11.321477,14.27712 11.515781,14.370048 11.697413,14.462976 C11.866373,14.547456 12.022661,14.627712 12.162053,14.716416 C12.178949,14.724864 12.191621,14.733312 12.208517,14.74176 C12.347909,14.813568 12.483077,14.84736 12.618245,14.84736 C12.956165,14.84736 13.175813,14.631936 13.247621,14.560128 L14.827397,12.980352 C15.072389,12.73536 15.338501,12.604416 15.600389,12.604416 C15.921413,12.604416 16.183301,12.802944 16.348037,12.980352 L18.895109,15.5232 C19.401989,16.03008 19.397765,16.5792 18.882437,17.115648 C18.705029,17.305728 18.519173,17.48736 18.320645,17.67744 C18.024965,17.964672 17.716613,18.260352 17.437829,18.594048 C16.952069,19.117824 16.373381,19.362816 15.625733,19.362816 C15.553925,19.362816 15.477893,19.358592 15.406085,19.354368 C14.020613,19.265664 12.732293,18.724992 11.764997,18.264576 C9.13766901,16.993152 6.83136501,15.189504 4.91789301,12.900096 C3.34234101,11.00352 2.28211701,9.237888 1.58093301,7.345536 C1.14586101,6.183936 0.981125012,5.250432 1.04870901,4.401408 Z" id="Shape"></path>
                </g>
            </g>
        </g>
    </g>
</svg>