<?xml version="1.0" encoding="UTF-8"?>
<svg width="21px" height="10px" viewBox="0 0 21 10" version="1.1" xmlns="http://www.w3.org/2000/svg" xmlns:xlink="http://www.w3.org/1999/xlink">
    <title>right-arrow</title>
    <g id="Page-1" stroke="none" stroke-width="1" fill="none" fill-rule="evenodd">
        <g id="Package-Detail-Dropdowns-When" transform="translate(-1191.000000, -674.000000)" fill="#000000" fill-rule="nonzero">
            <g id="Group-3" transform="translate(1091.000000, 666.000000)">
                <g id="right-arrow" transform="translate(100.000000, 8.000000)">
                    <path d="M20.24536,4.39372 C20.24512,4.39348 20.24492,4.3932 20.24464,4.39296 L16.06448,0.23296 C15.75132,-0.07868 15.2448,-0.07752 14.93308,0.23568 C14.6214,0.54884 14.6226,1.05536 14.93576,1.36704 L17.74232,4.16 L0.8,4.16 C0.35816,4.16 0,4.51816 0,4.96 C0,5.40184 0.35816,5.76 0.8,5.76 L17.74228,5.76 L14.9358,8.55296 C14.62264,8.86464 14.62144,9.37116 14.93312,9.68432 C15.24484,9.99756 15.7514,9.99864 16.06452,9.68704 L20.24468,5.52704 C20.24492,5.5268 20.24512,5.52652 20.2454,5.52628 C20.55872,5.21356 20.55772,4.7054 20.24536,4.39372 Z" id="Path"></path>
                </g>
            </g>
        </g>
    </g>
</svg>