<?xml version="1.0" encoding="UTF-8"?>
<svg width="20px" height="20px" viewBox="0 0 20 20" version="1.1" xmlns="http://www.w3.org/2000/svg" xmlns:xlink="http://www.w3.org/1999/xlink">
    <title>loupe(6)</title>
    <g id="Page-1" stroke="none" stroke-width="1" fill="none" fill-rule="evenodd">
        <g id="Homepage-03" transform="translate(-424.000000, -715.000000)" fill="#000000" fill-rule="nonzero">
            <g id="Group-10" transform="translate(393.000000, 663.000000)">
                <g id="Group-7" transform="translate(31.000000, 49.000000)">
                    <g id="loupe(6)" transform="translate(0.000000, 3.000000)">
                        <path d="M8.793486,6.39488462e-14 C13.642356,6.39488462e-14 17.586972,3.944889 17.586972,8.793486 C17.586972,10.9260391 16.823974,12.8836845 15.5566226,14.4077776 L19.730178,18.582408 C20.047287,18.899244 20.047287,19.413342 19.730178,19.730178 C19.571604,19.888713 19.363812,19.968 19.156293,19.968 C18.948501,19.968 18.740943,19.888713 18.582408,19.730178 L18.582408,19.730178 L14.4077776,15.5566226 C12.8836845,16.823974 10.9260391,17.586972 8.793486,17.586972 C3.944889,17.586972 6.39488462e-14,13.642356 6.39488462e-14,8.793486 C6.39488462e-14,3.944889 3.944889,6.39488462e-14 8.793486,6.39488462e-14 Z M8.793486,1.623414 C4.839939,1.623414 1.623414,4.839978 1.623414,8.793525 C1.623414,12.747072 4.839939,15.963597 8.793486,15.963597 C12.747033,15.963597 15.963558,12.747033 15.963558,8.793486 C15.963558,4.839939 12.747033,1.623414 8.793486,1.623414 Z" id="Combined-Shape"></path>
                    </g>
                </g>
            </g>
        </g>
    </g>
</svg>