<?xml version="1.0" encoding="UTF-8"?>
<svg width="16px" height="21px" viewBox="0 0 16 21" version="1.1" xmlns="http://www.w3.org/2000/svg" xmlns:xlink="http://www.w3.org/1999/xlink">
    <title>Combined Shape</title>
    <g id="Page-1" stroke="none" stroke-width="1" fill="none" fill-rule="evenodd">
        <g id="Review-and-Payment" transform="translate(-1283.000000, -2146.000000)" fill="#31A1D0" fill-rule="nonzero">
            <g id="Group-10" transform="translate(1283.000000, 2145.000000)">
                <g id="lock" transform="translate(0.000000, 1.000000)">
                    <path d="M7.76,3.40172335e-13 C10.97728,3.40172335e-13 13.59448,2.63884 13.59448,5.88204 L13.59448,5.88204 L13.59448,7.858 L14.30884,7.8586 C14.924365,7.8586 15.4322767,8.32807656 15.4933613,8.92771694 L15.49952,9.04928 L15.49952,19.28928 C15.49952,19.9458 14.9654,20.47996 14.30884,20.47996 L14.30884,20.47996 L1.21116,20.47996 C0.55464,20.47996 0.02048,19.94584 0.02048,19.28928 L0.02048,19.28928 L0.02048,9.04928 C0.02048,8.39276 0.5546,7.8586 1.21116,7.8586 L1.21116,7.8586 L1.92548,7.858 L1.9256,5.88204 C1.9256,2.71254909 4.42534103,0.120259442 7.54160931,0.00406522821 Z M14.07072,9.28744 L1.44932,9.28744 L1.44932,19.05116 L14.07072,19.05116 L14.07072,9.28744 Z M7.64092,13.3358 C8.03552,13.3358 8.35536,13.65564 8.35532,14.0502 L8.35532,14.0502 L8.35532,15.71716 C8.35532,16.11172 8.03548,16.43156 7.64092,16.43156 C7.24636,16.43156 6.92652,16.11176 6.92652,15.71716 L6.92652,15.71716 L6.92652,14.0502 C6.92652,13.65564 7.24632,13.3358 7.64092,13.3358 Z M7.76004,1.42884 C5.33076,1.42884 3.35444,3.4266 3.35444,5.88204 L3.35444,5.88204 L3.35348,7.858 L12.16548,7.858 L12.16564,5.88204 C12.16564,3.49675543 10.3006392,1.54337133 7.96711918,1.43369655 Z" id="Combined-Shape"></path>
                </g>
            </g>
        </g>
    </g>
</svg>