<?xml version="1.0" encoding="UTF-8"?>
<svg width="16px" height="16px" viewBox="0 0 16 16" version="1.1" xmlns="http://www.w3.org/2000/svg" xmlns:xlink="http://www.w3.org/1999/xlink">
    <title>icons8-share</title>
    <g id="Page-1" stroke="none" stroke-width="1" fill="none" fill-rule="evenodd">
        <g id="Homepage-03" transform="translate(-1313.000000, -2018.000000)" fill="#31A1D0" fill-rule="nonzero">
            <g id="Group-28" transform="translate(390.000000, 1489.000000)">
                <g id="Group-22" transform="translate(923.000000, 525.000000)">
                    <g id="icons8-share" transform="translate(0.000000, 4.000000)">
                        <path d="M13.3333333,0 C11.860574,0 10.6666667,1.19390733 10.6666667,2.66666667 C10.6678552,2.8541109 10.6888044,3.04090741 10.7291667,3.22395833 L4.67447933,6.251302 C4.16924452,5.66963009 3.43712235,5.33490503 2.66666667,5.33333333 C1.19390733,5.33333333 0,6.52724067 0,8 C0,9.47275933 1.19390733,10.6666667 2.66666667,10.6666667 C3.43737014,10.6657988 4.17000735,10.3315301 4.67578133,9.75 L10.7265627,12.7760413 C10.6870759,12.9591855 10.6669997,13.1459811 10.6666667,13.3333333 C10.6666667,14.8060927 11.860574,16 13.3333333,16 C14.8060927,16 16,14.8060927 16,13.3333333 C16,11.860574 14.8060927,10.6666667 13.3333333,10.6666667 C12.5626299,10.6675345 11.8299927,11.0018032 11.3242187,11.5833333 L5.27343733,8.557292 C5.31292412,8.37414784 5.33300033,8.18735228 5.33333333,8 C5.33205337,7.81299138 5.31110476,7.62663617 5.27083333,7.44401067 L11.3255207,4.41666667 C11.8309961,4.99785459 12.5630845,5.33208945 13.3333333,5.33333333 C14.8060927,5.33333333 16,4.139426 16,2.66666667 C16,1.19390733 14.8060927,0 13.3333333,0 Z" id="Path"></path>
                    </g>
                </g>
            </g>
        </g>
    </g>
</svg>