<?xml version="1.0" encoding="UTF-8"?>
<svg width="23px" height="36px" viewBox="0 0 23 36" version="1.1" xmlns="http://www.w3.org/2000/svg" xmlns:xlink="http://www.w3.org/1999/xlink">
    <title>solution</title>
    <g id="Page-1" stroke="none" stroke-width="1" fill="none" fill-rule="evenodd">
        <g id="About-Us" transform="translate(-1033.000000, -4220.000000)" fill="#33C695" fill-rule="nonzero">
            <g id="Group-2" transform="translate(1010.000000, 4204.000000)">
                <g id="solution" transform="translate(23.000000, 16.000000)">
                    <path d="M17.06082,28.9534 L17.06082,29.83911 C17.06082,33.14794 14.36883,35.83993 11.05993,35.83993 C7.75103,35.83993 5.05904,33.14801 5.05904,29.83911 L5.05904,29.83911 L5.05904,28.9534 L17.06082,28.9534 Z M11.06,6.16952 C17.12186,6.16952 22.0535,11.1013 22.0535,17.16316 C22.0535,20.88065 20.15545,24.35524 17.06061,26.37579 L17.06061,26.37579 L17.06061,26.83415 L12.11931,26.83415 L12.11931,21.35462 C13.4953,20.90697 14.49287,19.61288 14.49287,18.08954 C14.49287,17.50434 14.01841,17.02988 13.43321,17.02988 C12.84801,17.02988 12.37355,17.50434 12.37355,18.08954 C12.37355,18.81404 11.78422,19.40344 11.05972,19.40344 C10.33522,19.40344 9.74582,18.81397 9.74582,18.08954 C9.74582,17.50434 9.27136,17.02988 8.68616,17.02988 C8.10096,17.02988 7.6265,17.50434 7.6265,18.08954 C7.6265,19.61288 8.62414,20.90697 10.00006,21.35462 L10.00006,21.35462 L10.00006,26.83415 L5.05897,26.83415 L5.05897,26.37565 C1.96434,24.3551 0.06636,20.88058 0.06636,17.16316 C0.06636,11.10123 4.99814,6.16952 11.06,6.16952 Z M6.05563,0.83496 C6.60289,0.62811 7.21455,0.90412 7.42147,1.45152 L7.42147,1.45152 L8.07919,3.19172 C8.28611,3.73919 8.01003,4.35071 7.46263,4.55756 C7.33936,4.60418 7.21266,4.6263 7.0882,4.6263 C6.66015,4.6263 6.25709,4.36513 6.09679,3.941 L6.09679,3.941 L5.43907,2.2008 C5.23215,1.65333 5.50823,1.04181 6.05563,0.83496 Z M14.69846,1.45152 C14.90538,0.90412 15.51683,0.62797 16.0643,0.83489 C16.6117,1.04181 16.88778,1.65326 16.68093,2.20073 L16.68093,2.20073 L16.02321,3.94093 C15.86298,4.36506 15.45985,4.6263 15.0318,4.6263 C14.90734,4.6263 14.78071,4.60418 14.65737,4.55756 C14.10997,4.35064 13.83389,3.73912 14.04074,3.19172 L14.04074,3.19172 Z M11.06,-4.88720175e-13 C11.6452,-4.88720175e-13 12.11966,0.47446 12.11966,1.05966 L12.11966,1.05966 L12.11966,2.91991 C12.11966,3.50511 11.6452,3.97957 11.06,3.97957 C10.4748,3.97957 10.00034,3.50511 10.00034,2.91991 L10.00034,2.91991 L10.00034,1.05966 C10.00034,0.47446 10.4748,-4.88720175e-13 11.06,-4.88720175e-13 Z" id="Combined-Shape"></path>
                </g>
            </g>
        </g>
    </g>
</svg>