<?xml version="1.0" encoding="UTF-8"?>
<svg width="18px" height="17px" viewBox="0 0 18 17" version="1.1" xmlns="http://www.w3.org/2000/svg" xmlns:xlink="http://www.w3.org/1999/xlink">
    <title>telephone(3)</title>
    <g id="Symbols" stroke="none" stroke-width="1" fill="none" fill-rule="evenodd">
        <g id="Footer" transform="translate(-854.000000, -590.000000)" fill="#282929" fill-rule="nonzero">
            <g id="Group-21" transform="translate(854.032089, 587.000000)">
                <g id="telephone(3)" transform="translate(0.000000, 3.000000)">
                    <path d="M3.42944418,11.29216 C5.10496418,13.29504 7.12192418,14.872 9.42400418,15.98784 C10.3004842,16.4032 11.4726442,16.896 12.7785642,16.98048 C12.8595242,16.984 12.9369642,16.98752 13.0179242,16.98752 C13.8944042,16.98752 14.5984042,16.6848 15.1721642,16.06176 C15.1756842,16.05824 15.1827242,16.0512 15.1862442,16.04416 C15.3904042,15.79776 15.6227242,15.576 15.8656042,15.34016 C16.0310442,15.18176 16.2000042,15.01632 16.3619242,14.84736 C17.1116842,14.06592 17.1116842,13.07328 16.3548842,12.31648 L14.2393642,10.20096 C13.8803242,9.82784 13.4508842,9.63072 13.0003242,9.63072 C12.5497642,9.63072 12.1168042,9.82784 11.7472042,10.19744 L10.4870442,11.4576 C10.3708842,11.39072 10.2512042,11.33088 10.1385642,11.27456 C9.99776418,11.20416 9.86752418,11.13728 9.75136418,11.06336 C8.60384418,10.33472 7.56192418,9.38432 6.56576418,8.16288 C6.06240418,7.52576 5.72448418,6.99072 5.48864418,6.44512 C5.81952418,6.14592 6.12928418,5.83264 6.42848418,5.5264 C6.53408418,5.41728 6.64320418,5.30816 6.75232418,5.19904 C7.13248418,4.81888 7.33664418,4.37888 7.33664418,3.93184 C7.33664418,3.4848 7.13600418,3.0448 6.75232418,2.66464 L5.70336418,1.61568 C5.58016418,1.49248 5.46400418,1.3728 5.34432418,1.2496 C5.11200418,1.01024 4.86912418,0.76384 4.62976418,0.54208 C4.26720418,0.18656 3.84128418,0 3.39072418,0 C2.94368418,0 2.51424418,0.18656 2.13760418,0.5456 L0.821124176,1.86208 C0.342404176,2.3408 0.0713641763,2.9216 0.0150441763,3.59392 C-0.0518358237,4.4352 0.103044176,5.32928 0.504324176,6.40992 C1.12032418,8.08192 2.04960418,9.63424 3.42944418,11.29216 Z M0.873924176,3.66784 C0.916164176,3.19968 1.09568418,2.80896 1.43360418,2.47104 L2.74304418,1.1616 C2.94720418,0.96448 3.17248418,0.8624 3.39072418,0.8624 C3.60544418,0.8624 3.82368418,0.96448 4.02432418,1.16864 C4.26016418,1.38688 4.48192418,1.61568 4.72128418,1.85856 C4.84096418,1.98176 4.96416418,2.10496 5.08736418,2.23168 L6.13632418,3.28064 C6.35456418,3.49888 6.46720418,3.72064 6.46720418,3.93888 C6.46720418,4.15712 6.35456418,4.37888 6.13632418,4.59712 C6.02720418,4.70624 5.91808418,4.81888 5.80896418,4.928 C5.48160418,5.25888 5.17536418,5.57216 4.83744418,5.87136 C4.83040418,5.8784 4.82688418,5.88192 4.81984418,5.88896 C4.52768418,6.18112 4.57344418,6.4592 4.64384418,6.6704 C4.64736418,6.68096 4.65088418,6.688 4.65440418,6.69856 C4.92544418,7.34976 5.30208418,7.96928 5.88992418,8.70848 C6.94592418,10.01088 8.05824418,11.02112 9.28320418,11.79904 C9.43456418,11.8976 9.59648418,11.97504 9.74784418,12.05248 C9.88864418,12.12288 10.0188842,12.18976 10.1350442,12.26368 C10.1491242,12.27072 10.1596842,12.27776 10.1737642,12.2848 C10.2899242,12.34464 10.4025642,12.3728 10.5152042,12.3728 C10.7968042,12.3728 10.9798442,12.19328 11.0396842,12.13344 L12.3561642,10.81696 C12.5603242,10.6128 12.7820842,10.50368 13.0003242,10.50368 C13.2678442,10.50368 13.4860842,10.66912 13.6233642,10.81696 L15.7459242,12.936 C16.1683242,13.3584 16.1648042,13.816 15.7353642,14.26304 C15.5875242,14.42144 15.4326442,14.5728 15.2672042,14.7312 C15.0208042,14.97056 14.7638442,15.21696 14.5315242,15.49504 C14.1267242,15.93152 13.6444842,16.13568 13.0214442,16.13568 C12.9616042,16.13568 12.8982442,16.13216 12.8384042,16.12864 C11.6838442,16.05472 10.6102442,15.60416 9.80416418,15.22048 C7.61472418,14.16096 5.69280418,12.65792 4.09824418,10.75008 C2.78528418,9.1696 1.90176418,7.69824 1.31744418,6.12128 C0.954884176,5.15328 0.817604176,4.37536 0.873924176,3.66784 Z" id="Shape"></path>
                </g>
            </g>
        </g>
    </g>
</svg>