<?xml version="1.0" encoding="UTF-8"?>
<svg width="17px" height="20px" viewBox="0 0 17 20" version="1.1" xmlns="http://www.w3.org/2000/svg" xmlns:xlink="http://www.w3.org/1999/xlink">
    <title>trash(5)</title>
    <g id="Page-1" stroke="none" stroke-width="1" fill="none" fill-rule="evenodd">
        <g id="Credit-and-payment" transform="translate(-893.000000, -450.000000)" fill="#282929" fill-rule="nonzero">
            <g id="Group-21" transform="translate(391.000000, 424.000000)">
                <g id="trash(5)" transform="translate(502.000000, 26.000000)">
                    <path d="M9.80769231,0 C10.8892764,0 11.7692308,0.841132813 11.7692308,1.875 L11.7692308,1.875 L11.7692308,2.5 L15.3653846,2.5 C16.2667115,2.5 17,3.2009375 17,4.0625 L17,4.0625 L17,6.25 C17,6.59515625 16.7072404,6.875 16.3461538,6.875 L16.3461538,6.875 L15.9888269,6.875 L15.4239447,18.2141797 C15.3740889,19.2155859 14.5134639,20 13.4646538,20 L13.4646538,20 L3.53534615,20 C2.48657692,20 1.62595192,19.2155859 1.57605529,18.2141797 L1.57605529,18.2141797 L1.01117308,6.875 L0.653846154,6.875 C0.292759615,6.875 0,6.59515625 0,6.25 L0,6.25 L0,4.0625 C0,3.2009375 0.733288462,2.5 1.63461538,2.5 L1.63461538,2.5 L5.23076923,2.5 L5.23076923,1.875 C5.23076923,0.841132813 6.11072356,0 7.19230769,0 L7.19230769,0 Z M14.6796635,6.875 L2.32033654,6.875 L2.88227644,18.1547266 C2.89886779,18.4885156 3.18574279,18.75 3.53534615,18.75 L3.53534615,18.75 L13.4646538,18.75 C13.8142163,18.75 14.1010913,18.4885156 14.1177236,18.1547266 L14.1177236,18.1547266 L14.6796635,6.875 Z M8.5,8.125 C8.86108654,8.125 9.15384615,8.40484375 9.15384615,8.75 L9.15384615,8.75 L9.15384615,16.875 C9.15384615,17.2201563 8.86108654,17.5 8.5,17.5 C8.1388726,17.5 7.84615385,17.2201563 7.84615385,16.875 L7.84615385,16.875 L7.84615385,8.75 C7.84615385,8.40484375 8.13891346,8.125 8.5,8.125 Z M11.7692308,8.125 C12.1303173,8.125 12.4230769,8.40484375 12.4230769,8.75 L12.4230769,8.75 L12.4230769,16.875 C12.4230769,17.2201563 12.1303173,17.5 11.7692308,17.5 C11.4081034,17.5 11.1153846,17.2201563 11.1153846,16.875 L11.1153846,16.875 L11.1153846,8.75 C11.1153846,8.40484375 11.4081442,8.125 11.7692308,8.125 Z M5.23076923,8.125 C5.59185577,8.125 5.88461538,8.40484375 5.88461538,8.75 L5.88461538,8.75 L5.88461538,16.875 C5.88461538,17.2201563 5.59185577,17.5 5.23076923,17.5 C4.86964183,17.5 4.57692308,17.2201563 4.57692308,16.875 L4.57692308,16.875 L4.57692308,8.75 C4.57692308,8.40484375 4.86968269,8.125 5.23076923,8.125 Z M15.3653846,3.75 L1.63461538,3.75 C1.45435817,3.75 1.30769231,3.89019531 1.30769231,4.0625 L1.30769231,4.0625 L1.30769231,5.625 L1.30769231,5.625 L15.6923077,5.625 L15.6923077,4.0625 C15.6923077,3.89019531 15.5456418,3.75 15.3653846,3.75 L15.3653846,3.75 Z M9.80769231,1.25 L7.19230769,1.25 C6.83179327,1.25 6.53846154,1.53039062 6.53846154,1.875 L6.53846154,1.875 L6.53846154,2.5 L10.4615385,2.5 L10.4615385,1.875 C10.4615385,1.53039062 10.1682067,1.25 9.80769231,1.25 L9.80769231,1.25 Z" id="Combined-Shape"></path>
                </g>
            </g>
        </g>
    </g>
</svg>