<?xml version="1.0" encoding="UTF-8"?>
<svg width="82px" height="82px" viewBox="0 0 82 82" version="1.1" xmlns="http://www.w3.org/2000/svg" xmlns:xlink="http://www.w3.org/1999/xlink">
    <title>Group</title>
    <g id="Page-1" stroke="none" stroke-width="1" fill="none" fill-rule="evenodd">
        <g id="My-Account" transform="translate(-391.000000, -161.000000)">
            <g id="Group" transform="translate(391.000000, 161.000000)">
                <circle id="Oval" fill="#31A1D0" cx="40.95" cy="40.95" r="40.95"></circle>
                <g id="user(3)" transform="translate(27.000000, 26.000000)" fill="#FFFFFF" fill-rule="nonzero">
                    <path d="M7.543185,16.130595 C7.882745,16.06267 8.2563,16.164525 8.528,16.3683 C9.954295,17.42104 11.652225,17.964375 13.418145,17.964375 C15.184065,17.964375 16.881995,17.42104 18.30829,16.3683 C18.57999,16.164525 18.953545,16.096665 19.293105,16.130595 C22.009845,16.50415 24.42089,18.0323 25.983035,20.341555 C26.288665,20.783035 26.5603,21.258445 26.764075,21.76785 C26.86593,21.97156 26.832,22.20933 26.662285,22.413105 C26.39065,22.888515 26.084955,23.329995 25.745395,23.771475 C25.26992,24.416665 24.726585,24.993995 24.18325,25.53733 C23.707775,26.01274 23.16444,26.488215 22.621105,26.8957 C19.93836,28.89926 16.712215,29.952 13.384215,29.952 C10.056215,29.952 6.83007,28.899325 4.147325,26.8957 C3.603925,26.45422 3.06059,26.01274 2.58518,25.53733 C2.00785,24.993995 1.498445,24.41673 1.023035,23.771475 C0.717405,23.36399 0.377845,22.888515 0.106145,22.413105 C0.00429,22.20933 -0.02964,21.971625 0.072215,21.76785 C0.275925,21.29244 0.547625,20.783035 0.853255,20.341555 C2.381405,18.0323 4.826445,16.50415 7.543185,16.130595 Z M13.41808,3.8191672e-14 C17.696965,3.8191672e-14 21.194745,3.49778 21.194745,7.776665 C21.194745,12.05555 17.696965,15.55333 13.41808,15.55333 C9.139195,15.55333 5.641415,12.05555 5.641415,7.776665 C5.641415,3.49778 9.139195,3.8191672e-14 13.41808,3.8191672e-14 Z" id="Combined-Shape"></path>
                </g>
            </g>
        </g>
    </g>
</svg>