<?xml version="1.0" encoding="UTF-8"?>
<svg width="20px" height="21px" viewBox="0 0 20 21" version="1.1" xmlns="http://www.w3.org/2000/svg" xmlns:xlink="http://www.w3.org/1999/xlink">
    <title>user(24)</title>
    <g id="Page-1" stroke="none" stroke-width="1" fill="none" fill-rule="evenodd">
        <g id="Homepage-03" transform="translate(-1141.000000, -714.000000)" fill="#000000" fill-rule="nonzero">
            <g id="Group-10" transform="translate(393.000000, 663.000000)">
                <g id="Group-9" transform="translate(748.000000, 49.000000)">
                    <g id="user(24)" transform="translate(0.000000, 2.000000)">
                        <path d="M9.56,11.53556 C3.40652,11.53556 0.0176,14.4466 0.0176,19.73256 C0.0176,20.1454 0.3522,20.48 0.76504,20.48 L18.35492,20.48 C18.76776,20.48 19.10236,20.1454 19.10236,19.73256 C19.10236,14.44688 15.71348,11.53556 9.56,11.53556 Z M1.53968,18.98512 C1.83368,15.03288 4.5282,13.03048 9.56,13.03048 C14.5918,13.03048 17.28636,15.03288 17.5806,18.98512 L1.53968,18.98512 L1.53968,18.98512 Z" id="Shape"></path>
                        <path d="M9.56,0 C6.7334,0 4.60196,2.17432 4.60196,5.05748 C4.60196,8.02508 6.82612,10.43908 9.56,10.43908 C12.29388,10.43908 14.51804,8.02508 14.51804,5.05772 C14.51804,2.17432 12.3866,0 9.56,0 Z M9.56,8.94444 C7.65028,8.94444 6.09684,7.20088 6.09684,5.05772 C6.09684,2.99328 7.55336,1.49488 9.56,1.49488 C11.53452,1.49488 13.02316,3.0264 13.02316,5.05772 C13.02316,7.20088 11.46972,8.94444 9.56,8.94444 Z" id="Shape"></path>
                    </g>
                </g>
            </g>
        </g>
    </g>
</svg>