<?xml version="1.0" encoding="UTF-8"?>
<svg width="21px" height="21px" viewBox="0 0 21 21" version="1.1" xmlns="http://www.w3.org/2000/svg" xmlns:xlink="http://www.w3.org/1999/xlink">
    <title>add</title>
    <g id="Page-1" stroke="none" stroke-width="1" fill="none" fill-rule="evenodd">
        <g id="Package-Detail-Dropdowns" transform="translate(-424.000000, -668.000000)" fill="#31A1D0" fill-rule="nonzero">
            <g id="Group-11" transform="translate(424.000000, 665.000000)">
                <g id="add" transform="translate(0.000000, 3.000000)">
                    <path d="M10.24,1.77635684e-14 C15.88668,1.77635684e-14 20.48,4.59412 20.48,10.24 C20.48,15.88588 15.88668,20.48 10.24,20.48 C4.59332,20.48 -4.36983782e-13,15.88668 -4.36983782e-13,10.24 C-4.36983782e-13,4.59332 4.59332,1.77635684e-14 10.24,1.77635684e-14 Z M10.24,1.58636 C5.469,1.58636 1.58636,5.4682 1.58636,10.24 C1.58636,15.0118 5.469,18.89364 10.24,18.89364 C15.0118,18.89364 18.89364,15.0118 18.89364,10.24 C18.89364,5.4682 15.011,1.58636 10.24,1.58636 Z M10.24,5.40952 C10.67864,5.40952 11.0332,5.76488 11.0332,6.20272 L11.0332,6.20272 L11.0332,9.37544 L14.20592,9.37544 C14.64456,9.37544 14.99912,9.7308 14.99912,10.16864 C14.99912,10.60648 14.64456,10.96184 14.20592,10.96184 L14.20592,10.96184 L11.0332,10.96184 L11.0332,14.13456 C11.0332,14.5724 10.67864,14.92776 10.24,14.92776 C9.80136,14.92776 9.4468,14.5724 9.4468,14.13456 L9.4468,14.13456 L9.4468,10.96184 L6.27408,10.96184 C5.83544,10.96184 5.48088,10.60648 5.48088,10.16864 C5.48088,9.7308 5.83544,9.37544 6.27408,9.37544 L6.27408,9.37544 L9.4468,9.37544 L9.4468,6.20272 C9.4468,5.76488 9.80136,5.40952 10.24,5.40952 Z" id="Combined-Shape"></path>
                </g>
            </g>
        </g>
    </g>
</svg>