<?xml version="1.0" encoding="UTF-8"?>
<svg width="45px" height="45px" viewBox="0 0 45 45" version="1.1" xmlns="http://www.w3.org/2000/svg" xmlns:xlink="http://www.w3.org/1999/xlink">
    <title>99F19A0B-F8A8-40BC-8BEC-4D0F9374FE6D</title>
    <g id="Page-1" stroke="none" stroke-width="1" fill="none" fill-rule="evenodd">
        <g id="Login" transform="translate(-938.000000, -541.000000)">
            <g id="Group-3" transform="translate(785.000000, 166.000000)">
                <g id="Group-4" transform="translate(88.000000, 375.000000)">
                    <g id="Group-2" transform="translate(65.000000, 0.000000)">
                        <rect id="Rectangle" fill="#000000" x="0" y="0" width="45" height="45" rx="4"></rect>
                        <g id="apple(1)" transform="translate(14.000000, 12.000000)" fill="#FFFFFF" fill-rule="nonzero">
                            <path d="M13.00112,4.7936 C14.39248,4.7936 15.86576,5.55648 16.91408,6.87104 C13.47728,8.76672 14.03408,13.70496 17.50672,15.0272 C17.02928,16.09216 16.80016,16.56704 16.18448,17.5104 C15.3256,18.82624 14.116,20.46592 12.61456,20.47744 C11.28208,20.49152 10.93904,19.60448 9.1304,19.61472 C7.32176,19.62368 6.94544,20.4928 5.6104,20.48014 C4.11024,20.4672 2.96336,18.98752 2.10448,17.67168 C-0.29552,13.99424 -0.54896,9.6768 0.932,7.38048 C1.98544,5.74976 3.64688,4.79616 5.2072,4.79616 C6.79568,4.79616 7.79536,5.67296 9.1112,5.67296 C10.38736,5.67296 11.16432,4.7936 13.00112,4.7936 Z M12.5992,-6.83897383e-14 C12.78224,1.24416 12.27664,2.46272 11.60848,3.32416 C10.89424,4.2496 9.6616,4.96512 8.46864,4.928 C8.25104,3.73632 8.80912,2.51008 9.48752,1.68448 C10.2312,0.7744 11.50736,0.07552 12.5992,-6.83897383e-14 Z" id="Combined-Shape"></path>
                        </g>
                    </g>
                </g>
            </g>
        </g>
    </g>
</svg>