<?xml version="1.0" encoding="UTF-8"?>
<svg width="19px" height="17px" viewBox="0 0 19 17" version="1.1" xmlns="http://www.w3.org/2000/svg" xmlns:xlink="http://www.w3.org/1999/xlink">
    <title>bed</title>
    <g id="Page-1" stroke="none" stroke-width="1" fill="none" fill-rule="evenodd">
        <g id="Customise-Your-Trip" transform="translate(-1552.000000, -163.000000)" fill="#202121" fill-rule="nonzero" stroke="#202121" stroke-width="0.3">
            <g id="Group-3" transform="translate(1535.000000, 157.000000)">
                <g id="Group-11" transform="translate(18.000000, 0.000000)">
                    <g id="bed" transform="translate(0.000000, 7.000000)">
                        <path d="M16.868544,10.691373 C16.894581,10.621677 16.903755,10.544952 16.879797,10.467501 L15.487989,5.94429 L15.487989,1.771011 C15.487989,0.80091 14.698794,0.011022 13.728,0.011022 L3.168,0.011022 C2.197173,0.011022 1.408011,0.80091 1.408011,1.771011 L1.408011,5.944323 L0.016203,10.467501 C-0.007722,10.544226 0.001419,10.620984 0.027456,10.691373 C0.01056,10.766019 0,10.842744 0,10.923 L0,13.738989 L0,15.147 C0,15.341304 0.157707,15.499011 0.352011,15.499011 L1.760022,15.499011 C1.954293,15.499011 2.112,15.341304 2.112,15.147 L2.112,14.091 L14.784,14.091 L14.784,15.147 C14.784,15.341304 14.941707,15.499011 15.136011,15.499011 L16.544022,15.499011 C16.738326,15.499011 16.896033,15.341304 16.896033,15.147 L16.896033,13.738989 L16.896033,10.923 C16.896033,10.842744 16.88544,10.766019 16.868544,10.691373 Z M2.112,1.771011 C2.112,1.188792 2.585781,0.715011 3.168,0.715011 L13.728,0.715011 C14.310219,0.715011 14.784,1.188792 14.784,1.771011 L14.784,5.643 L13.827264,5.643 L13.499211,4.330755 C13.380939,3.859779 12.959232,3.531 12.474165,3.531 L10.207989,3.531 C9.62577,3.531 9.151989,4.004781 9.151989,4.587 L9.151989,5.643 L7.743978,5.643 L7.743978,4.587693 C7.743978,4.005474 7.270197,3.531693 6.687978,3.531693 L4.421802,3.531693 C3.936735,3.531693 3.515061,3.861165 3.396789,4.331448 L3.068736,5.643 L2.112,5.643 L2.112,1.771011 Z M13.104267,6.211821 C13.036683,6.29772 12.935307,6.346989 12.826176,6.346989 L10.207989,6.346989 C10.014378,6.346989 9.855978,6.189282 9.855978,5.994978 L9.855978,4.587 C9.855978,4.392696 10.014378,4.234989 10.207989,4.234989 L12.474858,4.234989 C12.636789,4.234989 12.776874,4.34412 12.816309,4.501101 L13.16832,5.909112 C13.195083,6.015405 13.171851,6.125229 13.104267,6.211821 Z M7.040715,4.587 L7.040715,5.99148 C7.040715,5.992899 7.040022,5.993592 7.040022,5.995011 C7.040022,5.995704 7.040022,5.99643 7.040022,5.99643 C7.039329,6.190041 6.881622,6.347022 6.688737,6.347022 L4.07055,6.347022 C3.960726,6.347022 3.860043,6.297753 3.792459,6.211854 C3.724875,6.125262 3.701643,6.014745 3.728406,5.909145 L4.080417,4.501134 C4.119852,4.344846 4.259937,4.23502199 4.422561,4.23502199 L6.688737,4.23502199 C6.882315,4.234989 7.040715,4.392696 7.040715,4.587 Z M2.019765,6.346989 L3.079296,6.346989 C3.116619,6.452589 3.165195,6.553965 3.236277,6.645474 C3.439029,6.903138 3.742464,7.050978 4.069824,7.050978 L6.688011,7.050978 C7.146315,7.050978 7.533504,6.755298 7.679232,6.346989 L9.216768,6.346989 C9.362496,6.756024 9.749685,7.050978 10.207989,7.050978 L12.826176,7.050978 C13.153536,7.050978 13.456245,6.903138 13.658997,6.645474 C13.730112,6.554658 13.778688,6.452589 13.815978,6.346989 L14.876202,6.346989 L15.963189,9.879672 C15.922368,9.874755 15.88224,9.867 15.84,9.867 L1.056,9.867 C1.01376,9.867 0.973632,9.874755 0.933504,9.879672 L2.019765,6.346989 Z M1.408011,14.794989 L0.703989,14.794989 L0.703989,14.091 L1.407978,14.091 L1.407978,14.794989 L1.408011,14.794989 Z M16.192011,14.794989 L15.488022,14.794989 L15.488022,14.091 L16.192011,14.091 L16.192011,14.794989 L16.192011,14.794989 Z M16.192011,13.387011 L0.703989,13.387011 L0.703989,10.923 C0.703989,10.728696 0.862389,10.570989 1.056,10.570989 L15.84,10.570989 C16.033611,10.570989 16.192011,10.728696 16.192011,10.923 L16.192011,13.387011 Z" id="Shape"></path>
                    </g>
                </g>
            </g>
        </g>
    </g>
</svg>