<?xml version="1.0" encoding="UTF-8"?>
<svg width="12px" height="10px" viewBox="0 0 12 10" version="1.1" xmlns="http://www.w3.org/2000/svg" xmlns:xlink="http://www.w3.org/1999/xlink">
    <title>check</title>
    <g id="Page-1" stroke="none" stroke-width="1" fill="none" fill-rule="evenodd">
        <g id="Review-and-Payment" transform="translate(-414.000000, -1305.000000)" fill="#31A1D0" fill-rule="nonzero">
            <g id="Group-6" transform="translate(411.000000, 1253.000000)">
                <g id="Group-15" transform="translate(3.000000, 43.000000)">
                    <g id="check" transform="translate(0.000000, 9.000000)">
                        <path d="M4.491648,8.92027733 C4.37994667,9.032576 4.22762667,9.095296 4.06933333,9.095296 C3.91104,9.095296 3.75872,9.032576 3.64701867,8.92027733 L0.274474667,5.547136 C-0.0755626667,5.19709867 -0.0755626667,4.629632 0.274474667,4.280192 L0.696789333,3.85787733 C1.04682667,3.50784 1.613696,3.50784 1.96373333,3.85787733 L4.06933333,5.96347733 L9.75893333,0.273877333 C10.1089707,-0.07616 10.6764373,-0.07616 11.0258773,0.273877333 L11.448192,0.696192 C11.7982293,1.04622933 11.7982293,1.613696 11.448192,1.963136 L4.491648,8.92027733 Z" id="Path"></path>
                    </g>
                </g>
            </g>
        </g>
    </g>
</svg>