<?xml version="1.0" encoding="UTF-8"?>
<svg width="19px" height="19px" viewBox="0 0 19 19" version="1.1" xmlns="http://www.w3.org/2000/svg" xmlns:xlink="http://www.w3.org/1999/xlink">
    <title>enter</title>
    <g id="Page-1" stroke="none" stroke-width="1" fill="none" fill-rule="evenodd">
        <g id="Customise-Your-Trip" transform="translate(-1554.000000, -361.000000)" fill="#000000" fill-rule="nonzero">
            <g id="Group-11" transform="translate(1554.000000, 357.000000)">
                <g id="enter" transform="translate(0.000000, 4.000000)">
                    <path d="M16.8959531,3.55271368e-15 L16.9350535,0.00390721585 C16.9394495,0.00405845971 16.9438414,0.00422817475 16.9482293,0.00441628777 L16.8959531,3.55271368e-15 C16.9281097,3.55271368e-15 16.9596536,0.00263944908 16.9903797,0.00771337475 C17.7838278,0.0625698818 18.432,0.719146705 18.432,1.53604688 L18.432,15.3600469 C18.432,16.0159219 18.0142031,16.6010625 17.3929219,16.817625 L12.7771875,18.3567656 C12.609,18.4089375 12.4531875,18.432 12.2879531,18.432 C11.4408281,18.432 10.7520469,17.7430781 10.7520469,16.8959531 L10.752,16.128 L8.25595312,16.128 C7.090875,16.128 6.14404688,15.1810312 6.14404688,14.0159531 L6.14404688,12.8639531 C6.14404688,12.546 6.40209377,12.2879531 6.72004688,12.2879531 C7.038,12.2879531 7.29604688,12.546 7.29604688,12.8639531 L7.29604688,14.0159531 C7.29604688,14.545125 7.72678123,14.976 8.25595312,14.976 L10.752,14.976 L10.7520469,3.07195312 C10.7520469,2.415375 11.1698438,1.82939062 11.7918281,1.61353123 L13.174,1.152 L8.25595312,1.152 C7.72678123,1.152 7.29604688,1.582875 7.29604688,2.11204688 L7.29604688,3.26404688 C7.29604688,3.582 7.038,3.84004688 6.72004688,3.84004688 C6.40209377,3.84004688 6.14404688,3.582 6.14404688,3.26404688 L6.14404688,2.11204688 C6.14404688,0.946968768 7.090875,3.55271368e-15 8.25595312,3.55271368e-15 L16.8959531,3.55271368e-15 Z M16.8959531,1.152 C16.8460312,1.152 16.8038438,1.1581875 16.7585625,1.17196877 L12.1636406,2.70407812 C12.0130312,2.75639062 11.9040469,2.90840623 11.9040469,3.07195312 L11.9040469,16.8959531 C11.9040469,17.1579375 12.1881094,17.3345625 12.4254844,17.2600312 L17.0204062,15.7279219 C17.1701719,15.6756094 17.28,15.5235938 17.28,15.3600469 L17.28,1.53604688 C17.28,1.32482812 17.1080156,1.152 16.8959531,1.152 Z M5.39985938,4.7761875 L8.27985938,7.6561875 C8.31934802,7.69567614 8.3519062,7.73947032 8.37753393,7.78605952 C8.37967191,7.79161716 8.38272933,7.79737732 8.38569082,7.80319439 C8.39667808,7.82312218 8.40550759,7.84342881 8.41311444,7.86408401 C8.41597678,7.87380198 8.41950849,7.88420899 8.42274596,7.89474441 C8.42878597,7.91230733 8.4332001,7.92968033 8.43679423,7.94718832 C8.43901225,7.9608961 8.44139148,7.9750356 8.44324534,7.9893392 C8.44602653,8.00629632 8.44746841,8.02339993 8.44815037,8.04052838 C8.44788905,8.04830993 8.44804688,8.05613664 8.44804688,8.064 L8.44810959,8.08766581 C8.44742589,8.10412197 8.4460407,8.12055465 8.44395405,8.1369152 L8.44804688,8.064 C8.44804688,8.10482807 8.44379198,8.14466835 8.43570169,8.18310132 C8.43283931,8.19881317 8.42883614,8.2145142 8.42416299,8.2300571 C8.41964064,8.24358831 8.41516728,8.25667765 8.41024548,8.26954579 C8.40420026,8.28663564 8.39662723,8.30392782 8.38816581,8.32089014 C8.38214176,8.33194417 8.37631306,8.34272743 8.37015758,8.3532973 C8.3613048,8.36940555 8.35101031,8.3852662 8.33985808,8.40069956 C8.33869974,8.4015952 8.33778504,8.4028534 8.33686538,8.40410775 L8.27985938,8.47110938 L8.27985938,8.47110938 L5.39985938,11.3511094 C5.2869375,11.4638906 5.13942188,11.52 4.99204688,11.52 C4.84453123,11.52 4.69715623,11.4638906 4.5849375,11.3511094 C4.3599375,11.1259688 4.3599375,10.7611875 4.5849375,10.5361875 L6.481,8.639 L0.576,8.64 C0.258046884,8.64 4.72510919e-12,8.38195312 4.72510919e-12,8.064 C4.72510919e-12,7.74604688 0.258046884,7.488 0.576,7.488 L6.481,7.487 L4.5849375,5.59110938 C4.3599375,5.36596877 4.3599375,5.0011875 4.5849375,4.7761875 C4.8099375,4.5511875 5.17471877,4.5511875 5.39985938,4.7761875 Z" id="Combined-Shape"></path>
                </g>
            </g>
        </g>
    </g>
</svg>