<?xml version="1.0" encoding="UTF-8"?>
<svg width="43px" height="43px" viewBox="0 0 43 43" version="1.1" xmlns="http://www.w3.org/2000/svg" xmlns:xlink="http://www.w3.org/1999/xlink">
    <title>13A05DFB-342D-42B9-9D27-2DBF7996090A</title>
    <g id="Page-1" stroke="none" stroke-width="1" fill="none" fill-rule="evenodd">
        <g id="Homepage-03" transform="translate(-517.000000, -3034.000000)" fill="#31A1D0" fill-rule="nonzero">
            <g id="Group-26" transform="translate(390.000000, 2842.000000)">
                <g id="Group-16" transform="translate(18.000000, 125.000000)">
                    <g id="Group-17" transform="translate(72.000000, 30.000000)">
                        <g id="dollar(4)" transform="translate(37.000000, 37.000000)">
                            <path d="M21.12,-2.20268248e-13 C32.7658203,-2.20268248e-13 42.24,9.47417966 42.24,21.12 C42.24,32.7649609 32.7658203,42.24 21.12,42.24 C9.47417966,42.24 7.10542736e-15,32.7649609 7.10542736e-15,21.12 C7.10542736e-15,9.47417966 9.47417966,-2.20268248e-13 21.12,-2.20268248e-13 Z M21.12,3.52 C11.4155078,3.52 3.52,11.4155078 3.52,21.12 C3.52,30.8244922 11.4155078,38.72 21.12,38.72 C30.8244922,38.72 38.72,30.8244922 38.72,21.12 C38.72,11.4155078 30.8244922,3.52 21.12,3.52 Z M22.88,7.04 L22.88,10.1376172 C23.1167578,10.2072266 23.3517968,10.2871484 23.5829688,10.3876953 C25.8289453,11.3592187 27.28,13.4990625 27.28,15.84 L27.28,15.84 L27.28,17.6 L23.76,17.6 L23.76,15.84 C23.76,14.91875 23.1270703,14.0254297 22.185625,13.6172266 C21.5380859,13.3370703 20.8200782,13.3267578 20.1652343,13.5854297 C19.5095313,13.8449609 18.9939063,14.3446875 18.7141797,14.9917968 C18.4344532,15.6384766 18.4228516,16.3564843 18.6823828,17.0121875 C18.9419141,17.6678907 19.4416407,18.1835157 20.08875,18.4632422 L20.08875,18.4632422 L23.5116407,19.8485547 C25.0606641,20.5188672 26.2255468,21.7211328 26.8314063,23.2503907 C27.4368359,24.7800782 27.4110547,26.4537109 26.7570703,27.9636328 C26.1035157,29.4739843 24.90125,30.6397266 23.3719922,31.2451562 C23.21,31.3096093 23.0454297,31.3641797 22.8808593,31.4144532 L22.8808593,31.4144532 L22.8808593,35.2 L19.3608593,35.2 L19.3608593,31.4247657 C19.1232422,31.3542968 18.8882032,31.2735157 18.6578907,31.1738282 C16.4136328,30.2014453 14.9625782,27.9838282 14.9608593,25.5225782 L14.9608593,25.5225782 L14.96,23.7625782 L18.48,23.7591407 L18.4808593,25.5191407 C18.4817188,26.5778907 19.1004688,27.5292187 20.0560938,27.9425782 C20.7027734,28.2231641 21.4190625,28.2339062 22.075625,27.974375 C22.7313282,27.7148437 23.2469532,27.2146875 23.5266797,26.5680078 C23.8068359,25.9213282 23.8180078,25.2033203 23.5584766,24.5476172 C23.2989453,23.8919141 22.7992188,23.3762891 22.1521093,23.0974218 L22.1521093,23.0974218 L18.7292188,21.71125 C17.1801953,21.0417968 16.0153125,19.8395312 15.4098828,18.3094141 C14.8044532,16.7797266 14.8298047,15.1052343 15.4837891,13.5953125 C16.2314453,11.8658203 17.6837891,10.6558203 19.36,10.1492187 L19.36,10.1492187 L19.36,7.04 L22.88,7.04 Z" id="Combined-Shape"></path>
                        </g>
                    </g>
                </g>
            </g>
        </g>
    </g>
</svg>