<?xml version="1.0" encoding="UTF-8"?>
<svg width="41px" height="41px" viewBox="0 0 41 41" version="1.1" xmlns="http://www.w3.org/2000/svg" xmlns:xlink="http://www.w3.org/1999/xlink">
    <title>359E7D93-213B-4168-BCE7-04751AC09C7D</title>
    <g id="Page-1" stroke="none" stroke-width="1" fill="none" fill-rule="evenodd">
        <g id="Homepage-03" transform="translate(-1361.000000, -3035.000000)" fill="#31A1D0" fill-rule="nonzero">
            <g id="Group-26" transform="translate(390.000000, 2842.000000)">
                <g id="Group-16" transform="translate(861.000000, 125.000000)">
                    <g id="Group-20" transform="translate(72.000000, 30.000000)">
                        <g id="calendar(7)" transform="translate(38.000000, 38.000000)">
                            <path d="M30.88,3.55271368e-14 C31.76368,3.55271368e-14 32.48,0.71632 32.48,1.6 L32.48,1.6 L32.48,3.2 L34.56,3.2 C38.08896,3.2 40.96,6.07104 40.96,9.6 L40.96,9.6 L40.96,26.56 C40.96,27.44368 40.24368,28.16 39.36,28.16 C38.47632,28.16 37.76,27.44368 37.76,26.56 L37.76,26.56 L37.76,9.6 C37.76,7.83552 36.32448,6.4 34.56,6.4 L34.56,6.4 L32.48,6.4 L32.48,8 C32.48,8.88368 31.76368,9.6 30.88,9.6 C29.99632,9.6 29.28,8.88368 29.28,8 L29.28,8 L29.28,6.4 L22,6.4 L22,8 C22,8.88368 21.28368,9.6 20.4,9.6 C19.51632,9.6 18.8,8.88368 18.8,8 L18.8,8 L18.8,6.4 L11.6,6.4 L11.6,8 C11.6,8.88368 10.88368,9.6 10,9.6 C9.11632,9.6 8.4,8.88368 8.4,8 L8.4,8 L8.4,6.4 L6.4,6.4 C4.63552,6.4 3.2,7.83552 3.2,9.6 L3.2,9.6 L3.2,34.56 C3.2,36.32448 4.63552,37.76 6.4,37.76 L6.4,37.76 L34.56,37.76 C36.32448,37.76 37.76,36.32448 37.76,34.56 C37.76,33.67632 38.47632,32.96 39.36,32.96 C40.24368,32.96 40.96,33.67632 40.96,34.56 C40.96,38.08896 38.08896,40.96 34.56,40.96 L34.56,40.96 L6.4,40.96 C2.87104,40.96 3.55271368e-14,38.08896 3.55271368e-14,34.56 L3.55271368e-14,34.56 L3.55271368e-14,9.6 C3.55271368e-14,6.07104 2.87104,3.2 6.4,3.2 L6.4,3.2 L8.4,3.2 L8.4,1.6 C8.4,0.71632 9.11632,3.55271368e-14 10,3.55271368e-14 C10.88368,3.55271368e-14 11.6,0.71632 11.6,1.6 L11.6,1.6 L11.6,3.2 L18.8,3.2 L18.8,1.6 C18.8,0.71632 19.51632,3.55271368e-14 20.4,3.55271368e-14 C21.28368,3.55271368e-14 22,0.71632 22,1.6 L22,1.6 L22,3.2 L29.28,3.2 L29.28,1.6 C29.28,0.71632 29.99632,3.55271368e-14 30.88,3.55271368e-14 Z M29.28,22.16 C31.04448,22.16 32.48,23.59552 32.48,25.36 L32.48,25.36 L32.48,29.12 C32.48,30.88448 31.04448,32.32 29.28,32.32 L29.28,32.32 L25.52,32.32 C23.75552,32.32 22.32,30.88448 22.32,29.12 L22.32,29.12 L22.32,25.36 C22.32,23.59552 23.75552,22.16 25.52,22.16 L25.52,22.16 Z M10,29.12 C10.8836556,29.12 11.6,29.8363444 11.6,30.72 C11.6,31.6036556 10.8836556,32.32 10,32.32 C9.1163444,32.32 8.4,31.6036556 8.4,30.72 C8.4,29.8363444 9.1163444,29.12 10,29.12 Z M16.96,29.12 C17.8436556,29.12 18.56,29.8363444 18.56,30.72 C18.56,31.6036556 17.8436556,32.32 16.96,32.32 C16.0763444,32.32 15.36,31.6036556 15.36,30.72 C15.36,29.8363444 16.0763444,29.12 16.96,29.12 Z M29.28,25.36 L25.52,25.36 L25.52,29.12 L29.282,29.11992 L29.28,25.36 Z M10,22.16 C10.8836556,22.16 11.6,22.8763444 11.6,23.76 C11.6,24.6436556 10.8836556,25.36 10,25.36 C9.1163444,25.36 8.4,24.6436556 8.4,23.76 C8.4,22.8763444 9.1163444,22.16 10,22.16 Z M16.96,22.16 C17.8436556,22.16 18.56,22.8763444 18.56,23.76 C18.56,24.6436556 17.8436556,25.36 16.96,25.36 C16.0763444,25.36 15.36,24.6436556 15.36,23.76 C15.36,22.8763444 16.0763444,22.16 16.96,22.16 Z M30.88,15.2 C31.7636556,15.2 32.48,15.9163444 32.48,16.8 C32.48,17.6836556 31.7636556,18.4 30.88,18.4 C29.9963444,18.4 29.28,17.6836556 29.28,16.8 C29.28,15.9163444 29.9963444,15.2 30.88,15.2 Z M23.92,15.2 C24.8036556,15.2 25.52,15.9163444 25.52,16.8 C25.52,17.6836556 24.8036556,18.4 23.92,18.4 C23.0363444,18.4 22.32,17.6836556 22.32,16.8 C22.32,15.9163444 23.0363444,15.2 23.92,15.2 Z M10,15.2 C10.8836556,15.2 11.6,15.9163444 11.6,16.8 C11.6,17.6836556 10.8836556,18.4 10,18.4 C9.1163444,18.4 8.4,17.6836556 8.4,16.8 C8.4,15.9163444 9.1163444,15.2 10,15.2 Z M16.96,15.2 C17.8436556,15.2 18.56,15.9163444 18.56,16.8 C18.56,17.6836556 17.8436556,18.4 16.96,18.4 C16.0763444,18.4 15.36,17.6836556 15.36,16.8 C15.36,15.9163444 16.0763444,15.2 16.96,15.2 Z" id="Combined-Shape"></path>
                        </g>
                    </g>
                </g>
            </g>
        </g>
    </g>
</svg>