<?xml version="1.0" encoding="UTF-8"?>
<svg width="45px" height="45px" viewBox="0 0 45 45" version="1.1" xmlns="http://www.w3.org/2000/svg" xmlns:xlink="http://www.w3.org/1999/xlink">
    <title>046C8818-64B1-4310-BEE1-DC9BEECEA610</title>
    <g id="Page-1" stroke="none" stroke-width="1" fill="none" fill-rule="evenodd">
        <g id="Homepage-03" transform="translate(-1078.000000, -3033.000000)" fill="#31A1D0" fill-rule="nonzero">
            <g id="Group-26" transform="translate(390.000000, 2842.000000)">
                <g id="Group-16" transform="translate(580.000000, 125.000000)">
                    <g id="Group-19" transform="translate(72.000000, 30.000000)">
                        <g id="satisfaction" transform="translate(36.000000, 36.000000)">
                            <path d="M22.176,16.192 C24.397912,16.192 25.948032,16.915536 26.783328,18.342544 C27.456,19.492 27.456,20.786392 27.456,21.56 L27.456,25.344 L34.144,25.344 C35.3934843,25.3442146 36.5261299,26.0788332 37.0358554,27.2196185 C37.5455808,28.3604037 37.3371608,29.6942372 36.50372,30.625144 C37.6257207,31.876572 37.5735509,33.7868359 36.38492,34.97516 C36.2929107,35.0665418 36.1955267,35.1523478 36.093288,35.23212 C36.9117398,36.4854798 36.7396581,38.1409314 35.68092,39.19916 C35.5889107,39.2905418 35.4915267,39.3763478 35.389288,39.45612 C36.0246105,40.4294959 36.0753856,41.6727639 35.5215518,42.6947049 C34.967718,43.7166459 33.8983659,44.3528688 32.736,44.3520011 L32.736,44.3520011 L18.656,44.3520011 C17.9844394,44.3525166 17.3244435,44.1772175 16.741648,43.843536 C16.5507484,44.1590911 16.2088058,44.3520011 15.84,44.3520011 L15.84,44.3520011 L8.8,44.3520011 C8.2167873,44.3520011 7.744,43.8792127 7.744,43.296 L7.744,43.296 L7.744,26.4 C7.744,25.8167873 8.2167873,25.344 8.8,25.344 L8.8,25.344 L15.84,25.344 C16.4232127,25.344 16.896,25.8167873 16.896,26.4 L16.896,26.4 L16.896,27.265128 L19.229496,25.74088 L21.12,22.6688 L21.12,17.248 C21.12,16.6647873 21.5927873,16.192 22.176,16.192 Z M14.784,27.456 L9.856,27.456 L9.856,42.24 L14.784,42.24 L14.784,27.456 Z M23.232,18.3832 L23.232,22.968 C23.2321872,23.1635328 23.1780818,23.355278 23.075712,23.521872 L23.075712,23.521872 L21.192512,26.581456 C21.1408126,26.8692932 20.97347,27.123392 20.729456,27.284576 L20.729456,27.284576 L16.896,29.788 L16.896,40.48 C16.8971154,41.4515588 17.6844412,42.2388846 18.656,42.2400017 L18.656,42.2400017 L32.736,42.2400017 C33.0167268,42.2405037 33.2860195,42.1288265 33.484,41.9298 C33.785534,41.6275349 33.8753874,41.1734364 33.7116885,40.7791148 C33.5479897,40.3847931 33.1629507,40.1278417 32.736,40.128 L32.736,40.128 L32.032,40.128 C31.4487873,40.128 30.976,39.6552127 30.976,39.072 C30.976,38.4887873 31.4487873,38.016 32.032,38.016 L32.032,38.016 L33.44,38.016 C34.0232127,38.016 34.496,37.5432127 34.496,36.96 C34.496,36.3767873 34.0232127,35.904 33.44,35.904 L33.44,35.904 L32.032,35.904 C31.4487873,35.904 30.976,35.4312127 30.976,34.848 C30.976,34.2647873 31.4487873,33.792 32.032,33.792 L32.032,33.792 L34.144,33.792 C34.7272127,33.792 35.2,33.3192127 35.2,32.736 C35.2,32.1527873 34.7272127,31.68 34.144,31.68 L34.144,31.68 L32.032,31.68 C31.4487873,31.68 30.976,31.2072127 30.976,30.624 C30.976,30.0407873 31.4487873,29.568 32.032,29.568 L32.032,29.568 L34.144,29.568 C34.7272127,29.568 35.2,29.0952127 35.2,28.512 C35.2,27.9287873 34.7272127,27.456 34.144,27.456 L34.144,27.456 L26.4,27.456 C25.8167873,27.456 25.344,26.9832127 25.344,26.4 L25.344,26.4 L25.344,21.56 C25.344,20.021496 25.166152,18.712232 23.232,18.3832 L23.232,18.3832 Z M12.32,39.512 C12.9032127,39.512 13.376,39.9847873 13.376,40.568 C13.376,41.1512127 12.9032127,41.624 12.32,41.624 C11.7367873,41.624 11.264,41.1512127 11.264,40.568 C11.264,39.9847873 11.7367873,39.512 12.32,39.512 Z M39.3668,8.71684 C39.6955087,8.48532334 40.1271669,8.46055258 40.4802019,8.65294728 C40.8332368,8.84534197 41.0463897,9.22151776 41.03,9.62324 L41.03,9.62324 L40.87556,13.419296 L43.914992,15.698408 C44.236548,15.9395629 44.393321,16.3423531 44.3193996,16.7374349 C44.2454782,17.1325166 43.9536813,17.4513775 43.566688,17.55996 L43.566688,17.55996 L39.908792,18.586128 L38.6804,22.181192 C38.431712,22.992024 37.252336,23.14796 36.802304,22.425216 L36.802304,22.425216 L34.695936,19.263376 L30.897328,19.206088 C30.4954155,19.2000135 30.1318038,18.9662914 29.9593785,18.6031935 C29.7869532,18.2400956 29.8356184,17.8105945 30.084912,17.49528 L30.084912,17.49528 L32.441024,14.514984 L31.321752,10.884456 C31.2033793,10.5003596 31.3133105,10.0823674 31.6053305,9.80620344 C31.8973505,9.53003952 32.3208229,9.44359067 32.69772,9.5832 L32.69772,9.5832 L36.260224,10.9032 Z M3.87197414,8.65294728 C4.22500908,8.46055258 4.65666728,8.48532334 4.985376,8.71684 L4.985376,8.71684 L8.091776,10.9032 L11.65428,9.5832 C12.0311958,9.44357046 12.4546975,9.5300259 12.746726,9.8062166 C13.0387545,10.0824073 13.1486657,10.5004357 13.030248,10.884544 L13.030248,10.884544 L11.910976,14.515072 L14.267088,17.495368 C14.814976,18.143752 14.30352,19.22096 13.454672,19.206176 L13.454672,19.206176 L9.656064,19.263464 L7.549696,22.425304 C7.099752,23.147872 5.920288,22.992288 5.6716,22.18128 L5.6716,22.18128 L4.443384,18.586216 L0.785488,17.560048 C0.398494716,17.4514655 0.106697772,17.1326046 0.032776361,16.7375229 C-0.0411450498,16.3424411 0.115628019,15.9396509 0.437184,15.698496 L0.437184,15.698496 L3.476616,13.419296 L3.322176,9.62324 C3.30578627,9.22151776 3.51893921,8.84534197 3.87197414,8.65294728 Z M38.832904,11.675312 L37.021864,12.949816 C36.7376252,13.1498982 36.3731266,13.197287 36.047176,13.076536 L36.047176,13.076536 L33.970376,12.307064 L34.622808,14.423288 C34.7252391,14.7554182 34.6576785,15.1166847 34.442144,15.389352 L34.442144,15.389352 L33.06864,17.12656 L35.282984,17.16 C35.6305059,17.1652945 35.9531701,17.3412542 36.145824,17.630536 L36.145824,17.630536 L37.3736,19.473608 L38.089744,17.377712 C38.2021195,17.04882 38.4691357,16.7962833 38.803776,16.7024 L38.803776,16.7024 L40.93628,16.104616 L39.164488,14.775816 C38.8864275,14.5673114 38.7287658,14.2353364 38.74288,13.888072 L38.74288,13.888072 L38.832904,11.675312 Z M5.51936,11.675048 L5.609384,13.887808 C5.62349821,14.2350724 5.46583646,14.5670474 5.187776,14.775552 L5.187776,14.775552 L3.415984,16.104352 L5.548312,16.702752 C5.8829523,16.7966353 6.14996855,17.049172 6.262344,17.378064 L6.262344,17.378064 L6.9784,19.473608 L8.206088,17.630536 C8.39873956,17.3411954 8.72144629,17.1651974 9.069016,17.159912 L9.069016,17.159912 L11.28336,17.126472 L9.909856,15.389264 C9.69432149,15.1165967 9.62676092,14.7553302 9.729192,14.4232 L9.729192,14.4232 L10.381888,12.307152 L8.305088,13.076624 C7.97913743,13.197375 7.61463877,13.1499862 7.3304,12.949904 L7.3304,12.949904 L5.51936,11.675048 Z M22.176,0.0185195983 C22.5779702,0.0185195983 22.9450811,0.246733198 23.122968,0.6072 L23.122968,0.6072 L24.804296,4.013768 L28.56392,4.560072 C28.96168,4.61789638 29.2921242,4.89651419 29.4163231,5.27878542 C29.5405221,5.66105664 29.4369376,6.08068925 29.14912,6.361256 L29.14912,6.361256 L26.428512,9.013048 L27.070912,12.757536 C27.242072,13.589048 26.275392,14.290144 25.538656,13.870648 L25.538656,13.870648 L22.176,12.102816 L18.813168,13.870648 C18.4573954,14.0577082 18.0262765,14.0265712 17.7010765,13.7903286 C17.3758764,13.554086 17.2129934,13.1537086 17.280912,12.757536 L17.280912,12.757536 L17.923312,9.013048 L15.20288,6.361256 C14.9150624,6.08068925 14.8114779,5.66105664 14.9356769,5.27878542 C15.0598758,4.89651419 15.39032,4.61789638 15.78808,4.560072 L15.78808,4.560072 L19.547704,4.013768 L21.229032,0.6072 C21.4069189,0.246733198 21.7740298,0.0185195983 22.176,0.0185195983 Z M22.176,3.460336 L21.195856,5.44632 C21.0420303,5.7579688 20.7447086,5.97397539 20.400776,6.023952 L20.400776,6.023952 L18.209224,6.342424 L19.795072,7.888232 C20.0439352,8.13082617 20.1574996,8.4803388 20.09876,8.82288 L20.09876,8.82288 L19.724408,11.00528 L21.684608,9.974888 C21.9922418,9.81315881 22.3597582,9.81315881 22.667392,9.974888 L22.667392,9.974888 L24.627592,11.00528 L24.25324,8.82288 C24.1945004,8.4803388 24.3080648,8.13082617 24.556928,7.888232 L24.556928,7.888232 L26.142424,6.342424 L23.951224,6.023952 C23.6072914,5.97397539 23.3099697,5.7579688 23.156144,5.44632 L23.156144,5.44632 L22.176,3.460336 Z" id="Combined-Shape"></path>
                        </g>
                    </g>
                </g>
            </g>
        </g>
    </g>
</svg>