<?xml version="1.0" encoding="UTF-8"?>
<svg width="22px" height="22px" viewBox="0 0 22 22" version="1.1" xmlns="http://www.w3.org/2000/svg" xmlns:xlink="http://www.w3.org/1999/xlink">
    <title>clock</title>
    <g id="Page-1" stroke="none" stroke-width="1" fill="none" fill-rule="evenodd">
        <g id="Package-Detail-Dropdowns-When" transform="translate(-461.000000, -279.000000)" fill="#000000" fill-rule="nonzero">
            <g id="Group" transform="translate(446.000000, 261.000000)">
                <g id="Group-9" transform="translate(15.000000, 7.000000)">
                    <g id="clock" transform="translate(0.000000, 11.000000)">
                        <path d="M14.583072,12.650862 L11.584818,10.402182 L11.584818,5.821578 C11.584818,5.361006 11.21253,4.988718 10.751958,4.988718 C10.291386,4.988718 9.919098,5.361006 9.919098,5.821578 L9.919098,10.818654 C9.919098,11.080986 10.042368,11.328366 10.252242,11.484942 L13.583598,13.98348 C13.733496,14.095914 13.908426,14.150052 14.082474,14.150052 C14.33649,14.150052 14.586348,14.035938 14.749602,13.816068 C15.026172,13.448736 14.951202,12.92655 14.583072,12.650862 Z" id="Path"></path>
                        <path d="M10.752,0 C4.822986,0 0,4.822986 0,10.752 C0,16.681014 4.822986,21.504 10.752,21.504 C16.681014,21.504 21.504,16.681014 21.504,10.752 C21.504,4.822986 16.681014,0 10.752,0 Z M10.752,19.838322 C5.74245,19.838322 1.665678,15.76155 1.665678,10.752 C1.665678,5.74245 5.74245,1.665678 10.752,1.665678 C15.76239,1.665678 19.838322,5.74245 19.838322,10.752 C19.838322,15.76155 15.76155,19.838322 10.752,19.838322 Z" id="Shape"></path>
                    </g>
                </g>
            </g>
        </g>
    </g>
</svg>