<?xml version="1.0" encoding="UTF-8"?>
<svg width="34px" height="24px" viewBox="0 0 34 24" version="1.1" xmlns="http://www.w3.org/2000/svg" xmlns:xlink="http://www.w3.org/1999/xlink">
    <title>credit-card(1)</title>
    <g id="Page-1" stroke="none" stroke-width="1" fill="none" fill-rule="evenodd">
        <g id="My-Account" transform="translate(-435.000000, -475.000000)" fill="#31A1D0" fill-rule="nonzero">
            <g id="Group-16" transform="translate(391.000000, 426.000000)">
                <g id="Group-17" transform="translate(20.000000, 20.000000)">
                    <g id="credit-card(1)" transform="translate(24.000000, 29.000000)">
                        <path d="M30.096,-2.30926389e-13 C32.133948,-2.30926389e-13 33.792,1.658052 33.792,3.696 L33.792,3.696 L33.792,19.536 C33.792,21.573948 32.133948,23.232 30.096,23.232 L30.096,23.232 L3.696,23.232 C1.658052,23.232 1.27897692e-12,21.573948 1.27897692e-12,19.536 L1.27897692e-12,19.536 L1.27897692e-12,3.696 C1.27897692e-12,1.658052 1.658052,-2.30926389e-13 3.696,-2.30926389e-13 L3.696,-2.30926389e-13 Z M31.68,7.92 L2.112,7.92 L2.112,19.536 C2.112,20.409378 2.822622,21.12 3.696,21.12 L3.696,21.12 L30.096,21.12 C30.969378,21.12 31.68,20.409378 31.68,19.536 L31.68,19.536 L31.68,7.92 Z M7.392,14.784 C7.975176,14.784 8.448,15.256824 8.448,15.84 L8.448,16.896 C8.448,17.479176 7.975176,17.952 7.392,17.952 L6.336,17.952 C5.752824,17.952 5.28,17.479176 5.28,16.896 L5.28,15.84 C5.28,15.256824 5.752824,14.784 6.336,14.784 L7.392,14.784 Z M30.096,2.112 L3.696,2.112 C2.822622,2.112 2.112,2.822622 2.112,3.696 L2.112,3.696 L2.112,5.808 L31.68,5.808 L31.68,3.696 C31.68,2.822622 30.969378,2.112 30.096,2.112 L30.096,2.112 Z" id="Combined-Shape"></path>
                    </g>
                </g>
            </g>
        </g>
    </g>
</svg>