<?xml version="1.0" encoding="UTF-8"?>
<svg width="45px" height="45px" viewBox="0 0 45 45" version="1.1" xmlns="http://www.w3.org/2000/svg" xmlns:xlink="http://www.w3.org/1999/xlink">
    <title>99E4E61B-A08B-4EBE-BC8E-13D7765D052A</title>
    <g id="Page-1" stroke="none" stroke-width="1" fill="none" fill-rule="evenodd">
        <g id="Login" transform="translate(-873.000000, -541.000000)">
            <g id="Group-3" transform="translate(785.000000, 166.000000)">
                <g id="fb" transform="translate(88.000000, 375.000000)">
                    <rect id="Rectangle" fill="#39579B" x="0" y="0" width="45" height="45" rx="4"></rect>
                    <g id="facebook-logo" transform="translate(18.000000, 13.000000)" fill="#FFFFFF" fill-rule="nonzero">
                        <path d="M5.86084,6.1668 L5.86084,4.54516 C5.86084,4.30172 5.87204,4.11316 5.8948,3.97996 C5.91748,3.84656 5.96908,3.71536 6.04916,3.58584 C6.12912,3.4564 6.2586,3.36704 6.4374,3.31752 C6.61644,3.26792 6.85436,3.2432 7.1514,3.2432 L8.77296,3.2432 L8.77296,0 L6.1806,0 C4.6806,0 3.60328,0.35588 2.94848,1.06764 C2.29376,1.77956 1.96644,2.8282 1.96644,4.21396 L1.96644,6.16676 L0.02476,6.16676 L0.02476,9.4102 L1.96632,9.4102 L1.96632,18.82044 L5.8608,18.82044 L5.8608,9.41024 L8.453,9.41024 L8.79564,6.1668 L5.86084,6.1668 Z" id="Path"></path>
                    </g>
                </g>
            </g>
        </g>
    </g>
</svg>