<?xml version="1.0" encoding="UTF-8"?>
<svg width="45px" height="45px" viewBox="0 0 45 45" version="1.1" xmlns="http://www.w3.org/2000/svg" xmlns:xlink="http://www.w3.org/1999/xlink">
    <title>F7683D4B-FAFA-4223-BFD4-8E9C9B226E63</title>
    <g id="Page-1" stroke="none" stroke-width="1" fill="none" fill-rule="evenodd">
        <g id="Travel-Insurance" transform="translate(-1440.000000, -2484.000000)" fill-rule="nonzero">
            <g id="Footer" transform="translate(0.000000, 2246.000000)">
                <g id="Group-15" transform="translate(1220.000000, 238.000000)">
                    <g id="insta_ic" transform="translate(220.000000, 0.000000)">
                        <circle id="Oval" fill="#F2F2F2" cx="22.5" cy="22.5" r="22.5"></circle>
                        <g id="instagram(1)" transform="translate(13.000000, 13.000000)" fill="#7C7C7C">
                            <path d="M10.1968384,19.9999439 C10.1306152,19.9999439 10.0643921,19.9999439 9.99771117,19.9996387 C8.4300232,20.0034534 6.98150633,19.963628 5.57281492,19.8778736 C4.28131102,19.7992908 3.10241699,19.3529712 2.16339109,18.5872852 C1.25732422,17.8484546 0.638580313,16.8494617 0.324401875,15.6183826 C0.050964375,14.5466053 0.0364685156,13.4945118 0.0225830078,12.4769031 C0.0125121875,11.7467701 0.00213623047,10.8815967 0,10.0017749 C0.00213623047,9.11829108 0.0125121875,8.25311772 0.0225830078,7.52298467 C0.0364685156,6.50552862 0.050964375,5.4534351 0.324401875,4.38150518 C0.638580313,3.15042608 1.25732422,2.15143315 2.16339109,1.41260256 C3.10241699,0.646916548 4.28131102,0.200596977 5.57296754,0.122014204 C6.98165895,0.036412407 8.43048094,-0.00356563209 10.0015259,0.000249067132 C11.5696716,-0.00310786646 13.0177307,0.036412407 14.4264221,0.122014204 C15.717926,0.200596977 16.8968201,0.646916548 17.8358459,1.41260256 C18.7420654,2.15143315 19.3606567,3.15042608 19.6748352,4.38150518 C19.9482727,5.45328252 19.9627686,6.50552862 19.9766541,7.52298467 C19.9867248,8.25311772 19.9972534,9.11829108 19.9992371,9.99811284 L19.9992371,10.0017749 C19.9972534,10.8815967 19.9867248,11.7467701 19.9766541,12.4769031 C19.9627686,13.4943592 19.9484253,14.5464527 19.6748352,15.6183826 C19.3606567,16.8494617 18.7420654,17.8484546 17.8358459,18.5872852 C16.8968201,19.3529712 15.717926,19.7992908 14.4264221,19.8778736 C13.0773926,19.9599658 11.6915894,19.9999439 10.1968384,19.9999439 Z M9.99771117,18.4371387 C11.539917,18.4408008 12.9559326,18.4018909 14.3315125,18.3182728 C15.308075,18.2589161 16.1547852,17.941991 16.8484497,17.3763477 C17.489624,16.853429 17.9312134,16.1319935 18.1608582,15.2320301 C18.3885193,14.3398487 18.4016418,13.3819019 18.4143066,12.4555408 C18.4242248,11.7302906 18.4346008,10.8712208 18.4367371,9.99994389 C18.4346008,9.12851444 18.4242248,8.26959721 18.4143066,7.54434698 C18.4016418,6.61798588 18.3885193,5.66003913 18.1608582,4.76770514 C17.9312134,3.86774174 17.489624,3.1463062 16.8484497,2.62338749 C16.1547852,2.05789678 15.308075,1.7409717 14.3315125,1.68161502 C12.9559326,1.59784428 11.539917,1.55923956 10.0013733,1.56259647 C8.45947266,1.55893436 7.04330445,1.59784428 5.66772461,1.68161502 C4.69116211,1.7409717 3.84445191,2.05789678 3.15078734,2.62338749 C2.50961305,3.1463062 2.06802367,3.86774174 1.83837891,4.76770514 C1.61071777,5.66003913 1.59759523,6.61783331 1.58493043,7.54434698 C1.57501219,8.27020756 1.56463625,9.12973514 1.5625,10.0017749 C1.56463625,10.8700001 1.57501219,11.7296802 1.58493043,12.4555408 C1.59759523,13.3819019 1.61071777,14.3398487 1.83837891,15.2320301 C2.06802367,16.1319935 2.50961305,16.853429 3.15078734,17.3763477 C3.84445191,17.9418384 4.69116211,18.2587635 5.66772461,18.3181201 C7.04330445,18.4018909 8.45977781,18.4409534 9.99771117,18.4371387 Z M9.96047973,14.8827564 C7.26821898,14.8827564 5.07766723,12.6923572 5.07766723,9.99994389 C5.07766723,7.30753057 7.26821898,5.11713139 9.96047973,5.11713139 C12.652893,5.11713139 14.8432922,7.30753057 14.8432922,9.99994389 C14.8432922,12.6923572 12.652893,14.8827564 9.96047973,14.8827564 Z M9.96047973,6.67963139 C8.12973023,6.67963139 6.64016723,8.16919436 6.64016723,9.99994389 C6.64016723,11.8306934 8.12973023,13.3202564 9.96047973,13.3202564 C11.7913818,13.3202564 13.2807922,11.8306934 13.2807922,9.99994389 C13.2807922,8.16919436 11.7913818,6.67963139 9.96047973,6.67963139 L9.96047973,6.67963139 Z M15.3901672,3.55463139 C14.743042,3.55463139 14.2182922,4.07922858 14.2182922,4.72650639 C14.2182922,5.3737842 14.743042,5.89838139 15.3901672,5.89838139 C16.0374451,5.89838139 16.5620422,5.3737842 16.5620422,4.72650639 C16.5620422,4.07922858 16.0374451,3.55463139 15.3901672,3.55463139 Z" id="Shape"></path>
                        </g>
                    </g>
                </g>
            </g>
        </g>
    </g>
</svg>