<?xml version="1.0" encoding="UTF-8"?>
<svg width="45px" height="45px" viewBox="0 0 45 45" version="1.1" xmlns="http://www.w3.org/2000/svg" xmlns:xlink="http://www.w3.org/1999/xlink">
    <title>57290A4B-B2CB-445F-BDFE-F072295EBEB2</title>
    <g id="Page-1" stroke="none" stroke-width="1" fill="none" fill-rule="evenodd">
        <g id="Travel-Insurance" transform="translate(-1275.000000, -2484.000000)">
            <g id="Footer" transform="translate(0.000000, 2246.000000)">
                <g id="Group-15" transform="translate(1220.000000, 238.000000)">
                    <g id="tw_ic" transform="translate(55.000000, 0.000000)">
                        <circle id="Oval" fill="#F2F2F2" fill-rule="nonzero" cx="22.5" cy="22.5" r="22.5"></circle>
                        <g id="tw_icon" transform="translate(12.000000, 14.000000)" fill="#7C7C7C">
                            <path d="M20,2.01253846 C19.25625,2.35384615 18.46375,2.58007692 17.6375,2.68992308 C18.4875,2.159 19.13625,1.32469231 19.44125,0.319076923 C18.64875,0.813384615 17.77375,1.16253846 16.84125,1.35738462 C16.08875,0.519153846 15.01625,0 13.84625,0 C11.57625,0 9.74875,1.92753846 9.74875,4.29053846 C9.74875,4.63053846 9.77625,4.95746154 9.84375,5.26869231 C6.435,5.09476923 3.41875,3.38561538 1.3925,0.782 C1.03875,1.42407692 0.83125,2.159 0.83125,2.95015385 C0.83125,4.43569231 1.5625,5.75253846 2.6525,6.51492308 C1.99375,6.50184615 1.3475,6.30176923 0.8,5.98661538 C0.8,5.99969231 0.8,6.01669231 0.8,6.03369231 C0.8,8.11815385 2.22125,9.84953846 4.085,10.2483846 C3.75125,10.3438462 3.3875,10.3896154 3.01,10.3896154 C2.7475,10.3896154 2.4825,10.3739231 2.23375,10.3163846 C2.765,12.0150769 4.2725,13.2639231 6.065,13.3044615 C4.67,14.4460769 2.89875,15.1339231 0.98125,15.1339231 C0.645,15.1339231 0.3225,15.1182308 -5.68434189e-14,15.0750769 C1.81625,16.3003846 3.96875,17 6.29,17 C13.835,17 17.96,10.4615385 17.96,4.794 C17.96,4.60438462 17.95375,4.42130769 17.945,4.23953846 C18.75875,3.63538462 19.4425,2.88084615 20,2.01253846 Z" id="Path"></path>
                        </g>
                    </g>
                </g>
            </g>
        </g>
    </g>
</svg>