<?xml version="1.0" encoding="UTF-8"?>
<svg width="17px" height="21px" viewBox="0 0 17 21" version="1.1" xmlns="http://www.w3.org/2000/svg" xmlns:xlink="http://www.w3.org/1999/xlink">
    <title>place(5)</title>
    <g id="Page-1" stroke="none" stroke-width="1" fill="none" fill-rule="evenodd">
        <g id="Homepage-03" transform="translate(-1083.000000, -1518.000000)" fill="#FFFFFF" fill-rule="nonzero">
            <g id="Group-4" transform="translate(390.000000, 1489.000000)">
                <g id="Group-3" transform="translate(693.000000, 26.000000)">
                    <g id="place(5)" transform="translate(0.000000, 3.000000)">
                        <path d="M8.2370376,1.70530257e-13 C10.9659132,1.70530257e-13 13.4190144,1.2850596 14.9668596,3.5252316 C16.5071016,5.754078 16.8627492,8.5758552 15.91821,11.0733876 C15.6681756,11.748726 15.2678988,12.409452 14.7300516,13.0328352 L14.7300516,13.0328352 L8.776746,20.0256408 C8.6420664,20.1840012 8.4447396,20.2752 8.2370376,20.2752 C8.0293356,20.2752 7.8320088,20.1839616 7.6973292,20.0256408 L7.6973292,20.0256408 L1.7423604,13.0309344 C1.2068892,12.4111152 0.8060976,11.7496764 0.5539644,11.0688732 C-0.388674,8.5758552 -0.0330264,5.754078 1.5072156,3.5252316 C3.0550608,1.2850596 5.508162,1.70530257e-13 8.2370376,1.70530257e-13 Z M8.2370376,1.4178384 C5.9807484,1.4178384 3.9527532,2.4798312 2.673396,4.3315272 C1.3980384,6.1773228 1.1021868,8.5103964 1.8817524,10.5721704 C2.0764656,11.0982168 2.391246,11.6133336 2.8184904,12.1084128 L2.8184904,12.1084128 L8.2370376,18.4728852 L13.6522584,12.1124124 C13.6532088,12.1109868 13.6543968,12.1097988 13.6555848,12.1086108 C14.0830668,11.613096 14.3978472,11.0979396 14.5906596,10.5768828 C15.372126,8.5103964 15.0760368,6.1773228 13.8004416,4.3315272 C12.5210448,2.4797916 10.4932872,1.4178384 8.2370376,1.4178384 Z M8.2370376,4.2062724 C10.4259672,4.2062724 12.2070168,5.987322 12.2070168,8.1762516 C12.2070168,10.3654188 10.4262048,12.1462308 8.2370376,12.1462308 C6.0478704,12.1462308 4.2670584,10.3654188 4.2670584,8.1762516 C4.2670584,5.9870844 6.048108,4.2062724 8.2370376,4.2062724 Z M8.2370376,5.6240712 C6.829812,5.6240712 5.6848968,6.7689864 5.6848968,8.176212 C5.6848968,9.5834376 6.829812,10.7283528 8.2370376,10.7283528 C9.6442632,10.7283528 10.7891784,9.5834376 10.7891784,8.176212 C10.7891784,6.7689864 9.6442632,5.6240712 8.2370376,5.6240712 Z" id="Combined-Shape"></path>
                    </g>
                </g>
            </g>
        </g>
    </g>
</svg>