<?xml version="1.0" encoding="UTF-8"?>
<svg width="47px" height="62px" viewBox="0 0 47 62" version="1.1" xmlns="http://www.w3.org/2000/svg" xmlns:xlink="http://www.w3.org/1999/xlink">
    <title>99564666-7C91-48FB-9134-8DC7FC5E02C9</title>
    <g id="Page-1" stroke="none" stroke-width="1" fill="none" fill-rule="evenodd">
        <g id="Contact-Us" transform="translate(-1355.000000, -920.000000)" fill="#31A1D0" fill-rule="nonzero">
            <g id="pin" transform="translate(1355.000000, 920.000000)">
                <path d="M9.64572,4.53084 C15.65784,0.10092 23.5344,-1.1736 30.93744,1.1196 C37.932,3.28428 43.62204,8.976 45.78648,15.97056 C48.11808,23.49984 46.83096,31.31556 42.2574,37.41348 L42.2574,37.41348 L23.5224,61.44 L4.7874,37.41528 C1.73136,33.34296 0.11544,28.49004 0.11544,23.382 C0.11544,15.97752 3.67788,8.93016 9.64572,4.53084 Z M23.5224,10.77816 C16.57344,10.77816 10.91868,16.43292 10.91868,23.38188 C10.91868,30.33084 16.57344,35.9856 23.5224,35.9856 C30.47136,35.9856 36.12612,30.33084 36.12612,23.38188 C36.12612,16.43292 30.47136,10.77816 23.5224,10.77816 Z M23.5224,14.40324 C28.4862,14.40324 32.52504,18.41808 32.52504,23.38188 C32.52504,28.34568 28.4862,32.38452 23.5224,32.38452 C18.5586,32.38452 14.51976,28.34568 14.51976,23.38188 C14.51976,18.41808 18.5586,14.40324 23.5224,14.40324 Z" id="Combined-Shape"></path>
            </g>
        </g>
    </g>
</svg>