<?xml version="1.0" encoding="UTF-8"?>
<svg width="24px" height="37px" viewBox="0 0 24 37" version="1.1" xmlns="http://www.w3.org/2000/svg" xmlns:xlink="http://www.w3.org/1999/xlink">
    <title>location(1)</title>
    <g id="Page-1" stroke="none" stroke-width="1" fill="none" fill-rule="evenodd">
        <g id="My-Account" transform="translate(-1218.000000, -315.000000)" fill="#31A1D0" fill-rule="nonzero">
            <g id="Group-16" transform="translate(1169.000000, 273.000000)">
                <g id="Group-17" transform="translate(20.000000, 20.000000)">
                    <g id="location(1)" transform="translate(29.000000, 22.000000)">
                        <path d="M17.284968,27.156024 C17.603424,26.65188 18.27036,26.501256 18.774792,26.819784 L18.774792,26.819784 L21.845592,28.759248 C22.516128,29.182752 22.515552,30.162096 21.845592,30.585168 L21.845592,30.585168 L12.168792,36.697104 C11.816568,36.919584 11.367576,36.919656 11.01528,36.697104 L11.01528,36.697104 L1.33848,30.585168 C0.667944,30.161664 0.668592,29.18232 1.33848,28.759248 L1.33848,28.759248 L4.40928,26.819784 C4.913568,26.501184 5.580576,26.65188 5.899104,27.156024 C6.217632,27.660312 6.06708,28.327248 5.562792,28.645704 L5.562792,28.645704 L3.937464,29.672208 L11.592,34.506864 L19.246608,29.672208 L17.62128,28.645704 C17.116992,28.327176 16.966368,27.66024 17.284968,27.156024 Z M11.592,3.41060513e-13 C15.161688,3.41060513e-13 18.59868,1.687104 20.785896,4.513032 L20.785896,4.513032 L20.9981193,4.79567999 C23.2070652,7.83135101 23.7115396,11.549184 22.414248,15.305472 C21.489912,17.981424 19.803096,20.264976 18.171936,22.47336 C16.561656,24.653232 17.213328,23.796576 12.477096,30.560184 C12.046104,31.17636 11.1348,31.17348 10.706256,30.559248 C5.991336,23.827608 6.648984,24.689376 5.012064,22.473432 C3.380904,20.265048 1.694088,17.981496 0.769896,15.305616 C-0.568008,11.431944 0.010296,7.599096 2.398032,4.513176 C4.58532,1.687104 8.022312,3.41060513e-13 11.592,3.41060513e-13 Z M11.592,2.159712 C8.685864,2.159712 5.88744,3.533616 4.106304,5.834808 C2.179224,8.32536 1.719432,11.438424 2.811528,14.600592 C3.627936,16.964136 5.214888,19.112616 6.749568,21.19032 C6.98421214,21.5079686 7.15914186,21.7443727 7.31908632,21.9626624 L7.40511145,22.0803124 C8.0148277,22.9160348 8.51982814,23.6503466 11.592,28.054296 C14.5243376,23.8509643 15.1180868,22.9902925 15.6947256,22.1959555 L15.7792591,22.0798043 C15.9633181,21.8275214 16.1570417,21.5658399 16.434432,21.19032 C17.969112,19.112616 19.556064,16.964208 20.372472,14.600592 C21.464568,11.438496 21.004776,8.32536 19.077552,5.834736 L19.077552,5.834736 C17.29656,3.533616 14.498136,2.159712 11.592,2.159712 Z M11.592,5.573736 C14.92416,5.573736 17.635104,8.284248 17.635104,11.615976 C17.635104,14.947704 14.92416,17.658288 11.592,17.658288 C8.25984,17.658288 5.548896,14.947704 5.548896,11.615976 C5.548896,8.284248 8.25984,5.573736 11.592,5.573736 Z M11.592,7.733448 C9.450864,7.733448 7.708896,9.4752 7.708896,11.615976 C7.708896,13.756824 9.450792,15.498576 11.592,15.498576 C13.733208,15.498576 15.475104,13.756824 15.475104,11.615976 C15.475104,9.4752 13.733136,7.733448 11.592,7.733448 Z" id="Combined-Shape"></path>
                    </g>
                </g>
            </g>
        </g>
    </g>
</svg>