<?xml version="1.0" encoding="UTF-8"?>
<svg width="274px" height="46px" viewBox="0 0 274 46" version="1.1" xmlns="http://www.w3.org/2000/svg" xmlns:xlink="http://www.w3.org/1999/xlink">
    <title>6C065450-9C85-4D75-9982-915E21FE5FD1</title>
    <g id="Page-1" stroke="none" stroke-width="1" fill="none" fill-rule="evenodd">
        <g id="Homepage-03" transform="translate(-390.000000, -18.000000)" fill-rule="nonzero">
            <g id="logo" transform="translate(390.000000, 18.000000)">
                <g id="the-luxury-trips" transform="translate(54.483157, 14.707120)" fill="#000000">
                    <g id="THE">
                        <path d="M8.035494,17.7928796 L8.035494,2.28364343 L13.7018606,2.28364343 L13.7018606,0.293087927 L0,0.293087927 L0,2.28364343 L5.6785786,2.28364343 L5.6785786,17.7928796 L8.035494,17.7928796 Z M18.6599314,17.7928796 L18.6599314,9.83065755 L28.0998051,9.83065755 L28.0998051,17.7928796 L30.4689325,17.7928796 L30.4689325,0.293087927 L28.0998051,0.293087927 L28.0998051,8.096554 L18.6599314,8.096554 L18.6599314,0.293087927 L16.290804,0.293087927 L16.290804,17.7928796 L18.6599314,17.7928796 Z M45.7217167,17.7928796 L45.7339287,15.863384 L37.3076508,15.863384 L37.3076508,9.89171755 L44.1219451,9.89171755 L44.1219451,8.035494 L37.3076508,8.035494 L37.3076508,2.22258345 L45.7217167,2.22258345 L45.7217167,0.293087927 L34.9385233,0.293087927 L34.9385233,17.7928796 L45.7217167,17.7928796 Z" id="path-1"></path>
                        <path d="M8.035494,17.7928796 L8.035494,2.28364343 L13.7018606,2.28364343 L13.7018606,0.293087927 L0,0.293087927 L0,2.28364343 L5.6785786,2.28364343 L5.6785786,17.7928796 L8.035494,17.7928796 Z M18.6599314,17.7928796 L18.6599314,9.83065755 L28.0998051,9.83065755 L28.0998051,17.7928796 L30.4689325,17.7928796 L30.4689325,0.293087927 L28.0998051,0.293087927 L28.0998051,8.096554 L18.6599314,8.096554 L18.6599314,0.293087927 L16.290804,0.293087927 L16.290804,17.7928796 L18.6599314,17.7928796 Z M45.7217167,17.7928796 L45.7339287,15.863384 L37.3076508,15.863384 L37.3076508,9.89171755 L44.1219451,9.89171755 L44.1219451,8.035494 L37.3076508,8.035494 L37.3076508,2.22258345 L45.7217167,2.22258345 L45.7217167,0.293087927 L34.9385233,0.293087927 L34.9385233,17.7928796 L45.7217167,17.7928796 Z" id="path-1"></path>
                    </g>
                    <g id="LUXURY" transform="translate(53.500000, 0.000000)">
                        <path d="M10.960868,17.7928796 L10.960868,14.4956404 L4.3663895,14.4956404 L4.3663895,0 L0.2387345,0 L0.2387345,17.7928796 L10.960868,17.7928796 Z M20.1198655,17.9882716 C21.300359,17.9882716 22.3628025,17.8050916 23.307197,17.4387317 C24.2515915,17.0723717 25.0535125,16.5594679 25.7129605,15.9000201 C26.372408,15.2405722 26.879206,14.4549338 27.233354,13.5431047 C27.587502,12.6312755 27.764576,11.6298918 27.764576,10.5389534 L27.764576,10.5389534 L27.764576,0 L23.636921,0 L23.636921,10.5389534 C23.636921,11.1658359 23.557543,11.7255525 23.398787,12.218103 C23.240031,12.7106535 23.0100385,13.1278967 22.708809,13.4698327 C22.40758,13.8117686 22.0391845,14.0743265 21.6036235,14.2575064 C21.168062,14.4406864 20.6734765,14.5322764 20.1198655,14.5322764 C19.566255,14.5322764 19.0716695,14.4406864 18.636108,14.2575064 C18.200547,14.0743265 17.8321515,13.8097333 17.5309225,13.4637266 C17.229693,13.1177201 16.9997005,12.6984415 16.8409445,12.205891 C16.6821885,11.7133405 16.6028105,11.1536239 16.6028105,10.5267414 L16.6028105,10.5267414 L16.6028105,0 L12.4751555,0 L12.4751555,10.5389534 C12.4751555,11.6298918 12.6501945,12.6312755 13.0002715,13.5431047 C13.3503485,14.4549338 13.8551115,15.2405722 14.514559,15.9000201 C15.174007,16.5594679 15.975928,17.0723717 16.9203225,17.4387317 C17.864717,17.8050916 18.9312315,17.9882716 20.1198655,17.9882716 Z M32.9668865,17.7928796 C33.2111265,17.7928796 33.410589,17.7236783 33.5652745,17.5852756 C33.7199595,17.446873 33.8542915,17.2962584 33.9682705,17.1334317 L33.9682705,17.1334317 L37.2899335,11.3693692 C37.371347,11.2391079 37.444619,11.0844226 37.5097495,10.9053133 L37.5097495,10.9053133 L41.0756525,17.1334317 C41.1733485,17.3125411 41.305645,17.4672264 41.4725425,17.5974877 C41.6394395,17.7277489 41.8572205,17.7928796 42.1258845,17.7928796 L42.1258845,17.7928796 L46.2535395,17.7928796 L40.5505365,8.4629139 L46.1314195,0 L42.1747325,0 C41.9874815,0 41.830761,0.0407066566 41.7045705,0.12211997 C41.57838,0.203533283 41.458295,0.333794584 41.3443165,0.512903875 L41.3443165,0.512903875 L38.2424695,5.83733455 C38.1773385,5.94317185 38.118314,6.0449385 38.0653955,6.1426345 C38.0124765,6.24033045 37.965664,6.3420971 37.9249575,6.4479344 L37.9249575,6.4479344 L34.383478,0.451843888 C34.285782,0.289017262 34.173839,0.17300329 34.0476485,0.103801975 C33.9214575,0.0346006581 33.7240305,0 33.4553665,0 L33.4553665,0 L29.3277115,0 L34.835322,8.63388185 L29.1078955,17.7928796 L32.9668865,17.7928796 Z M55.265993,17.9882716 C56.446486,17.9882716 57.50893,17.8050916 58.453324,17.4387317 C59.3977185,17.0723717 60.19964,16.5594679 60.8590875,15.9000201 C61.5185355,15.2405722 62.0253335,14.4549338 62.3794815,13.5431047 C62.733629,12.6312755 62.910703,11.6298918 62.910703,10.5389534 L62.910703,10.5389534 L62.910703,0 L58.783048,0 L58.783048,10.5389534 C58.783048,11.1658359 58.70367,11.7255525 58.544914,12.218103 C58.3861585,12.7106535 58.1561655,13.1278967 57.8549365,13.4698327 C57.553707,13.8117686 57.185312,14.0743265 56.7497505,14.2575064 C56.3141895,14.4406864 55.8196035,14.5322764 55.265993,14.5322764 C54.7123825,14.5322764 54.2177965,14.4406864 53.7822355,14.2575064 C53.346674,14.0743265 52.978279,13.8097333 52.6770495,13.4637266 C52.3758205,13.1177201 52.145828,12.6984415 51.987072,12.205891 C51.828316,11.7133405 51.748938,11.1536239 51.748938,10.5267414 L51.748938,10.5267414 L51.748938,0 L47.621283,0 L47.621283,10.5389534 C47.621283,11.6298918 47.7963215,12.6312755 48.146399,13.5431047 C48.496476,14.4549338 49.0012385,15.2405722 49.6606865,15.9000201 C50.3201345,16.5594679 51.1220555,17.0723717 52.06645,17.4387317 C53.0108445,17.8050916 54.0773585,17.9882716 55.265993,17.9882716 Z M70.2623255,17.7928796 L70.2623255,11.2106132 L71.312557,11.2106132 C71.630069,11.2106132 71.874309,11.2614966 72.045277,11.3632632 C72.216245,11.4650299 72.37093,11.6258211 72.509333,11.8456371 L72.509333,11.8456371 L75.464636,17.0113118 C75.7658655,17.532357 76.2624865,17.7928796 76.9544995,17.7928796 L76.9544995,17.7928796 L80.6913705,17.7928796 L76.9056515,11.6013972 C76.718401,11.3164506 76.5067265,11.0701752 76.270628,10.8625713 C76.034529,10.6549674 75.782148,10.4819641 75.513484,10.3435614 C76.0915185,10.1237455 76.602387,9.84286955 77.0460895,9.50093365 C77.489792,9.15899775 77.862258,8.77024915 78.1634875,8.33468795 C78.4647165,7.8991267 78.692674,7.42489415 78.847359,6.9119903 C79.0020445,6.3990864 79.079387,5.8536172 79.079387,5.2755827 C79.079387,4.51843888 78.949126,3.81828439 78.688603,3.17511922 C78.4280805,2.53195404 78.0108375,1.97427284 77.4368735,1.50207563 C76.8629095,1.02987841 76.1220485,0.66148317 75.21429,0.396889901 C74.3065315,0.132296634 73.2094875,0 71.923157,0 L71.923157,0 L66.1346705,0 L66.1346705,17.7928796 L70.2623255,17.7928796 Z M71.923157,8.36521795 L70.2623255,8.36521795 L70.2623255,3.08963523 L71.923157,3.08963523 C72.9896715,3.08963523 73.777345,3.30945118 74.2861785,3.74908307 C74.7950115,4.18871496 75.049428,4.79931481 75.049428,5.5808826 C75.049428,5.9716665 74.992439,6.3359911 74.87846,6.67385635 C74.7644815,7.0117216 74.5813015,7.30684485 74.3289205,7.55922615 C74.076539,7.8116074 73.752921,8.0090347 73.3580665,8.151508 C72.963212,8.2939813 72.484909,8.36521795 71.923157,8.36521795 L71.923157,8.36521795 Z M89.7648845,17.7928796 L89.7648845,11.0274332 L96.212819,0 L92.54922,0 C92.378252,0 92.221531,0.0264593268 92.079058,0.0793779805 C91.9365845,0.132296634 91.810394,0.20149795 91.700486,0.286981929 C91.590578,0.372465908 91.4949175,0.468126551 91.413504,0.57396386 C91.332091,0.679801165 91.2628895,0.78563847 91.2059,0.89147578 L91.2059,0.89147578 L88.7146525,6.0693625 C88.502978,6.46828775 88.317763,6.8448243 88.159007,7.1989722 C88.000251,7.55312015 87.859813,7.9052327 87.737693,8.25530995 C87.6074315,7.91337405 87.456817,7.56533215 87.285849,7.2111842 C87.114881,6.8570363 86.92356,6.47642905 86.711885,6.0693625 L86.711885,6.0693625 L84.196214,0.89147578 C84.057811,0.630953175 83.884808,0.41724323 83.677204,0.250345938 C83.4696,0.083448646 83.186689,0 82.82847,0 L82.82847,0 L79.189295,0 L85.6372295,11.0274332 L85.6372295,17.7928796 L89.7648845,17.7928796 Z" id="path-2"></path>
                        <path d="M10.960868,17.7928796 L10.960868,14.4956404 L4.3663895,14.4956404 L4.3663895,0 L0.2387345,0 L0.2387345,17.7928796 L10.960868,17.7928796 Z M20.1198655,17.9882716 C21.300359,17.9882716 22.3628025,17.8050916 23.307197,17.4387317 C24.2515915,17.0723717 25.0535125,16.5594679 25.7129605,15.9000201 C26.372408,15.2405722 26.879206,14.4549338 27.233354,13.5431047 C27.587502,12.6312755 27.764576,11.6298918 27.764576,10.5389534 L27.764576,10.5389534 L27.764576,0 L23.636921,0 L23.636921,10.5389534 C23.636921,11.1658359 23.557543,11.7255525 23.398787,12.218103 C23.240031,12.7106535 23.0100385,13.1278967 22.708809,13.4698327 C22.40758,13.8117686 22.0391845,14.0743265 21.6036235,14.2575064 C21.168062,14.4406864 20.6734765,14.5322764 20.1198655,14.5322764 C19.566255,14.5322764 19.0716695,14.4406864 18.636108,14.2575064 C18.200547,14.0743265 17.8321515,13.8097333 17.5309225,13.4637266 C17.229693,13.1177201 16.9997005,12.6984415 16.8409445,12.205891 C16.6821885,11.7133405 16.6028105,11.1536239 16.6028105,10.5267414 L16.6028105,10.5267414 L16.6028105,0 L12.4751555,0 L12.4751555,10.5389534 C12.4751555,11.6298918 12.6501945,12.6312755 13.0002715,13.5431047 C13.3503485,14.4549338 13.8551115,15.2405722 14.514559,15.9000201 C15.174007,16.5594679 15.975928,17.0723717 16.9203225,17.4387317 C17.864717,17.8050916 18.9312315,17.9882716 20.1198655,17.9882716 Z M32.9668865,17.7928796 C33.2111265,17.7928796 33.410589,17.7236783 33.5652745,17.5852756 C33.7199595,17.446873 33.8542915,17.2962584 33.9682705,17.1334317 L33.9682705,17.1334317 L37.2899335,11.3693692 C37.371347,11.2391079 37.444619,11.0844226 37.5097495,10.9053133 L37.5097495,10.9053133 L41.0756525,17.1334317 C41.1733485,17.3125411 41.305645,17.4672264 41.4725425,17.5974877 C41.6394395,17.7277489 41.8572205,17.7928796 42.1258845,17.7928796 L42.1258845,17.7928796 L46.2535395,17.7928796 L40.5505365,8.4629139 L46.1314195,0 L42.1747325,0 C41.9874815,0 41.830761,0.0407066566 41.7045705,0.12211997 C41.57838,0.203533283 41.458295,0.333794584 41.3443165,0.512903875 L41.3443165,0.512903875 L38.2424695,5.83733455 C38.1773385,5.94317185 38.118314,6.0449385 38.0653955,6.1426345 C38.0124765,6.24033045 37.965664,6.3420971 37.9249575,6.4479344 L37.9249575,6.4479344 L34.383478,0.451843888 C34.285782,0.289017262 34.173839,0.17300329 34.0476485,0.103801975 C33.9214575,0.0346006581 33.7240305,0 33.4553665,0 L33.4553665,0 L29.3277115,0 L34.835322,8.63388185 L29.1078955,17.7928796 L32.9668865,17.7928796 Z M55.265993,17.9882716 C56.446486,17.9882716 57.50893,17.8050916 58.453324,17.4387317 C59.3977185,17.0723717 60.19964,16.5594679 60.8590875,15.9000201 C61.5185355,15.2405722 62.0253335,14.4549338 62.3794815,13.5431047 C62.733629,12.6312755 62.910703,11.6298918 62.910703,10.5389534 L62.910703,10.5389534 L62.910703,0 L58.783048,0 L58.783048,10.5389534 C58.783048,11.1658359 58.70367,11.7255525 58.544914,12.218103 C58.3861585,12.7106535 58.1561655,13.1278967 57.8549365,13.4698327 C57.553707,13.8117686 57.185312,14.0743265 56.7497505,14.2575064 C56.3141895,14.4406864 55.8196035,14.5322764 55.265993,14.5322764 C54.7123825,14.5322764 54.2177965,14.4406864 53.7822355,14.2575064 C53.346674,14.0743265 52.978279,13.8097333 52.6770495,13.4637266 C52.3758205,13.1177201 52.145828,12.6984415 51.987072,12.205891 C51.828316,11.7133405 51.748938,11.1536239 51.748938,10.5267414 L51.748938,10.5267414 L51.748938,0 L47.621283,0 L47.621283,10.5389534 C47.621283,11.6298918 47.7963215,12.6312755 48.146399,13.5431047 C48.496476,14.4549338 49.0012385,15.2405722 49.6606865,15.9000201 C50.3201345,16.5594679 51.1220555,17.0723717 52.06645,17.4387317 C53.0108445,17.8050916 54.0773585,17.9882716 55.265993,17.9882716 Z M70.2623255,17.7928796 L70.2623255,11.2106132 L71.312557,11.2106132 C71.630069,11.2106132 71.874309,11.2614966 72.045277,11.3632632 C72.216245,11.4650299 72.37093,11.6258211 72.509333,11.8456371 L72.509333,11.8456371 L75.464636,17.0113118 C75.7658655,17.532357 76.2624865,17.7928796 76.9544995,17.7928796 L76.9544995,17.7928796 L80.6913705,17.7928796 L76.9056515,11.6013972 C76.718401,11.3164506 76.5067265,11.0701752 76.270628,10.8625713 C76.034529,10.6549674 75.782148,10.4819641 75.513484,10.3435614 C76.0915185,10.1237455 76.602387,9.84286955 77.0460895,9.50093365 C77.489792,9.15899775 77.862258,8.77024915 78.1634875,8.33468795 C78.4647165,7.8991267 78.692674,7.42489415 78.847359,6.9119903 C79.0020445,6.3990864 79.079387,5.8536172 79.079387,5.2755827 C79.079387,4.51843888 78.949126,3.81828439 78.688603,3.17511922 C78.4280805,2.53195404 78.0108375,1.97427284 77.4368735,1.50207563 C76.8629095,1.02987841 76.1220485,0.66148317 75.21429,0.396889901 C74.3065315,0.132296634 73.2094875,0 71.923157,0 L71.923157,0 L66.1346705,0 L66.1346705,17.7928796 L70.2623255,17.7928796 Z M71.923157,8.36521795 L70.2623255,8.36521795 L70.2623255,3.08963523 L71.923157,3.08963523 C72.9896715,3.08963523 73.777345,3.30945118 74.2861785,3.74908307 C74.7950115,4.18871496 75.049428,4.79931481 75.049428,5.5808826 C75.049428,5.9716665 74.992439,6.3359911 74.87846,6.67385635 C74.7644815,7.0117216 74.5813015,7.30684485 74.3289205,7.55922615 C74.076539,7.8116074 73.752921,8.0090347 73.3580665,8.151508 C72.963212,8.2939813 72.484909,8.36521795 71.923157,8.36521795 L71.923157,8.36521795 Z M89.7648845,17.7928796 L89.7648845,11.0274332 L96.212819,0 L92.54922,0 C92.378252,0 92.221531,0.0264593268 92.079058,0.0793779805 C91.9365845,0.132296634 91.810394,0.20149795 91.700486,0.286981929 C91.590578,0.372465908 91.4949175,0.468126551 91.413504,0.57396386 C91.332091,0.679801165 91.2628895,0.78563847 91.2059,0.89147578 L91.2059,0.89147578 L88.7146525,6.0693625 C88.502978,6.46828775 88.317763,6.8448243 88.159007,7.1989722 C88.000251,7.55312015 87.859813,7.9052327 87.737693,8.25530995 C87.6074315,7.91337405 87.456817,7.56533215 87.285849,7.2111842 C87.114881,6.8570363 86.92356,6.47642905 86.711885,6.0693625 L86.711885,6.0693625 L84.196214,0.89147578 C84.057811,0.630953175 83.884808,0.41724323 83.677204,0.250345938 C83.4696,0.083448646 83.186689,0 82.82847,0 L82.82847,0 L79.189295,0 L85.6372295,11.0274332 L85.6372295,17.7928796 L89.7648845,17.7928796 Z" id="path-2"></path>
                    </g>
                    <g id="TRIPS" transform="translate(154.500000, 0.000000)">
                        <path d="M8.322556,17.7928796 L8.322556,2.28364344 L13.9889225,2.28364344 L13.9889225,0.293087928 L0.287062,0.293087928 L0.287062,2.28364344 L5.9656405,2.28364344 L5.9656405,17.7928796 L8.322556,17.7928796 Z M18.9347815,17.7928796 L18.9347815,10.4901054 L20.729945,10.4901054 C21.0637395,10.4901054 21.310015,10.5328474 21.468771,10.6183314 C21.6275265,10.7038154 21.776106,10.8442533 21.9145085,11.0396453 L21.9145085,11.0396453 L26.4573715,17.2921877 C26.660905,17.6259823 26.9784165,17.7928796 27.4099075,17.7928796 L27.4099075,17.7928796 L29.510371,17.7928796 L24.405756,10.8442533 C24.18594,10.5186001 23.9254175,10.2702895 23.624188,10.0993215 C24.2999185,9.9446362 24.9044125,9.71667895 25.43767,9.41544965 C25.970927,9.1142204 26.422771,8.74989585 26.7932015,8.32247595 C27.163632,7.89505605 27.4465435,7.41268215 27.641935,6.8753543 C27.837327,6.33802645 27.935023,5.7599919 27.935023,5.14125075 C27.935023,4.40038958 27.8088325,3.73076508 27.556451,3.13237723 C27.30407,2.53398937 26.9153215,2.02312083 26.3902055,1.59977161 C25.8650895,1.17642238 25.199536,0.852804455 24.393544,0.628917845 C23.587552,0.405031233 22.630946,0.293087928 21.5237245,0.293087928 L21.5237245,0.293087928 L16.577866,0.293087928 L16.577866,17.7928796 L18.9347815,17.7928796 Z M21.426029,8.76821385 L18.9347815,8.76821385 L18.9347815,2.16152347 L21.5237245,2.16152347 C22.8914685,2.16152347 23.917276,2.42611673 24.601148,2.95530327 C25.28502,3.48448981 25.6269555,4.27012828 25.6269555,5.3122187 C25.6269555,5.82512255 25.537401,6.2932491 25.358292,6.71659835 C25.1791825,7.13994755 24.912554,7.50427215 24.558406,7.80957205 C24.204258,8.114872 23.764626,8.3509706 23.2395105,8.5178679 C22.7143945,8.6847652 22.1099005,8.76821385 21.426029,8.76821385 L21.426029,8.76821385 Z M34.2486255,17.7928796 L34.2486255,0.293087928 L31.879498,0.293087928 L31.879498,17.7928796 L34.2486255,17.7928796 Z M41.075132,17.7928796 L41.075132,11.2472492 L43.883891,11.2472492 C44.9422645,11.2472492 45.876482,11.1108819 46.6865445,10.8381473 C47.496607,10.5654127 48.176408,10.1848055 48.725948,9.6963256 C49.275488,9.2078457 49.692731,8.62574055 49.9776775,7.95001005 C50.2626245,7.27427955 50.4050975,6.5293477 50.4050975,5.7152146 C50.4050975,4.89294012 50.272801,4.14800831 50.0082075,3.48041914 C49.7436145,2.81282997 49.342654,2.24293678 48.805326,1.77073956 C48.267998,1.29854235 47.5902325,0.93421777 46.7720285,0.67776583 C45.9538245,0.421313896 44.9911125,0.293087928 43.883891,0.293087928 L43.883891,0.293087928 L38.7182165,0.293087928 L38.7182165,17.7928796 L41.075132,17.7928796 Z M43.883891,9.3666017 L41.075132,9.3666017 L41.075132,2.16152347 L43.883891,2.16152347 C45.2842,2.16152347 46.328326,2.47496472 47.0162685,3.10184723 C47.704211,3.72872975 48.048182,4.5998522 48.048182,5.7152146 C48.048182,6.25254245 47.9586275,6.745093 47.779518,7.1928662 C47.600409,7.64063945 47.3337805,8.02531735 46.9796325,8.34689995 C46.6254845,8.6684825 46.1899235,8.91882845 45.672949,9.09793775 C45.155974,9.27704705 44.5596215,9.3666017 43.883891,9.3666017 L43.883891,9.3666017 Z M57.439208,17.9882716 C58.3673195,17.9882716 59.1957,17.8457983 59.924349,17.5608517 C60.6529985,17.2759051 61.267669,16.8851212 61.768361,16.3885 C62.2690525,15.8918788 62.64966,15.3077382 62.9101825,14.6360784 C63.170705,13.9644186 63.3009665,13.2459461 63.3009665,12.4806609 C63.3009665,11.7560824 63.180882,11.1454826 62.9407125,10.6488614 C62.700543,10.1522402 62.3830315,9.7329616 61.9881765,9.39102565 C61.593322,9.04908975 61.145549,8.7661785 60.644857,8.5422919 C60.144165,8.31840525 59.6312615,8.1169073 59.1061455,7.93779805 C58.5810295,7.75868875 58.0681255,7.58568545 57.567434,7.41878815 C57.066742,7.25189085 56.6189685,7.0544636 56.224114,6.8265063 C55.8292595,6.59854905 55.5117475,6.3237791 55.2715785,6.0021965 C55.031409,5.68061395 54.9113245,5.2755827 54.9113245,4.78710282 C54.9113245,4.40446024 54.980526,4.048277 55.1189285,3.71855308 C55.257331,3.38882916 55.4628995,3.10184723 55.7356345,2.85760729 C56.008369,2.61336736 56.346234,2.42001074 56.74923,2.27753744 C57.152226,2.13506414 57.618317,2.06382749 58.1475035,2.06382749 C58.7092555,2.06382749 59.1875585,2.13302881 59.5824135,2.27143144 C59.977268,2.40983407 60.315133,2.56248403 60.596009,2.72938133 C60.876885,2.89627862 61.1109485,3.04892858 61.298199,3.18733121 C61.4854495,3.32573385 61.648276,3.39493516 61.786679,3.39493516 C61.9087985,3.39493516 62.0126005,3.36440517 62.0980845,3.30334518 C62.1835685,3.2422852 62.2629465,3.15069522 62.3362185,3.02857525 L62.3362185,3.02857525 L62.9101825,1.90507153 C62.2995825,1.31889568 61.593322,0.87112245 60.791401,0.56175186 C59.98948,0.252381271 59.1000395,0.097695976 58.1230795,0.097695976 C57.251957,0.097695976 56.480566,0.232027943 55.808906,0.500691875 C55.1372465,0.76935581 54.571424,1.12757439 54.1114385,1.57534761 C53.6514535,2.02312083 53.301376,2.53602471 53.061207,3.11405923 C52.8210375,3.69209375 52.700953,4.29048161 52.700953,4.90922279 C52.700953,5.68264925 52.8210375,6.33192045 53.061207,6.8570363 C53.301376,7.38215215 53.616853,7.81974875 54.0076365,8.169826 C54.3984205,8.5199032 54.846194,8.8048498 55.3509565,9.02466575 C55.855719,9.2444817 56.368623,9.43783835 56.889668,9.6047356 C57.410713,9.7716329 57.923617,9.93445955 58.4283795,10.0932155 C58.933142,10.2519715 59.3809155,10.4453281 59.7716995,10.6732854 C60.162483,10.9012427 60.47796,11.1841539 60.718129,11.5220192 C60.9582985,11.8598844 61.078383,12.2934103 61.078383,12.8225968 C61.078383,13.3029354 60.9969695,13.7384966 60.834143,14.1292805 C60.6713165,14.5200644 60.437253,14.8558943 60.131953,15.1367703 C59.8266535,15.4176462 59.4541875,15.6354268 59.0145555,15.7901121 C58.5749235,15.9447974 58.0742315,16.0221401 57.51248,16.0221401 C57.0647065,16.0221401 56.6617105,15.9793981 56.303492,15.8939141 C55.9452735,15.8084301 55.6257265,15.7005575 55.3448505,15.5702962 C55.0639745,15.4400349 54.8136285,15.2975616 54.5938125,15.1428763 C54.3739965,14.988191 54.1786045,14.8457177 54.0076365,14.7154564 C53.8366685,14.5851951 53.684019,14.4773224 53.549687,14.3918385 C53.415355,14.3063545 53.29527,14.2636125 53.189433,14.2636125 C53.0754545,14.2636125 52.9716525,14.2941425 52.878027,14.3552025 C52.7844015,14.4162625 52.7050235,14.4915698 52.639893,14.5811244 L52.639893,14.5811244 L51.956021,15.7046281 C52.615469,16.4047826 53.409249,16.9604285 54.3373605,17.3715657 C55.2654725,17.782703 56.2994215,17.9882716 57.439208,17.9882716 Z" id="path-3"></path>
                        <path d="M8.322556,17.7928796 L8.322556,2.28364344 L13.9889225,2.28364344 L13.9889225,0.293087928 L0.287062,0.293087928 L0.287062,2.28364344 L5.9656405,2.28364344 L5.9656405,17.7928796 L8.322556,17.7928796 Z M18.9347815,17.7928796 L18.9347815,10.4901054 L20.729945,10.4901054 C21.0637395,10.4901054 21.310015,10.5328474 21.468771,10.6183314 C21.6275265,10.7038154 21.776106,10.8442533 21.9145085,11.0396453 L21.9145085,11.0396453 L26.4573715,17.2921877 C26.660905,17.6259823 26.9784165,17.7928796 27.4099075,17.7928796 L27.4099075,17.7928796 L29.510371,17.7928796 L24.405756,10.8442533 C24.18594,10.5186001 23.9254175,10.2702895 23.624188,10.0993215 C24.2999185,9.9446362 24.9044125,9.71667895 25.43767,9.41544965 C25.970927,9.1142204 26.422771,8.74989585 26.7932015,8.32247595 C27.163632,7.89505605 27.4465435,7.41268215 27.641935,6.8753543 C27.837327,6.33802645 27.935023,5.7599919 27.935023,5.14125075 C27.935023,4.40038958 27.8088325,3.73076508 27.556451,3.13237723 C27.30407,2.53398937 26.9153215,2.02312083 26.3902055,1.59977161 C25.8650895,1.17642238 25.199536,0.852804455 24.393544,0.628917845 C23.587552,0.405031233 22.630946,0.293087928 21.5237245,0.293087928 L21.5237245,0.293087928 L16.577866,0.293087928 L16.577866,17.7928796 L18.9347815,17.7928796 Z M21.426029,8.76821385 L18.9347815,8.76821385 L18.9347815,2.16152347 L21.5237245,2.16152347 C22.8914685,2.16152347 23.917276,2.42611673 24.601148,2.95530327 C25.28502,3.48448981 25.6269555,4.27012828 25.6269555,5.3122187 C25.6269555,5.82512255 25.537401,6.2932491 25.358292,6.71659835 C25.1791825,7.13994755 24.912554,7.50427215 24.558406,7.80957205 C24.204258,8.114872 23.764626,8.3509706 23.2395105,8.5178679 C22.7143945,8.6847652 22.1099005,8.76821385 21.426029,8.76821385 L21.426029,8.76821385 Z M34.2486255,17.7928796 L34.2486255,0.293087928 L31.879498,0.293087928 L31.879498,17.7928796 L34.2486255,17.7928796 Z M41.075132,17.7928796 L41.075132,11.2472492 L43.883891,11.2472492 C44.9422645,11.2472492 45.876482,11.1108819 46.6865445,10.8381473 C47.496607,10.5654127 48.176408,10.1848055 48.725948,9.6963256 C49.275488,9.2078457 49.692731,8.62574055 49.9776775,7.95001005 C50.2626245,7.27427955 50.4050975,6.5293477 50.4050975,5.7152146 C50.4050975,4.89294012 50.272801,4.14800831 50.0082075,3.48041914 C49.7436145,2.81282997 49.342654,2.24293678 48.805326,1.77073956 C48.267998,1.29854235 47.5902325,0.93421777 46.7720285,0.67776583 C45.9538245,0.421313896 44.9911125,0.293087928 43.883891,0.293087928 L43.883891,0.293087928 L38.7182165,0.293087928 L38.7182165,17.7928796 L41.075132,17.7928796 Z M43.883891,9.3666017 L41.075132,9.3666017 L41.075132,2.16152347 L43.883891,2.16152347 C45.2842,2.16152347 46.328326,2.47496472 47.0162685,3.10184723 C47.704211,3.72872975 48.048182,4.5998522 48.048182,5.7152146 C48.048182,6.25254245 47.9586275,6.745093 47.779518,7.1928662 C47.600409,7.64063945 47.3337805,8.02531735 46.9796325,8.34689995 C46.6254845,8.6684825 46.1899235,8.91882845 45.672949,9.09793775 C45.155974,9.27704705 44.5596215,9.3666017 43.883891,9.3666017 L43.883891,9.3666017 Z M57.439208,17.9882716 C58.3673195,17.9882716 59.1957,17.8457983 59.924349,17.5608517 C60.6529985,17.2759051 61.267669,16.8851212 61.768361,16.3885 C62.2690525,15.8918788 62.64966,15.3077382 62.9101825,14.6360784 C63.170705,13.9644186 63.3009665,13.2459461 63.3009665,12.4806609 C63.3009665,11.7560824 63.180882,11.1454826 62.9407125,10.6488614 C62.700543,10.1522402 62.3830315,9.7329616 61.9881765,9.39102565 C61.593322,9.04908975 61.145549,8.7661785 60.644857,8.5422919 C60.144165,8.31840525 59.6312615,8.1169073 59.1061455,7.93779805 C58.5810295,7.75868875 58.0681255,7.58568545 57.567434,7.41878815 C57.066742,7.25189085 56.6189685,7.0544636 56.224114,6.8265063 C55.8292595,6.59854905 55.5117475,6.3237791 55.2715785,6.0021965 C55.031409,5.68061395 54.9113245,5.2755827 54.9113245,4.78710282 C54.9113245,4.40446024 54.980526,4.048277 55.1189285,3.71855308 C55.257331,3.38882916 55.4628995,3.10184723 55.7356345,2.85760729 C56.008369,2.61336736 56.346234,2.42001074 56.74923,2.27753744 C57.152226,2.13506414 57.618317,2.06382749 58.1475035,2.06382749 C58.7092555,2.06382749 59.1875585,2.13302881 59.5824135,2.27143144 C59.977268,2.40983407 60.315133,2.56248403 60.596009,2.72938133 C60.876885,2.89627862 61.1109485,3.04892858 61.298199,3.18733121 C61.4854495,3.32573385 61.648276,3.39493516 61.786679,3.39493516 C61.9087985,3.39493516 62.0126005,3.36440517 62.0980845,3.30334518 C62.1835685,3.2422852 62.2629465,3.15069522 62.3362185,3.02857525 L62.3362185,3.02857525 L62.9101825,1.90507153 C62.2995825,1.31889568 61.593322,0.87112245 60.791401,0.56175186 C59.98948,0.252381271 59.1000395,0.097695976 58.1230795,0.097695976 C57.251957,0.097695976 56.480566,0.232027943 55.808906,0.500691875 C55.1372465,0.76935581 54.571424,1.12757439 54.1114385,1.57534761 C53.6514535,2.02312083 53.301376,2.53602471 53.061207,3.11405923 C52.8210375,3.69209375 52.700953,4.29048161 52.700953,4.90922279 C52.700953,5.68264925 52.8210375,6.33192045 53.061207,6.8570363 C53.301376,7.38215215 53.616853,7.81974875 54.0076365,8.169826 C54.3984205,8.5199032 54.846194,8.8048498 55.3509565,9.02466575 C55.855719,9.2444817 56.368623,9.43783835 56.889668,9.6047356 C57.410713,9.7716329 57.923617,9.93445955 58.4283795,10.0932155 C58.933142,10.2519715 59.3809155,10.4453281 59.7716995,10.6732854 C60.162483,10.9012427 60.47796,11.1841539 60.718129,11.5220192 C60.9582985,11.8598844 61.078383,12.2934103 61.078383,12.8225968 C61.078383,13.3029354 60.9969695,13.7384966 60.834143,14.1292805 C60.6713165,14.5200644 60.437253,14.8558943 60.131953,15.1367703 C59.8266535,15.4176462 59.4541875,15.6354268 59.0145555,15.7901121 C58.5749235,15.9447974 58.0742315,16.0221401 57.51248,16.0221401 C57.0647065,16.0221401 56.6617105,15.9793981 56.303492,15.8939141 C55.9452735,15.8084301 55.6257265,15.7005575 55.3448505,15.5702962 C55.0639745,15.4400349 54.8136285,15.2975616 54.5938125,15.1428763 C54.3739965,14.988191 54.1786045,14.8457177 54.0076365,14.7154564 C53.8366685,14.5851951 53.684019,14.4773224 53.549687,14.3918385 C53.415355,14.3063545 53.29527,14.2636125 53.189433,14.2636125 C53.0754545,14.2636125 52.9716525,14.2941425 52.878027,14.3552025 C52.7844015,14.4162625 52.7050235,14.4915698 52.639893,14.5811244 L52.639893,14.5811244 L51.956021,15.7046281 C52.615469,16.4047826 53.409249,16.9604285 54.3373605,17.3715657 C55.2654725,17.782703 56.2994215,17.9882716 57.439208,17.9882716 Z" id="path-3"></path>
                    </g>
                </g>
                <circle id="Oval-Copy-3" fill="#000000" cx="23" cy="23" r="23"></circle>
                <g id="tlt" transform="translate(12.020723, 10.500000)" fill="#FFFFFF">
                    <g id="path-4-link">
                        <path d="M3.5212064,21.6235037 C3.6514677,21.6072211 3.84685965,21.5339491 4.10738225,21.4036878 C4.36790485,21.2734265 4.6365688,21.1146705 4.91337405,20.9274199 C5.1901793,20.7401693 5.44663125,20.548848 5.68272985,20.3534561 C5.91882845,20.1580641 6.08572575,19.9870962 6.18342175,19.8405522 C6.16713905,19.7428562 6.11014975,19.6207362 6.01245375,19.4741923 C5.67051785,19.7509975 5.27973395,19.9789548 4.84010205,20.1580641 C4.40047015,20.3371734 3.9364143,20.4592934 3.4479344,20.524424 C2.91060655,20.4430107 2.6419426,20.0440855 2.6419426,19.3276483 C2.6419426,18.8228858 2.7030026,18.2529926 2.82512255,17.6179687 C2.94724255,16.9829449 3.1182105,16.3072144 3.33802645,15.5907772 C3.5578424,14.8743401 3.8265063,14.1294083 4.14401825,13.3559818 C4.46153015,12.5825553 4.8238194,11.8050582 5.23088595,11.0234904 C6.37067235,10.990925 7.33949075,10.8280984 8.13734125,10.5350105 C8.13734125,10.4047492 8.11291725,10.2785586 8.06406925,10.1564386 C8.01522125,10.0343186 7.9500906,9.93255195 7.8686773,9.85113865 C7.5267414,9.88370395 7.18887615,9.90812795 6.85508155,9.9244106 C6.52128695,9.9406933 6.19156305,9.9488346 5.8659098,9.9488346 C6.27297635,9.2649628 6.6515483,8.6584336 7.0016255,8.12924705 C7.35170275,7.60006055 7.77098135,7.02609665 8.2594612,6.4073555 C8.1780479,6.3096595 8.03150395,6.21196355 7.8198293,6.11426755 C7.6081547,6.0165716 7.3720561,5.9229463 7.1115335,5.83339165 C6.8510109,5.743837 6.59455895,5.670565 6.3421777,5.6135757 C6.0897964,5.55658635 5.88219245,5.5280917 5.71936585,5.5280917 C5.58910455,5.609505 5.4059246,5.7886143 5.169826,6.0654196 C4.93372735,6.34222485 4.6813461,6.6800901 4.41268215,7.0790153 C4.14401825,7.47794055 3.86721295,7.91757245 3.58226635,8.397911 C3.29731975,8.87824955 3.0327265,9.36265875 2.78848655,9.85113865 C2.4628333,9.834856 2.10461475,9.81450265 1.71383083,9.79007865 C1.32304693,9.76565465 0.915980365,9.73716 0.492631135,9.70459465 C0.492631135,9.93255195 0.52519646,10.2052866 0.59032711,10.5227985 C0.65545776,10.8403104 0.728729745,11.0479144 0.810143055,11.1456103 L0.810143055,11.1456103 L2.2023107,11.1456103 C1.89294012,11.8946128 1.60799353,12.6517566 1.34747093,13.4170418 C1.08694832,14.1823269 0.858991045,14.9150467 0.663599095,15.6152012 C0.46820714,16.3153557 0.31759251,16.9625916 0.211755205,17.5569088 C0.105917895,18.1512259 0.052999245,18.6437765 0.052999245,19.0345604 C0.052999245,19.3276483 0.15883655,19.6248069 0.370511165,19.9260362 C0.58218578,20.2272654 0.85492038,20.5 1.18871496,20.74424 C1.52250955,20.9884799 1.89294012,21.1920132 2.3000067,21.3548398 C2.70707325,21.5176664 3.1141398,21.6072211 3.5212064,21.6235037 Z M10.0179888,22.2829516 C10.0017061,22.2178209 9.9935648,22.1526903 9.9935648,22.0875596 L9.9935648,22.0875596 L9.9935648,21.5746558 C9.9935648,20.548848 10.1726741,19.2665883 10.5308927,17.7278767 C10.8891113,16.1891651 11.4101565,14.4591322 12.0940283,12.537778 C12.8918788,10.3070532 13.7711425,8.3287097 14.7318196,6.60274745 C15.6924967,4.8767852 16.8078591,3.2648016 18.0779068,1.76679665 C18.0127762,1.66910065 17.8703029,1.53883935 17.6504869,1.37601275 C17.430671,1.2131861 17.1823604,1.05443015 16.9055551,0.89974485 C16.6287498,0.74505955 16.3478739,0.60258625 16.0629273,0.47232495 C15.7779807,0.34206365 15.5378114,0.26065035 15.3424195,0.228085 C14.495721,1.25389275 13.6286692,2.6826964 12.7412641,4.51449595 C11.853859,6.3462955 10.9053939,8.63808025 9.8958688,11.3898503 C9.27712765,13.1158125 8.7967891,14.6260295 8.45485315,15.9205012 C8.11291725,17.2149728 7.9419493,18.2204273 7.9419493,18.9368644 C7.9419493,19.4579096 7.9907973,19.9260362 8.08849325,20.3412441 C8.18618925,20.756452 8.3083092,21.0129039 8.45485315,21.1105999 C8.5688318,21.1920132 8.6990931,21.3100625 8.84563705,21.4647478 C8.99218105,21.6194331 9.08173565,21.7374824 9.114301,21.8188957 C9.163149,21.9328743 9.2689863,22.0305703 9.4318129,22.1119836 C9.59463955,22.1933969 9.7900315,22.2503863 10.0179888,22.2829516 Z M17.8825149,21.6235037 C18.0127762,21.6072211 18.2081681,21.5339491 18.4686907,21.4036878 C18.7292133,21.2734265 18.9978772,21.1146705 19.2746825,20.9274199 C19.5514878,20.7401693 19.8079397,20.548848 20.0440383,20.3534561 C20.2801369,20.1580641 20.4470342,19.9870962 20.5447302,19.8405522 C20.5284475,19.7428562 20.4714582,19.6207362 20.3737622,19.4741923 C20.0318263,19.7509975 19.6410424,19.9789548 19.2014105,20.1580641 C18.7617786,20.3371734 18.2977227,20.4592934 17.8092429,20.524424 C17.271915,20.4430107 17.0032511,20.0440855 17.0032511,19.3276483 C17.0032511,18.8228858 17.0643111,18.2529926 17.186431,17.6179687 C17.308551,16.9829449 17.479519,16.3072144 17.6993349,15.5907772 C17.9191508,14.8743401 18.1878148,14.1294083 18.5053267,13.3559818 C18.8228386,12.5825553 19.1851279,11.8050582 19.5921944,11.0234904 C20.7319808,10.990925 21.7007992,10.8280984 22.4986497,10.5350105 C22.4986497,10.4047492 22.4742257,10.2785586 22.4253777,10.1564386 C22.3765297,10.0343186 22.3113991,9.93255195 22.2299858,9.85113865 C21.8880499,9.88370395 21.5501846,9.90812795 21.21639,9.9244106 C20.8825954,9.9406933 20.5528715,9.9488346 20.2272183,9.9488346 C20.6342848,9.2649628 21.0128567,8.6584336 21.362934,8.12924705 C21.7130112,7.60006055 22.1322898,7.02609665 22.6207697,6.4073555 C22.5393564,6.3096595 22.3928124,6.21196355 22.1811378,6.11426755 C21.9694632,6.0165716 21.7333646,5.9229463 21.472842,5.83339165 C21.2123194,5.743837 20.9558674,5.670565 20.7034862,5.6135757 C20.4511049,5.55658635 20.2435009,5.5280917 20.0806743,5.5280917 C19.950413,5.609505 19.7672331,5.7886143 19.5311344,6.0654196 C19.2950358,6.34222485 19.0426546,6.6800901 18.7739906,7.0790153 C18.5053267,7.47794055 18.2285214,7.91757245 17.9435748,8.397911 C17.6586282,8.87824955 17.394035,9.36265875 17.149795,9.85113865 C16.8241418,9.834856 16.4659232,9.81450265 16.0751393,9.79007865 C15.6843554,9.76565465 15.2772888,9.73716 14.8539396,9.70459465 C14.8539396,9.93255195 14.8865049,10.2052866 14.9516356,10.5227985 C15.0167662,10.8403104 15.0900382,11.0479144 15.1714515,11.1456103 L15.1714515,11.1456103 L16.5636192,11.1456103 C16.2542486,11.8946128 15.969302,12.6517566 15.7087794,13.4170418 C15.4482568,14.1823269 15.2202995,14.9150467 15.0249076,15.6152012 C14.8295156,16.3153557 14.678901,16.9625916 14.5730637,17.5569088 C14.4672264,18.1512259 14.4143077,18.6437765 14.4143077,19.0345604 C14.4143077,19.3276483 14.520145,19.6248069 14.7318196,19.9260362 C14.9434942,20.2272654 15.2162288,20.5 15.5500234,20.74424 C15.883818,20.9884799 16.2542486,21.1920132 16.6613152,21.3548398 C17.0683817,21.5176664 17.4754483,21.6072211 17.8825149,21.6235037 Z" id="path-4"></path>
                    </g>
                    <g id="path-4-link">
                        <path d="M3.5212064,21.6235037 C3.6514677,21.6072211 3.84685965,21.5339491 4.10738225,21.4036878 C4.36790485,21.2734265 4.6365688,21.1146705 4.91337405,20.9274199 C5.1901793,20.7401693 5.44663125,20.548848 5.68272985,20.3534561 C5.91882845,20.1580641 6.08572575,19.9870962 6.18342175,19.8405522 C6.16713905,19.7428562 6.11014975,19.6207362 6.01245375,19.4741923 C5.67051785,19.7509975 5.27973395,19.9789548 4.84010205,20.1580641 C4.40047015,20.3371734 3.9364143,20.4592934 3.4479344,20.524424 C2.91060655,20.4430107 2.6419426,20.0440855 2.6419426,19.3276483 C2.6419426,18.8228858 2.7030026,18.2529926 2.82512255,17.6179687 C2.94724255,16.9829449 3.1182105,16.3072144 3.33802645,15.5907772 C3.5578424,14.8743401 3.8265063,14.1294083 4.14401825,13.3559818 C4.46153015,12.5825553 4.8238194,11.8050582 5.23088595,11.0234904 C6.37067235,10.990925 7.33949075,10.8280984 8.13734125,10.5350105 C8.13734125,10.4047492 8.11291725,10.2785586 8.06406925,10.1564386 C8.01522125,10.0343186 7.9500906,9.93255195 7.8686773,9.85113865 C7.5267414,9.88370395 7.18887615,9.90812795 6.85508155,9.9244106 C6.52128695,9.9406933 6.19156305,9.9488346 5.8659098,9.9488346 C6.27297635,9.2649628 6.6515483,8.6584336 7.0016255,8.12924705 C7.35170275,7.60006055 7.77098135,7.02609665 8.2594612,6.4073555 C8.1780479,6.3096595 8.03150395,6.21196355 7.8198293,6.11426755 C7.6081547,6.0165716 7.3720561,5.9229463 7.1115335,5.83339165 C6.8510109,5.743837 6.59455895,5.670565 6.3421777,5.6135757 C6.0897964,5.55658635 5.88219245,5.5280917 5.71936585,5.5280917 C5.58910455,5.609505 5.4059246,5.7886143 5.169826,6.0654196 C4.93372735,6.34222485 4.6813461,6.6800901 4.41268215,7.0790153 C4.14401825,7.47794055 3.86721295,7.91757245 3.58226635,8.397911 C3.29731975,8.87824955 3.0327265,9.36265875 2.78848655,9.85113865 C2.4628333,9.834856 2.10461475,9.81450265 1.71383083,9.79007865 C1.32304693,9.76565465 0.915980365,9.73716 0.492631135,9.70459465 C0.492631135,9.93255195 0.52519646,10.2052866 0.59032711,10.5227985 C0.65545776,10.8403104 0.728729745,11.0479144 0.810143055,11.1456103 L0.810143055,11.1456103 L2.2023107,11.1456103 C1.89294012,11.8946128 1.60799353,12.6517566 1.34747093,13.4170418 C1.08694832,14.1823269 0.858991045,14.9150467 0.663599095,15.6152012 C0.46820714,16.3153557 0.31759251,16.9625916 0.211755205,17.5569088 C0.105917895,18.1512259 0.052999245,18.6437765 0.052999245,19.0345604 C0.052999245,19.3276483 0.15883655,19.6248069 0.370511165,19.9260362 C0.58218578,20.2272654 0.85492038,20.5 1.18871496,20.74424 C1.52250955,20.9884799 1.89294012,21.1920132 2.3000067,21.3548398 C2.70707325,21.5176664 3.1141398,21.6072211 3.5212064,21.6235037 Z M10.0179888,22.2829516 C10.0017061,22.2178209 9.9935648,22.1526903 9.9935648,22.0875596 L9.9935648,22.0875596 L9.9935648,21.5746558 C9.9935648,20.548848 10.1726741,19.2665883 10.5308927,17.7278767 C10.8891113,16.1891651 11.4101565,14.4591322 12.0940283,12.537778 C12.8918788,10.3070532 13.7711425,8.3287097 14.7318196,6.60274745 C15.6924967,4.8767852 16.8078591,3.2648016 18.0779068,1.76679665 C18.0127762,1.66910065 17.8703029,1.53883935 17.6504869,1.37601275 C17.430671,1.2131861 17.1823604,1.05443015 16.9055551,0.89974485 C16.6287498,0.74505955 16.3478739,0.60258625 16.0629273,0.47232495 C15.7779807,0.34206365 15.5378114,0.26065035 15.3424195,0.228085 C14.495721,1.25389275 13.6286692,2.6826964 12.7412641,4.51449595 C11.853859,6.3462955 10.9053939,8.63808025 9.8958688,11.3898503 C9.27712765,13.1158125 8.7967891,14.6260295 8.45485315,15.9205012 C8.11291725,17.2149728 7.9419493,18.2204273 7.9419493,18.9368644 C7.9419493,19.4579096 7.9907973,19.9260362 8.08849325,20.3412441 C8.18618925,20.756452 8.3083092,21.0129039 8.45485315,21.1105999 C8.5688318,21.1920132 8.6990931,21.3100625 8.84563705,21.4647478 C8.99218105,21.6194331 9.08173565,21.7374824 9.114301,21.8188957 C9.163149,21.9328743 9.2689863,22.0305703 9.4318129,22.1119836 C9.59463955,22.1933969 9.7900315,22.2503863 10.0179888,22.2829516 Z M17.8825149,21.6235037 C18.0127762,21.6072211 18.2081681,21.5339491 18.4686907,21.4036878 C18.7292133,21.2734265 18.9978772,21.1146705 19.2746825,20.9274199 C19.5514878,20.7401693 19.8079397,20.548848 20.0440383,20.3534561 C20.2801369,20.1580641 20.4470342,19.9870962 20.5447302,19.8405522 C20.5284475,19.7428562 20.4714582,19.6207362 20.3737622,19.4741923 C20.0318263,19.7509975 19.6410424,19.9789548 19.2014105,20.1580641 C18.7617786,20.3371734 18.2977227,20.4592934 17.8092429,20.524424 C17.271915,20.4430107 17.0032511,20.0440855 17.0032511,19.3276483 C17.0032511,18.8228858 17.0643111,18.2529926 17.186431,17.6179687 C17.308551,16.9829449 17.479519,16.3072144 17.6993349,15.5907772 C17.9191508,14.8743401 18.1878148,14.1294083 18.5053267,13.3559818 C18.8228386,12.5825553 19.1851279,11.8050582 19.5921944,11.0234904 C20.7319808,10.990925 21.7007992,10.8280984 22.4986497,10.5350105 C22.4986497,10.4047492 22.4742257,10.2785586 22.4253777,10.1564386 C22.3765297,10.0343186 22.3113991,9.93255195 22.2299858,9.85113865 C21.8880499,9.88370395 21.5501846,9.90812795 21.21639,9.9244106 C20.8825954,9.9406933 20.5528715,9.9488346 20.2272183,9.9488346 C20.6342848,9.2649628 21.0128567,8.6584336 21.362934,8.12924705 C21.7130112,7.60006055 22.1322898,7.02609665 22.6207697,6.4073555 C22.5393564,6.3096595 22.3928124,6.21196355 22.1811378,6.11426755 C21.9694632,6.0165716 21.7333646,5.9229463 21.472842,5.83339165 C21.2123194,5.743837 20.9558674,5.670565 20.7034862,5.6135757 C20.4511049,5.55658635 20.2435009,5.5280917 20.0806743,5.5280917 C19.950413,5.609505 19.7672331,5.7886143 19.5311344,6.0654196 C19.2950358,6.34222485 19.0426546,6.6800901 18.7739906,7.0790153 C18.5053267,7.47794055 18.2285214,7.91757245 17.9435748,8.397911 C17.6586282,8.87824955 17.394035,9.36265875 17.149795,9.85113865 C16.8241418,9.834856 16.4659232,9.81450265 16.0751393,9.79007865 C15.6843554,9.76565465 15.2772888,9.73716 14.8539396,9.70459465 C14.8539396,9.93255195 14.8865049,10.2052866 14.9516356,10.5227985 C15.0167662,10.8403104 15.0900382,11.0479144 15.1714515,11.1456103 L15.1714515,11.1456103 L16.5636192,11.1456103 C16.2542486,11.8946128 15.969302,12.6517566 15.7087794,13.4170418 C15.4482568,14.1823269 15.2202995,14.9150467 15.0249076,15.6152012 C14.8295156,16.3153557 14.678901,16.9625916 14.5730637,17.5569088 C14.4672264,18.1512259 14.4143077,18.6437765 14.4143077,19.0345604 C14.4143077,19.3276483 14.520145,19.6248069 14.7318196,19.9260362 C14.9434942,20.2272654 15.2162288,20.5 15.5500234,20.74424 C15.883818,20.9884799 16.2542486,21.1920132 16.6613152,21.3548398 C17.0683817,21.5176664 17.4754483,21.6072211 17.8825149,21.6235037 Z" id="path-4"></path>
                    </g>
                </g>
            </g>
        </g>
    </g>
</svg>