<?xml version="1.0" encoding="UTF-8"?>
<svg width="31px" height="31px" viewBox="0 0 31 31" version="1.1" xmlns="http://www.w3.org/2000/svg" xmlns:xlink="http://www.w3.org/1999/xlink">
    <title>magic-wand</title>
    <g id="Page-1" stroke="none" stroke-width="1" fill="none" fill-rule="evenodd">
        <g id="About-Us" transform="translate(-1029.000000, -4638.000000)" fill="#F1B135" fill-rule="nonzero">
            <g id="Group-2" transform="translate(1010.000000, 4619.000000)">
                <g id="magic-wand" transform="translate(19.000000, 19.000000)">
                    <path d="M11.67624,16.49844 L13.95054,16.76958 L14.22168,19.04406 L2.80944,30.45618 C2.45766,30.80796 1.88832,30.80796 1.53666,30.45618 L1.53666,30.45618 L0.26376,29.18346 C-0.0879,28.83168 -0.0879,28.26246 0.26376,27.91068 L0.26376,27.91068 L11.67624,16.49844 Z M21.4839,19.15632 C21.96372,19.02702 22.4571,19.31304 22.5864,19.79274 L22.5864,19.79274 L23.05254,21.53166 C23.18118,22.01202 22.89654,22.50552 22.41612,22.63416 C21.93192,22.76316 21.44094,22.47354 21.31362,21.99774 L21.31362,21.99774 L20.84748,20.25882 C20.71884,19.77846 21.00348,19.28496 21.4839,19.15632 Z M20.99598,2.09982 C21.2166,1.80588 21.59388,1.67466 21.94992,1.76982 C22.30608,1.86486 22.56768,2.1675 22.61064,2.53236 L22.61064,2.53236 L23.20476,7.51542 L28.1877,8.10954 C28.5519,8.15172 28.8552,8.41398 28.95024,8.77014 C29.0454,9.12618 28.91424,9.50346 28.62024,9.72408 L28.62024,9.72408 L24.6018,12.7296 L26.5788,17.34156 C26.72358,17.68032 26.64834,18.07248 26.38794,18.33288 C26.12754,18.59328 25.73532,18.6684 25.39662,18.52362 L25.39662,18.52362 L20.78466,16.54674 L17.77914,20.56518 C17.55852,20.85912 17.18124,20.99022 16.8252,20.89518 C16.47516,20.80182 16.20834,20.502 16.1646,20.13264 L16.1646,20.13264 L15.57048,15.14958 L10.58742,14.55546 C10.22322,14.51196 9.92004,14.25102 9.82488,13.89486 C9.7299,13.53882 9.86094,13.16154 10.15488,12.94092 L10.15488,12.94092 L14.17332,9.9354 L12.19644,5.32344 C12.05166,4.98468 12.12678,4.59252 12.38718,4.33212 C12.6477,4.07172 13.0398,3.99648 13.3785,4.14138 L13.3785,4.14138 L17.99058,6.11826 Z M27.21144,13.42884 C27.34008,12.94842 27.83358,12.66378 28.31406,12.79242 L28.31406,12.79242 L30.05298,13.25856 C30.53088,13.38594 30.81798,13.88064 30.68928,14.36106 C30.56058,14.84148 30.0672,15.126 29.58678,14.99736 L29.58678,14.99736 L27.84786,14.53134 C27.37272,14.40408 27.08238,13.91364 27.21144,13.42884 Z M8.08602,8.30406 C8.21466,7.82364 8.70816,7.53912 9.18858,7.66776 L9.18858,7.66776 L10.9275,8.13378 C11.40594,8.26176 11.69184,8.75526 11.56386,9.23628 C11.43516,9.7167 10.94178,10.00134 10.46136,9.8727 L10.46136,9.8727 L8.72244,9.40656 C8.2473,9.27942 7.95696,8.78898 8.08602,8.30406 Z M26.388,3.0594 C26.73978,2.70762 27.30912,2.70762 27.66078,3.0594 C28.01256,3.41118 28.01256,3.9804 27.66078,4.33218 L27.66078,4.33218 L26.388,5.60496 C26.03622,5.95674 25.467,5.95674 25.11522,5.60496 C24.76344,5.2533 24.76344,4.68396 25.11522,4.33218 L25.11522,4.33218 Z M16.35918,0.0309 C16.8396,-0.09774 17.33178,0.1869 17.46174,0.66732 L17.46174,0.66732 L17.92776,2.40624 C18.05646,2.8866 17.77176,3.3801 17.29146,3.50874 C16.80726,3.63774 16.31628,3.34812 16.1889,2.87232 L16.1889,2.87232 L15.72288,1.1334 C15.59418,0.65304 15.87888,0.15954 16.35918,0.0309 Z" id="Combined-Shape"></path>
                </g>
            </g>
        </g>
    </g>
</svg>