<?xml version="1.0" encoding="UTF-8"?>
<svg width="31px" height="31px" viewBox="0 0 31 31" version="1.1" xmlns="http://www.w3.org/2000/svg" xmlns:xlink="http://www.w3.org/1999/xlink">
    <title>mail</title>
    <g id="Page-1" stroke="none" stroke-width="1" fill="none" fill-rule="evenodd">
        <g id="My-Account" transform="translate(-825.000000, -471.000000)" fill="#31A1D0" fill-rule="nonzero">
            <g id="Group-16" transform="translate(780.000000, 426.000000)">
                <g id="Group-17" transform="translate(20.000000, 20.000000)">
                    <g id="mail" transform="translate(25.000000, 25.000000)">
                        <path d="M29.82,0 L0.9,0 C0.40992,0 0,0.40014 0,0.9 L0,15.3 C0,16.78878 1.21122,18 2.7,18 L10.95054,18 C11.36862,20.05152 13.1868,21.6 15.36,21.6 C17.5332,21.6 19.35132,20.05152 19.76946,18 L28.02,18 C29.50878,18 30.72,16.78878 30.72,15.3 L30.72,0.9 C30.72,0.40104 30.31062,0 29.82,0 Z M26.76882,1.8 L15.8487,8.856 C15.70356,8.9502 15.5346,9 15.36,9 C15.1854,9 15.01644,8.9502 14.8698,8.85504 L3.95118,1.8 L26.76882,1.8 Z M15.36,19.8 C13.87122,19.8 12.66,18.58878 12.66,17.1 C12.66,15.61122 13.87122,14.4 15.36,14.4 C16.84878,14.4 18.06,15.61122 18.06,17.1 C18.06,18.58878 16.84878,19.8 15.36,19.8 Z M28.92,15.3 C28.92,15.79626 28.51626,16.2 28.02,16.2 L19.76946,16.2 C19.35138,14.14848 17.5332,12.6 15.36,12.6 C13.1868,12.6 11.36868,14.14848 10.95054,16.2 L2.7,16.2 C2.20374,16.2 1.8,15.79626 1.8,15.3 L1.8,2.55306 L13.89138,10.3659 C14.32896,10.64988 14.8368,10.8 15.36,10.8 C15.8832,10.8 16.39104,10.64988 16.82712,10.36686 L28.92,2.55306 L28.92,15.3 Z M9.06,26.1 L9.06,29.82 C9.06,30.31704 9.46296,30.72 9.96,30.72 L20.76,30.72 C21.25704,30.72 21.66,30.31704 21.66,29.82 L21.66,26.1 C21.66,23.6187 19.6413,21.6 17.16,21.6 L15.36,21.6 L13.56,21.6 C11.0787,21.6 9.06,23.6187 9.06,26.1 Z M17.16,23.4 C18.64878,23.4 19.86,24.61122 19.86,26.1 L19.86,28.92 L10.86,28.92 L10.86,26.1 C10.86,24.61122 12.07122,23.4 13.56,23.4 L17.16,23.4 Z" id="Shape"></path>
                    </g>
                </g>
            </g>
        </g>
    </g>
</svg>