<?xml version="1.0" encoding="UTF-8"?>
<svg width="31px" height="27px" viewBox="0 0 31 27" version="1.1" xmlns="http://www.w3.org/2000/svg" xmlns:xlink="http://www.w3.org/1999/xlink">
    <title>portfolio</title>
    <g id="Page-1" stroke="none" stroke-width="1" fill="none" fill-rule="evenodd">
        <g id="My-Account" transform="translate(-436.000000, -320.000000)" fill="#31A1D0" fill-rule="nonzero">
            <g id="Group-16" transform="translate(391.000000, 273.000000)">
                <g id="Group-17" transform="translate(20.000000, 20.000000)">
                    <g id="portfolio" transform="translate(25.000000, 27.000000)">
                        <path d="M29.825625,3.60023436 C29.82375,3.60023436 29.821875,3.6 29.82,3.6 L21.66,3.6 L21.66,2.7 C21.66,1.21125 20.44875,0 18.96,0 L11.76,0 C10.27125,0 9.06,1.21125 9.06,2.7 L9.06,3.6 L0.9,3.6 C0.39890628,3.6 0,4.010625 0,4.5 L0,24.3 C0,25.78875 1.21125,27 2.7,27 L28.02,27 C29.50875,27 30.72,25.78875 30.72,24.3 L30.72,4.51898436 C30.72,4.5178125 30.72,4.51664064 30.72,4.51546872 C30.6855469,3.924375 30.3220313,3.60351564 29.825625,3.60023436 Z M10.86,2.7 C10.86,2.20382814 11.2638281,1.8 11.76,1.8 L18.96,1.8 C19.4561719,1.8 19.86,2.20382814 19.86,2.7 L19.86,3.6 L10.86,3.6 L10.86,2.7 Z M28.57125,5.4 L25.7763281,13.7845313 C25.65375,14.1527344 25.310625,14.4 24.9227344,14.4 L19.86,14.4 L19.86,13.5 C19.86,13.0028906 19.4571094,12.6 18.96,12.6 L11.76,12.6 C11.2628906,12.6 10.86,13.0028906 10.86,13.5 L10.86,14.4 L5.79726564,14.4 C5.409375,14.4 5.06625,14.1527344 4.94367186,13.7845313 L2.14875,5.4 L28.57125,5.4 Z M18.06,14.4 L18.06,16.2 L12.66,16.2 L12.66,14.4 L18.06,14.4 Z M28.92,24.3 C28.92,24.7961719 28.5161719,25.2 28.02,25.2 L2.7,25.2 C2.20382814,25.2 1.8,24.7961719 1.8,24.3 L1.8,10.0460156 L3.23601564,14.3538281 C3.60398436,15.4582031 4.63335936,16.2 5.79726564,16.2 L10.86,16.2 L10.86,17.1 C10.86,17.5971094 11.2628906,18 11.76,18 L18.96,18 C19.4571094,18 19.86,17.5971094 19.86,17.1 L19.86,16.2 L24.9227344,16.2 C26.0866406,16.2 27.1160156,15.4582031 27.4839844,14.3538281 L28.92,10.0460156 L28.92,24.3 Z" id="Shape"></path>
                    </g>
                </g>
            </g>
        </g>
    </g>
</svg>