<?xml version="1.0" encoding="UTF-8"?>
<svg width="18px" height="9px" viewBox="0 0 18 9" version="1.1" xmlns="http://www.w3.org/2000/svg" xmlns:xlink="http://www.w3.org/1999/xlink">
    <title>CEDF0E0F-74DF-4EA7-B2B6-0F2BA4E3309E</title>
    <g id="Page-1" stroke="none" stroke-width="1" fill="none" fill-rule="evenodd">
        <g id="Login" transform="translate(-829.000000, -331.000000)" fill="#7E7E7E" fill-rule="nonzero">
            <g id="Group-3" transform="translate(785.000000, 166.000000)">
                <g id="Group" transform="translate(30.000000, 149.000000)">
                    <g id="password_ic" transform="translate(14.000000, 16.000000)">
                        <path d="M9.04237061,3.01167307 C8.4020302,1.27096106 6.68282535,0.023357976 4.65702115,0.023357976 C2.08401697,0.023357976 0,2.02927232 0,4.50584813 C0,6.98242394 2.08401697,8.98833828 4.65702115,8.98833828 C6.68282535,8.98833828 8.4020302,7.74070018 9.04237061,6.00002319 L12.4187109,6.00002319 L12.4187109,8.98833828 L15.5233796,8.98833828 L15.5233796,6.00002319 L17.0757321,6.00002319 L17.0757321,3.01167307 L9.04237061,3.01167307 Z M4.65702115,5.99998817 C3.79936522,5.99998817 3.10466864,5.33136173 3.10466864,4.50581311 C3.10466864,3.68026449 3.79936522,3.01167307 4.65702115,3.01167307 C5.51467709,3.01167307 6.20937367,3.68029951 6.20937367,4.50584813 C6.20937367,5.33139675 5.51467709,5.99998817 4.65702115,5.99998817 Z" id="Shape"></path>
                    </g>
                </g>
            </g>
        </g>
    </g>
</svg>