<?xml version="1.0" encoding="UTF-8"?>
<svg width="16px" height="16px" viewBox="0 0 16 16" version="1.1" xmlns="http://www.w3.org/2000/svg" xmlns:xlink="http://www.w3.org/1999/xlink">
    <title>share(2)</title>
    <g id="Page-1" stroke="none" stroke-width="1" fill="none" fill-rule="evenodd">
        <g id="Search-Result-Detail" transform="translate(-1466.000000, -896.000000)" fill="#000000" fill-rule="nonzero">
            <g id="Group-14" transform="translate(1466.000000, 893.000000)">
                <g id="share(2)" transform="translate(0.000000, 3.000000)">
                    <path d="M13.6000781,15.3601172 L1.76003907,15.3601172 C0.78914064,15.3601172 0.0001171875,14.5709766 0.0001171875,13.6001953 L0.0001171875,4.32011718 C0.0001171875,3.34921875 0.78914064,2.56019532 1.76003907,2.56019532 L4.00007814,2.56019532 C4.26503907,2.56019532 4.48007814,2.77523436 4.48007814,3.04019532 C4.48007814,3.30515625 4.26503907,3.52019532 4.00007814,3.52019532 L1.76003907,3.52019532 C1.3190625,3.52019532 0.96011718,3.87914064 0.96011718,4.32011718 L0.96011718,13.6001953 C0.96011718,14.0410547 1.3190625,14.4001172 1.76003907,14.4001172 L13.6000781,14.4001172 C14.0410547,14.4001172 14.4001172,14.0410547 14.4001172,13.6001953 L14.4001172,8.16011718 C14.4001172,7.89515625 14.6151563,7.68011718 14.8801172,7.68011718 C15.1450781,7.68011718 15.3601172,7.89515625 15.3601172,8.16011718 L15.3601172,13.6001953 C15.3601172,14.5709766 14.5709766,15.3601172 13.6000781,15.3601172 L13.6000781,15.3601172 Z" id="Path"></path>
                    <path d="M4.31941407,10.231875 C4.28425782,10.231875 4.24898436,10.2280078 4.21382814,10.2189844 C3.99691407,10.1684766 3.84011718,9.98285157 3.84011718,9.76019532 L3.84011718,8.80019532 C3.84011718,5.35957032 6.63949218,2.56019532 10.0801172,2.56019532 L10.2400781,2.56019532 L10.2400781,0.48011718 C10.2400781,0.28429686 10.3591406,0.10828125 10.5408984,0.0346875 C10.7219531,-0.03820314 10.9299609,0.00585936 11.0656641,0.14730468 L15.2257031,4.46730468 C15.4048828,4.65292968 15.4048828,4.94730468 15.2257031,5.13292968 L11.0656641,9.45292968 C10.9299609,9.594375 10.7206641,9.63796875 10.5408984,9.56554686 C10.3591406,9.49195314 10.2400781,9.3159375 10.2400781,9.12011718 L10.2400781,7.04015625 L9.47976564,7.04015625 C7.46636718,7.04015625 5.65699218,8.15882814 4.75722657,9.95917968 C4.67460936,10.1255859 4.50117186,10.231875 4.31941407,10.231875 L4.31941407,10.231875 Z M10.0801172,3.52019532 C7.39207032,3.52019532 5.16621093,5.53933593 4.84042968,8.14089843 C6.00386718,6.84304686 7.67238282,6.08015625 9.47976564,6.08015625 L10.7200781,6.08015625 C10.9850391,6.08015625 11.2000781,6.29519532 11.2000781,6.56015625 L11.2000781,7.92972657 L14.2137891,4.80011718 L11.2000781,1.67050782 L11.2000781,3.04019532 C11.2000781,3.30515625 10.9850391,3.52019532 10.7200781,3.52019532 L10.0801172,3.52019532 Z" id="Shape"></path>
                </g>
            </g>
        </g>
    </g>
</svg>