<?xml version="1.0" encoding="UTF-8"?>
<svg width="15px" height="12px" viewBox="0 0 15 12" version="1.1" xmlns="http://www.w3.org/2000/svg" xmlns:xlink="http://www.w3.org/1999/xlink">
    <title>82F1EE6D-F5ED-4E94-BEEF-BFE69003FF7D</title>
    <g id="Page-1" stroke="none" stroke-width="1" fill="none" fill-rule="evenodd">
        <g id="Homepage-03" transform="translate(-1495.000000, -4976.000000)" fill="#31A1D0" fill-rule="nonzero">
            <g id="Footer" transform="translate(0.000000, 4915.000000)">
                <g id="Group-14" transform="translate(390.000000, 31.000000)">
                    <g id="Group-12" transform="translate(752.000000, 16.000000)">
                        <g id="Group-11" transform="translate(267.000000, 8.000000)">
                            <g id="subscribe_arrow" transform="translate(86.000000, 6.000000)">
                                <path d="M14.1568293,4.87077073 L14.1802439,4.8756878 L4.14292683,4.8756878 L7.29829268,1.83986341 C7.45280488,1.69164878 7.53756098,1.49086829 7.53756098,1.28013659 C7.53756098,1.06940488 7.45280488,0.870029268 7.29829268,0.721463415 L6.80731707,0.249892683 C6.65292683,0.101678049 6.44719512,0.0197268293 6.22780488,0.0197268293 C6.00829268,0.0197268293 5.80243902,0.101092683 5.64804878,0.249307317 L0.239146341,5.44138537 C0.0841463415,5.59018537 -0.000609756098,5.78839024 -3.26723971e-06,5.99923902 C-0.000609756098,6.21125854 0.0841463415,6.40958049 0.239146341,6.55814634 L5.64804878,11.7506927 C5.80243902,11.8987902 6.00817073,11.9802732 6.22780488,11.9802732 C6.44719512,11.9802732 6.65292683,11.8986732 6.80731707,11.7506927 L7.29829268,11.279122 C7.45280488,11.1311415 7.53756098,10.933522 7.53756098,10.7227902 C7.53756098,10.5121756 7.45280488,10.3249756 7.29829268,10.176878 L4.10731707,7.12407805 L14.1680488,7.12407805 C14.620122,7.12407805 14.9999967,6.75002927 14.9999967,6.31627317 L14.9999967,5.64930732 C14.9999967,5.21555122 14.6089024,4.87077073 14.1568293,4.87077073 Z" id="Path" transform="translate(7.499998, 6.000000) scale(-1, 1) translate(-7.499998, -6.000000) "></path>
                            </g>
                        </g>
                    </g>
                </g>
            </g>
        </g>
    </g>
</svg>