<?xml version="1.0" encoding="UTF-8"?>
<svg width="23px" height="20px" viewBox="0 0 23 20" version="1.1" xmlns="http://www.w3.org/2000/svg" xmlns:xlink="http://www.w3.org/1999/xlink">
    <title>suitcase</title>
    <g id="Page-1" stroke="none" stroke-width="1" fill="none" fill-rule="evenodd">
        <g id="Package-Detail-Dropdowns-When" transform="translate(-674.000000, -280.000000)" fill="#000000" fill-rule="nonzero">
            <g id="Group" transform="translate(659.000000, 261.000000)">
                <g id="Group-9" transform="translate(15.000000, 7.000000)">
                    <g id="suitcase" transform="translate(0.000000, 12.000000)">
                        <path d="M20.72412,3.55671 L18.24012,3.55671 L18.24012,1.15272 C18.24012,0.53235 17.73549,0.02772 17.11512,0.02772 L5.184,0.02772 C4.56363,0.02772 4.059,0.53235 4.059,1.15272 L4.059,3.55671 L1.575,3.55671 C0.70659,3.55671 0,4.2633 0,5.13171 L0,18.1764 C0,19.04481 0.70659,19.7514 1.575,19.7514 L20.72412,19.7514 C21.59253,19.7514 22.29912,19.04481 22.29912,18.1764 L22.29912,5.13171 C22.29912,4.26321 21.59253,3.55671 20.72412,3.55671 Z M5.409,1.37772 L16.89021,1.37772 L16.89021,3.55671 L5.409,3.55671 L5.409,1.37772 Z M1.575,4.90671 L20.72412,4.90671 C20.84607,4.90671 20.94912,5.00976 20.94912,5.13171 L20.94912,9.17982 L14.12523,9.17982 L14.12523,8.57502 C14.12523,7.95465 13.6206,7.45002 13.00023,7.45002 L9.29889,7.45002 C8.67852,7.45002 8.17389,7.95465 8.17389,8.57502 L8.17389,9.17982 L1.35,9.17982 L1.35,5.13171 C1.35,5.00967 1.45305,4.90671 1.575,4.90671 Z M12.77523,8.80011 L12.77523,10.9791 L9.52389,10.9791 L9.52389,8.80011 L12.77523,8.80011 Z M20.72412,18.4014 L1.575,18.4014 C1.45305,18.4014 1.35,18.29844 1.35,18.1764 L1.35,10.52982 L8.17389,10.52982 L8.17389,11.20401 C8.17389,11.82438 8.67852,12.32901 9.29889,12.32901 L13.00023,12.32901 C13.6206,12.32901 14.12523,11.82438 14.12523,11.20401 L14.12523,10.52982 L20.94912,10.52982 L20.94912,18.1764 C20.94912,18.29844 20.84607,18.4014 20.72412,18.4014 Z" id="Shape"></path>
                    </g>
                </g>
            </g>
        </g>
    </g>
</svg>