<?xml version="1.0" encoding="UTF-8"?>
<svg width="15px" height="17px" viewBox="0 0 15 17" version="1.1" xmlns="http://www.w3.org/2000/svg" xmlns:xlink="http://www.w3.org/1999/xlink">
    <title>4B544A29-388B-4A5B-88BA-23F07AF91898</title>
    <g id="Page-1" stroke="none" stroke-width="1" fill="none" fill-rule="evenodd">
        <g id="Register" transform="translate(-830.000000, -227.000000)" fill="#7E7E7E" fill-rule="nonzero">
            <g id="Group-3" transform="translate(785.000000, 126.000000)">
                <g id="Group" transform="translate(30.000000, 89.000000)">
                    <g id="user(26)" transform="translate(15.000000, 12.000000)">
                        <path d="M8.415,9.9 C10.131297,9.9 11.748198,10.582011 12.967878,11.820435 C14.181585,13.052787 14.85,14.679489 14.85,16.401 C14.85,16.674372 14.628372,16.896 14.355,16.896 L14.355,16.896 L0.495,16.896 C0.221628,16.896 3.62376795e-13,16.674372 3.62376795e-13,16.401 C3.62376795e-13,14.679489 0.668415,13.052787 1.882122,11.820435 C3.101802,10.582011 4.718736,9.9 6.435,9.9 L6.435,9.9 Z M7.425,-1.45661261e-13 C9.881487,-1.45661261e-13 11.88,1.998513 11.88,4.455 C11.88,6.911487 9.881487,8.91 7.425,8.91 C4.968513,8.91 2.97,6.911487 2.97,4.455 C2.97,1.998513 4.968513,-1.45661261e-13 7.425,-1.45661261e-13 Z" id="Combined-Shape"></path>
                    </g>
                </g>
            </g>
        </g>
    </g>
</svg>