<?xml version="1.0" encoding="UTF-8"?>
<svg width="26px" height="28px" viewBox="0 0 26 28" version="1.1" xmlns="http://www.w3.org/2000/svg" xmlns:xlink="http://www.w3.org/1999/xlink">
    <title>user(2)</title>
    <g id="Page-1" stroke="none" stroke-width="1" fill="none" fill-rule="evenodd">
        <g id="My-Account" transform="translate(-828.000000, -320.000000)" fill="#31A1D0" fill-rule="nonzero">
            <g id="Group-16" transform="translate(780.000000, 273.000000)">
                <g id="Group-17" transform="translate(20.000000, 20.000000)">
                    <g id="user(2)" transform="translate(28.000000, 27.000000)">
                        <path d="M12.906,15.573006 C21.213198,15.573006 25.788186,19.503288 25.788186,26.638956 C25.788186,27.19629 25.336476,27.648 24.779142,27.648 L24.779142,27.648 L1.032804,27.648 C0.47547,27.648 0.02376,27.19629 0.02376,26.638956 C0.02376,19.50291 4.598802,15.573006 12.906,15.573006 Z M12.906,17.591148 C6.11307,17.591148 2.475468,20.294388 2.078568,25.629912 L2.078568,25.629912 L23.73381,25.629912 C23.336586,20.294388 19.69893,17.591148 12.906,17.591148 Z M12.906,-6.1284311e-14 C16.72191,-6.1284311e-14 19.599354,2.935332 19.599354,6.827922 C19.599354,10.833858 16.596738,14.092758 12.906,14.092758 C9.215262,14.092758 6.212646,10.833858 6.212646,6.827598 C6.212646,2.935332 9.09009,-6.1284311e-14 12.906,-6.1284311e-14 Z M12.906,2.018088 C10.197036,2.018088 8.230734,4.040928 8.230734,6.827922 C8.230734,9.721188 10.327878,12.074994 12.906,12.074994 C15.484122,12.074994 17.581266,9.721188 17.581266,6.827922 C17.581266,4.08564 15.571602,2.018088 12.906,2.018088 Z" id="Combined-Shape"></path>
                    </g>
                </g>
            </g>
        </g>
    </g>
</svg>