<?xml version="1.0" encoding="UTF-8"?>
<svg width="58px" height="58px" viewBox="0 0 58 58" version="1.1" xmlns="http://www.w3.org/2000/svg" xmlns:xlink="http://www.w3.org/1999/xlink">
    <title>A702612F-CBE6-4A82-8826-FD3F33128070</title>
    <g id="Page-1" stroke="none" stroke-width="1" fill="none" fill-rule="evenodd">
        <g id="Country-page" transform="translate(-928.000000, -3628.000000)" fill="#FFFFFF" fill-rule="nonzero">
            <g id="play-button" transform="translate(928.000000, 3628.000000)">
                <path d="M28.5494,0.0038 C44.3156,0.0038 57.0988,12.7832 57.0969,28.5532 C57.0969,44.3156 44.3156,57.0931 28.5494,57.0931 C12.7794,57.0931 -3.17612603e-12,44.3175 -3.17612603e-12,28.5532 C-3.17612603e-12,12.7832 12.7794,0.0038 28.5494,0.0038 Z M28.5494,4.769 C15.4166,4.769 4.769,15.4242 4.769,28.5532 C4.769,41.6879 15.4166,52.3298 28.5494,52.3298 C41.6803,52.3298 52.3279,41.6879 52.326,28.5532 C52.326,15.4223 41.6803,4.769 28.5494,4.769 Z M24.6202,18.696 C25.0971,18.4509 25.6747,18.4984 26.1098,18.8138 L26.1098,18.8138 L37.9658,27.4322 C38.3363,27.702 38.5605,28.1257 38.558612,28.5855 C38.558612,29.0377 38.3401,29.4633 37.9658,29.7388 L37.9658,29.7388 L26.1098,38.3496 C25.859,38.5339 25.5626,38.627 25.27,38.627 C25.0458,38.627 24.8235,38.5757 24.6202,38.4731 C24.1395,38.2299 23.8393,37.7378 23.8393,37.1982 L23.8393,37.1982 L23.8393,19.9671 C23.8393,19.4332 24.1395,18.9392 24.6202,18.696 Z" id="Combined-Shape"></path>
            </g>
        </g>
    </g>
</svg>