<?xml version="1.0" encoding="UTF-8"?>
<svg width="237px" height="100px" viewBox="0 0 237 100" version="1.1" xmlns="http://www.w3.org/2000/svg" xmlns:xlink="http://www.w3.org/1999/xlink">
    <title>Group 3</title>
    <defs>
        <filter x="-79.2%" y="-56.3%" width="258.5%" height="212.7%" filterUnits="objectBoundingBox" id="filter-1">
            <feOffset dx="7" dy="36" in="SourceAlpha" result="shadowOffsetOuter1"></feOffset>
            <feGaussianBlur stdDeviation="19" in="shadowOffsetOuter1" result="shadowBlurOuter1"></feGaussianBlur>
            <feColorMatrix values="0 0 0 0 0   0 0 0 0 0   0 0 0 0 0  0 0 0 0.187390734 0" type="matrix" in="shadowBlurOuter1" result="shadowMatrixOuter1"></feColorMatrix>
            <feMerge>
                <feMergeNode in="shadowMatrixOuter1"></feMergeNode>
                <feMergeNode in="SourceGraphic"></feMergeNode>
            </feMerge>
        </filter>
    </defs>
    <g id="Page-1" stroke="none" stroke-width="1" fill="none" fill-rule="evenodd">
        <g id="Gift-Cards-Inner" transform="translate(-404.000000, -356.000000)" fill-rule="nonzero">
            <g id="Group-2" transform="translate(391.000000, 295.000000)">
                <g id="Group" filter="url(#filter-1)" transform="translate(126.000000, 89.600000) rotate(90.000000) translate(-126.000000, -89.600000) translate(36.400000, -36.400000)">
                    <g id="Logo-TLT" transform="translate(75.418000, 126.069188) rotate(-90.000000) translate(-75.418000, -126.069188) translate(-8.862812, 111.901188)">
                        <g id="Group-3" transform="translate(0.000000, -0.000000)">
                            <g id="the-luxury-trips" transform="translate(33.561625, 9.059586)" fill="#FFFFFF">
                                <g id="THE" transform="translate(0.000000, 0.000000)">
                                    <path d="M4.9498643,10.9604138 L4.9498643,1.40672436 L8.44034613,1.40672436 L8.44034613,0.180542163 L3.63797881e-12,0.180542163 L3.63797881e-12,1.40672436 L3.49800442,1.40672436 L3.49800442,10.9604138 L4.9498643,10.9604138 Z M11.4945177,10.9604138 L11.4945177,6.05568505 L17.3094799,6.05568505 L17.3094799,10.9604138 L18.7688624,10.9604138 L18.7688624,0.180542163 L17.3094799,0.180542163 L17.3094799,4.98747726 L11.4945177,4.98747726 L11.4945177,0.180542163 L10.0351352,0.180542163 L10.0351352,10.9604138 L11.4945177,10.9604138 Z M28.1645775,10.9604138 L28.1721,9.77184457 L22.9815129,9.77184457 L22.9815129,6.09329801 L27.1791182,6.09329801 L27.1791182,4.9498643 L22.9815129,4.9498643 L22.9815129,1.36911141 L28.1645775,1.36911141 L28.1645775,0.180542163 L21.5221304,0.180542163 L21.5221304,10.9604138 L28.1645775,10.9604138 Z" id="path-1"></path>
                                    <path d="M4.9498643,10.9604138 L4.9498643,1.40672436 L8.44034613,1.40672436 L8.44034613,0.180542163 L3.63797881e-12,0.180542163 L3.63797881e-12,1.40672436 L3.49800442,1.40672436 L3.49800442,10.9604138 L4.9498643,10.9604138 Z M11.4945177,10.9604138 L11.4945177,6.05568505 L17.3094799,6.05568505 L17.3094799,10.9604138 L18.7688624,10.9604138 L18.7688624,0.180542163 L17.3094799,0.180542163 L17.3094799,4.98747726 L11.4945177,4.98747726 L11.4945177,0.180542163 L10.0351352,0.180542163 L10.0351352,10.9604138 L11.4945177,10.9604138 Z M28.1645775,10.9604138 L28.1721,9.77184457 L22.9815129,9.77184457 L22.9815129,6.09329801 L27.1791182,6.09329801 L27.1791182,4.9498643 L22.9815129,4.9498643 L22.9815129,1.36911141 L28.1645775,1.36911141 L28.1645775,0.180542163 L21.5221304,0.180542163 L21.5221304,10.9604138 L28.1645775,10.9604138 Z" id="path-1"></path>
                                </g>
                                <g id="LUXURY" transform="translate(32.956000, 0.000000)">
                                    <path d="M6.75189469,10.9604138 L6.75189469,8.92931449 L2.68969593,8.92931449 L2.68969593,0 L0.147060452,0 L0.147060452,10.9604138 L6.75189469,10.9604138 Z M12.3938371,11.0807753 C13.1210211,11.0807753 13.7754863,10.9679364 14.3572334,10.7422587 C14.9389804,10.516581 15.4329637,10.2006322 15.8391837,9.79441235 C16.2454033,9.38819248 16.5575909,8.90423919 16.7757461,8.34255246 C16.9939012,7.78086574 17.1029788,7.16401335 17.1029788,6.49199529 L17.1029788,6.49199529 L17.1029788,0 L14.5603433,0 L14.5603433,6.49199529 C14.5603433,6.87815491 14.5114465,7.22294031 14.4136528,7.52635142 C14.3158591,7.82976256 14.1741837,8.0867844 13.9886263,8.29741691 C13.8030693,8.50804946 13.5761377,8.66978512 13.3078321,8.78262397 C13.0395262,8.89546282 12.7348615,8.95188226 12.3938371,8.95188226 C12.0528131,8.95188226 11.7481484,8.89546282 11.4798425,8.78262397 C11.211537,8.66978512 10.9846053,8.50679568 10.7990483,8.29365562 C10.6134909,8.08051558 10.4718155,7.82223996 10.3740218,7.51882886 C10.2762281,7.21541772 10.2273313,6.87063232 10.2273313,6.4844727 L10.2273313,6.4844727 L10.2273313,0 L7.68469579,0 L7.68469579,6.49199529 C7.68469579,7.16401335 7.79251981,7.78086574 8.00816724,8.34255246 C8.22381468,8.90423919 8.53474868,9.38819248 8.94096834,9.79441235 C9.34718831,10.2006322 9.84117165,10.516581 10.4229187,10.7422587 C11.0046657,10.9679364 11.6616386,11.0807753 12.3938371,11.0807753 Z M20.3076021,10.9604138 C20.4580539,10.9604138 20.5809228,10.9177858 20.6762091,10.8325298 C20.7714951,10.7472738 20.8542436,10.6544952 20.9244546,10.554194 L20.9244546,10.554194 L22.970599,7.00353143 C23.0207498,6.92329047 23.0658853,6.82800432 23.1060057,6.71767299 L23.1060057,6.71767299 L25.3026019,10.554194 C25.3627827,10.6645253 25.4442773,10.7598114 25.5470862,10.8400524 C25.6498947,10.9202934 25.7840478,10.9604138 25.9495449,10.9604138 L25.9495449,10.9604138 L28.4921803,10.9604138 L24.9791305,5.21315496 L28.4169544,0 L25.9796352,0 C25.8642886,0 25.7677488,0.0250753005 25.6900154,0.0752259015 C25.6122821,0.125376502 25.5383097,0.205617464 25.468099,0.315948787 L25.468099,0.315948787 L23.5573612,3.59579808 C23.5172405,3.66099386 23.4808814,3.72368212 23.4482836,3.78386285 C23.4156855,3.84404356 23.386849,3.90673181 23.3617738,3.97192759 L23.3617738,3.97192759 L21.1802224,0.278335835 C21.1200417,0.178034633 21.0510848,0.106570027 20.9733515,0.0639420163 C20.8956178,0.0213140054 20.7740028,0 20.6085058,0 L20.6085058,0 L18.0658703,0 L21.4585584,5.31847122 L17.9304636,10.9604138 L20.3076021,10.9604138 Z M34.0438517,11.0807753 C34.7710354,11.0807753 35.4255009,10.9679364 36.0072476,10.7422587 C36.5889946,10.516581 37.0829782,10.2006322 37.4891979,9.79441235 C37.8954179,9.38819248 38.2076054,8.90423919 38.4257606,8.34255246 C38.6439155,7.78086574 38.752993,7.16401335 38.752993,6.49199529 L38.752993,6.49199529 L38.752993,0 L36.2103576,0 L36.2103576,6.49199529 C36.2103576,6.87815491 36.1614607,7.22294031 36.063667,7.52635142 C35.9658736,7.82976256 35.8241979,8.0867844 35.6386409,8.29741691 C35.4530835,8.50804946 35.2261522,8.66978512 34.9578463,8.78262397 C34.6895407,8.89546282 34.3848758,8.95188226 34.0438517,8.95188226 C33.7028276,8.95188226 33.3981626,8.89546282 33.1298571,8.78262397 C32.8615512,8.66978512 32.6346199,8.50679568 32.4490625,8.29365562 C32.2635054,8.08051558 32.12183,7.82223996 32.0240364,7.51882886 C31.9262427,7.21541772 31.8773458,6.87063232 31.8773458,6.4844727 L31.8773458,6.4844727 L31.8773458,0 L29.3347103,0 L29.3347103,6.49199529 C29.3347103,7.16401335 29.442534,7.78086574 29.6581818,8.34255246 C29.8738292,8.90423919 30.1847629,9.38819248 30.5909829,9.79441235 C30.9972029,10.2006322 31.4911862,10.516581 32.0729332,10.7422587 C32.6546802,10.9679364 33.3116528,11.0807753 34.0438517,11.0807753 Z M43.2815925,10.9604138 L43.2815925,6.90573773 L43.9285351,6.90573773 C44.1241225,6.90573773 44.2745743,6.93708187 44.3798906,6.99977013 C44.4852069,7.06245839 44.5804929,7.1615058 44.6657491,7.29691242 L44.6657491,7.29691242 L46.4862158,10.4789681 C46.6717731,10.7999319 46.9776917,10.9604138 47.4039717,10.9604138 L47.4039717,10.9604138 L49.7058842,10.9604138 L47.3738813,7.14646064 C47.258535,6.97093354 47.1281435,6.81922795 46.9827068,6.69134392 C46.8372699,6.56345989 46.6818032,6.45688985 46.5163061,6.37163385 C46.8723754,6.23622723 47.1870704,6.06320764 47.4603911,5.85257513 C47.7337119,5.64194261 47.9631509,5.40247348 48.1487083,5.13416778 C48.3342654,4.86586205 48.4746872,4.5737348 48.5699731,4.25778602 C48.6652594,3.94183722 48.7129024,3.6058282 48.7129024,3.24975894 C48.7129024,2.78335835 48.6326616,2.35206318 48.4721794,1.95587344 C48.3116976,1.55968369 48.0546759,1.21615207 47.7011141,0.925278588 C47.3475523,0.634405101 46.8911819,0.407473633 46.3320026,0.244484179 C45.7728234,0.0814947265 45.0970443,0 44.3046647,0 L44.3046647,0 L40.738957,0 L40.738957,10.9604138 L43.2815925,10.9604138 Z M44.3046647,5.15297426 L43.2815925,5.15297426 L43.2815925,1.9032153 L44.3046647,1.9032153 C44.9616376,1.9032153 45.4468445,2.03862193 45.760286,2.30943517 C46.0737271,2.58024842 46.2304476,2.95637792 46.2304476,3.43782368 C46.2304476,3.67854656 46.1953424,3.90297052 46.1251314,4.11109551 C46.0549206,4.31922051 45.9420817,4.50101643 45.786615,4.65648331 C45.631148,4.81195016 45.4317993,4.93356538 45.188569,5.02132893 C44.9453386,5.10909248 44.6507039,5.15297426 44.3046647,5.15297426 L44.3046647,5.15297426 Z M55.2951689,10.9604138 L55.2951689,6.79289888 L59.2670965,0 L57.0103195,0 C56.9050032,0 56.8084631,0.0162989453 56.7206997,0.048896836 C56.6329361,0.0814947265 56.5552027,0.124122737 56.4874994,0.176780868 C56.419796,0.229438999 56.3608692,0.288365955 56.3107185,0.353561738 C56.2605681,0.418757518 56.2179399,0.483953298 56.1828344,0.54914908 L56.1828344,0.54914908 L54.6482259,3.7387273 C54.5178344,3.98446525 54.403742,4.21641177 54.3059483,4.43456688 C54.2081546,4.65272201 54.1216448,4.86962334 54.0464189,5.08527093 C53.9661778,4.87463841 53.8733993,4.6602446 53.768083,4.44208947 C53.6627667,4.22393436 53.544913,3.98948029 53.4145212,3.7387273 L53.4145212,3.7387273 L51.8648678,0.54914908 C51.7796116,0.388667156 51.6730417,0.25702183 51.5451577,0.154213098 C51.4172736,0.0514043659 51.2430004,0 51.0223375,0 L51.0223375,0 L48.7806057,0 L52.7525334,6.79289888 L52.7525334,10.9604138 L55.2951689,10.9604138 Z" id="path-2"></path>
                                    <path d="M6.75189469,10.9604138 L6.75189469,8.92931449 L2.68969593,8.92931449 L2.68969593,0 L0.147060452,0 L0.147060452,10.9604138 L6.75189469,10.9604138 Z M12.3938371,11.0807753 C13.1210211,11.0807753 13.7754863,10.9679364 14.3572334,10.7422587 C14.9389804,10.516581 15.4329637,10.2006322 15.8391837,9.79441235 C16.2454033,9.38819248 16.5575909,8.90423919 16.7757461,8.34255246 C16.9939012,7.78086574 17.1029788,7.16401335 17.1029788,6.49199529 L17.1029788,6.49199529 L17.1029788,0 L14.5603433,0 L14.5603433,6.49199529 C14.5603433,6.87815491 14.5114465,7.22294031 14.4136528,7.52635142 C14.3158591,7.82976256 14.1741837,8.0867844 13.9886263,8.29741691 C13.8030693,8.50804946 13.5761377,8.66978512 13.3078321,8.78262397 C13.0395262,8.89546282 12.7348615,8.95188226 12.3938371,8.95188226 C12.0528131,8.95188226 11.7481484,8.89546282 11.4798425,8.78262397 C11.211537,8.66978512 10.9846053,8.50679568 10.7990483,8.29365562 C10.6134909,8.08051558 10.4718155,7.82223996 10.3740218,7.51882886 C10.2762281,7.21541772 10.2273313,6.87063232 10.2273313,6.4844727 L10.2273313,6.4844727 L10.2273313,0 L7.68469579,0 L7.68469579,6.49199529 C7.68469579,7.16401335 7.79251981,7.78086574 8.00816724,8.34255246 C8.22381468,8.90423919 8.53474868,9.38819248 8.94096834,9.79441235 C9.34718831,10.2006322 9.84117165,10.516581 10.4229187,10.7422587 C11.0046657,10.9679364 11.6616386,11.0807753 12.3938371,11.0807753 Z M20.3076021,10.9604138 C20.4580539,10.9604138 20.5809228,10.9177858 20.6762091,10.8325298 C20.7714951,10.7472738 20.8542436,10.6544952 20.9244546,10.554194 L20.9244546,10.554194 L22.970599,7.00353143 C23.0207498,6.92329047 23.0658853,6.82800432 23.1060057,6.71767299 L23.1060057,6.71767299 L25.3026019,10.554194 C25.3627827,10.6645253 25.4442773,10.7598114 25.5470862,10.8400524 C25.6498947,10.9202934 25.7840478,10.9604138 25.9495449,10.9604138 L25.9495449,10.9604138 L28.4921803,10.9604138 L24.9791305,5.21315496 L28.4169544,0 L25.9796352,0 C25.8642886,0 25.7677488,0.0250753005 25.6900154,0.0752259015 C25.6122821,0.125376502 25.5383097,0.205617464 25.468099,0.315948787 L25.468099,0.315948787 L23.5573612,3.59579808 C23.5172405,3.66099386 23.4808814,3.72368212 23.4482836,3.78386285 C23.4156855,3.84404356 23.386849,3.90673181 23.3617738,3.97192759 L23.3617738,3.97192759 L21.1802224,0.278335835 C21.1200417,0.178034633 21.0510848,0.106570027 20.9733515,0.0639420163 C20.8956178,0.0213140054 20.7740028,0 20.6085058,0 L20.6085058,0 L18.0658703,0 L21.4585584,5.31847122 L17.9304636,10.9604138 L20.3076021,10.9604138 Z M34.0438517,11.0807753 C34.7710354,11.0807753 35.4255009,10.9679364 36.0072476,10.7422587 C36.5889946,10.516581 37.0829782,10.2006322 37.4891979,9.79441235 C37.8954179,9.38819248 38.2076054,8.90423919 38.4257606,8.34255246 C38.6439155,7.78086574 38.752993,7.16401335 38.752993,6.49199529 L38.752993,6.49199529 L38.752993,0 L36.2103576,0 L36.2103576,6.49199529 C36.2103576,6.87815491 36.1614607,7.22294031 36.063667,7.52635142 C35.9658736,7.82976256 35.8241979,8.0867844 35.6386409,8.29741691 C35.4530835,8.50804946 35.2261522,8.66978512 34.9578463,8.78262397 C34.6895407,8.89546282 34.3848758,8.95188226 34.0438517,8.95188226 C33.7028276,8.95188226 33.3981626,8.89546282 33.1298571,8.78262397 C32.8615512,8.66978512 32.6346199,8.50679568 32.4490625,8.29365562 C32.2635054,8.08051558 32.12183,7.82223996 32.0240364,7.51882886 C31.9262427,7.21541772 31.8773458,6.87063232 31.8773458,6.4844727 L31.8773458,6.4844727 L31.8773458,0 L29.3347103,0 L29.3347103,6.49199529 C29.3347103,7.16401335 29.442534,7.78086574 29.6581818,8.34255246 C29.8738292,8.90423919 30.1847629,9.38819248 30.5909829,9.79441235 C30.9972029,10.2006322 31.4911862,10.516581 32.0729332,10.7422587 C32.6546802,10.9679364 33.3116528,11.0807753 34.0438517,11.0807753 Z M43.2815925,10.9604138 L43.2815925,6.90573773 L43.9285351,6.90573773 C44.1241225,6.90573773 44.2745743,6.93708187 44.3798906,6.99977013 C44.4852069,7.06245839 44.5804929,7.1615058 44.6657491,7.29691242 L44.6657491,7.29691242 L46.4862158,10.4789681 C46.6717731,10.7999319 46.9776917,10.9604138 47.4039717,10.9604138 L47.4039717,10.9604138 L49.7058842,10.9604138 L47.3738813,7.14646064 C47.258535,6.97093354 47.1281435,6.81922795 46.9827068,6.69134392 C46.8372699,6.56345989 46.6818032,6.45688985 46.5163061,6.37163385 C46.8723754,6.23622723 47.1870704,6.06320764 47.4603911,5.85257513 C47.7337119,5.64194261 47.9631509,5.40247348 48.1487083,5.13416778 C48.3342654,4.86586205 48.4746872,4.5737348 48.5699731,4.25778602 C48.6652594,3.94183722 48.7129024,3.6058282 48.7129024,3.24975894 C48.7129024,2.78335835 48.6326616,2.35206318 48.4721794,1.95587344 C48.3116976,1.55968369 48.0546759,1.21615207 47.7011141,0.925278588 C47.3475523,0.634405101 46.8911819,0.407473633 46.3320026,0.244484179 C45.7728234,0.0814947265 45.0970443,0 44.3046647,0 L44.3046647,0 L40.738957,0 L40.738957,10.9604138 L43.2815925,10.9604138 Z M44.3046647,5.15297426 L43.2815925,5.15297426 L43.2815925,1.9032153 L44.3046647,1.9032153 C44.9616376,1.9032153 45.4468445,2.03862193 45.760286,2.30943517 C46.0737271,2.58024842 46.2304476,2.95637792 46.2304476,3.43782368 C46.2304476,3.67854656 46.1953424,3.90297052 46.1251314,4.11109551 C46.0549206,4.31922051 45.9420817,4.50101643 45.786615,4.65648331 C45.631148,4.81195016 45.4317993,4.93356538 45.188569,5.02132893 C44.9453386,5.10909248 44.6507039,5.15297426 44.3046647,5.15297426 L44.3046647,5.15297426 Z M55.2951689,10.9604138 L55.2951689,6.79289888 L59.2670965,0 L57.0103195,0 C56.9050032,0 56.8084631,0.0162989453 56.7206997,0.048896836 C56.6329361,0.0814947265 56.5552027,0.124122737 56.4874994,0.176780868 C56.419796,0.229438999 56.3608692,0.288365955 56.3107185,0.353561738 C56.2605681,0.418757518 56.2179399,0.483953298 56.1828344,0.54914908 L56.1828344,0.54914908 L54.6482259,3.7387273 C54.5178344,3.98446525 54.403742,4.21641177 54.3059483,4.43456688 C54.2081546,4.65272201 54.1216448,4.86962334 54.0464189,5.08527093 C53.9661778,4.87463841 53.8733993,4.6602446 53.768083,4.44208947 C53.6627667,4.22393436 53.544913,3.98948029 53.4145212,3.7387273 L53.4145212,3.7387273 L51.8648678,0.54914908 C51.7796116,0.388667156 51.6730417,0.25702183 51.5451577,0.154213098 C51.4172736,0.0514043659 51.2430004,0 51.0223375,0 L51.0223375,0 L48.7806057,0 L52.7525334,6.79289888 L52.7525334,10.9604138 L55.2951689,10.9604138 Z" id="path-2"></path>
                                </g>
                                <g id="TRIPS" transform="translate(95.172000, 0.000000)">
                                    <path d="M5.1266945,10.9604138 L5.1266945,1.40672436 L8.61717626,1.40672436 L8.61717626,0.180542163 L0.176830192,0.180542163 L0.176830192,1.40672436 L3.67483455,1.40672436 L3.67483455,10.9604138 L5.1266945,10.9604138 Z M11.6638254,10.9604138 L11.6638254,6.46190493 L12.7696461,6.46190493 C12.9752635,6.46190493 13.1269692,6.488234 13.2247629,6.54089211 C13.3225563,6.59355026 13.4140813,6.68006003 13.4993372,6.80042147 L13.4993372,6.80042147 L16.2977408,10.6519876 C16.4231175,10.8576051 16.6187046,10.9604138 16.884503,10.9604138 L16.884503,10.9604138 L18.1783885,10.9604138 L15.0339457,6.68006003 C14.898539,6.47945763 14.7380572,6.3264983 14.5524998,6.22118204 C14.9687498,6.1258959 15.3411181,5.98547423 15.6696047,5.79991698 C15.998091,5.61435977 16.2764269,5.38993584 16.5046121,5.12664519 C16.7327973,4.86335453 16.9070708,4.5662122 17.027432,4.23521825 C17.1477934,3.90422429 17.2079742,3.54815501 17.2079742,3.16701046 C17.2079742,2.71063998 17.1302408,2.29815129 16.9747738,1.92954437 C16.8193071,1.56093745 16.579838,1.24624243 16.2563666,0.985459309 C15.9328951,0.724676183 15.5229142,0.525327544 15.0264231,0.387413393 C14.529932,0.24949924 13.9406627,0.180542163 13.2586143,0.180542163 L13.2586143,0.180542163 L10.2119655,0.180542163 L10.2119655,10.9604138 L11.6638254,10.9604138 Z M13.1984339,5.40121973 L11.6638254,5.40121973 L11.6638254,1.33149845 L13.2586143,1.33149845 C14.1011446,1.33149845 14.733042,1.49448791 15.1543072,1.82046681 C15.5755723,2.14644572 15.7862046,2.63039902 15.7862046,3.27232672 C15.7862046,3.58827549 15.731039,3.87664145 15.6207079,4.13742458 C15.5103764,4.39820769 15.3461333,4.62263164 15.1279781,4.81069638 C14.9098229,4.99876115 14.6390096,5.14419789 14.3155385,5.24700663 C13.992067,5.34981536 13.6196987,5.40121973 13.1984339,5.40121973 L13.1984339,5.40121973 Z M21.0971533,10.9604138 L21.0971533,0.180542163 L19.6377708,0.180542163 L19.6377708,10.9604138 L21.0971533,10.9604138 Z M25.3022813,10.9604138 L25.3022813,6.92830551 L27.0324769,6.92830551 C27.6844349,6.92830551 28.2599129,6.84430325 28.7589114,6.67629874 C29.2579099,6.50829422 29.6766673,6.27384019 30.015184,5.97293657 C30.3537006,5.67203295 30.6107223,5.31345618 30.7862493,4.89720619 C30.9617767,4.4809562 31.0495401,4.02207818 31.0495401,3.52057219 C31.0495401,3.01405111 30.9680454,2.55517312 30.8050558,2.14393819 C30.6420665,1.73270326 30.3950749,1.38164906 30.0640808,1.09077557 C29.7330868,0.799902085 29.3155832,0.575478146 28.8115696,0.417503751 C28.3075559,0.25952936 27.7145253,0.180542163 27.0324769,0.180542163 L27.0324769,0.180542163 L23.8504214,0.180542163 L23.8504214,10.9604138 L25.3022813,10.9604138 Z M27.0324769,5.76982665 L25.3022813,5.76982665 L25.3022813,1.33149845 L27.0324769,1.33149845 C27.8950672,1.33149845 28.5382488,1.52457827 28.9620214,1.91073789 C29.385794,2.29689752 29.5976801,2.83350895 29.5976801,3.52057219 C29.5976801,3.85156615 29.5425145,4.15497729 29.4321831,4.43080558 C29.3218519,4.7066339 29.1576088,4.94359549 28.9394536,5.14169037 C28.7212985,5.33978522 28.4529929,5.49399833 28.1345366,5.60432965 C27.81608,5.71466098 27.4487268,5.76982665 27.0324769,5.76982665 L27.0324769,5.76982665 Z M35.3825521,11.0807753 C35.9542688,11.0807753 36.4645512,10.9930117 36.913399,10.8174846 C37.3622471,10.6419575 37.7408841,10.4012346 38.0493104,10.095316 C38.3577363,9.78939731 38.5921906,9.42956673 38.7526724,9.01582426 C38.9131543,8.60208183 38.9933954,8.15950277 38.9933954,7.68808711 C38.9933954,7.24174676 38.9194233,6.86561725 38.7714789,6.55969859 C38.6235345,6.25377993 38.4279474,5.99550435 38.1847167,5.7848718 C37.9414864,5.57423929 37.6656582,5.39996596 37.3572319,5.26205181 C37.0488056,5.12413763 36.7328571,5.0000149 36.4093856,4.8896836 C36.0859142,4.77935227 35.7699653,4.67278224 35.4615393,4.5699735 C35.1531131,4.46716476 34.8772846,4.34554958 34.6340542,4.20512788 C34.3908239,4.06470621 34.1952365,3.89544793 34.0472924,3.69735304 C33.8993479,3.49925819 33.8253759,3.24975894 33.8253759,2.94885533 C33.8253759,2.71314751 33.868004,2.49373863 33.95326,2.2906287 C34.0385159,2.08751876 34.1651461,1.91073789 34.3331509,1.76028609 C34.5011553,1.60983429 34.7092801,1.49072661 34.9575257,1.40296306 C35.2057712,1.31519951 35.4928833,1.27131773 35.8188622,1.27131773 C36.1649014,1.27131773 36.459536,1.31394574 36.7027667,1.39920176 C36.9459971,1.48445779 37.1541219,1.57849016 37.3271415,1.6812989 C37.5001612,1.78410763 37.6443443,1.87814001 37.7596906,1.96339603 C37.8750369,2.04865205 37.975338,2.09128006 38.0605943,2.09128006 C38.1358199,2.09128006 38.1997619,2.07247358 38.2524201,2.03486063 C38.3050782,1.99724768 38.353975,1.94082826 38.3991106,1.86560235 L38.3991106,1.86560235 L38.7526724,1.17352406 C38.3765428,0.812439736 37.9414864,0.536611429 37.447503,0.346039146 C36.9535197,0.155466863 36.4056243,0.0601807212 35.803817,0.0601807212 C35.2672055,0.0601807212 34.7920287,0.142929213 34.3782861,0.308426195 C33.9645438,0.473923179 33.6159972,0.694585821 33.3326461,0.970414128 C33.0492954,1.24624243 32.8336476,1.56219122 32.6857035,1.91826049 C32.5377591,2.27432975 32.463787,2.64293667 32.463787,3.02408124 C32.463787,3.50051194 32.5377591,3.900463 32.6857035,4.22393436 C32.8336476,4.54740572 33.0279814,4.81696523 33.2687041,5.03261282 C33.509427,5.24826037 33.7852555,5.42378748 34.0961892,5.5591941 C34.4071229,5.69460073 34.7230718,5.81370842 35.0440355,5.91651713 C35.3649992,6.01932587 35.6809481,6.11962708 35.9918818,6.21742075 C36.3028155,6.31521441 36.5786439,6.43432211 36.8193669,6.57474378 C37.0600895,6.71516547 37.2544234,6.8894388 37.4023675,7.0975638 C37.5503119,7.30568879 37.6242839,7.57274074 37.6242839,7.89871963 C37.6242839,8.19460818 37.5741332,8.46291391 37.4738321,8.70363679 C37.373531,8.94435967 37.2293478,9.15123089 37.041283,9.32425047 C36.8532186,9.49727006 36.6237795,9.63142291 36.3529662,9.72670905 C36.0821529,9.8219952 35.7737266,9.86963827 35.4276877,9.86963827 C35.1518592,9.86963827 34.9036137,9.8433092 34.6829511,9.79065105 C34.4622885,9.73799294 34.2654475,9.67154339 34.0924279,9.59130243 C33.9194083,9.51106147 33.7651952,9.42329791 33.6297885,9.32801177 C33.4943818,9.23272563 33.3740204,9.14496207 33.2687041,9.06472111 C33.1633878,8.98448015 33.0693557,8.9180306 32.9866072,8.86537249 C32.9038587,8.81271434 32.8298863,8.78638527 32.7646907,8.78638527 C32.69448,8.78638527 32.6305379,8.80519175 32.5728646,8.84280471 C32.5151913,8.88041767 32.4662945,8.92680697 32.4261741,8.98197263 L32.4261741,8.98197263 L32.0049089,9.67405091 C32.4111289,10.1053461 32.9000974,10.4476239 33.4718141,10.7008845 C34.0435311,10.954145 34.6804436,11.0807753 35.3825521,11.0807753 Z" id="path-3"></path>
                                    <path d="M5.1266945,10.9604138 L5.1266945,1.40672436 L8.61717626,1.40672436 L8.61717626,0.180542163 L0.176830192,0.180542163 L0.176830192,1.40672436 L3.67483455,1.40672436 L3.67483455,10.9604138 L5.1266945,10.9604138 Z M11.6638254,10.9604138 L11.6638254,6.46190493 L12.7696461,6.46190493 C12.9752635,6.46190493 13.1269692,6.488234 13.2247629,6.54089211 C13.3225563,6.59355026 13.4140813,6.68006003 13.4993372,6.80042147 L13.4993372,6.80042147 L16.2977408,10.6519876 C16.4231175,10.8576051 16.6187046,10.9604138 16.884503,10.9604138 L16.884503,10.9604138 L18.1783885,10.9604138 L15.0339457,6.68006003 C14.898539,6.47945763 14.7380572,6.3264983 14.5524998,6.22118204 C14.9687498,6.1258959 15.3411181,5.98547423 15.6696047,5.79991698 C15.998091,5.61435977 16.2764269,5.38993584 16.5046121,5.12664519 C16.7327973,4.86335453 16.9070708,4.5662122 17.027432,4.23521825 C17.1477934,3.90422429 17.2079742,3.54815501 17.2079742,3.16701046 C17.2079742,2.71063998 17.1302408,2.29815129 16.9747738,1.92954437 C16.8193071,1.56093745 16.579838,1.24624243 16.2563666,0.985459309 C15.9328951,0.724676183 15.5229142,0.525327544 15.0264231,0.387413393 C14.529932,0.24949924 13.9406627,0.180542163 13.2586143,0.180542163 L13.2586143,0.180542163 L10.2119655,0.180542163 L10.2119655,10.9604138 L11.6638254,10.9604138 Z M13.1984339,5.40121973 L11.6638254,5.40121973 L11.6638254,1.33149845 L13.2586143,1.33149845 C14.1011446,1.33149845 14.733042,1.49448791 15.1543072,1.82046681 C15.5755723,2.14644572 15.7862046,2.63039902 15.7862046,3.27232672 C15.7862046,3.58827549 15.731039,3.87664145 15.6207079,4.13742458 C15.5103764,4.39820769 15.3461333,4.62263164 15.1279781,4.81069638 C14.9098229,4.99876115 14.6390096,5.14419789 14.3155385,5.24700663 C13.992067,5.34981536 13.6196987,5.40121973 13.1984339,5.40121973 L13.1984339,5.40121973 Z M21.0971533,10.9604138 L21.0971533,0.180542163 L19.6377708,0.180542163 L19.6377708,10.9604138 L21.0971533,10.9604138 Z M25.3022813,10.9604138 L25.3022813,6.92830551 L27.0324769,6.92830551 C27.6844349,6.92830551 28.2599129,6.84430325 28.7589114,6.67629874 C29.2579099,6.50829422 29.6766673,6.27384019 30.015184,5.97293657 C30.3537006,5.67203295 30.6107223,5.31345618 30.7862493,4.89720619 C30.9617767,4.4809562 31.0495401,4.02207818 31.0495401,3.52057219 C31.0495401,3.01405111 30.9680454,2.55517312 30.8050558,2.14393819 C30.6420665,1.73270326 30.3950749,1.38164906 30.0640808,1.09077557 C29.7330868,0.799902085 29.3155832,0.575478146 28.8115696,0.417503751 C28.3075559,0.25952936 27.7145253,0.180542163 27.0324769,0.180542163 L27.0324769,0.180542163 L23.8504214,0.180542163 L23.8504214,10.9604138 L25.3022813,10.9604138 Z M27.0324769,5.76982665 L25.3022813,5.76982665 L25.3022813,1.33149845 L27.0324769,1.33149845 C27.8950672,1.33149845 28.5382488,1.52457827 28.9620214,1.91073789 C29.385794,2.29689752 29.5976801,2.83350895 29.5976801,3.52057219 C29.5976801,3.85156615 29.5425145,4.15497729 29.4321831,4.43080558 C29.3218519,4.7066339 29.1576088,4.94359549 28.9394536,5.14169037 C28.7212985,5.33978522 28.4529929,5.49399833 28.1345366,5.60432965 C27.81608,5.71466098 27.4487268,5.76982665 27.0324769,5.76982665 L27.0324769,5.76982665 Z M35.3825521,11.0807753 C35.9542688,11.0807753 36.4645512,10.9930117 36.913399,10.8174846 C37.3622471,10.6419575 37.7408841,10.4012346 38.0493104,10.095316 C38.3577363,9.78939731 38.5921906,9.42956673 38.7526724,9.01582426 C38.9131543,8.60208183 38.9933954,8.15950277 38.9933954,7.68808711 C38.9933954,7.24174676 38.9194233,6.86561725 38.7714789,6.55969859 C38.6235345,6.25377993 38.4279474,5.99550435 38.1847167,5.7848718 C37.9414864,5.57423929 37.6656582,5.39996596 37.3572319,5.26205181 C37.0488056,5.12413763 36.7328571,5.0000149 36.4093856,4.8896836 C36.0859142,4.77935227 35.7699653,4.67278224 35.4615393,4.5699735 C35.1531131,4.46716476 34.8772846,4.34554958 34.6340542,4.20512788 C34.3908239,4.06470621 34.1952365,3.89544793 34.0472924,3.69735304 C33.8993479,3.49925819 33.8253759,3.24975894 33.8253759,2.94885533 C33.8253759,2.71314751 33.868004,2.49373863 33.95326,2.2906287 C34.0385159,2.08751876 34.1651461,1.91073789 34.3331509,1.76028609 C34.5011553,1.60983429 34.7092801,1.49072661 34.9575257,1.40296306 C35.2057712,1.31519951 35.4928833,1.27131773 35.8188622,1.27131773 C36.1649014,1.27131773 36.459536,1.31394574 36.7027667,1.39920176 C36.9459971,1.48445779 37.1541219,1.57849016 37.3271415,1.6812989 C37.5001612,1.78410763 37.6443443,1.87814001 37.7596906,1.96339603 C37.8750369,2.04865205 37.975338,2.09128006 38.0605943,2.09128006 C38.1358199,2.09128006 38.1997619,2.07247358 38.2524201,2.03486063 C38.3050782,1.99724768 38.353975,1.94082826 38.3991106,1.86560235 L38.3991106,1.86560235 L38.7526724,1.17352406 C38.3765428,0.812439736 37.9414864,0.536611429 37.447503,0.346039146 C36.9535197,0.155466863 36.4056243,0.0601807212 35.803817,0.0601807212 C35.2672055,0.0601807212 34.7920287,0.142929213 34.3782861,0.308426195 C33.9645438,0.473923179 33.6159972,0.694585821 33.3326461,0.970414128 C33.0492954,1.24624243 32.8336476,1.56219122 32.6857035,1.91826049 C32.5377591,2.27432975 32.463787,2.64293667 32.463787,3.02408124 C32.463787,3.50051194 32.5377591,3.900463 32.6857035,4.22393436 C32.8336476,4.54740572 33.0279814,4.81696523 33.2687041,5.03261282 C33.509427,5.24826037 33.7852555,5.42378748 34.0961892,5.5591941 C34.4071229,5.69460073 34.7230718,5.81370842 35.0440355,5.91651713 C35.3649992,6.01932587 35.6809481,6.11962708 35.9918818,6.21742075 C36.3028155,6.31521441 36.5786439,6.43432211 36.8193669,6.57474378 C37.0600895,6.71516547 37.2544234,6.8894388 37.4023675,7.0975638 C37.5503119,7.30568879 37.6242839,7.57274074 37.6242839,7.89871963 C37.6242839,8.19460818 37.5741332,8.46291391 37.4738321,8.70363679 C37.373531,8.94435967 37.2293478,9.15123089 37.041283,9.32425047 C36.8532186,9.49727006 36.6237795,9.63142291 36.3529662,9.72670905 C36.0821529,9.8219952 35.7737266,9.86963827 35.4276877,9.86963827 C35.1518592,9.86963827 34.9036137,9.8433092 34.6829511,9.79065105 C34.4622885,9.73799294 34.2654475,9.67154339 34.0924279,9.59130243 C33.9194083,9.51106147 33.7651952,9.42329791 33.6297885,9.32801177 C33.4943818,9.23272563 33.3740204,9.14496207 33.2687041,9.06472111 C33.1633878,8.98448015 33.0693557,8.9180306 32.9866072,8.86537249 C32.9038587,8.81271434 32.8298863,8.78638527 32.7646907,8.78638527 C32.69448,8.78638527 32.6305379,8.80519175 32.5728646,8.84280471 C32.5151913,8.88041767 32.4662945,8.92680697 32.4261741,8.98197263 L32.4261741,8.98197263 L32.0049089,9.67405091 C32.4111289,10.1053461 32.9000974,10.4476239 33.4718141,10.7008845 C34.0435311,10.954145 34.6804436,11.0807753 35.3825521,11.0807753 Z" id="path-3"></path>
                                </g>
                            </g>
                            <circle id="Oval-Copy-3" fill="#FFFFFF" cx="14.168" cy="14.168" r="14.168"></circle>
                            <g id="tlt" transform="translate(7.404765, 6.468000)" fill="#000000">
                                <g id="path-4-link">
                                    <path d="M2.16906314,13.3200783 C2.2493041,13.3100482 2.36966554,13.2649126 2.53014747,13.1846717 C2.69062939,13.1044307 2.85612638,13.006637 3.02663841,12.8912907 C3.19715045,12.7759443 3.35512485,12.6580904 3.50056159,12.5377289 C3.64599833,12.4173675 3.74880706,12.3120512 3.8089878,12.2217801 C3.79895765,12.1615994 3.76385225,12.0863735 3.70367151,11.9961024 C3.493039,12.1666145 3.25231611,12.3070362 2.98150286,12.4173675 C2.71068961,12.5276988 2.42483121,12.6029247 2.12392759,12.6430452 C1.79293363,12.5928946 1.62743664,12.3471566 1.62743664,11.9058314 C1.62743664,11.5948976 1.6650496,11.2438434 1.74027549,10.8526687 C1.81550141,10.461494 1.92081767,10.045244 2.05622429,9.60391876 C2.19163092,9.16259347 2.35712788,8.70371548 2.55271524,8.22728476 C2.74830257,7.75085406 2.97147275,7.27191582 3.22222575,6.79047006 C3.92433417,6.7704098 4.5211263,6.67010861 5.01260221,6.48956644 C5.01260221,6.40932548 4.99755703,6.33159207 4.96746666,6.25636615 C4.93737629,6.18114026 4.89725581,6.118452 4.84710522,6.06830141 C4.6364727,6.08836163 4.42834771,6.10340682 4.22273023,6.11343693 C4.01711276,6.12346707 3.81400284,6.12848211 3.61340044,6.12848211 C3.86415343,5.70721708 4.09735375,5.3335951 4.31300131,5.00761618 C4.52864889,4.6816373 4.78692451,4.32807554 5.0878281,3.94693099 C5.03767751,3.88675025 4.94740643,3.82656955 4.81701485,3.76638881 C4.6866233,3.70620811 4.54118656,3.64853492 4.38070464,3.59336926 C4.22022271,3.53820359 4.06224831,3.49306804 3.90678146,3.45796263 C3.75131458,3.42285719 3.62343055,3.40530449 3.52312936,3.40530449 C3.4428884,3.45545508 3.33004955,3.56578641 3.18461282,3.73629847 C3.03917605,3.90681051 2.8837092,4.1149355 2.7182122,4.36067342 C2.55271524,4.60641138 2.38220318,4.87722463 2.20667607,5.17311318 C2.03114897,5.46900172 1.86815952,5.76739779 1.71770771,6.06830141 C1.51710531,6.0582713 1.29644269,6.04573363 1.05571979,6.03068845 C0.814996909,6.01564326 0.564243905,5.99809056 0.303460779,5.9780303 C0.303460779,6.118452 0.323521019,6.28645651 0.3636415,6.48204385 C0.40376198,6.67763121 0.448897523,6.80551524 0.499048122,6.86569594 L0.499048122,6.86569594 L1.35662339,6.86569594 C1.16605111,7.32708148 0.990524011,7.79348207 0.83004209,8.26489772 C0.669560165,8.73631337 0.529138484,9.18766877 0.408777043,9.61896394 C0.288415598,10.0502591 0.195636986,10.4489564 0.130441206,10.8150558 C0.0652454233,11.1811552 0.0326475349,11.4845663 0.0326475349,11.7252892 C0.0326475349,11.9058314 0.0978433148,12.0888811 0.228234878,12.2744383 C0.35862644,12.4599955 0.526630954,12.628 0.732248415,12.7784518 C0.93786588,12.9289036 1.16605111,13.0542801 1.41680413,13.1545813 C1.66755712,13.2548825 1.91831012,13.3100482 2.16906314,13.3200783 Z M6.1710811,13.7262982 C6.16105096,13.6861777 6.15603592,13.6460572 6.15603592,13.6059367 L6.15603592,13.6059367 L6.15603592,13.2899879 C6.15603592,12.6580904 6.26636721,11.8682184 6.48702987,10.920372 C6.70769253,9.97252567 7.02865637,8.9068254 7.4499214,7.72327122 C7.94139731,6.34914477 8.48302378,5.13048518 9.07480087,4.06729243 C9.66657797,3.00409968 10.3536412,2.01111779 11.1359906,1.08834674 C11.0958701,1.028166 11.0081066,0.94792504 10.8726999,0.847623854 C10.7372933,0.747322638 10.584334,0.649528972 10.4138219,0.554242828 C10.2433099,0.458956683 10.0702903,0.37119313 9.89476322,0.290952169 C9.71923611,0.210711208 9.57129182,0.160560616 9.45093038,0.14050036 C8.92936414,0.772397934 8.39526023,1.65254098 7.84861869,2.78092951 C7.30197714,3.90931803 6.71772264,5.32105743 6.09585518,7.01614775 C5.71471063,8.0793405 5.41882209,9.00963414 5.20818954,9.80702871 C4.99755703,10.6044232 4.89224077,11.2237832 4.89224077,11.6651085 C4.89224077,11.9860723 4.92233114,12.2744383 4.98251184,12.5302063 C5.04269258,12.7859744 5.11791847,12.9439488 5.20818954,13.0041295 C5.27840039,13.0542801 5.35864135,13.1269985 5.44891242,13.2222846 C5.53918353,13.3175708 5.59434916,13.3902891 5.61440942,13.4404397 C5.64449978,13.5106506 5.70969556,13.5708313 5.80999675,13.6209819 C5.91029796,13.6711325 6.0306594,13.7062379 6.1710811,13.7262982 Z M11.0156291,13.3200783 C11.0958701,13.3100482 11.2162315,13.2649126 11.3767135,13.1846717 C11.5371954,13.1044307 11.7026924,13.006637 11.8732044,12.8912907 C12.0437165,12.7759443 12.2016909,12.6580904 12.3471276,12.5377289 C12.4925643,12.4173675 12.5953731,12.3120512 12.6555538,12.2217801 C12.6455237,12.1615994 12.6104183,12.0863735 12.5502375,11.9961024 C12.339605,12.1666145 12.0988821,12.3070362 11.8280689,12.4173675 C11.5572556,12.5276988 11.2713972,12.6029247 10.9704936,12.6430452 C10.6394996,12.5928946 10.4740026,12.3471566 10.4740026,11.9058314 C10.4740026,11.5948976 10.5116156,11.2438434 10.5868415,10.8526687 C10.6620674,10.461494 10.7673837,10.045244 10.9027903,9.60391876 C11.0381969,9.16259347 11.2036939,8.70371548 11.3992812,8.22728476 C11.5948686,7.75085406 11.8180388,7.27191582 12.0687918,6.79047006 C12.7709002,6.7704098 13.3676923,6.67010861 13.8591682,6.48956644 C13.8591682,6.40932548 13.844123,6.33159207 13.8140327,6.25636615 C13.7839423,6.18114026 13.7438218,6.118452 13.6936712,6.06830141 C13.4830387,6.08836163 13.2749137,6.10340682 13.0692962,6.11343693 C12.8636788,6.12346707 12.6605688,6.12848211 12.4599664,6.12848211 C12.7107194,5.70721708 12.9439197,5.3335951 13.1595673,5.00761618 C13.3752149,4.6816373 13.6334905,4.32807554 13.9343941,3.94693099 C13.8842435,3.88675025 13.7939724,3.82656955 13.6635809,3.76638881 C13.5331893,3.70620811 13.3877526,3.64853492 13.2272706,3.59336926 C13.0667887,3.53820359 12.9088143,3.49306804 12.7533475,3.45796263 C12.5978806,3.42285719 12.4699966,3.40530449 12.3696954,3.40530449 C12.2894544,3.45545508 12.1766156,3.56578641 12.0311788,3.73629847 C11.8857421,3.90681051 11.7302752,4.1149355 11.5647782,4.36067342 C11.3992812,4.60641138 11.2287692,4.87722463 11.0532421,5.17311318 C10.877715,5.46900172 10.7147255,5.76739779 10.5642737,6.06830141 C10.3636713,6.0582713 10.1430087,6.04573363 9.90228578,6.03068845 C9.6615629,6.01564326 9.4108099,5.99809056 9.15002679,5.9780303 C9.15002679,6.118452 9.17008702,6.28645651 9.2102075,6.48204385 C9.25032798,6.67763121 9.29546353,6.80551524 9.34561412,6.86569594 L9.34561412,6.86569594 L10.2031894,6.86569594 C10.0126171,7.32708148 9.83709,7.79348207 9.67660808,8.26489772 C9.51612616,8.73631337 9.37570449,9.18766877 9.25534305,9.61896394 C9.13498161,10.0502591 9.04220299,10.4489564 8.97700721,10.8150558 C8.91181143,11.1811552 8.87921354,11.4845663 8.87921354,11.7252892 C8.87921354,11.9058314 8.94440932,12.0888811 9.07480087,12.2744383 C9.20519243,12.4599955 9.37319694,12.628 9.57881441,12.7784518 C9.78443189,12.9289036 10.0126171,13.0542801 10.2633701,13.1545813 C10.5141231,13.2548825 10.7648761,13.3100482 11.0156291,13.3200783 Z" id="path-4"></path>
                                </g>
                                <g id="path-4-link">
                                    <path d="M2.16906314,13.3200783 C2.2493041,13.3100482 2.36966554,13.2649126 2.53014747,13.1846717 C2.69062939,13.1044307 2.85612638,13.006637 3.02663841,12.8912907 C3.19715045,12.7759443 3.35512485,12.6580904 3.50056159,12.5377289 C3.64599833,12.4173675 3.74880706,12.3120512 3.8089878,12.2217801 C3.79895765,12.1615994 3.76385225,12.0863735 3.70367151,11.9961024 C3.493039,12.1666145 3.25231611,12.3070362 2.98150286,12.4173675 C2.71068961,12.5276988 2.42483121,12.6029247 2.12392759,12.6430452 C1.79293363,12.5928946 1.62743664,12.3471566 1.62743664,11.9058314 C1.62743664,11.5948976 1.6650496,11.2438434 1.74027549,10.8526687 C1.81550141,10.461494 1.92081767,10.045244 2.05622429,9.60391876 C2.19163092,9.16259347 2.35712788,8.70371548 2.55271524,8.22728476 C2.74830257,7.75085406 2.97147275,7.27191582 3.22222575,6.79047006 C3.92433417,6.7704098 4.5211263,6.67010861 5.01260221,6.48956644 C5.01260221,6.40932548 4.99755703,6.33159207 4.96746666,6.25636615 C4.93737629,6.18114026 4.89725581,6.118452 4.84710522,6.06830141 C4.6364727,6.08836163 4.42834771,6.10340682 4.22273023,6.11343693 C4.01711276,6.12346707 3.81400284,6.12848211 3.61340044,6.12848211 C3.86415343,5.70721708 4.09735375,5.3335951 4.31300131,5.00761618 C4.52864889,4.6816373 4.78692451,4.32807554 5.0878281,3.94693099 C5.03767751,3.88675025 4.94740643,3.82656955 4.81701485,3.76638881 C4.6866233,3.70620811 4.54118656,3.64853492 4.38070464,3.59336926 C4.22022271,3.53820359 4.06224831,3.49306804 3.90678146,3.45796263 C3.75131458,3.42285719 3.62343055,3.40530449 3.52312936,3.40530449 C3.4428884,3.45545508 3.33004955,3.56578641 3.18461282,3.73629847 C3.03917605,3.90681051 2.8837092,4.1149355 2.7182122,4.36067342 C2.55271524,4.60641138 2.38220318,4.87722463 2.20667607,5.17311318 C2.03114897,5.46900172 1.86815952,5.76739779 1.71770771,6.06830141 C1.51710531,6.0582713 1.29644269,6.04573363 1.05571979,6.03068845 C0.814996909,6.01564326 0.564243905,5.99809056 0.303460779,5.9780303 C0.303460779,6.118452 0.323521019,6.28645651 0.3636415,6.48204385 C0.40376198,6.67763121 0.448897523,6.80551524 0.499048122,6.86569594 L0.499048122,6.86569594 L1.35662339,6.86569594 C1.16605111,7.32708148 0.990524011,7.79348207 0.83004209,8.26489772 C0.669560165,8.73631337 0.529138484,9.18766877 0.408777043,9.61896394 C0.288415598,10.0502591 0.195636986,10.4489564 0.130441206,10.8150558 C0.0652454233,11.1811552 0.0326475349,11.4845663 0.0326475349,11.7252892 C0.0326475349,11.9058314 0.0978433148,12.0888811 0.228234878,12.2744383 C0.35862644,12.4599955 0.526630954,12.628 0.732248415,12.7784518 C0.93786588,12.9289036 1.16605111,13.0542801 1.41680413,13.1545813 C1.66755712,13.2548825 1.91831012,13.3100482 2.16906314,13.3200783 Z M6.1710811,13.7262982 C6.16105096,13.6861777 6.15603592,13.6460572 6.15603592,13.6059367 L6.15603592,13.6059367 L6.15603592,13.2899879 C6.15603592,12.6580904 6.26636721,11.8682184 6.48702987,10.920372 C6.70769253,9.97252567 7.02865637,8.9068254 7.4499214,7.72327122 C7.94139731,6.34914477 8.48302378,5.13048518 9.07480087,4.06729243 C9.66657797,3.00409968 10.3536412,2.01111779 11.1359906,1.08834674 C11.0958701,1.028166 11.0081066,0.94792504 10.8726999,0.847623854 C10.7372933,0.747322638 10.584334,0.649528972 10.4138219,0.554242828 C10.2433099,0.458956683 10.0702903,0.37119313 9.89476322,0.290952169 C9.71923611,0.210711208 9.57129182,0.160560616 9.45093038,0.14050036 C8.92936414,0.772397934 8.39526023,1.65254098 7.84861869,2.78092951 C7.30197714,3.90931803 6.71772264,5.32105743 6.09585518,7.01614775 C5.71471063,8.0793405 5.41882209,9.00963414 5.20818954,9.80702871 C4.99755703,10.6044232 4.89224077,11.2237832 4.89224077,11.6651085 C4.89224077,11.9860723 4.92233114,12.2744383 4.98251184,12.5302063 C5.04269258,12.7859744 5.11791847,12.9439488 5.20818954,13.0041295 C5.27840039,13.0542801 5.35864135,13.1269985 5.44891242,13.2222846 C5.53918353,13.3175708 5.59434916,13.3902891 5.61440942,13.4404397 C5.64449978,13.5106506 5.70969556,13.5708313 5.80999675,13.6209819 C5.91029796,13.6711325 6.0306594,13.7062379 6.1710811,13.7262982 Z M11.0156291,13.3200783 C11.0958701,13.3100482 11.2162315,13.2649126 11.3767135,13.1846717 C11.5371954,13.1044307 11.7026924,13.006637 11.8732044,12.8912907 C12.0437165,12.7759443 12.2016909,12.6580904 12.3471276,12.5377289 C12.4925643,12.4173675 12.5953731,12.3120512 12.6555538,12.2217801 C12.6455237,12.1615994 12.6104183,12.0863735 12.5502375,11.9961024 C12.339605,12.1666145 12.0988821,12.3070362 11.8280689,12.4173675 C11.5572556,12.5276988 11.2713972,12.6029247 10.9704936,12.6430452 C10.6394996,12.5928946 10.4740026,12.3471566 10.4740026,11.9058314 C10.4740026,11.5948976 10.5116156,11.2438434 10.5868415,10.8526687 C10.6620674,10.461494 10.7673837,10.045244 10.9027903,9.60391876 C11.0381969,9.16259347 11.2036939,8.70371548 11.3992812,8.22728476 C11.5948686,7.75085406 11.8180388,7.27191582 12.0687918,6.79047006 C12.7709002,6.7704098 13.3676923,6.67010861 13.8591682,6.48956644 C13.8591682,6.40932548 13.844123,6.33159207 13.8140327,6.25636615 C13.7839423,6.18114026 13.7438218,6.118452 13.6936712,6.06830141 C13.4830387,6.08836163 13.2749137,6.10340682 13.0692962,6.11343693 C12.8636788,6.12346707 12.6605688,6.12848211 12.4599664,6.12848211 C12.7107194,5.70721708 12.9439197,5.3335951 13.1595673,5.00761618 C13.3752149,4.6816373 13.6334905,4.32807554 13.9343941,3.94693099 C13.8842435,3.88675025 13.7939724,3.82656955 13.6635809,3.76638881 C13.5331893,3.70620811 13.3877526,3.64853492 13.2272706,3.59336926 C13.0667887,3.53820359 12.9088143,3.49306804 12.7533475,3.45796263 C12.5978806,3.42285719 12.4699966,3.40530449 12.3696954,3.40530449 C12.2894544,3.45545508 12.1766156,3.56578641 12.0311788,3.73629847 C11.8857421,3.90681051 11.7302752,4.1149355 11.5647782,4.36067342 C11.3992812,4.60641138 11.2287692,4.87722463 11.0532421,5.17311318 C10.877715,5.46900172 10.7147255,5.76739779 10.5642737,6.06830141 C10.3636713,6.0582713 10.1430087,6.04573363 9.90228578,6.03068845 C9.6615629,6.01564326 9.4108099,5.99809056 9.15002679,5.9780303 C9.15002679,6.118452 9.17008702,6.28645651 9.2102075,6.48204385 C9.25032798,6.67763121 9.29546353,6.80551524 9.34561412,6.86569594 L9.34561412,6.86569594 L10.2031894,6.86569594 C10.0126171,7.32708148 9.83709,7.79348207 9.67660808,8.26489772 C9.51612616,8.73631337 9.37570449,9.18766877 9.25534305,9.61896394 C9.13498161,10.0502591 9.04220299,10.4489564 8.97700721,10.8150558 C8.91181143,11.1811552 8.87921354,11.4845663 8.87921354,11.7252892 C8.87921354,11.9058314 8.94440932,12.0888811 9.07480087,12.2744383 C9.20519243,12.4599955 9.37319694,12.628 9.57881441,12.7784518 C9.78443189,12.9289036 10.0126171,13.0542801 10.2633701,13.1545813 C10.5141231,13.2548825 10.7648761,13.3100482 11.0156291,13.3200783 Z" id="path-4"></path>
                                </g>
                            </g>
                        </g>
                    </g>
                </g>
            </g>
        </g>
    </g>
</svg>