<?xml version="1.0" standalone="no"?>
<!DOCTYPE svg PUBLIC "-//W3C//DTD SVG 1.1//EN" "http://www.w3.org/Graphics/SVG/1.1/DTD/svg11.dtd" >
<svg>
<metadata>
Created by FontForge 20090914 at Wed Jun  9 08:53:28 2021
 By www-data
Copyright 2019 The Bevietnam Project Authors (https://github.com/bettergui/beVietnam)
</metadata>
<defs>
<font id="BeVietnam-Light" horiz-adv-x="615" >
  <font-face 
    font-family="Be Vietnam Light"
    font-weight="300"
    font-stretch="normal"
    units-per-em="1000"
    panose-1="0 0 4 0 0 0 0 0 0 0"
    ascent="800"
    descent="-200"
    x-height="526"
    cap-height="700"
    bbox="-508 -265 1174 1196"
    underline-thickness="50"
    underline-position="-50"
    unicode-range="U+000D-U+2265"
  />
<missing-glyph horiz-adv-x="731" 
d="M599 -265h-463v1461h463v-1461zM245 1098v-48h95v-54h-96v-48h243v48h-97v54h97v48h-242zM244 910v-152h243v49h-97v103h-146zM340 807h-48v53h48v-53zM244 718v-48h96v-54h-96v-48h146v102h97v48h-243zM438 631v-97h-194v-50h243v147h-49zM340 452v-81h50v33h48v-69
h-146v117h-48v-165h243v165h-147zM244 200v-165h243v165h-243zM438 83h-146v68h146v-68zM244 1v-48h102l-102 -69v-48h243v48h-150l103 69h47v48h-243z" />
    <glyph glyph-name="f_f.liga" unicode="ff" horiz-adv-x="729" 
d="M580.5 672.5c-11 -9 -17.8311 -19.833 -20.498 -32.5s-4 -28.667 -4 -48v-66h127v-56h-127v-470h-69l-1 470h-292v-470h-69l-1 470h-75v56h75v79c0 88.667 44.333 133 133 133c28.667 0 50 -2.66699 64 -8v-49c-14.667 3.33301 -31.334 5 -50.001 5
c-24 0 -41.5 -4.5 -52.5 -13.5s-17.833 -19.833 -20.5 -32.5s-4 -28.667 -4 -48v-66h292v79c0 88.667 44.333 133 133 133c28.667 0 50 -2.66699 64 -8v-49c-14.667 3.33301 -31.334 5 -50.001 5c-24 0 -41.5 -4.5 -52.5 -13.5z" />
    <glyph glyph-name="f_i.liga" unicode="fi" horiz-adv-x="610" 
d="M522 0h-67.999v470h-260v-470h-69l-1 470h-75v56h75v79c0 88.667 44.333 133 133 133c28.667 0 50 -2.66699 64 -8v-49c-14.667 3.33301 -31.334 5 -50.001 5c-24 0 -41.5 -4.5 -52.5 -13.5s-17.833 -19.833 -20.5 -32.5s-4 -28.667 -4 -48v-66h328v-526zM524.001 710.5
c9.33301 -9.66699 14 -21.167 14 -34.5c0 -14 -4.66699 -25.833 -14 -35.5s-21 -14.5 -35 -14.5s-25.667 4.83301 -35 14.5s-14 21.5 -14 35.5c0 13.333 4.66699 24.833 14 34.5s21 14.5 35 14.5s25.667 -4.83301 35 -14.5z" />
    <glyph glyph-name="t_t.liga" unicode="tt" horiz-adv-x="767" 
d="M587 470l0.00488281 -323c0 -26 1.16699 -45.333 3.5 -58s8.66602 -22.667 18.999 -30s26.833 -11 49.5 -11c16.667 0 35 2.33301 55 7v-50c-6.66699 -2.66699 -16.834 -5 -30.501 -7s-28.167 -3 -43.5 -3c-36.667 0 -63.834 6 -81.501 18s-29 27.833 -34 47.5
s-7.5 45.5 -7.5 77.5l1 332h-314v-323c0 -26 1.16699 -45.333 3.5 -58s8.5 -22.667 18.5 -30s26.333 -11 49 -11c17.333 0 36 2.33301 56 7v-50c-6.66699 -2.66699 -16.834 -5 -30.501 -7s-28.167 -3 -43.5 -3c-36.667 0 -63.834 6 -81.501 18s-29 27.833 -34 47.5
s-7.5 45.5 -7.5 77.5l1 332h-102v56h102v174h69v-174h314v174h69v-174h127v-56h-127z" />
    <glyph glyph-name="hyphen_greater.liga" unicode="&#x2d;&#x3e;" horiz-adv-x="694" 
d="M455 526l200 -208l-200 -207h-75l169 176h-509v62h509l-169 177h75z" />
    <glyph glyph-name="colon_b_e_colon.liga" unicode="&#x3a;be&#x3a;" horiz-adv-x="878" 
d="M146 615h160.001c35.333 0 61.166 8.83301 77.499 26.5s24.5 40.167 24.5 67.5c0 9.33301 -0.333008 16.333 -1 21c34 -9.33301 60.833 -27.5 80.5 -54.5s29.5 -59.167 29.5 -96.5c0 -42 -14 -76 -42 -102s-73 -39 -135 -39h-217zM100.001 247l229.002 0.000976562
c53.333 0 93.333 12 120 36s40 54.667 40 92c0 15.333 -2 30.333 -6 45c33.333 -6.66699 63.166 -20.5 89.499 -41.5s47.166 -46.833 62.499 -77.5s23 -63.667 23 -99c0 -41.333 -10 -78.833 -30 -112.5s-49.167 -60.334 -87.5 -80.001s-83.833 -29.5 -136.5 -29.5h-340z
" />
    <glyph glyph-name="colon_d_d_colon.liga" unicode="&#x3a;dd&#x3a;" horiz-adv-x="599" 
d="M578 741l-0.000976562 -47.999h-62v-527h-69v88h-7c-16 -26.667 -39 -49 -69 -67s-67.667 -27 -113 -27c-46 0 -85.667 10.5 -119 31.5s-58.666 49.5 -75.999 85.5s-26 76.333 -26 121c0 43.333 8.5 83.166 25.5 119.499s42.167 65.333 75.5 87s73.333 32.5 120 32.5
c47.333 0 86.5 -10.167 117.5 -30.5s52.833 -43.833 65.5 -70.5h6v157h-160v48h160v76h69v-76h62zM369.999 244.501c25.333 16.333 44.333 37.999 57 64.999s19 56.5 19 88.5c0 50 -14.667 92.167 -44 126.5s-71 51.5 -125 51.5c-54.667 0 -96.5 -17.167 -125.5 -51.5
s-43.5 -76.166 -43.5 -125.499c0 -50.667 14.667 -93.167 44 -127.5s71 -51.5 125 -51.5c36.667 0 67.667 8.16699 93 24.5zM91.999 52h433l-1 -52h-432v52z" />
    <glyph glyph-name="colon_d_o_w_n_colon.liga" unicode="&#x3a;down&#x3a;" horiz-adv-x="522" 
d="M468 202l-208 -200l-207 200v75l176 -169v594h62v-594l177 169v-75z" />
    <glyph glyph-name="colon_l_e_f_t_colon.liga" unicode="&#x3a;left&#x3a;" horiz-adv-x="664" 
d="M108 81h297.999c29.333 0 56.666 7.16699 81.999 21.5s45.333 34 60 59s22 52.5 22 82.5c0 29.333 -7.33301 56.333 -22 81s-34.667 44.334 -60 59.001s-52.666 22 -81.999 22h-283l195 -164h-85l-194 169v45l194 148h85l-195 -143h283
c39.333 0 75.833 -9.66699 109.5 -29s60.334 -45.5 80.001 -78.5s29.5 -69.167 29.5 -108.5c0 -40 -9.83301 -76.833 -29.5 -110.5s-46.167 -60.334 -79.5 -80.001s-70 -29.5 -110 -29.5h-298v56z" />
    <glyph glyph-name="colon_r_i_g_h_t_colon.liga" unicode="&#x3a;right&#x3a;" horiz-adv-x="664" 
d="M258 25c-39.333 0 -75.833 9.83203 -109.5 29.499s-60.334 46.334 -80.001 80.001s-29.5 70.834 -29.5 111.501c0 38.667 9.83301 74.5 29.5 107.5s46.334 59.167 80.001 78.5s70.167 29 109.5 29h283l-194 143h85l193 -148v-45l-193 -169h-85l195 164h-284
c-29.333 0 -56.5 -7.33301 -81.5 -22s-44.833 -34.334 -59.5 -59.001s-22 -51.667 -22 -81c0 -30 7.33301 -57.5 22 -82.5s34.5 -44.667 59.5 -59s52.167 -21.5 81.5 -21.5h298v-56h-298z" />
    <glyph glyph-name="colon_s_t_a_r_colon.liga" unicode="&#x3a;star&#x3a;" horiz-adv-x="831" 
d="M290 298l-200 137l238 8l86 229l86 -229l239 -8l-200 -137l75 -247l-199 149l-200 -149z" />
    <glyph glyph-name="colon_u_p_colon.liga" unicode="&#x3a;up&#x3a;" horiz-adv-x="522" 
d="M291 593v-593h-62v593l-176 -169v75l207 200l208 -200v-75z" />
    <glyph glyph-name="less_hyphen.liga" unicode="&#x3c;&#x2d;" horiz-adv-x="679" 
d="M130 349h510v-62h-510l170 -176h-75l-200 207l200 208h75z" />
    <glyph glyph-name=".notdef" horiz-adv-x="731" 
d="M599 -265h-463v1461h463v-1461zM245 1098v-48h95v-54h-96v-48h243v48h-97v54h97v48h-242zM244 910v-152h243v49h-97v103h-146zM340 807h-48v53h48v-53zM244 718v-48h96v-54h-96v-48h146v102h97v48h-243zM438 631v-97h-194v-50h243v147h-49zM340 452v-81h50v33h48v-69
h-146v117h-48v-165h243v165h-147zM244 200v-165h243v165h-243zM438 83h-146v68h146v-68zM244 1v-48h102l-102 -69v-48h243v48h-150l103 69h47v48h-243z" />
    <glyph glyph-name="nonmarkingreturn" unicode="&#xd;" horiz-adv-x="600" 
 />
    <glyph glyph-name="space" unicode=" " horiz-adv-x="230" 
 />
    <glyph glyph-name="exclam" unicode="!" horiz-adv-x="233" 
d="M78 621v139h77v-139l-14 -452h-47zM82 6.5c-9.33301 9.66699 -14 21.167 -14 34.5s4.66699 24.666 14 33.999s21 14 35 14c13.333 0 24.833 -4.66699 34.5 -14s14.5 -20.666 14.5 -33.999s-4.83301 -24.833 -14.5 -34.5s-21.167 -14.5 -34.5 -14.5
c-14 0 -25.667 4.83301 -35 14.5z" />
    <glyph glyph-name="quotedbl" unicode="&#x22;" horiz-adv-x="506" 
d="M409 723c-38 -16.667 -57 -42.333 -57 -77c0 -15.333 2.5 -25.166 7.5 -29.499s11.833 -6.5 20.5 -6.5c16.667 0 28.667 -3.83301 36 -11.5s11 -17.834 11 -30.501c0 -16 -4.83301 -28.667 -14.5 -38s-23.167 -14 -40.5 -14c-26 0 -43.167 6.66699 -51.5 20
s-12.5 29.333 -12.5 48v33c0 38 9.5 68.333 28.5 91s43.167 39 72.5 49v-34zM194 721.001c-38.667 -16.667 -58.002 -42.333 -58.002 -77c0 -12 1.66699 -20.5 5 -25.5s6.83301 -8 10.5 -9s9.83398 -1.83301 18.501 -2.5c14.667 0 25.167 -4 31.5 -12s9.5 -18 9.5 -30
c0 -16 -4.66699 -28.5 -14 -37.5s-22.666 -13.5 -39.999 -13.5c-42.667 0 -64 22.333 -64 67v34c0 38 9.33301 68.167 28 90.5s43 38.5 73 48.5v-33z" />
    <glyph glyph-name="numbersign" unicode="#" horiz-adv-x="876" 
d="M621 444l-42 -192h175l-12 -55h-175l-42 -197h-60v12l40 185h-197l-42 -197h-60v12l40 185h-163l12 55h163l41 192h-181l12 55h181l43 201h60v-12l-41 -189h197l44 201h59v-12l-41 -189h157l-12 -55h-156zM559 444h-197l-42 -192h197z" />
    <glyph glyph-name="dollar" unicode="$" horiz-adv-x="560" 
d="M490 90.5c-18.667 -30.333 -44.499 -53.999 -77.499 -70.999s-70.167 -26.167 -111.5 -27.5v-67h-36v68c-44.667 4 -83 17.333 -115 40s-56.667 50.834 -74 84.501s-27 68.5 -29 104.5h70c3.33301 -38 17.333 -73.333 42 -106s60 -52.334 106 -59.001v265l-30 5
c-26.667 6 -51.334 13.333 -74.001 22s-44.5 25.167 -65.5 49.5s-31.5 58.166 -31.5 101.499c0 56.667 18.5 102.5 55.5 137.5s85.5 54.167 145.5 57.5v61h36v-61c62.667 -4 111.334 -25.833 146.001 -65.5s55 -88.834 61 -147.501h-69c-6 36 -18.833 69.5 -38.5 100.5
s-52.834 48.833 -99.501 53.5v-258l31 -5c54 -10 98.5 -29 133.5 -57s52.5 -68.333 52.5 -121c0 -39.333 -9.33301 -74.166 -28 -104.499zM265.001 385.001l0.000976562 251.001c-39.333 -3.33301 -71.5 -17.333 -96.5 -42s-37.5 -54 -37.5 -88
c0 -30.667 10.167 -56.834 30.5 -78.501s44.166 -34.167 71.499 -37.5zM408.502 93.002c29 24 43.5 55.667 43.5 95c0 36 -11.667 64.333 -35 85s-51.333 33.667 -84 39l-32 5v-262c42.667 1.33301 78.5 14 107.5 38z" />
    <glyph glyph-name="percent" unicode="%" horiz-adv-x="835" 
d="M63.5 464.5c-22.333 29 -33.501 62.834 -33.501 101.501c0 39.333 11 73.166 33 101.499s56 42.5 102 42.5s79.5 -14 100.5 -42s31.5 -62 31.5 -102s-10.5 -74.167 -31.5 -102.5s-54.5 -42.5 -100.5 -42.5c-45.333 0 -79.166 14.5 -101.499 43.5zM566.999 700.001h63
l-361 -700h-63zM242.999 566.001c0 68.667 -26 103 -78 103c-30.667 0 -51.334 -10.5 -62.001 -31.5s-16 -44.833 -16 -71.5s5.33301 -50.5 16 -71.5s31.334 -31.5 62.001 -31.5c52 0 78 34.333 78 103zM571.499 33.001c-22.333 28.667 -33.5 62.665 -33.5 101.998
c0 38.667 11.167 72.334 33.5 101.001s56.166 43 101.499 43c46 0 79.5 -14.167 100.5 -42.5s31.5 -62.166 31.5 -101.499s-10.5 -73.333 -31.5 -102s-54.5 -43 -100.5 -43c-45.333 0 -79.166 14.333 -101.499 43zM750.999 134.999c0 68.667 -25.666 103 -76.999 103
c-30.667 0 -51.334 -10.5 -62.001 -31.5s-16 -44.833 -16 -71.5c0 -68.667 26 -103 78 -103c51.333 0 77 34.333 77 103z" />
    <glyph glyph-name="ampersand" unicode="&#x26;" horiz-adv-x="622" 
d="M655 0l-80.002 0.000976562l-112 127h-5l-6 -10c-18 -30 -43.5 -58 -76.5 -84s-75.167 -39 -126.5 -39c-54 0 -98.5 15.833 -133.5 47.5s-52.5 75.5 -52.5 131.5c0 46 12.5 84.167 37.5 114.5s59.167 53.5 102.5 69.5l42 16v4l-5 4
c-21.333 23.333 -39.666 47.833 -54.999 73.5s-23 56.167 -23 91.5s8.5 65.5 25.5 90.5s39.5 43.833 67.5 56.5s58 19 90 19c33.333 0 64.5 -7 93.5 -21s52.167 -35 69.5 -63s26 -62 26 -102v-20h-71v17c0 40.667 -11.333 72.167 -34 94.5s-50.667 33.5 -84 33.5
c-31.333 0 -58.166 -9.33301 -80.499 -28s-33.5 -45.334 -33.5 -80.001c0 -20 3.66699 -38.5 11 -55.5s16 -32 26 -45s26 -32.167 48 -57.5l136 -154l71 123h71l-101 -171zM421.998 175.001l-139 157l-51 -17c-34 -12 -59.833 -29.833 -77.5 -53.5
s-26.5 -51.167 -26.5 -82.5c0 -37.333 11.833 -67.333 35.5 -90s54.834 -34 93.501 -34c40.667 0 72.667 10.667 96 32s43.666 46.333 60.999 75z" />
    <glyph glyph-name="quotesingle" unicode="'" horiz-adv-x="301" 
d="M103 580c38 16.667 57.001 42.334 57.001 77.001c0 15.333 -2.5 25.166 -7.5 29.499s-12.167 6.5 -21.5 6.5c-30.667 0 -46 14.333 -46 43c0 16 4.66699 28.5 14 37.5s22.666 13.5 39.999 13.5c42.667 0 64 -22.333 64 -67v-34c0 -38 -9.33301 -68.167 -28 -90.5
s-42.667 -38.5 -72 -48.5v33z" />
    <glyph glyph-name="parenleft" unicode="(" horiz-adv-x="449" 
d="M183 -20.5c-47.333 82.333 -71 185.167 -71 308.5c0 88 12.667 165.833 38 233.5s56 122.834 92 165.501s72.333 76 109 100l23 -24c-46 -42 -88.667 -102.667 -128 -182s-59 -177 -59 -293c0 -116.667 19.667 -214.834 59 -294.501s82 -140.167 128 -181.5l-23 -23
c-64.667 44.667 -120.667 108.167 -168 190.5z" />
    <glyph glyph-name="parenright" unicode=")" horiz-adv-x="469" 
d="M95 -188c45.333 42 87.833 102.666 127.5 181.999s59.5 177.333 59.5 294c0 116 -19.667 213.667 -59 293s-82 140 -128 182l23 24c36.667 -23.333 73 -56.5 109 -99.5s66.5 -98.333 91.5 -166s37.5 -145.5 37.5 -233.5c0 -123.333 -23.667 -226.166 -71 -308.499
s-103.333 -145.833 -168 -190.5z" />
    <glyph glyph-name="asterisk" unicode="*" horiz-adv-x="504" 
d="M236 559l-123 -87l-32 58l134 59l-134 60l32 58l123 -88l-16 152h63l-15 -153l123 89l31 -58l-134 -60l134 -59l-31 -58l-123 87l15 -151h-63z" />
    <glyph glyph-name="plus" unicode="+" horiz-adv-x="575" 
d="M480 282h-162v-163h-62v163h-162v62h162v161h62v-161h162v-62z" />
    <glyph glyph-name="comma" unicode="," horiz-adv-x="275" 
d="M95 -119c20.667 8.66699 35.5 20.001 44.5 34.001s13.5 28.667 13.5 44s-2.5 25.333 -7.5 30s-12.167 7 -21.5 7c-16.667 0 -28.667 4 -36 12s-11 18.333 -11 31c0 16 4.83301 28.667 14.5 38s23.167 14 40.5 14c26.667 0 44.167 -6.66699 52.5 -20
s12.5 -29.333 12.5 -48v-35c0 -38.667 -9.5 -69.334 -28.5 -92.001s-43.5 -39 -73.5 -49v34z" />
    <glyph glyph-name="hyphen" unicode="-" horiz-adv-x="603" 
d="M117 342h369v-59h-369v59z" />
    <glyph glyph-name="period" unicode="." horiz-adv-x="257" 
d="M92.5 9c-9.66699 10 -14.5 22 -14.5 36s4.83301 26 14.5 36s21.834 15 36.501 15s26.834 -5 36.501 -15s14.5 -22 14.5 -36s-4.83301 -26 -14.5 -36s-21.834 -15 -36.501 -15s-26.834 5 -36.501 15z" />
    <glyph glyph-name="slash" unicode="/" horiz-adv-x="502" 
d="M408 808h68l-346 -951h-68z" />
    <glyph glyph-name="zero" unicode="0" horiz-adv-x="599" 
d="M116 76.5c-40.667 57 -61 130.5 -61 220.5v112c0 90 20.333 163.5 61 220.5s101.667 85.5 183 85.5s142.5 -28.5 183.5 -85.5s61.5 -130.5 61.5 -220.5v-112c0 -90 -20.5 -163.5 -61.5 -220.5s-102.167 -85.5 -183.5 -85.5s-142.333 28.5 -183 85.5zM426 116
c30 42 45 104.667 45 188v98c0 83.333 -15 146 -45 188s-72.333 63 -127 63s-96.834 -21 -126.501 -63s-44.5 -104.667 -44.5 -188v-98c0 -83.333 14.833 -146 44.5 -188s71.834 -63 126.501 -63s97 21 127 63z" />
    <glyph glyph-name="one" unicode="1" horiz-adv-x="483" 
d="M436 63v-63h-333v63h138v554h-4l-136 -131v83l137 131h68v-637h130z" />
    <glyph glyph-name="two" unicode="2" horiz-adv-x="581" 
d="M74 61l187.002 169.003c45.333 40 80.5 72.333 105.5 97s46.167 52.167 63.5 82.5s26 62.5 26 96.5c0 41.333 -12.5 76.166 -37.5 104.499s-62.833 42.5 -113.5 42.5c-58.667 0 -99 -16.333 -121 -49s-33 -69.334 -33 -110.001v-6h-68c0 36.667 7 72.167 21 106.5
s37.5 63 70.5 86s76.833 34.5 131.5 34.5c50 0 91.167 -10 123.5 -30s55.833 -45.667 70.5 -77s22 -64.666 22 -99.999c0 -40.667 -8.83301 -78.334 -26.5 -113.001s-40.334 -66.334 -68.001 -95.001s-63.834 -62.667 -108.501 -102l-147 -130v-5h358v-63h-455z" />
    <glyph glyph-name="three" unicode="3" horiz-adv-x="585" 
d="M142 41.5c-38.667 33 -62.6641 73.166 -71.9971 120.499h69c10 -32 28.667 -57.833 56 -77.5s63.333 -29.5 108 -29.5c53.333 0 93.333 13.333 120 40s40 60 40 100c0 45.333 -15.5 79.666 -46.5 102.999s-68.833 35 -113.5 35h-68v56h62c42.667 0 79.5 10 110.5 30
s46.5 53 46.5 99c0 42 -14 75.333 -42 100s-65.333 37 -112 37c-42.667 0 -76.334 -10 -101.001 -30s-40 -45.333 -46 -76h-68c7.33301 44.667 28.166 83.667 62.499 117s85.5 50 153.5 50c49.333 0 90.666 -9.16699 123.999 -27.5s57.833 -42.166 73.5 -71.499
s23.5 -61.333 23.5 -96c0 -36 -8.16699 -65.833 -24.5 -89.5s-34 -41 -53 -52s-32.167 -16.5 -39.5 -16.5v-6c9.33301 -0.666992 23.833 -6.16699 43.5 -16.5s38.167 -27.666 55.5 -51.999s26 -56.833 26 -97.5c0 -36 -8.16699 -69.167 -24.5 -99.5s-41.333 -54.5 -75 -72.5
s-75.5 -27 -125.5 -27c-70 0 -124.333 16.5 -163 49.5z" />
    <glyph glyph-name="four" unicode="4" horiz-adv-x="597" 
d="M375 175l-326 1v70l307 454h87v-467h105v-58h-105v-175h-68v175zM376 233v385l-263 -385h263z" />
    <glyph glyph-name="five" unicode="5" horiz-adv-x="606" 
d="M200.5 22.5c-33 16.333 -59.3359 37.666 -79.0029 63.999s-32.5 54.833 -38.5 85.5h69c11.333 -37.333 31.833 -65.166 61.5 -83.499s62.834 -27.5 99.501 -27.5c53.333 0 94.5 16.5 123.5 49.5s43.5 76.833 43.5 131.5c0 60 -16.333 104.5 -49 133.5s-72 43.5 -118 43.5
c-34.667 0 -62.667 -6.66699 -84 -20s-12 12.334 28 77.001s10 14 -90 -152l-74 6l20 370h386v-65h-328l-14 -242h4c7.33301 14 23.833 31 49.5 51s63.834 30 114.501 30c43.333 0 81.833 -9 115.5 -27s60 -44.5 79 -79.5s28.5 -76.833 28.5 -125.5
c0 -48 -9.66699 -90.333 -29 -127s-46.666 -65.334 -81.999 -86.001s-76.333 -31 -123 -31c-42.667 0 -80.5 8.16699 -113.5 24.5z" />
    <glyph glyph-name="six" unicode="6" horiz-adv-x="589" 
d="M185 17c-36 16.667 -65.6689 42.999 -89.002 78.999s-35 81.667 -35 137c0 40 5.83301 78 17.5 114s26.834 69.833 45.501 101.5s43 68.5 73 110.5l97 141h72l-226 -334h4l16 19c14.667 15.333 34.167 29 58.5 41s53.833 18 88.5 18c40.667 0 77.834 -9 111.501 -27
s60.334 -43.833 80.001 -77.5s29.5 -73.5 29.5 -119.5c0 -47.333 -10.333 -88.166 -31 -122.499s-48.334 -60.5 -83.001 -78.5s-73 -27 -115 -27c-40 0 -78 8.33301 -114 25zM383.998 74.999c25.333 15.333 44.668 35.668 58.001 61.001s20 52.666 20 81.999
s-6.66699 57.166 -20 83.499s-32.833 47.5 -58.5 63.5s-55.834 24 -90.501 24c-33.333 0 -62.333 -7.5 -87 -22.5s-43.667 -35.5 -57 -61.5s-20 -54.333 -20 -85c0 -31.333 6.66699 -59.666 20 -84.999s32.5 -45.5 57.5 -60.5s54.167 -22.5 87.5 -22.5
c34.667 0 64.667 7.66699 90 23z" />
    <glyph glyph-name="seven" unicode="7" horiz-adv-x="508" 
d="M123 12l267 614v9h-361v65h434v-67l-270 -633h-70v12z" />
    <glyph glyph-name="eight" unicode="8" horiz-adv-x="612" 
d="M171 18c-37.333 18.667 -65.1699 43.1699 -83.5029 73.5029s-27.5 62.833 -27.5 97.5c0 44 12.667 82 38 114s54.333 53.333 87 64v4c-26.667 11.333 -49.334 30.666 -68.001 57.999s-28 59 -28 95c0 34 8.66699 65.5 26 94.5s42.5 52.167 75.5 69.5s72.167 26 117.5 26
c46.667 0 86.334 -9 119.001 -27s57.334 -41.5 74.001 -70.5s25 -59.833 25 -92.5c0 -36.667 -9.5 -68.667 -28.5 -96s-41.167 -46.333 -66.5 -57v-4c20 -6.66699 39.5 -18.334 58.5 -35.001s34.667 -37.334 47 -62.001s18.5 -51.667 18.5 -81
c0 -34.667 -9.16699 -67.167 -27.5 -97.5s-46.166 -54.833 -83.499 -73.5s-82.666 -28 -135.999 -28c-54 0 -99.667 9.33301 -137 28zM421.496 429.003c25.667 25.333 38.499 56.667 38.499 94c0 36.667 -12.833 67.834 -38.5 93.501s-63.5 38.5 -113.5 38.5
s-88 -12.833 -114 -38.5s-39 -56.834 -39 -93.501c0 -38 12.833 -69.5 38.5 -94.5s63.834 -37.5 114.501 -37.5c50 0 87.833 12.667 113.5 38zM407.495 72.5039c27 13.667 47.001 31.5 60.001 53.5s19.5 46 19.5 72c0 41.333 -15.333 76.333 -46 105s-75 43 -133 43
c-58.667 0 -103.334 -14.333 -134.001 -43s-46 -64 -46 -106c0 -41.333 15.167 -75.833 45.5 -103.5s74.833 -41.5 133.5 -41.5c40 0 73.5 6.83301 100.5 20.5z" />
    <glyph glyph-name="nine" unicode="9" horiz-adv-x="589" 
d="M450 337l-3.99805 0.000976562l-17 -19c-38 -40 -87 -60 -147 -60c-40.667 0 -77.834 9 -111.501 27s-60.334 44.167 -80.001 78.5s-29.5 74.5 -29.5 120.5c0 48 10.333 89.333 31 124s48.5 61.167 83.5 79.5s73.5 27.5 115.5 27.5c39.333 0 77 -8.33301 113 -25
s65.667 -43.334 89 -80.001s35 -82.667 35 -138c0 -58 -11.333 -111.667 -34 -161s-56.667 -106 -102 -170l-95 -141l-76 -1zM383.002 337.001c24.667 15.333 43.665 36 56.998 62s20 54.667 20 86s-6.66699 59.833 -20 85.5s-32.5 46.167 -57.5 61.5s-54.167 23 -87.5 23
c-34.667 0 -64.667 -7.66699 -90 -23s-44.666 -36 -57.999 -62s-20 -54 -20 -84s6.66699 -58.167 20 -84.5s32.833 -47.5 58.5 -63.5s55.834 -24 90.501 -24c33.333 0 62.333 7.66699 87 23z" />
    <glyph glyph-name="colon" unicode=":" horiz-adv-x="281" 
d="M84.5 9c-9.66699 10 -14.5 22 -14.5 36s4.83301 26 14.5 36s21.834 15 36.501 15s26.834 -5 36.501 -15s14.5 -22 14.5 -36s-4.83301 -26 -14.5 -36s-21.834 -15 -36.501 -15s-26.834 5 -36.501 15zM84.5 434c-9.66699 10 -14.5 22 -14.5 36s4.83301 26 14.5 36
s21.834 15 36.501 15s26.834 -5 36.501 -15s14.5 -22 14.5 -36s-4.83301 -26 -14.5 -36s-21.834 -15 -36.501 -15s-26.834 5 -36.501 15z" />
    <glyph glyph-name="semicolon" unicode=";" horiz-adv-x="302" 
d="M100.5 434c-9.66699 10 -14.5 22 -14.5 36s4.83301 26 14.5 36s21.834 15 36.501 15s26.834 -5 36.501 -15s14.5 -22 14.5 -36s-4.83301 -26 -14.5 -36s-21.834 -15 -36.501 -15s-26.834 5 -36.501 15zM102 -117c20.667 8.66699 35.5 20.001 44.5 34.001
s13.5 28.667 13.5 44s-2.5 25.333 -7.5 30s-12.167 7 -21.5 7c-16.667 0 -28.667 4 -36 12s-11 18.333 -11 31c0 16 4.83301 28.667 14.5 38s23.167 14 40.5 14c26.667 0 44.167 -6.66699 52.5 -20s12.5 -29.333 12.5 -48v-35c0 -38.667 -9.5 -69.334 -28.5 -92.001
s-43.5 -39 -73.5 -49v34z" />
    <glyph glyph-name="less" unicode="&#x3c;" horiz-adv-x="562" 
d="M463 482l-288 -152v-4l288 -151v-61h-13l-349 190v49l349 190h13v-61z" />
    <glyph glyph-name="equal" unicode="=" horiz-adv-x="710" 
d="M120 457h470v-60h-470v60zM120 236h470v-60h-470v60z" />
    <glyph glyph-name="greater" unicode="&#x3e;" horiz-adv-x="562" 
d="M114 543l349 -190v-49l-349 -190h-13v61l287 151v4l-287 152v61h13z" />
    <glyph glyph-name="question" unicode="?" horiz-adv-x="578" 
d="M247 187c0 31.333 8.5 58.6709 25.5 82.0039s41.833 50.333 74.5 81c33.333 31.333 58.5 59 75.5 83s25.5 52 25.5 84c0 43.333 -14.5 76.666 -43.5 99.999s-66.167 35 -111.5 35c-37.333 0 -68 -7.83301 -92 -23.5s-41.333 -35.334 -52 -59.001s-16 -47.834 -16 -72.501
v-3h-70v4c0 40.667 9.33301 77.667 28 111s45.334 59.666 80.001 78.999s75.334 29 122.001 29c44.667 0 84 -8.66699 118 -26s60.167 -41 78.5 -71s27.5 -63.667 27.5 -101c0 -27.333 -5.33301 -52.333 -16 -75s-23.334 -42.5 -38.001 -59.5s-34.334 -37.5 -59.001 -61.5
c-30 -28 -52.167 -51.667 -66.5 -71s-21.5 -41 -21.5 -65v-7h-69v7zM247 6.50488c-9.33301 9.66699 -14 21.167 -14 34.5s4.66699 24.666 14 33.999s21 14 35 14c13.333 0 24.833 -4.66699 34.5 -14s14.5 -20.666 14.5 -33.999s-4.83301 -24.833 -14.5 -34.5
s-21.167 -14.5 -34.5 -14.5c-14 0 -25.667 4.83301 -35 14.5z" />
    <glyph glyph-name="at" unicode="@" horiz-adv-x="1011" 
d="M279 -109c-67.333 37.333 -119 89.168 -155 155.501s-54 142.166 -54 227.499c0 88 19.167 165.167 57.5 231.5s90.833 117.166 157.5 152.499s141.334 53 224.001 53c83.333 0 157.833 -17.5 223.5 -52.5s116.834 -83 153.501 -144s55 -129.167 55 -204.5
c0 -52.667 -8.83301 -97 -26.5 -133s-41.334 -62.667 -71.001 -80s-62.5 -26 -98.5 -26c-30.667 0 -56 6.5 -76 19.5s-32.5 23.5 -37.5 31.5s-13.833 24 -26.5 48h-6c-8 -29.333 -23.667 -54 -47 -74s-53.666 -30 -90.999 -30c-36 0 -66.833 9.66699 -92.5 29
s-45 44.833 -58 76.5s-19.5 65.834 -19.5 102.501s6.33301 70.834 19 102.501s31.667 57.334 57 77.001s56 29.5 92 29.5c30 0 55.333 -6.33301 76 -19s35.667 -28 45 -46h5v58h58v-146c0 -44.667 1.66699 -81 5 -109s12.833 -52.167 28.5 -72.5s40.5 -30.5 74.5 -30.5
c42.667 0 75.667 16.667 99 50s35 78.666 35 135.999c0 67.333 -16.167 127.666 -48.5 180.999s-77.333 95 -135 125s-123.167 45 -196.5 45c-76 0 -142.333 -16 -199 -48s-100.334 -76.833 -131.001 -134.5s-46 -123.5 -46 -197.5c0 -75.333 15.667 -142 47 -200
s76.666 -103.167 135.999 -135.5s129.333 -48.5 210 -48.5h282v-56h-288c-90.667 0 -169.667 18.667 -237 56zM558 163.502c20 29 30 66.167 30 111.5c0 46 -10 83.667 -30 113s-49.333 44 -88 44c-38 0 -67.333 -14.5 -88 -43.5s-31 -66.5 -31 -112.5
s10.333 -83.5 31 -112.5s50 -43.5 88 -43.5c38.667 0 68 14.5 88 43.5z" />
    <glyph glyph-name="A" unicode="A" horiz-adv-x="682" 
d="M492 214h-301l-80 -214h-70l266 700h67l269 -700h-70zM471 271l-129 340h-4l-126 -340h259z" />
    <glyph glyph-name="B" unicode="B" horiz-adv-x="624" 
d="M80 700l276.001 -0.000976562c47.333 0 85.833 -9.16699 115.5 -27.5s50.667 -41 63 -68s18.5 -54.5 18.5 -82.5c0 -30.667 -6.83301 -57.167 -20.5 -79.5s-29.834 -39.666 -48.501 -51.999s-36 -19.833 -52 -22.5v-5c17.333 -1.33301 37.5 -7.33301 60.5 -18
s43.667 -28.167 62 -52.5s27.5 -55.5 27.5 -93.5c0 -32.667 -7.5 -64.167 -22.5 -94.5s-38.333 -55.333 -70 -75s-71.5 -29.5 -119.5 -29.5h-290v700zM336.001 386.999c40 0 74.833 11 104.5 33s44.5 54.667 44.5 98c0 42 -14 72.833 -42 92.5s-63.667 29.5 -107 29.5h-189
v-253h189zM351.001 59.999c47.333 0 86.5 10.832 117.5 32.499s46.5 56.834 46.5 105.501c0 48 -15.5 82.167 -46.5 102.5s-70.167 30.5 -117.5 30.5h-204v-271h204z" />
    <glyph glyph-name="C" unicode="C" horiz-adv-x="716" 
d="M204.5 40c-47 30.667 -82.999 73.167 -107.999 127.5s-37.5 116.5 -37.5 186.5c0 70.667 12.5 133.167 37.5 187.5s61 96.833 108 127.5s102.833 46 167.5 46c78 0 142.833 -21.667 194.5 -65s86.167 -102.333 103.5 -177h-68
c-15.333 54.667 -43.166 98.167 -83.499 130.5s-88.833 48.5 -145.5 48.5c-77.333 0 -136.833 -26.667 -178.5 -80s-62.5 -125.666 -62.5 -216.999c0 -90.667 20.833 -162.834 62.5 -216.501s101.167 -80.5 178.5 -80.5c53.333 0 99.166 14.167 137.499 42.5
s66.166 66.833 83.499 115.5h70c-19.333 -68 -54.333 -122 -105 -162s-113 -60 -187 -60c-64.667 0 -120.5 15.333 -167.5 46z" />
    <glyph glyph-name="D" unicode="D" horiz-adv-x="689" 
d="M80 700l252 0.00195312c62.667 0 117.5 -14.167 164.5 -42.5s83.333 -69 109 -122s38.5 -114.833 38.5 -185.5s-12.833 -132.334 -38.5 -185.001s-62 -93.334 -109 -122.001s-102.167 -43 -165.5 -43h-251v700zM323 64.002c49.333 0 92.833 11.168 130.5 33.501
s66.834 55.166 87.501 98.499s31 95 31 155s-10.333 111.5 -31 154.5s-49.834 75.667 -87.501 98s-81.167 33.5 -130.5 33.5h-175v-573h175z" />
    <glyph glyph-name="E" unicode="E" horiz-adv-x="570" 
d="M150 637v-250h312v-58h-312v-266h352v-63h-421v700h421v-63h-352z" />
    <glyph glyph-name="F" unicode="F" horiz-adv-x="517" 
d="M150 637v-252l300 2v-58h-300v-329h-69v700h408v-63h-339z" />
    <glyph glyph-name="G" unicode="G" horiz-adv-x="715" 
d="M188.5 46.5c-45.667 35 -79.1621 79.834 -100.495 134.501s-32 112 -32 172c0 60.667 10.667 118.5 32 173.5s55.166 100.167 101.499 135.5s104.833 53 175.5 53c78 0 140.833 -20.833 188.5 -62.5s80.5 -93.834 98.5 -156.501h-73
c-14.667 49.333 -39.834 87.5 -75.501 114.5s-81.834 40.5 -138.501 40.5c-74 0 -132.167 -26.667 -174.5 -80s-63.5 -126 -63.5 -218c0 -62 9.66699 -115.5 29 -160.5s47.166 -79.333 83.499 -103s78.833 -35.5 127.5 -35.5c44.667 0 83.334 9.33301 116.001 28
s57.834 44.5 75.501 77.5s27.167 70.5 28.5 112.5l1 31h-212v54h275v-357h-57v121h-8c-12.667 -26 -35.334 -53.667 -68.001 -83s-85.334 -44 -158.001 -44c-68.667 0 -125.834 17.5 -171.501 52.5z" />
    <glyph glyph-name="H" unicode="H" horiz-adv-x="678" 
d="M598 700v-700h-69v324h-380v-324h-69v700h69v-319h380v319h69z" />
    <glyph glyph-name="I" unicode="I" horiz-adv-x="235" 
d="M83 700h70v-700h-70v700z" />
    <glyph glyph-name="J" unicode="J" horiz-adv-x="340" 
d="M52 4l-0.000976562 51c11.333 -2.66699 27.333 -4 48 -4c24.667 0 42.834 4.5 54.501 13.5s18.834 19.833 21.501 32.5s4 28.667 4 48v555h67l1 -568c0 -38 -9 -70 -27 -96s-53.667 -39 -107 -39c-24.667 0 -45.334 2.33301 -62.001 7z" />
    <glyph glyph-name="K" unicode="K" horiz-adv-x="614" 
d="M79 700h69v-319h5l288 319h88l-283 -303l309 -397h-82l-269 346l-56 -60v-286h-69v700z" />
    <glyph glyph-name="L" unicode="L" horiz-adv-x="527" 
d="M485 63v-63h-404l-1 700h70l-1 -637h336z" />
    <glyph glyph-name="M" unicode="M" horiz-adv-x="817" 
d="M80 700h101l226 -570h3l226 570h101v-700h-68v589h-5l-229 -589h-53l-229 589h-5v-589h-68v700z" />
    <glyph glyph-name="N" unicode="N" horiz-adv-x="714" 
d="M80 700h77l405 -587h3v587h69v-700h-77l-404 582h-4v-582h-69v700z" />
    <glyph glyph-name="O" unicode="O" horiz-adv-x="739" 
d="M200 39.5c-47.333 30.333 -83.334 72.665 -108.001 126.998s-37 116.5 -37 186.5c0 70.667 12.5 133.334 37.5 188.001s61 97.334 108 128.001s103.167 46 168.5 46s121.5 -15.167 168.5 -45.5s83 -72.833 108 -127.5s37.5 -117.667 37.5 -189
c0 -70.667 -12.5 -133 -37.5 -187s-61 -96.167 -108 -126.5s-103.167 -45.5 -168.5 -45.5s-121.666 15.167 -168.999 45.5zM497.499 95.999c36.333 24.667 64.333 59.333 84 104s29.5 96.334 29.5 155.001c0 58 -9.83301 109.333 -29.5 154s-47.667 79.5 -84 104.5
s-79.166 37.5 -128.499 37.5s-92.166 -12.5 -128.499 -37.5s-64.333 -60 -84 -105s-29.5 -96.5 -29.5 -154.5s9.83301 -109.333 29.5 -154s47.667 -79.334 84 -104.001s79.166 -37 128.499 -37s92.166 12.333 128.499 37z" />
    <glyph glyph-name="P" unicode="P" horiz-adv-x="584" 
d="M451 666c36 -22.667 61.667 -51 77 -85s23 -69.667 23 -107s-7.66699 -73 -23 -107s-40.833 -62.167 -76.5 -84.5s-82.5 -33.5 -140.5 -33.5h-164v-249h-67v700h231c57.333 0 104 -11.333 140 -34zM432 347c34.667 24.667 52 67 52 127c0 59.333 -17.333 101.333 -52 126
s-77.334 37 -128.001 37h-157v-327h157c50.667 0 93.334 12.333 128.001 37z" />
    <glyph glyph-name="Q" unicode="Q" horiz-adv-x="736" 
d="M653.5 184c-19.667 -50 -48.1689 -90.668 -85.502 -122.001l97 -121h-70l-72 90c-45.333 -24.667 -96.666 -37 -153.999 -37c-65.333 0 -121.666 15.167 -168.999 45.5s-83.333 72.666 -108 126.999s-37 116.5 -37 186.5c0 70.667 12.5 133.334 37.5 188.001
s61 97.334 108 128.001s103.167 46 168.5 46s121.5 -15.167 168.5 -45.5s83 -72.833 108 -127.5s37.5 -117.667 37.5 -189c0 -62.667 -9.83301 -119 -29.5 -169zM478.998 84.999l-146.002 182.001h70l121 -150c28 26 49.5 59.5 64.5 100.5s22.5 86.833 22.5 137.5
c0 58 -9.83301 109.333 -29.5 154s-47.667 79.5 -84 104.5s-79.166 37.5 -128.499 37.5s-92.166 -12.5 -128.499 -37.5s-64.333 -60 -84 -105s-29.5 -96.5 -29.5 -154.5s9.83301 -109.333 29.5 -154s47.667 -79.334 84 -104.001s79.166 -37 128.499 -37
c40.667 0 77.334 8.66699 110.001 26z" />
    <glyph glyph-name="R" unicode="R" horiz-adv-x="605" 
d="M285 288h-136v-288h-69v700h231c57.333 0 104 -10.333 140 -31s61.667 -46.667 77 -78s23 -64 23 -98c0 -48.667 -15.167 -92.5 -45.5 -131.5s-78.833 -62.5 -145.5 -70.5l194 -291h-77zM149 348l155 -0.000976562c50.667 0 93.334 11 128.001 33s52 59.333 52 112
s-17.333 89.834 -52 111.501s-77.334 32.5 -128.001 32.5h-155v-289z" />
    <glyph glyph-name="S" unicode="S" horiz-adv-x="598" 
d="M167.5 26c-37.667 22.667 -66.002 51.665 -85.002 86.998s-28.5 72.333 -28.5 111v3h76v-4c0 -25.333 6 -50.666 18 -75.999s31.167 -46.666 57.5 -63.999s59.833 -26 100.5 -26c48 0 87.833 12.5 119.5 37.5s47.5 58.5 47.5 100.5c0 35.333 -11.333 63 -34 83
s-51.667 33.333 -87 40l-107 21c-38.667 7.33301 -77 23.666 -115 48.999s-57 69 -57 131c0 38.667 9.33301 72.834 28 102.501s45.167 52.667 79.5 69s73.5 24.5 117.5 24.5c50.667 0 94 -10.333 130 -31s63 -47.5 81 -80.5s27 -67.167 27 -102.5v-3h-76v3
c0 21.333 -5.16699 43.5 -15.5 66.5s-27.666 42.833 -51.999 59.5s-56.5 25 -96.5 25c-47.333 0 -84.666 -12.667 -111.999 -38s-41 -57 -41 -95c0 -31.333 10.167 -57 30.5 -77s48.5 -33.667 84.5 -41l95 -18c128.667 -26 193 -88 193 -186c0 -39.333 -10 -74.5 -30 -105.5
s-48.167 -55.333 -84.5 -73s-78.5 -26.5 -126.5 -26.5c-54 0 -99.833 11.333 -137.5 34z" />
    <glyph glyph-name="T" unicode="T" horiz-adv-x="587" 
d="M540 637h-212v-637h-69v637h-212v63h493v-63z" />
    <glyph glyph-name="U" unicode="U" horiz-adv-x="683" 
d="M137 75.5c-46 56.333 -69.002 134.166 -69.002 233.499v391h68v-391c0 -60 13.333 -117 40 -171s82.334 -81 167.001 -81c82.667 0 137.334 26.833 164.001 80.5s40 110.834 40 171.501v391h67v-391c0 -100 -22.833 -178 -68.5 -234s-113.167 -84 -202.5 -84
c-91.333 0 -160 28.167 -206 84.5z" />
    <glyph glyph-name="V" unicode="V" horiz-adv-x="626" 
d="M16 700h70l224 -633h6l224 633h70l-247 -700h-100z" />
    <glyph glyph-name="W" unicode="W" horiz-adv-x="992" 
d="M16 700h69l167 -622h6l206 622h64l205 -622h6l168 622h69l-190 -700h-97l-190 582h-6l-190 -582h-97z" />
    <glyph glyph-name="X" unicode="X" horiz-adv-x="652" 
d="M279 350l-234 350h77l203 -302h6l199 302h80l-234 -350l234 -350h-80l-199 301h-6l-203 -301h-78z" />
    <glyph glyph-name="Y" unicode="Y" horiz-adv-x="605" 
d="M265 -1v258l-228 443h77l182 -361h8l179 361h78l-227 -443v-257z" />
    <glyph glyph-name="Z" unicode="Z" horiz-adv-x="608" 
d="M55 65l400 568v2h-400v65h485v-65l-401 -568v-2h401v-65h-485v65z" />
    <glyph glyph-name="bracketleft" unicode="[" horiz-adv-x="431" 
d="M137 758v-877h216v-55h-272v987h272v-55h-216z" />
    <glyph glyph-name="backslash" unicode="\" horiz-adv-x="502" 
d="M372 -143l-346 951h68l346 -951h-68z" />
    <glyph glyph-name="bracketright" unicode="]" horiz-adv-x="427" 
d="M347 -174h-272v55h215v877h-215v55h272v-987z" />
    <glyph glyph-name="asciicircum" unicode="^" horiz-adv-x="417" 
d="M37 582l135 173h70l135 -173v-12h-61l-107 141h-4l-107 -141h-61v12z" />
    <glyph glyph-name="underscore" unicode="_" horiz-adv-x="706" 
d="M112 59h482v-59h-482v59z" />
    <glyph glyph-name="grave" unicode="`" horiz-adv-x="234" 
d="M30 798h76l98 -174h-56z" />
    <glyph glyph-name="a" unicode="a" horiz-adv-x="621" 
d="M154.5 30c-33.667 24 -59.334 56.668 -77.001 98.001s-26.5 87.666 -26.5 138.999c0 52 8.83301 98.833 26.5 140.5s43.667 74.5 78 98.5s75.5 36 123.5 36c47.333 0 85.833 -11.5 115.5 -34.5s52.5 -50.833 68.5 -83.5h7v102h69v-526h-69v114h-7
c-17.333 -34 -41.166 -62.5 -71.499 -85.5s-69.166 -34.5 -116.499 -34.5c-46.667 0 -86.834 12 -120.501 36zM422.5 115.501c29.667 40.333 44.5 91.166 44.5 152.499s-14.833 112 -44.5 152s-72.5 60 -128.5 60c-56.667 0 -99.5 -20.167 -128.5 -60.5
s-43.5 -90.833 -43.5 -151.5c0 -61.333 14.667 -112.166 44 -152.499s72 -60.5 128 -60.5s98.833 20.167 128.5 60.5z" />
    <glyph glyph-name="b" unicode="b" horiz-adv-x="620" 
d="M227 28.5c-30.667 23 -54.332 51.499 -70.999 85.499h-7v-114h-69v750h69v-326h7c16 32.667 38.833 60.5 68.5 83.5s68.167 34.5 115.5 34.5c48 0 89.167 -12 123.5 -36s60.333 -56.833 78 -98.5s26.5 -88.5 26.5 -140.5c0 -51.333 -8.83301 -97.666 -26.5 -138.999
s-43.5 -74 -77.5 -98s-74.333 -36 -121 -36s-85.334 11.5 -116.001 34.5zM453.002 115.499c29.333 40.333 44 91.168 44 152.501c0 60.667 -14.667 111.167 -44 151.5s-72.333 60.5 -129 60.5c-55.333 0 -98 -20.333 -128 -61s-45 -91.334 -45 -152.001
s15 -111.167 45 -151.5s72.667 -60.5 128 -60.5c56.667 0 99.667 20.167 129 60.5z" />
    <glyph glyph-name="c" unicode="c" horiz-adv-x="577" 
d="M164.5 32c-37 26 -64.5 60 -82.5 102s-27 86.667 -27 134c0 46.667 9 90.834 27 132.501s45.5 75.667 82.5 102s82.833 39.5 137.5 39.5c46 0 85.333 -9.33301 118 -28s58 -43.334 76 -74.001s29.333 -63.667 34 -99h-67c-6.66699 41.333 -23.667 75 -51 101
s-64 39 -110 39c-57.333 0 -101.166 -20.167 -131.499 -60.5s-45.5 -91.166 -45.5 -152.499c0 -62 15.167 -113.167 45.5 -153.5s74.166 -60.5 131.499 -60.5c46 0 82.667 12.833 110 38.5s44.333 59.5 51 101.5h67c-4.66699 -35.333 -16 -68.333 -34 -99
s-43.333 -55.334 -76 -74.001s-72 -28 -118 -28c-54.667 0 -100.5 13 -137.5 39z" />
    <glyph glyph-name="d" unicode="d" horiz-adv-x="620" 
d="M156 30c-34 24 -59.8311 56.668 -77.498 98.001s-26.5 87.666 -26.5 138.999c0 52 8.83301 98.833 26.5 140.5s43.667 74.5 78 98.5s75.5 36 123.5 36c47.333 0 85.833 -11.5 115.5 -34.5s52.5 -50.833 68.5 -83.5h7v326h69v-750h-69v114h-7
c-16.667 -34 -40.334 -62.5 -71.001 -85.5s-69.334 -34.5 -116.001 -34.5s-87 12 -121 36zM424.002 115.501c30 40.333 45 90.8311 45 151.498s-15 111.334 -45 152.001s-72.667 61 -128 61c-56.667 0 -99.667 -20.167 -129 -60.5s-44 -90.833 -44 -151.5
c0 -61.333 14.667 -112.166 44 -152.499s72.333 -60.5 129 -60.5c55.333 0 98 20.167 128 60.5z" />
    <glyph glyph-name="e" unicode="e" horiz-adv-x="585" 
d="M164 33c-36.667 26 -64.001 59.998 -82.001 101.998s-27 86.333 -27 133s9 91 27 133s45.333 76 82 102s81.667 39 135 39c70 0 126 -23.667 168 -71s63 -115.666 63 -204.999v-19h-406v-7c0 -32 7.16699 -62.5 21.5 -91.5s34.833 -52.167 61.5 -69.5s57 -26 91 -26
c37.333 0 69.333 9.5 96 28.5s46.667 44.833 60 77.5h68c-14.667 -47.333 -40.667 -86.666 -78 -117.999s-85.666 -47 -144.999 -47c-53.333 0 -98.333 13 -135 39zM460.999 297.998c-2.66699 66 -18.667 113.667 -48 143s-67.333 44 -114 44
c-52 0 -93.167 -17.333 -123.5 -52s-46.833 -79.667 -49.5 -135h335z" />
    <glyph glyph-name="f" unicode="f" horiz-adv-x="367" 
d="M218.5 672.5c-11 -9 -17.832 -19.833 -20.499 -32.5s-4 -28.667 -4 -48v-66h127v-56h-127v-470h-69l-1 470h-75v56h75v75c0 38.667 9.16699 71.167 27.5 97.5s53.5 39.5 105.5 39.5c28.667 0 50 -2.66699 64 -8v-49c-14.667 3.33301 -31.334 5 -50.001 5
c-24 0 -41.5 -4.5 -52.5 -13.5z" />
    <glyph glyph-name="g" unicode="g" horiz-adv-x="624" 
d="M228 -193v59.002c8 -2.66699 19.333 -5 34 -7s29.667 -3 45 -3c54 0 95.333 15 124 45s43 71 43 123v104h-8c-15.333 -34 -39 -62 -71 -84s-70.333 -33 -115 -33c-44 0 -83 11.333 -117 34s-60.5 54.167 -79.5 94.5s-28.5 86.166 -28.5 137.499
s9.16699 97.166 27.5 137.499s44.5 71.833 78.5 94.5s73.333 34 118 34c46.667 0 86.167 -12 118.5 -36s55.5 -53.333 69.5 -88h7v106h69v-501c0 -38 -8 -74.667 -24 -110s-41.167 -64.333 -75.5 -87s-77.833 -34 -130.5 -34c-30.667 0 -59 4.66699 -85 14zM394 100.502
c26 19 45.5 44.167 58.5 75.5s19.5 65.666 19.5 102.999c0 36 -6.5 69.5 -19.5 100.5s-32.333 55.833 -58 74.5s-57.167 28 -94.5 28s-68.833 -9.33301 -94.5 -28s-45 -43.5 -58 -74.5s-19.5 -64.5 -19.5 -100.5c0 -37.333 6.5 -71.666 19.5 -102.999s32.333 -56.5 58 -75.5
s57.167 -28.5 94.5 -28.5c36.667 0 68 9.5 94 28.5z" />
    <glyph glyph-name="h" unicode="h" 
d="M80 748h70.001v-321h7c14 32 36.5 59.167 67.5 81.5s68.833 33.5 113.5 33.5c44 0 81.333 -10.333 112 -31s53.667 -48.5 69 -83.5s23 -73.5 23 -115.5v-312h-68v305c0 56.667 -15 99.5 -45 128.5s-69 43.5 -117 43.5c-29.333 0 -56.333 -6.66699 -81 -20
s-44.334 -33 -59.001 -59s-22 -57 -22 -93v-305h-70v748z" />
    <glyph glyph-name="i" unicode="i" horiz-adv-x="239" 
d="M85 526h69v-526h-69v526zM83 640.5c-9.33301 9.66699 -14 21.5 -14 35.5c0 13.333 4.66699 24.833 14 34.5s21 14.5 35 14.5s25.667 -4.83301 35 -14.5s14 -21.167 14 -34.5c0 -14 -4.66699 -25.833 -14 -35.5s-21 -14.5 -35 -14.5s-25.667 4.83301 -35 14.5z" />
    <glyph glyph-name="j" unicode="j" horiz-adv-x="244" 
d="M91 640.5c-9.33301 9.66699 -14 21.5 -14 35.5c0 13.333 4.66699 24.833 14 34.5s21 14.5 35 14.5s25.667 -4.83301 35 -14.5s14 -21.167 14 -34.5c0 -14 -4.66699 -25.833 -14 -35.5s-21 -14.5 -35 -14.5s-25.667 4.83301 -35 14.5zM-37 -209l-0.00195312 49.999
c17.333 -2.66699 33.333 -4 48 -4c24.667 0 42.834 4.5 54.501 13.5s18.834 20 21.501 33s4 29.167 4 48.5v599h68l1 -613c0 -37.333 -8.83301 -69.166 -26.5 -95.499s-53.167 -39.5 -106.5 -39.5c-24 0 -45.333 2.66699 -64 8z" />
    <glyph glyph-name="k" unicode="k" horiz-adv-x="501" 
d="M83 748h69v-421h4l213 199h80l-247 -234l258 -292h-80l-224 258h-4v-258h-69v748z" />
    <glyph glyph-name="l" unicode="l" horiz-adv-x="304" 
d="M124.5 13c-17.667 12 -28.999 27.833 -33.999 47.5s-7.5 45.5 -7.5 77.5v612h69v-603c0 -26 1.16699 -45.333 3.5 -58s8.66602 -22.667 18.999 -30s26.833 -11 49.5 -11c6.66699 0 14 0.5 22 1.5s13.667 1.5 17 1.5v-50c-20 -4 -39.333 -6 -58 -6
c-36 0 -62.833 6 -80.5 18z" />
    <glyph glyph-name="m" unicode="m" horiz-adv-x="971" 
d="M80 526l69 0.00195312v-100h7c2.66699 8 9.83398 20.833 21.501 38.5s30.334 35 56.001 52s57.5 25.5 95.5 25.5c40.667 0 74.167 -9.33301 100.5 -28s46 -38.667 59 -60s19.5 -34.666 19.5 -39.999h8c3.33301 9.33301 11.166 23.666 23.499 42.999s32.5 38.333 60.5 57
s62.667 28 104 28s76.666 -10.5 105.999 -31.5s51.5 -49 66.5 -84s22.5 -73.167 22.5 -114.5v-312h-69v308c0 55.333 -14.333 97.166 -43 125.499s-64 42.5 -106 42.5c-28 0 -54 -6.33301 -78 -19s-43.167 -31.667 -57.5 -57s-21.5 -56 -21.5 -92v-308h-69v308
c0 55.333 -14.333 97.166 -43 125.499s-64 42.5 -106 42.5c-28 0 -54 -6.33301 -78 -19s-43.167 -31.667 -57.5 -57s-21.5 -56 -21.5 -92v-308h-69v526z" />
    <glyph glyph-name="n" unicode="n" 
d="M80 526h70v-99h7c14 32 36.5 59.167 67.5 81.5s68.833 33.5 113.5 33.5c44 0 81.333 -10.333 112 -31s53.667 -48.5 69 -83.5s23 -73.5 23 -115.5v-312h-68v305c0 56 -15 98.667 -45 128s-68.333 44 -115 44c-49.333 0 -89 -15.833 -119 -47.5s-45 -73.167 -45 -124.5
v-305h-70v526z" />
    <glyph glyph-name="o" unicode="o" horiz-adv-x="598" 
d="M165 33c-36.667 26 -64.167 59.833 -82.5 101.5s-27.5 85.834 -27.5 132.501c0 47.333 9.16699 91.833 27.5 133.5s45.833 75.5 82.5 101.5s81.334 39 134.001 39s97.334 -13 134.001 -39s64.167 -59.833 82.5 -101.5s27.5 -85.834 27.5 -132.501
c0 -47.333 -9.16699 -91.833 -27.5 -133.5s-45.833 -75.5 -82.5 -101.5s-81.334 -39 -134.001 -39s-97.334 13 -134.001 39zM391.5 83.5c26.333 19 46.668 44.6689 61.001 77.002s21.5 68.166 21.5 107.499c0 40 -7 76.167 -21 108.5s-34.333 57.833 -61 76.5
s-57.667 28 -93 28s-66.333 -9.33301 -93 -28s-47 -44.334 -61 -77.001s-21 -68.667 -21 -108c0 -40 7 -76.167 21 -108.5s34.167 -57.833 60.5 -76.5s57.5 -28 93.5 -28c35.333 0 66.166 9.5 92.499 28.5z" />
    <glyph glyph-name="p" unicode="p" horiz-adv-x="622" 
d="M227 28.5c-30.667 23 -54.332 51.499 -70.999 85.499h-7v-316h-69v728h69v-102h7c16 32.667 38.833 60.5 68.5 83.5s68.167 34.5 115.5 34.5c48 0 89.167 -12 123.5 -36s60.333 -56.833 78 -98.5s26.5 -88.5 26.5 -140.5c0 -51.333 -8.83301 -97.666 -26.5 -138.999
s-43.5 -74 -77.5 -98s-74.333 -36 -121 -36s-85.334 11.5 -116.001 34.5zM453.002 115.499c29.333 40.333 44 91.168 44 152.501c0 60.667 -14.667 111.167 -44 151.5s-72.333 60.5 -129 60.5c-55.333 0 -98 -20.333 -128 -61s-45 -91.334 -45 -152.001
s15 -111.167 45 -151.5s72.667 -60.5 128 -60.5c56.667 0 99.667 20.167 129 60.5z" />
    <glyph glyph-name="q" unicode="q" horiz-adv-x="622" 
d="M158 30c-34 24 -59.8311 56.668 -77.498 98.001s-26.5 87.666 -26.5 138.999c0 52 8.83301 98.833 26.5 140.5s43.667 74.5 78 98.5s75.5 36 123.5 36c47.333 0 85.833 -11.5 115.5 -34.5s52.5 -50.833 68.5 -83.5h7v102h69v-728h-69v316h-7
c-16.667 -34 -40.334 -62.5 -71.001 -85.5s-69.334 -34.5 -116.001 -34.5s-87 12 -121 36zM426.002 115.501c30 40.333 45 90.8311 45 151.498s-15 111.334 -45 152.001s-72.667 61 -128 61c-56.667 0 -99.667 -20.167 -129 -60.5s-44 -90.833 -44 -151.5
c0 -61.333 14.833 -112.166 44.5 -152.499s72.5 -60.5 128.5 -60.5c55.333 0 98 20.167 128 60.5z" />
    <glyph glyph-name="r" unicode="r" horiz-adv-x="341" 
d="M75 526l68 0.000976562v-84h5c9.33301 23.333 25 43.166 47 59.499s49.333 24.5 82 24.5c12 0 21.5 -0.5 28.5 -1.5s14.5 -3.16699 22.5 -6.5l-2 -68c-11.333 3.33301 -20.833 5.5 -28.5 6.5s-17.167 1.5 -28.5 1.5c-38 0 -68.5 -11.5 -91.5 -34.5
s-34.5 -61.167 -34.5 -114.5v-309h-68v526z" />
    <glyph glyph-name="s" unicode="s" horiz-adv-x="497" 
d="M146.5 19c-31 16.667 -54.666 38.5 -70.999 65.5s-24.5 55.167 -24.5 84.5v4h70v-4c0 -18.667 5.16699 -37 15.5 -55s25.833 -32.667 46.5 -44s45.667 -17 75 -17c35.333 0 64.666 8.5 87.999 25.5s35 40.833 35 71.5c0 25.333 -8.83301 45.333 -26.5 60
s-39.834 24 -66.501 28l-72 10c-44.667 6.66699 -81.167 21.5 -109.5 44.5s-42.5 55.5 -42.5 97.5c0 47.333 17.333 84.5 52 111.5s79 40.5 133 40.5c39.333 0 73.333 -7.5 102 -22.5s50.5 -34.833 65.5 -59.5s22.5 -51.334 22.5 -80.001v-3h-70v2
c0 14.667 -4 30.167 -12 46.5s-21.167 30.5 -39.5 42.5s-41.833 18 -70.5 18c-35.333 0 -63.833 -9 -85.5 -27s-32.5 -41 -32.5 -69c0 -22 7.83301 -40.5 23.5 -55.5s35.834 -24.167 60.501 -27.5l79 -11c44.667 -7.33301 82.167 -22.166 112.5 -44.499
s45.5 -55.833 45.5 -100.5c0 -30.667 -8.5 -58 -25.5 -82s-40.167 -42.5 -69.5 -55.5s-62.333 -19.5 -99 -19.5c-42 0 -78.5 8.33301 -109.5 25z" />
    <glyph glyph-name="t" unicode="t" horiz-adv-x="384" 
d="M204 470l0.00195312 -328.999c0 -25.333 1.16699 -43.833 3.5 -55.5s8.5 -20.834 18.5 -27.501s26.333 -10 49 -10c17.333 0 36 2.33301 56 7v-50c-6.66699 -2.66699 -16.834 -5 -30.501 -7s-28.167 -3 -43.5 -3c-35.333 0 -61.833 5.16699 -79.5 15.5
s-29.334 24.5 -35.001 42.5s-8.5 42.333 -8.5 73l1 344h-102v56h102v174h69v-174h127v-56h-127z" />
    <glyph glyph-name="u" unicode="u" horiz-adv-x="605" 
d="M532 0h-69v105h-6c-14 -32 -36.167 -59 -66.5 -81s-67.5 -33 -111.5 -33c-43.333 0 -80 10.5 -110 31.5s-52.333 48.833 -67 83.5s-22 72.667 -22 114v306h69v-298c0 -56.667 14.5 -99.667 43.5 -129s66.167 -44 111.5 -44c48 0 86.5 16 115.5 48s43.5 73.667 43.5 125
v298h69v-526z" />
    <glyph glyph-name="v" unicode="v" horiz-adv-x="551" 
d="M36 526h69l168 -452h5l169 452h68l-197 -526h-86z" />
    <glyph glyph-name="w" unicode="w" horiz-adv-x="816" 
d="M37 526h67l126 -450h4l143 450h62l145 -450h4l124 450h67l-148 -526h-91l-129 408h-6l-128 -408h-90z" />
    <glyph glyph-name="x" unicode="x" horiz-adv-x="548" 
d="M214 264l-178 262h79l147 -224h3l144 224h79l-176 -262l176 -264h-79l-144 223h-3l-145 -223h-80z" />
    <glyph glyph-name="y" unicode="y" horiz-adv-x="535" 
d="M226.5 -132.5c-9.66699 -15.667 -24.833 -30.332 -45.5 -43.999s-47 -20.5 -79 -20.5c-19.333 0 -37.666 2.33301 -54.999 7v53c10.667 -2.66699 25 -4 43 -4c22 0 39.5 4.16699 52.5 12.5s23.5 19.333 31.5 33s17.667 34.167 29 61.5l26 64l-197 496h73l157 -419h6
l167 419h73l-251 -598c-10.667 -24.667 -20.834 -44.834 -30.501 -60.501z" />
    <glyph glyph-name="z" unicode="z" horiz-adv-x="500" 
d="M52 56l324 409v3h-305v59h384v-57l-324 -409v-2h324v-59h-403v56z" />
    <glyph glyph-name="braceleft" unicode="{" horiz-adv-x="463" 
d="M225 -176c-22 20 -33 57.333 -33 112v258c0 32.667 -1.33301 55.167 -4 67.5s-9.66699 20.833 -21 25.5s-31.666 7 -60.999 7v35c29.333 0 49.666 2.33301 60.999 7s18.333 13 21 25s4 34.333 4 67v258c0 54.667 11 92 33 112s56 30 102 30h81v-50h-77
c-31.333 0 -52.166 -6 -62.499 -18s-15.5 -34.333 -15.5 -67v-245c0 -46.667 -2.5 -80 -7.5 -100s-16.833 -30.667 -35.5 -32v-10c18.667 -1.33301 30.5 -12 35.5 -32s7.5 -53.333 7.5 -100v-245c0 -32.667 5.16699 -55 15.5 -67s31.166 -18 62.499 -18h77v-50h-81
c-46 0 -80 10 -102 30z" />
    <glyph glyph-name="bar" unicode="|" horiz-adv-x="284" 
d="M112 950h60v-1182h-60v1182z" />
    <glyph glyph-name="braceright" unicode="}" horiz-adv-x="478" 
d="M129 -206v50h76c31.333 0 52.333 6 63 18s16 34.333 16 67v245c0 46.667 2.5 80 7.5 100s16.5 30.667 34.5 32v10c-18 1.33301 -29.5 12 -34.5 32s-7.5 53.333 -7.5 100v245c0 32.667 -5.33301 55 -16 67s-31.667 18 -63 18h-76v50h80c46 0 80.167 -10 102.5 -30
s33.5 -57.333 33.5 -112v-258c0 -32.667 1.33301 -55 4 -67s9.66699 -20.333 21 -25s31.666 -7 60.999 -7v-35c-29.333 0 -49.666 -2.33301 -60.999 -7s-18.333 -13.167 -21 -25.5s-4 -34.833 -4 -67.5v-258c0 -54.667 -11.167 -92 -33.5 -112s-56.5 -30 -102.5 -30h-80z
" />
    <glyph glyph-name="asciitilde" unicode="~" horiz-adv-x="551" 
d="M105 376c8 16 20.334 29.834 37.001 41.501s37.667 17.5 63 17.5c15.333 0 28.666 -2.16699 39.999 -6.5s24 -10.833 38 -19.5c13.333 -8 24.5 -13.833 33.5 -17.5s19.167 -5.5 30.5 -5.5c19.333 0 33.666 5.16699 42.999 15.5s15 21.833 17 34.5h52
c-0.666992 -12.667 -4.83398 -27 -12.501 -43s-19.834 -29.833 -36.501 -41.5s-37.667 -17.5 -63 -17.5c-16 0 -29.5 2.16699 -40.5 6.5s-24.167 11.166 -39.5 20.499c-13.333 7.33301 -24.166 12.833 -32.499 16.5s-18.166 5.5 -29.499 5.5
c-19.333 0 -33.666 -5 -42.999 -15s-15.333 -21.667 -18 -35h-52c0.666992 12.667 5 27 13 43z" />
    <glyph glyph-name="uni00A0" unicode="&#xa0;" horiz-adv-x="230" 
 />
    <glyph glyph-name="exclamdown" unicode="&#xa1;" horiz-adv-x="217" 
d="M151.5 503.5c9.66699 -9.66699 14.5 -21.167 14.5 -34.5s-4.83301 -24.666 -14.5 -33.999s-21.167 -14 -34.5 -14c-14 0 -25.667 4.66699 -35 14s-14 20.666 -14 33.999s4.66699 24.833 14 34.5s21 14.5 35 14.5c13.333 0 24.833 -4.83301 34.5 -14.5zM141 341l14 -452
v-139h-77v139l16 452h47z" />
    <glyph glyph-name="cent" unicode="&#xa2;" horiz-adv-x="600" 
d="M414.5 94.5c25.667 25.667 41.834 58.832 48.501 99.499h67c-7.33301 -54.667 -29.666 -101.334 -66.999 -140.001s-88.333 -59 -153 -61v-61h-35v62c-48.667 4.66699 -89.5 20.334 -122.5 47.001s-57.5 60 -73.5 100s-24 82.333 -24 127c0 44 8 86 24 126
s40.5 73.333 73.5 100s73.833 42.334 122.5 47.001v67h35v-66c64.667 -2 115.667 -22.333 153 -61s59.666 -85.334 66.999 -140.001h-67c-6.66699 40.667 -22.834 73.834 -48.501 99.501s-60.5 39.167 -104.5 40.5v-427c44 1.33301 78.833 14.833 104.5 40.5zM163.5 123.998
c25.667 -39.333 62.834 -62 111.501 -68v423c-48.667 -6 -85.834 -28.667 -111.501 -68s-38.5 -87 -38.5 -143c0 -56.667 12.833 -104.667 38.5 -144z" />
    <glyph glyph-name="sterling" unicode="&#xa3;" horiz-adv-x="591" 
d="M535 61l-0.000976562 -60.999h-491v63h19c22 0 43.333 6.5 64 19.5s37.5 31.167 50.5 54.5s19.5 49.666 19.5 78.999c0 20 -3 39 -9 57h-129v45h109c-6 11.333 -16.333 27.666 -31 48.999c-20 31.333 -35.167 58.166 -45.5 80.499s-15.5 47.833 -15.5 76.5
c0 31.333 7.33301 61.5 22 90.5s38.334 53 71.001 72s74.334 28.5 125.001 28.5c64 0 112.167 -14.167 144.5 -42.5s52.833 -57.666 61.5 -87.999s13 -55.833 13 -76.5v-16h-75v13c0 16.667 -3.33301 36.334 -10 59.001s-20.834 43.5 -42.501 62.5s-52.5 28.5 -92.5 28.5
c-32.667 0 -59.5 -6.5 -80.5 -19.5s-36.167 -29.5 -45.5 -49.5s-14 -40.333 -14 -61c0 -21.333 4.16699 -41.333 12.5 -60s21.166 -41 38.499 -67c20 -30 35 -56.667 45 -80h165v-45h-151c2 -12 3 -25 3 -39c0 -34 -6.83301 -63.167 -20.5 -87.5s-28.667 -43 -45 -56
s-29.166 -21.167 -38.499 -24.5v-5h373z" />
    <glyph glyph-name="currency" unicode="&#xa4;" horiz-adv-x="573" 
d="M408 193c-36 -27.333 -77.001 -40.999 -123.001 -40.999c-22 0 -43.333 3.66699 -64 11s-39.667 17.666 -57 30.999l-56 -60l-39 37l56 60c-29.333 38 -44 80.333 -44 127c0 24 4.33301 47.167 13 69.5s21 42.5 37 60.5l-57 60l40 36l57 -60
c16 12 33.833 21.167 53.5 27.5s39.834 9.5 60.501 9.5c44 0 82.667 -12 116 -36l57 60l40 -37l-57 -60c16 -18 28.333 -38.167 37 -60.5s13 -45.5 13 -69.5c0 -23.333 -3.83301 -46 -11.5 -68s-18.5 -41.667 -32.5 -59l57 -60l-40 -38zM360.499 228.001
c23 14 41.167 32.6689 54.5 56.002s20 48 20 74c0 26.667 -6.66699 51.167 -20 73.5s-31.5 40.166 -54.5 53.499s-48.167 20 -75.5 20c-26.667 0 -51.334 -6.5 -74.001 -19.5s-40.667 -30.833 -54 -53.5s-20 -47.334 -20 -74.001c0 -28 6.66699 -53.5 20 -76.5
s31.333 -41.167 54 -54.5s47.334 -20 74.001 -20c27.333 0 52.5 7 75.5 21z" />
    <glyph glyph-name="yen" unicode="&#xa5;" horiz-adv-x="617" 
d="M557 691l-204 -397h133v-46h-152v-65h152v-47h-152v-136l-69 -1v137h-153v47h153v65h-153v46h134l-205 397v9h73l182 -361h8l179 361h74v-9z" />
    <glyph glyph-name="brokenbar" unicode="&#xa6;" horiz-adv-x="284" 
d="M112 951h60v-528h-60v528zM112 261h60v-493h-60v493z" />
    <glyph glyph-name="section" unicode="&#xa7;" horiz-adv-x="553" 
d="M164 16c-31.333 16 -55.166 36.8301 -71.499 62.4971s-25.166 52.167 -26.499 79.5h72c0.666992 -14.667 5.83398 -30.167 15.501 -46.5s24.667 -30.333 45 -42s46.5 -17.5 78.5 -17.5c36 0 65.5 7.5 88.5 22.5s34.5 35.5 34.5 61.5c0 23.333 -8.83301 41.333 -26.5 54
s-38.834 20.667 -63.501 24l-72 11c-48.667 7.33301 -91.167 22.333 -127.5 45s-54.5 56 -54.5 100c0 51.333 27 86 81 104v3c-35.333 20 -53 51.333 -53 94c0 44.667 17 79.834 51 105.501s78.667 38.5 134 38.5c60.667 0 107.5 -14.5 140.5 -43.5
s52.167 -65.167 57.5 -108.5h-72c-14 64 -56 96 -126 96c-37.333 0 -66.5 -8.16699 -87.5 -24.5s-31.5 -36.166 -31.5 -59.499c0 -20 8 -36.333 24 -49s36 -20.667 60 -24l79 -12c53.333 -7.33301 97.666 -23.333 132.999 -48s53 -57.667 53 -99
c0 -24 -6.83301 -45.167 -20.5 -63.5s-33.167 -33.166 -58.5 -44.499v-2c15.333 -9.33301 27.666 -21.833 36.999 -37.5s14 -34.167 14 -55.5c0 -44 -17.833 -79.667 -53.5 -107s-82.5 -41 -140.5 -41c-44 0 -81.667 8 -113 24zM405.5 285.997
c13.667 16.667 20.499 35.333 20.499 56c0 23.333 -10.667 43.166 -32 59.499s-49.666 26.833 -84.999 31.5l-89 13l-13 1c-24 0 -43.833 -7.16699 -59.5 -21.5s-23.5 -32.5 -23.5 -54.5c0 -23.333 9.5 -42.166 28.5 -56.499s44.833 -23.833 77.5 -28.5l125 -21
c20 -2.66699 36.833 4.33301 50.5 21z" />
    <glyph glyph-name="dieresis" unicode="&#xa8;" horiz-adv-x="333" 
d="M221 640.5c-9.33301 9.66699 -14 21.5 -14 35.5c0 13.333 4.66699 24.833 14 34.5s21 14.5 35 14.5s25.667 -4.83301 35 -14.5s14 -21.167 14 -34.5c0 -14 -4.66699 -25.833 -14 -35.5s-21 -14.5 -35 -14.5s-25.667 4.83301 -35 14.5zM43 640.5
c-9.33301 9.66699 -14 21.5 -14 35.5c0 13.333 4.66699 24.833 14 34.5s21 14.5 35 14.5s25.667 -4.83301 35 -14.5s14 -21.167 14 -34.5c0 -14 -4.66699 -25.833 -14 -35.5s-21 -14.5 -35 -14.5s-25.667 4.83301 -35 14.5z" />
    <glyph glyph-name="copyright" unicode="&#xa9;" horiz-adv-x="811" 
d="M203.5 47.5c-55 37 -95.332 83.167 -120.999 138.5s-38.5 111.333 -38.5 168s12.833 112.667 38.5 168s66 101.333 121 138s123.5 55 205.5 55c83.333 0 151.833 -18.5 205.5 -55.5s92.5 -83.167 116.5 -138.5s36 -111 36 -167c0 -54.667 -12.167 -109.667 -36.5 -165
s-63.333 -102 -117 -140s-121.834 -57 -204.501 -57c-82 0 -150.5 18.5 -205.5 55.5zM584.501 93c45.667 32.667 78.833 72.667 99.5 120s31 94.333 31 141c0 48 -10.167 95.667 -30.5 143s-53.5 86.833 -99.5 118.5s-104.667 47.5 -176 47.5
c-70.667 0 -129.5 -15.667 -176.5 -47s-81.5 -70.666 -103.5 -117.999s-33 -95.333 -33 -144c0 -48 11 -95.833 33 -143.5s56.5 -87.334 103.5 -119.001s105.833 -47.5 176.5 -47.5c71.333 0 129.833 16.333 175.5 49zM297.5 168.5c-31.667 20.333 -55.334 47 -71.001 80
s-23.5 67.833 -23.5 104.5c0 37.333 7.83301 72.5 23.5 105.5s39.167 59.667 70.5 80s69 30.5 113 30.5c52.667 0 96.334 -14.5 131.001 -43.5s57.334 -65.5 68.001 -109.5l-49 -5c-9.33301 33.333 -26.833 60.166 -52.5 80.499s-57.5 30.5 -95.5 30.5
c-48.667 0 -87 -16.167 -115 -48.5s-42 -72.5 -42 -120.5s14 -87.667 42 -119s66.667 -47 116 -47c37.333 0 68.833 9.66699 94.5 29s43.167 46.333 52.5 81l49 -6c-10 -43.333 -31.833 -79.666 -65.5 -108.999s-77.5 -44 -131.5 -44
c-44.667 0 -82.834 10.167 -114.501 30.5z" />
    <glyph glyph-name="ordfeminine" unicode="&#xaa;" horiz-adv-x="150" 
d="M16.5 408.5c-9.66699 13 -14.5 30.167 -14.5 51.5s5 38.5 15 51.5s23.333 19.5 40 19.5c11.333 0 20.5 -2.66699 27.5 -8s11.833 -11 14.5 -17h2v22h35v-136h-35v23h-2c-9.33301 -17.333 -23.333 -26 -42 -26c-17.333 0 -30.833 6.5 -40.5 19.5zM93.5 430
c5.66699 8.66699 8.5 18.666 8.5 29.999s-2.83301 21.333 -8.5 30s-13.834 13 -24.501 13s-18.667 -4.16699 -24 -12.5s-8 -18.166 -8 -29.499c0 -12 2.5 -22.333 7.5 -31s13.167 -13 24.5 -13c10.667 0 18.834 4.33301 24.501 13z" />
    <glyph glyph-name="guillemotleft" unicode="&#xab;" horiz-adv-x="614" 
d="M315 111h-75l-200 207l200 208h75l-198 -208zM575 111h-75l-200 207l200 208h75l-198 -208z" />
    <glyph glyph-name="logicalnot" unicode="&#xac;" horiz-adv-x="655" 
d="M575 277h-57v194h-438v59h495v-253z" />
    <glyph glyph-name="uni00AD" unicode="&#xad;" horiz-adv-x="600" 
d="M117 342h369v-59h-369v59z" />
    <glyph glyph-name="registered" unicode="&#xae;" horiz-adv-x="340" 
d="M100 469c-18.667 12.667 -32.5 28.6689 -41.5 48.002s-13.5 38.666 -13.5 57.999s4.5 38.666 13.5 57.999s22.833 35.333 41.5 48s42.334 19 71.001 19s52.334 -6.5 71.001 -19.5s32.167 -29 40.5 -48s12.5 -38.167 12.5 -57.5c0 -18.667 -4.16699 -37.667 -12.5 -57
s-21.833 -35.5 -40.5 -48.5s-42.334 -19.5 -71.001 -19.5s-52.334 6.33301 -71.001 19zM244 509.002c16 20.667 24 43 24 67s-8 46 -24 66s-40.333 30 -73 30s-57.167 -10 -73.5 -30s-24.5 -42 -24.5 -66c0 -24.667 8.16699 -47.167 24.5 -67.5s40.833 -30.5 73.5 -30.5
s57 10.333 73 31zM128 638.002l54 0.000976562c14 0 24 -3.83301 30 -11.5s9 -16.834 9 -27.501c0 -20.667 -7.66699 -33 -23 -37l26 -47v-2h-27l-23 46h-21v-46h-25v125zM177 577.003c14 0 21 6.66699 21 20c0 6.66699 -2 11.667 -6 15s-9 5 -15 5h-24v-40h24z" />
    <glyph glyph-name="macron" unicode="&#xaf;" horiz-adv-x="353" 
d="M30 678h293v-39h-293v39z" />
    <glyph glyph-name="degree" unicode="&#xb0;" horiz-adv-x="292" 
d="M81.5 705c-17.667 18 -26.5 39.667 -26.5 65s9 46.833 27 64.5s39.333 26.5 64 26.5c25.333 0 47 -8.83301 65 -26.5s27 -39.167 27 -64.5s-9 -47 -27 -65s-39.667 -27 -65 -27s-46.833 9 -64.5 27zM184.5 732c10.333 10.667 15.5 23.334 15.5 38.001
s-5.16699 27.167 -15.5 37.5s-23.166 15.5 -38.499 15.5c-14.667 0 -27.167 -5.16699 -37.5 -15.5s-15.5 -22.833 -15.5 -37.5s5.16699 -27.334 15.5 -38.001s22.833 -16 37.5 -16c15.333 0 28.166 5.33301 38.499 16z" />
    <glyph glyph-name="plusminus" unicode="&#xb1;" horiz-adv-x="608" 
d="M274 306h-161v62h161v161h62v-161h162v-62h-162v-163h-62v163zM499 52l-1 -52h-386v52h387z" />
    <glyph glyph-name="uni00B2" unicode="&#xb2;" horiz-adv-x="304" 
d="M28 422l86.999 83.999l16 14c30.667 26.667 53.5 49.5 68.5 68.5s22.5 39.833 22.5 62.5c0 18 -5.5 33.5 -16.5 46.5s-28.5 19.5 -52.5 19.5c-28.667 0 -48.167 -8.5 -58.5 -25.5s-15.5 -35.833 -15.5 -56.5h-48c0 34 10.333 63.167 31 87.5s51.334 36.5 92.001 36.5
c38 0 66.667 -10.333 86 -31s29 -46 29 -76c0 -28.667 -7.16699 -53.167 -21.5 -73.5s-35.5 -43.166 -63.5 -68.499l-23 -21l-67 -65v-3h182v-44h-248v45z" />
    <glyph glyph-name="uni00B3" unicode="&#xb3;" horiz-adv-x="311" 
d="M66 402c-22 20 -34.668 43 -38.001 69h48c5.33301 -16.667 15.166 -29.834 29.499 -39.501s31.5 -14.5 51.5 -14.5c26 0 45.667 6.33301 59 19s20 28.667 20 48c0 21.333 -7.83301 37.833 -23.5 49.5s-34.167 17.5 -55.5 17.5h-36v40h33c21.333 0 39.5 5 54.5 15
s22.5 25.667 22.5 47c0 20 -7.16699 36 -21.5 48s-32.166 18 -53.499 18s-38.166 -5 -50.499 -15s-19.833 -22.667 -22.5 -38h-48c4.66699 25.333 16.667 47.333 36 66s47.666 28 84.999 28c40.667 0 71.334 -10.5 92.001 -31.5s31 -45.833 31 -74.5
c0 -18.667 -4.5 -34.167 -13.5 -46.5s-18.667 -21.666 -29 -27.999s-16.833 -9.5 -19.5 -9.5v-1c44 -14.667 66 -43.334 66 -86.001c0 -29.333 -10.5 -55.166 -31.5 -77.499s-52.167 -33.5 -93.5 -33.5c-39.333 0 -70 10 -92 30z" />
    <glyph glyph-name="acute" unicode="&#xb4;" horiz-adv-x="234" 
d="M30 624l98 174h76l-118 -174h-56z" />
    <glyph glyph-name="uni00B5" unicode="&#xb5;" horiz-adv-x="642" 
d="M73 526l69 0.000976562v-308c0 -42.667 7.33301 -81 22 -115s48.667 -51 102 -51c46.667 0 84.167 18.167 112.5 54.5s42.5 81.833 42.5 136.5v283h70v-379c0 -25.333 1.16699 -44.333 3.5 -57s8.83301 -22.834 19.5 -30.501s27.667 -11.5 51 -11.5c4 0 17 1 39 3v-50
c-18.667 -4 -38 -6 -58 -6c-44 0 -74.5 9.33301 -91.5 28s-26.833 46.334 -29.5 83.001h-7c-8 -15.333 -16.5 -29.833 -25.5 -43.5s-25.5 -28.667 -49.5 -45s-54 -24.5 -90 -24.5c-26.667 0 -49.167 4.5 -67.5 13.5s-34.5 21.167 -48.5 36.5l-4 -1
c4 -10 6.5 -30.333 7.5 -61s1.5 -93.334 1.5 -188.001h-69v733z" />
    <glyph glyph-name="paragraph" unicode="&#xb6;" horiz-adv-x="527" 
d="M447 0h-49v640h-73v-640h-48v348h-64c-59.333 0 -105 16.333 -137 49s-48 74 -48 124c0 32.667 7.16699 62.5 21.5 89.5s35.5 48.667 63.5 65s61.333 24.5 100 24.5h234v-700z" />
    <glyph glyph-name="periodcentered" unicode="&#xb7;" horiz-adv-x="273" 
d="M100.5 332c-9.66699 10 -14.5 22 -14.5 36s4.83301 26 14.5 36s21.834 15 36.501 15s26.834 -5 36.501 -15s14.5 -22 14.5 -36s-4.83301 -26 -14.5 -36s-21.834 -15 -36.501 -15s-26.834 5 -36.501 15z" />
    <glyph glyph-name="cedilla" unicode="&#xb8;" horiz-adv-x="242" 
d="M150 -188.5c12.667 10.333 19 23.832 19 40.499c0 18.667 -6.33301 31 -19 37s-25.667 9 -39 9h-81v4l32 98h46l-21 -62h29c32 0 56 -8 72 -24s24 -36.333 24 -61c0 -27.333 -10 -51.166 -30 -71.499s-49 -30.5 -87 -30.5c-18.667 0 -36.667 2.66699 -54 8l2 43
c16 -4 33.667 -6 53 -6c23.333 0 41.333 5.16699 54 15.5z" />
    <glyph glyph-name="uni00B9" unicode="&#xb9;" horiz-adv-x="249" 
d="M222 429v-44h-193v44h77v272h-2l-76 -69v56l77 71h46v-330h71z" />
    <glyph glyph-name="ordmasculine" unicode="&#xba;" horiz-adv-x="159" 
d="M31 410c-11.333 14 -17 30.665 -17 49.998c0 20 5.66699 37.167 17 51.5s27.333 21.5 48 21.5c21.333 0 37.833 -7.16699 49.5 -21.5s17.5 -31.166 17.5 -50.499s-5.83301 -36.166 -17.5 -50.499s-28.167 -21.5 -49.5 -21.5c-20.667 0 -36.667 7 -48 21zM104.5 428.498
c6.33301 9 9.5 19.833 9.5 32.5s-3.16699 23.5 -9.5 32.5s-14.833 13.5 -25.5 13.5s-18.834 -4.5 -24.501 -13.5s-8.5 -19.833 -8.5 -32.5s2.83301 -23.5 8.5 -32.5s13.834 -13.5 24.501 -13.5s19.167 4.5 25.5 13.5z" />
    <glyph glyph-name="guillemotright" unicode="&#xbb;" horiz-adv-x="614" 
d="M300 526h75l200 -208l-200 -207h-75l197 207zM40 526h75l200 -208l-200 -207h-75l197 207z" />
    <glyph glyph-name="onequarter" unicode="&#xbc;" horiz-adv-x="803" 
d="M232 350h-190v47h73v240h-2l-71 -66v63l72 66h51v-303h67v-47zM641 688l-412 -688h-59v12l411 688h60v-12zM761 127v-42h-48v-85h-52v85l-159 1v44l145 220h66v-223h48zM662 303l-119 -176h119v176z" />
    <glyph glyph-name="onehalf" unicode="&#xbd;" horiz-adv-x="827" 
d="M232 350h-190v47h73v240h-2l-71 -66v63l72 66h51v-303h67v-47zM658 688l-411 -688h-60v12l411 688h60v-12zM785 47l-0.000976562 -47.001h-235v45l75 71c10.667 8.66699 16.334 13.334 17.001 14.001c28.667 24 50.334 45 65.001 63s22 38 22 60
c0 16.667 -4.83301 30.5 -14.5 41.5s-24.834 16.5 -45.501 16.5c-25.333 0 -42.5 -7.5 -51.5 -22.5s-13.5 -31.833 -13.5 -50.5h-50c0 33.333 9.83301 61.666 29.5 84.999s48.5 35 86.5 35c36 0 63 -10 81 -30s27 -44 27 -72c0 -20.667 -4.5 -39.667 -13.5 -57
s-18.667 -31.166 -29 -41.499s-28.833 -27.5 -55.5 -51.5l-59 -57v-2h164z" />
    <glyph glyph-name="threequarters" unicode="&#xbe;" horiz-adv-x="844" 
d="M78.5 365.5c-21.667 17.667 -33.835 40.5 -36.502 68.5h52c4 -14.667 12 -26.334 24 -35.001s27.667 -13 47 -13c22.667 0 39.834 5.83301 51.501 17.5s17.5 25.834 17.5 42.501c0 18.667 -6.66699 33 -20 43s-29.666 15 -48.999 15h-31v41h28
c18 0 33.833 4.16699 47.5 12.5s20.5 22.166 20.5 41.499c0 18 -6.16699 32.333 -18.5 43s-28.166 16 -47.499 16c-18 0 -32.5 -4.33301 -43.5 -13s-17.833 -19.667 -20.5 -33h-51c4 25.333 15.167 46.833 33.5 64.5s45.5 26.5 81.5 26.5
c39.333 0 68.666 -9.66699 87.999 -29s29 -43 29 -71c0 -18 -4 -32.833 -12 -44.5s-16.5 -20.167 -25.5 -25.5s-15.167 -8 -18.5 -8v-3c3.33301 0 10 -2.66699 20 -8s19.167 -14 27.5 -26s12.5 -27.667 12.5 -47c0 -27.333 -10 -51.166 -30 -71.499s-50 -30.5 -90 -30.5
c-36 0 -64.833 8.83301 -86.5 26.5zM204.999 12l411 688h60v-12l-411 -688h-60v12zM702.999 85l-159 1v44l144 220h67v-223h47v-42h-47v-85h-52v85zM702.999 127v176l-118 -176h118z" />
    <glyph glyph-name="questiondown" unicode="&#xbf;" horiz-adv-x="578" 
d="M333.5 462c9 -9.33301 13.5 -21 13.5 -35c0 -13.333 -4.5 -24.666 -13.5 -33.999s-20.5 -14 -34.5 -14c-13.333 0 -24.833 4.66699 -34.5 14s-14.5 20.666 -14.5 33.999s4.83301 24.833 14.5 34.5s21.167 14.5 34.5 14.5c14 0 25.5 -4.66699 34.5 -14zM333 281
c0 -31.333 -8.33008 -58.835 -24.9971 -82.502s-41.334 -50.5 -74.001 -80.5c-33.333 -31.333 -58.5 -59 -75.5 -83s-25.5 -52 -25.5 -84c0 -44 14.333 -77.5 43 -100.5s66 -34.5 112 -34.5c37.333 0 68 7.83301 92 23.5s41.333 35.334 52 59.001s16 47.834 16 72.501v3h69
v-4c0 -40.667 -9.33301 -77.667 -28 -111s-45.334 -59.666 -80.001 -78.999s-75.334 -29 -122.001 -29c-44.667 0 -84 8.66699 -118 26s-60.167 41 -78.5 71s-27.5 63.667 -27.5 101c0 27.333 5.33301 52.333 16 75s23.5 42.667 38.5 60s34.833 37.666 59.5 60.999
c30 28 52.167 51.667 66.5 71s21.5 41 21.5 65v7h68v-7z" />
    <glyph glyph-name="Agrave" unicode="&#xc0;" horiz-adv-x="682" 
d="M492 214h-301l-80 -214h-70l266 700h67l269 -700h-70zM471 271l-129 340h-4l-126 -340h259zM191 944h76l98 -174h-56z" />
    <glyph glyph-name="Aacute" unicode="&#xc1;" horiz-adv-x="682" 
d="M492 214h-301l-80 -214h-70l266 700h67l269 -700h-70zM471 271l-129 340h-4l-126 -340h259zM314 770l98 174h76l-118 -174h-56z" />
    <glyph glyph-name="Acircumflex" unicode="&#xc2;" horiz-adv-x="682" 
d="M492 214h-301l-80 -214h-70l266 700h67l269 -700h-70zM471 271l-129 340h-4l-126 -340h259zM308 909h65l128 -141h-73l-86 94h-4l-86 -94h-72z" />
    <glyph glyph-name="Atilde" unicode="&#xc3;" horiz-adv-x="682" 
d="M492 214h-301l-80 -214h-70l266 700h67l269 -700h-70zM471 271l-129 340h-4l-126 -340h259zM221 868.5c12.667 21 33.667 31.5 63 31.5c12.667 0 23.667 -2.66699 33 -8s21 -13.333 35 -24c10 -8 18.167 -13.833 24.5 -17.5s13.166 -5.5 20.499 -5.5
c23.333 0 35 18.333 35 55h45c1.33301 -26.667 -4.33398 -50.5 -17.001 -71.5s-33.667 -31.5 -63 -31.5c-12.667 0 -24.167 2.66699 -34.5 8s-21.833 13 -34.5 23c-10 8 -18.167 13.833 -24.5 17.5s-13.166 5.5 -20.499 5.5c-12.667 0 -21.667 -5.16699 -27 -15.5
s-7.66602 -23.5 -6.99902 -39.5h-46c-0.666992 27.333 5.33301 51.5 18 72.5z" />
    <glyph glyph-name="Adieresis" unicode="&#xc4;" horiz-adv-x="682" 
d="M492 214h-301l-80 -214h-70l266 700h67l269 -700h-70zM471 271l-129 340h-4l-126 -340h259zM394 814.5c-9.33301 9.66699 -14 21.5 -14 35.5c0 13.333 4.66699 24.833 14 34.5s21 14.5 35 14.5s25.667 -4.83301 35 -14.5s14 -21.167 14 -34.5
c0 -14 -4.66699 -25.833 -14 -35.5s-21 -14.5 -35 -14.5s-25.667 4.83301 -35 14.5zM216 814.5c-9.33301 9.66699 -14 21.5 -14 35.5c0 13.333 4.66699 24.833 14 34.5s21 14.5 35 14.5s25.667 -4.83301 35 -14.5s14 -21.167 14 -34.5c0 -14 -4.66699 -25.833 -14 -35.5
s-21 -14.5 -35 -14.5s-25.667 4.83301 -35 14.5z" />
    <glyph glyph-name="Aring" unicode="&#xc5;" horiz-adv-x="682" 
d="M492 214h-301l-80 -214h-70l266 700h67l269 -700h-70zM471 271l-129 340h-4l-126 -340h259zM280.5 815c-16.333 16.667 -24.5 36.334 -24.5 59.001s8.16699 42.167 24.5 58.5s35.833 24.5 58.5 24.5s42.334 -8.16699 59.001 -24.5s25 -35.833 25 -58.5
s-8.33301 -42.334 -25 -59.001s-36.334 -25 -59.001 -25s-42.167 8.33301 -58.5 25zM373.5 839.5c9.66699 9.66699 14.5 21.167 14.5 34.5s-4.83301 24.666 -14.5 33.999s-21.167 14 -34.5 14s-24.666 -4.66699 -33.999 -14s-14 -20.666 -14 -33.999
s4.66699 -24.833 14 -34.5s20.666 -14.5 33.999 -14.5s24.833 4.83301 34.5 14.5z" />
    <glyph glyph-name="AE" unicode="&#xc6;" horiz-adv-x="953" 
d="M533 637v-250h312v-58h-312v-266h352v-63h-422v214h-243l-119 -214h-76l384 700h476v-63h-352zM463 271v366h-8l-203 -366h211z" />
    <glyph glyph-name="Ccedilla" unicode="&#xc7;" horiz-adv-x="716" 
d="M510.5 100.5c38.333 28.333 66.167 66.832 83.5 115.499h70c-18 -62.667 -49.5 -113.667 -94.5 -153s-100.167 -62 -165.5 -68l-18 -53h29c32 0 56 -8 72 -24s24 -36.333 24 -61c0 -27.333 -10 -51.166 -30 -71.499s-49 -30.5 -87 -30.5c-18.667 0 -36.667 2.66699 -54 8
l2 43c16 -4 33.667 -6 53 -6c23.333 0 41.333 5.16699 54 15.5s19 23.833 19 40.5c0 18.667 -6.33301 31 -19 37s-25.667 9 -39 9h-81v4l29 88c-62 2 -115.5 18.667 -160.5 50s-79.333 73.833 -103 127.5s-35.5 114.5 -35.5 182.5c0 70.667 12.5 133.167 37.5 187.5
s61 96.833 108 127.5s102.833 46 167.5 46c78 0 142.833 -21.667 194.5 -65s86.167 -102.333 103.5 -177h-68c-15.333 54.667 -43.166 98.167 -83.499 130.5s-88.833 48.5 -145.5 48.5c-77.333 0 -136.833 -26.667 -178.5 -80s-62.5 -125.666 -62.5 -216.999
c0 -90.667 20.833 -162.834 62.5 -216.501s101.167 -80.5 178.5 -80.5c53.333 0 99.166 14.167 137.499 42.5z" />
    <glyph glyph-name="Egrave" unicode="&#xc8;" horiz-adv-x="570" 
d="M150 637v-250h312v-58h-312v-266h352v-63h-421v700h421v-63h-352zM142 944h76l98 -174h-56z" />
    <glyph glyph-name="Eacute" unicode="&#xc9;" horiz-adv-x="570" 
d="M150 637v-250h312v-58h-312v-266h352v-63h-421v700h421v-63h-352zM265 770l98 174h76l-118 -174h-56z" />
    <glyph glyph-name="Ecircumflex" unicode="&#xca;" horiz-adv-x="570" 
d="M150 637v-250h312v-58h-312v-266h352v-63h-421v700h421v-63h-352zM258 909h65l128 -141h-73l-86 94h-4l-86 -94h-72z" />
    <glyph glyph-name="Edieresis" unicode="&#xcb;" horiz-adv-x="570" 
d="M150 637v-250h312v-58h-312v-266h352v-63h-421v700h421v-63h-352zM345 814.5c-9.33301 9.66699 -14 21.5 -14 35.5c0 13.333 4.66699 24.833 14 34.5s21 14.5 35 14.5s25.667 -4.83301 35 -14.5s14 -21.167 14 -34.5c0 -14 -4.66699 -25.833 -14 -35.5
s-21 -14.5 -35 -14.5s-25.667 4.83301 -35 14.5zM167 814.5c-9.33301 9.66699 -14 21.5 -14 35.5c0 13.333 4.66699 24.833 14 34.5s21 14.5 35 14.5s25.667 -4.83301 35 -14.5s14 -21.167 14 -34.5c0 -14 -4.66699 -25.833 -14 -35.5s-21 -14.5 -35 -14.5
s-25.667 4.83301 -35 14.5z" />
    <glyph glyph-name="Igrave" unicode="&#xcc;" horiz-adv-x="235" 
d="M83 700h70v-700h-70v700zM-31 944h76l98 -174h-56z" />
    <glyph glyph-name="Iacute" unicode="&#xcd;" horiz-adv-x="235" 
d="M83 700h70v-700h-70v700zM93 770l98 174h76l-118 -174h-56z" />
    <glyph glyph-name="Icircumflex" unicode="&#xce;" horiz-adv-x="235" 
d="M83 700h70v-700h-70v700zM86 909h65l128 -141h-73l-86 94h-4l-86 -94h-72z" />
    <glyph glyph-name="Idieresis" unicode="&#xcf;" horiz-adv-x="235" 
d="M83 700h70v-700h-70v700zM173 814.5c-9.33301 9.66699 -14 21.5 -14 35.5c0 13.333 4.66699 24.833 14 34.5s21 14.5 35 14.5s25.667 -4.83301 35 -14.5s14 -21.167 14 -34.5c0 -14 -4.66699 -25.833 -14 -35.5s-21 -14.5 -35 -14.5s-25.667 4.83301 -35 14.5zM-5 814.5
c-9.33301 9.66699 -14 21.5 -14 35.5c0 13.333 4.66699 24.833 14 34.5s21 14.5 35 14.5s25.667 -4.83301 35 -14.5s14 -21.167 14 -34.5c0 -14 -4.66699 -25.833 -14 -35.5s-21 -14.5 -35 -14.5s-25.667 4.83301 -35 14.5z" />
    <glyph glyph-name="Eth" unicode="&#xd0;" horiz-adv-x="716" 
d="M579 608.5c61.333 -61 92.001 -147.167 92.001 -258.5c0 -112 -30.833 -198.5 -92.5 -259.5s-147.834 -91.5 -258.501 -91.5h-212v333h-58v49h58v319h213c110.667 0 196.667 -30.5 258 -91.5zM434.501 78.5c40.333 10.333 77.833 36.668 112.5 79.001s52 106.5 52 192.5
s-17.333 150.167 -52 192.5s-72.167 68.666 -112.5 78.999s-81.166 15.5 -122.499 15.5h-137v-256h145v-49h-145v-269h137c41.333 0 82.166 5.16699 122.499 15.5z" />
    <glyph glyph-name="Ntilde" unicode="&#xd1;" horiz-adv-x="714" 
d="M80 700h77l405 -587h3v587h69v-700h-77l-404 582h-4v-582h-69v700zM238 868.5c12.667 21 33.667 31.5 63 31.5c12.667 0 23.667 -2.66699 33 -8s21 -13.333 35 -24c10 -8 18.167 -13.833 24.5 -17.5s13.166 -5.5 20.499 -5.5c23.333 0 35 18.333 35 55h45
c1.33301 -26.667 -4.33398 -50.5 -17.001 -71.5s-33.667 -31.5 -63 -31.5c-12.667 0 -24.167 2.66699 -34.5 8s-21.833 13 -34.5 23c-10 8 -18.167 13.833 -24.5 17.5s-13.166 5.5 -20.499 5.5c-12.667 0 -21.667 -5.16699 -27 -15.5s-7.66602 -23.5 -6.99902 -39.5h-46
c-0.666992 27.333 5.33301 51.5 18 72.5z" />
    <glyph glyph-name="Ograve" unicode="&#xd2;" horiz-adv-x="739" 
d="M200 39.5c-47.333 30.333 -83.334 72.665 -108.001 126.998s-37 116.5 -37 186.5c0 70.667 12.5 133.334 37.5 188.001s61 97.334 108 128.001s103.167 46 168.5 46s121.5 -15.167 168.5 -45.5s83 -72.833 108 -127.5s37.5 -117.667 37.5 -189
c0 -70.667 -12.5 -133 -37.5 -187s-61 -96.167 -108 -126.5s-103.167 -45.5 -168.5 -45.5s-121.666 15.167 -168.999 45.5zM497.499 95.999c36.333 24.667 64.333 59.333 84 104s29.5 96.334 29.5 155.001c0 58 -9.83301 109.333 -29.5 154s-47.667 79.5 -84 104.5
s-79.166 37.5 -128.499 37.5s-92.166 -12.5 -128.499 -37.5s-64.333 -60 -84 -105s-29.5 -96.5 -29.5 -154.5s9.83301 -109.333 29.5 -154s47.667 -79.334 84 -104.001s79.166 -37 128.499 -37s92.166 12.333 128.499 37zM220.999 943.998h76l98 -174h-56z" />
    <glyph glyph-name="Oacute" unicode="&#xd3;" horiz-adv-x="739" 
d="M200 39.5c-47.333 30.333 -83.334 72.665 -108.001 126.998s-37 116.5 -37 186.5c0 70.667 12.5 133.334 37.5 188.001s61 97.334 108 128.001s103.167 46 168.5 46s121.5 -15.167 168.5 -45.5s83 -72.833 108 -127.5s37.5 -117.667 37.5 -189
c0 -70.667 -12.5 -133 -37.5 -187s-61 -96.167 -108 -126.5s-103.167 -45.5 -168.5 -45.5s-121.666 15.167 -168.999 45.5zM497.499 95.999c36.333 24.667 64.333 59.333 84 104s29.5 96.334 29.5 155.001c0 58 -9.83301 109.333 -29.5 154s-47.667 79.5 -84 104.5
s-79.166 37.5 -128.499 37.5s-92.166 -12.5 -128.499 -37.5s-64.333 -60 -84 -105s-29.5 -96.5 -29.5 -154.5s9.83301 -109.333 29.5 -154s47.667 -79.334 84 -104.001s79.166 -37 128.499 -37s92.166 12.333 128.499 37zM343.999 769.998l98 174h76l-118 -174h-56z" />
    <glyph glyph-name="Ocircumflex" unicode="&#xd4;" horiz-adv-x="739" 
d="M200 39.5c-47.333 30.333 -83.334 72.665 -108.001 126.998s-37 116.5 -37 186.5c0 70.667 12.5 133.334 37.5 188.001s61 97.334 108 128.001s103.167 46 168.5 46s121.5 -15.167 168.5 -45.5s83 -72.833 108 -127.5s37.5 -117.667 37.5 -189
c0 -70.667 -12.5 -133 -37.5 -187s-61 -96.167 -108 -126.5s-103.167 -45.5 -168.5 -45.5s-121.666 15.167 -168.999 45.5zM497.499 95.999c36.333 24.667 64.333 59.333 84 104s29.5 96.334 29.5 155.001c0 58 -9.83301 109.333 -29.5 154s-47.667 79.5 -84 104.5
s-79.166 37.5 -128.499 37.5s-92.166 -12.5 -128.499 -37.5s-64.333 -60 -84 -105s-29.5 -96.5 -29.5 -154.5s9.83301 -109.333 29.5 -154s47.667 -79.334 84 -104.001s79.166 -37 128.499 -37s92.166 12.333 128.499 37zM336.999 908.998h65l128 -141h-73l-86 94h-4
l-86 -94h-72z" />
    <glyph glyph-name="Otilde" unicode="&#xd5;" horiz-adv-x="739" 
d="M200 39.5c-47.333 30.333 -83.334 72.665 -108.001 126.998s-37 116.5 -37 186.5c0 70.667 12.5 133.334 37.5 188.001s61 97.334 108 128.001s103.167 46 168.5 46s121.5 -15.167 168.5 -45.5s83 -72.833 108 -127.5s37.5 -117.667 37.5 -189
c0 -70.667 -12.5 -133 -37.5 -187s-61 -96.167 -108 -126.5s-103.167 -45.5 -168.5 -45.5s-121.666 15.167 -168.999 45.5zM497.499 95.999c36.333 24.667 64.333 59.333 84 104s29.5 96.334 29.5 155.001c0 58 -9.83301 109.333 -29.5 154s-47.667 79.5 -84 104.5
s-79.166 37.5 -128.499 37.5s-92.166 -12.5 -128.499 -37.5s-64.333 -60 -84 -105s-29.5 -96.5 -29.5 -154.5s9.83301 -109.333 29.5 -154s47.667 -79.334 84 -104.001s79.166 -37 128.499 -37s92.166 12.333 128.499 37zM249.999 868.498c12.667 21 33.667 31.5 63 31.5
c12.667 0 23.667 -2.66699 33 -8s21 -13.333 35 -24c10 -8 18.167 -13.833 24.5 -17.5s13.166 -5.5 20.499 -5.5c23.333 0 35 18.333 35 55h45c1.33301 -26.667 -4.33398 -50.5 -17.001 -71.5s-33.667 -31.5 -63 -31.5c-12.667 0 -24.167 2.66699 -34.5 8
s-21.833 13 -34.5 23c-10 8 -18.167 13.833 -24.5 17.5s-13.166 5.5 -20.499 5.5c-12.667 0 -21.667 -5.16699 -27 -15.5s-7.66602 -23.5 -6.99902 -39.5h-46c-0.666992 27.333 5.33301 51.5 18 72.5z" />
    <glyph glyph-name="Odieresis" unicode="&#xd6;" horiz-adv-x="739" 
d="M200 39.5c-47.333 30.333 -83.334 72.665 -108.001 126.998s-37 116.5 -37 186.5c0 70.667 12.5 133.334 37.5 188.001s61 97.334 108 128.001s103.167 46 168.5 46s121.5 -15.167 168.5 -45.5s83 -72.833 108 -127.5s37.5 -117.667 37.5 -189
c0 -70.667 -12.5 -133 -37.5 -187s-61 -96.167 -108 -126.5s-103.167 -45.5 -168.5 -45.5s-121.666 15.167 -168.999 45.5zM497.499 95.999c36.333 24.667 64.333 59.333 84 104s29.5 96.334 29.5 155.001c0 58 -9.83301 109.333 -29.5 154s-47.667 79.5 -84 104.5
s-79.166 37.5 -128.499 37.5s-92.166 -12.5 -128.499 -37.5s-64.333 -60 -84 -105s-29.5 -96.5 -29.5 -154.5s9.83301 -109.333 29.5 -154s47.667 -79.334 84 -104.001s79.166 -37 128.499 -37s92.166 12.333 128.499 37zM423.999 814.498
c-9.33301 9.66699 -14 21.5 -14 35.5c0 13.333 4.66699 24.833 14 34.5s21 14.5 35 14.5s25.667 -4.83301 35 -14.5s14 -21.167 14 -34.5c0 -14 -4.66699 -25.833 -14 -35.5s-21 -14.5 -35 -14.5s-25.667 4.83301 -35 14.5zM245.999 814.498
c-9.33301 9.66699 -14 21.5 -14 35.5c0 13.333 4.66699 24.833 14 34.5s21 14.5 35 14.5s25.667 -4.83301 35 -14.5s14 -21.167 14 -34.5c0 -14 -4.66699 -25.833 -14 -35.5s-21 -14.5 -35 -14.5s-25.667 4.83301 -35 14.5z" />
    <glyph glyph-name="multiply" unicode="&#xd7;" horiz-adv-x="544" 
d="M387 154l-115 115l-115 -115l-43 44l115 115l-115 114l44 44l115 -114l113 113l44 -44l-114 -113l115 -115z" />
    <glyph glyph-name="Oslash" unicode="&#xd8;" horiz-adv-x="743" 
d="M659.5 512.5c17 -47.667 25.501 -100.835 25.501 -159.502c0 -70.667 -12.333 -133 -37 -187s-60.667 -96.167 -108 -126.5s-103.333 -45.5 -168 -45.5c-63.333 0 -119 14.667 -167 44l-52 -81h-67l74 116c-33.333 31.333 -58.833 71 -76.5 119s-26.5 101.667 -26.5 161
c0 70.667 12.5 133.334 37.5 188.001s61.167 97.334 108.5 128.001s103.666 46 168.999 46c64 0 120.667 -15.667 170 -47l48 75h67l-71 -111c32 -32 56.5 -71.833 73.5 -119.5zM147.001 229.499c12 -37.667 29.333 -69.5 52 -95.5l306 476
c-38.667 27.333 -83.334 41 -134.001 41c-49.333 0 -92.166 -12.5 -128.499 -37.5s-64.333 -60 -84 -105s-29.5 -96.5 -29.5 -154.5c0 -45.333 6 -86.833 18 -124.5zM499.501 95.999c36.333 24.667 64.333 59.332 84 103.999s29.5 96.334 29.5 155.001
c0 44 -5.66699 84.5 -17 121.5s-27.666 68.5 -48.999 94.5l-305 -475c37.333 -24.667 80.333 -37 129 -37c49.333 0 92.166 12.333 128.499 37z" />
    <glyph glyph-name="Ugrave" unicode="&#xd9;" horiz-adv-x="683" 
d="M137 75.5c-46 56.333 -69.002 134.166 -69.002 233.499v391h68v-391c0 -60 13.333 -117 40 -171s82.334 -81 167.001 -81c82.667 0 137.334 26.833 164.001 80.5s40 110.834 40 171.501v391h67v-391c0 -100 -22.833 -178 -68.5 -234s-113.167 -84 -202.5 -84
c-91.333 0 -160 28.167 -206 84.5zM193.998 944h76l98 -174h-56z" />
    <glyph glyph-name="Uacute" unicode="&#xda;" horiz-adv-x="683" 
d="M137 75.5c-46 56.333 -69.002 134.166 -69.002 233.499v391h68v-391c0 -60 13.333 -117 40 -171s82.334 -81 167.001 -81c82.667 0 137.334 26.833 164.001 80.5s40 110.834 40 171.501v391h67v-391c0 -100 -22.833 -178 -68.5 -234s-113.167 -84 -202.5 -84
c-91.333 0 -160 28.167 -206 84.5zM316.998 770l98 174h76l-118 -174h-56z" />
    <glyph glyph-name="Ucircumflex" unicode="&#xdb;" horiz-adv-x="683" 
d="M137 75.5c-46 56.333 -69.002 134.166 -69.002 233.499v391h68v-391c0 -60 13.333 -117 40 -171s82.334 -81 167.001 -81c82.667 0 137.334 26.833 164.001 80.5s40 110.834 40 171.501v391h67v-391c0 -100 -22.833 -178 -68.5 -234s-113.167 -84 -202.5 -84
c-91.333 0 -160 28.167 -206 84.5zM310.998 909h65l128 -141h-73l-86 94h-4l-86 -94h-72z" />
    <glyph glyph-name="Udieresis" unicode="&#xdc;" horiz-adv-x="683" 
d="M137 75.5c-46 56.333 -69.002 134.166 -69.002 233.499v391h68v-391c0 -60 13.333 -117 40 -171s82.334 -81 167.001 -81c82.667 0 137.334 26.833 164.001 80.5s40 110.834 40 171.501v391h67v-391c0 -100 -22.833 -178 -68.5 -234s-113.167 -84 -202.5 -84
c-91.333 0 -160 28.167 -206 84.5zM396.998 814.5c-9.33301 9.66699 -14 21.5 -14 35.5c0 13.333 4.66699 24.833 14 34.5s21 14.5 35 14.5s25.667 -4.83301 35 -14.5s14 -21.167 14 -34.5c0 -14 -4.66699 -25.833 -14 -35.5s-21 -14.5 -35 -14.5s-25.667 4.83301 -35 14.5z
M218.998 814.5c-9.33301 9.66699 -14 21.5 -14 35.5c0 13.333 4.66699 24.833 14 34.5s21 14.5 35 14.5s25.667 -4.83301 35 -14.5s14 -21.167 14 -34.5c0 -14 -4.66699 -25.833 -14 -35.5s-21 -14.5 -35 -14.5s-25.667 4.83301 -35 14.5z" />
    <glyph glyph-name="Yacute" unicode="&#xdd;" horiz-adv-x="605" 
d="M265 -1v258l-228 443h77l182 -361h8l179 361h78l-227 -443v-257zM274 770l98 174h76l-118 -174h-56z" />
    <glyph glyph-name="Thorn" unicode="&#xde;" horiz-adv-x="590" 
d="M451 542c36 -22.667 61.667 -51.168 77 -85.501s23 -70.166 23 -107.499s-7.66699 -72.833 -23 -106.5s-40.833 -61.667 -76.5 -84s-82.5 -33.5 -140.5 -33.5h-164v-125h-67v700h67v-124h164c57.333 0 104 -11.333 140 -34zM432 222.499
c34.667 25 51.998 67.167 51.998 126.5c0 60 -17.167 102.167 -51.5 126.5s-77.166 36.5 -128.499 36.5h-157v-327h157c50.667 0 93.334 12.5 128.001 37.5z" />
    <glyph glyph-name="germandbls" unicode="&#xdf;" horiz-adv-x="560" 
d="M193 628c-20 -19.333 -32.334 -40.3301 -37.001 -62.9971s-7 -47 -7 -73v-495h-69v491c0 59.333 13.833 112.166 41.5 158.499s80.834 69.5 159.501 69.5c68.667 0 120 -17.5 154 -52.5s51 -78.5 51 -130.5c0 -37.333 -8 -68 -24 -92s-33.333 -41.333 -52 -52
s-31.667 -16 -39 -16v-6c7.33301 0 21.833 -5.33301 43.5 -16s42 -28.834 61 -54.501s28.5 -59.834 28.5 -102.501c0 -37.333 -8.33301 -71.333 -25 -102s-41.5 -55 -74.5 -73s-72.5 -27 -118.5 -27c-24.667 0 -44.334 2 -59.001 6v59c14.667 -2.66699 31.334 -4 50.001 -4
c50.667 0 90.667 13 120 39s44 62 44 108c0 50.667 -16.667 87.167 -50 109.5s-74 33.5 -122 33.5h-59v55h60c40.667 0 76.167 10 106.5 30s45.5 53.333 45.5 100c0 42 -12.5 74 -37.5 96s-58.167 33 -99.5 33s-72 -9.66699 -92 -29z" />
    <glyph glyph-name="agrave" unicode="&#xe0;" horiz-adv-x="621" 
d="M154.5 30c-33.667 24 -59.334 56.668 -77.001 98.001s-26.5 87.666 -26.5 138.999c0 52 8.83301 98.833 26.5 140.5s43.667 74.5 78 98.5s75.5 36 123.5 36c47.333 0 85.833 -11.5 115.5 -34.5s52.5 -50.833 68.5 -83.5h7v102h69v-526h-69v114h-7
c-17.333 -34 -41.166 -62.5 -71.499 -85.5s-69.166 -34.5 -116.499 -34.5c-46.667 0 -86.834 12 -120.501 36zM422.5 115.501c29.667 40.333 44.5 91.166 44.5 152.499s-14.833 112 -44.5 152s-72.5 60 -128.5 60c-56.667 0 -99.5 -20.167 -128.5 -60.5
s-43.5 -90.833 -43.5 -151.5c0 -61.333 14.667 -112.166 44 -152.499s72 -60.5 128 -60.5s98.833 20.167 128.5 60.5zM157 770.001h76l98 -174h-56z" />
    <glyph glyph-name="aacute" unicode="&#xe1;" horiz-adv-x="621" 
d="M154.5 30c-33.667 24 -59.334 56.668 -77.001 98.001s-26.5 87.666 -26.5 138.999c0 52 8.83301 98.833 26.5 140.5s43.667 74.5 78 98.5s75.5 36 123.5 36c47.333 0 85.833 -11.5 115.5 -34.5s52.5 -50.833 68.5 -83.5h7v102h69v-526h-69v114h-7
c-17.333 -34 -41.166 -62.5 -71.499 -85.5s-69.166 -34.5 -116.499 -34.5c-46.667 0 -86.834 12 -120.501 36zM422.5 115.501c29.667 40.333 44.5 91.166 44.5 152.499s-14.833 112 -44.5 152s-72.5 60 -128.5 60c-56.667 0 -99.5 -20.167 -128.5 -60.5
s-43.5 -90.833 -43.5 -151.5c0 -61.333 14.667 -112.166 44 -152.499s72 -60.5 128 -60.5s98.833 20.167 128.5 60.5zM280 596.001l98 174h76l-118 -174h-56z" />
    <glyph glyph-name="acircumflex" unicode="&#xe2;" horiz-adv-x="621" 
d="M154.5 30c-33.667 24 -59.334 56.668 -77.001 98.001s-26.5 87.666 -26.5 138.999c0 52 8.83301 98.833 26.5 140.5s43.667 74.5 78 98.5s75.5 36 123.5 36c47.333 0 85.833 -11.5 115.5 -34.5s52.5 -50.833 68.5 -83.5h7v102h69v-526h-69v114h-7
c-17.333 -34 -41.166 -62.5 -71.499 -85.5s-69.166 -34.5 -116.499 -34.5c-46.667 0 -86.834 12 -120.501 36zM422.5 115.501c29.667 40.333 44.5 91.166 44.5 152.499s-14.833 112 -44.5 152s-72.5 60 -128.5 60c-56.667 0 -99.5 -20.167 -128.5 -60.5
s-43.5 -90.833 -43.5 -151.5c0 -61.333 14.667 -112.166 44 -152.499s72 -60.5 128 -60.5s98.833 20.167 128.5 60.5zM274 735.001h65l128 -141h-73l-86 94h-4l-86 -94h-72z" />
    <glyph glyph-name="atilde" unicode="&#xe3;" horiz-adv-x="621" 
d="M154.5 30c-33.667 24 -59.334 56.668 -77.001 98.001s-26.5 87.666 -26.5 138.999c0 52 8.83301 98.833 26.5 140.5s43.667 74.5 78 98.5s75.5 36 123.5 36c47.333 0 85.833 -11.5 115.5 -34.5s52.5 -50.833 68.5 -83.5h7v102h69v-526h-69v114h-7
c-17.333 -34 -41.166 -62.5 -71.499 -85.5s-69.166 -34.5 -116.499 -34.5c-46.667 0 -86.834 12 -120.501 36zM422.5 115.501c29.667 40.333 44.5 91.166 44.5 152.499s-14.833 112 -44.5 152s-72.5 60 -128.5 60c-56.667 0 -99.5 -20.167 -128.5 -60.5
s-43.5 -90.833 -43.5 -151.5c0 -61.333 14.667 -112.166 44 -152.499s72 -60.5 128 -60.5s98.833 20.167 128.5 60.5zM186 694.501c12.667 21 33.667 31.5 63 31.5c12.667 0 23.667 -2.66699 33 -8s21 -13.333 35 -24c10 -8 18.167 -13.833 24.5 -17.5
s13.166 -5.5 20.499 -5.5c23.333 0 35 18.333 35 55h45c1.33301 -26.667 -4.33398 -50.5 -17.001 -71.5s-33.667 -31.5 -63 -31.5c-12.667 0 -24.167 2.66699 -34.5 8s-21.833 13 -34.5 23c-10 8 -18.167 13.833 -24.5 17.5s-13.166 5.5 -20.499 5.5
c-12.667 0 -21.667 -5.16699 -27 -15.5s-7.66602 -23.5 -6.99902 -39.5h-46c-0.666992 27.333 5.33301 51.5 18 72.5z" />
    <glyph glyph-name="adieresis" unicode="&#xe4;" horiz-adv-x="621" 
d="M154.5 30c-33.667 24 -59.334 56.668 -77.001 98.001s-26.5 87.666 -26.5 138.999c0 52 8.83301 98.833 26.5 140.5s43.667 74.5 78 98.5s75.5 36 123.5 36c47.333 0 85.833 -11.5 115.5 -34.5s52.5 -50.833 68.5 -83.5h7v102h69v-526h-69v114h-7
c-17.333 -34 -41.166 -62.5 -71.499 -85.5s-69.166 -34.5 -116.499 -34.5c-46.667 0 -86.834 12 -120.501 36zM422.5 115.501c29.667 40.333 44.5 91.166 44.5 152.499s-14.833 112 -44.5 152s-72.5 60 -128.5 60c-56.667 0 -99.5 -20.167 -128.5 -60.5
s-43.5 -90.833 -43.5 -151.5c0 -61.333 14.667 -112.166 44 -152.499s72 -60.5 128 -60.5s98.833 20.167 128.5 60.5zM360 640.501c-9.33301 9.66699 -14 21.5 -14 35.5c0 13.333 4.66699 24.833 14 34.5s21 14.5 35 14.5s25.667 -4.83301 35 -14.5s14 -21.167 14 -34.5
c0 -14 -4.66699 -25.833 -14 -35.5s-21 -14.5 -35 -14.5s-25.667 4.83301 -35 14.5zM182 640.501c-9.33301 9.66699 -14 21.5 -14 35.5c0 13.333 4.66699 24.833 14 34.5s21 14.5 35 14.5s25.667 -4.83301 35 -14.5s14 -21.167 14 -34.5c0 -14 -4.66699 -25.833 -14 -35.5
s-21 -14.5 -35 -14.5s-25.667 4.83301 -35 14.5z" />
    <glyph glyph-name="aring" unicode="&#xe5;" horiz-adv-x="621" 
d="M154.5 30c-33.667 24 -59.334 56.668 -77.001 98.001s-26.5 87.666 -26.5 138.999c0 52 8.83301 98.833 26.5 140.5s43.667 74.5 78 98.5s75.5 36 123.5 36c47.333 0 85.833 -11.5 115.5 -34.5s52.5 -50.833 68.5 -83.5h7v102h69v-526h-69v114h-7
c-17.333 -34 -41.166 -62.5 -71.499 -85.5s-69.166 -34.5 -116.499 -34.5c-46.667 0 -86.834 12 -120.501 36zM422.5 115.501c29.667 40.333 44.5 91.166 44.5 152.499s-14.833 112 -44.5 152s-72.5 60 -128.5 60c-56.667 0 -99.5 -20.167 -128.5 -60.5
s-43.5 -90.833 -43.5 -151.5c0 -61.333 14.667 -112.166 44 -152.499s72 -60.5 128 -60.5s98.833 20.167 128.5 60.5zM246.5 641.001c-16.333 16.667 -24.5 36.334 -24.5 59.001s8.16699 42.167 24.5 58.5s35.833 24.5 58.5 24.5s42.334 -8.16699 59.001 -24.5
s25 -35.833 25 -58.5s-8.33301 -42.334 -25 -59.001s-36.334 -25 -59.001 -25s-42.167 8.33301 -58.5 25zM339.5 665.501c9.66699 9.66699 14.5 21.167 14.5 34.5s-4.83301 24.666 -14.5 33.999s-21.167 14 -34.5 14s-24.666 -4.66699 -33.999 -14s-14 -20.666 -14 -33.999
s4.66699 -24.833 14 -34.5s20.666 -14.5 33.999 -14.5s24.833 4.83301 34.5 14.5z" />
    <glyph glyph-name="ae" unicode="&#xe6;" horiz-adv-x="951" 
d="M104 36.5c-33.333 28.333 -50.001 66.165 -50.001 113.498c0 95.333 74.333 144 223 146h141v45c0 31.333 -10.167 62.333 -30.5 93s-57.833 46 -112.5 46c-43.333 0 -76.666 -10.167 -99.999 -30.5s-38 -44.5 -44 -72.5h-66c8.66699 46 31 84.333 67 115s83 46 141 46
c47.333 0 87 -11 119 -33s54 -54.333 66 -97h5c18 42 44.5 74.833 79.5 98.5s76.167 35.5 123.5 35.5c62.667 0 111.167 -16.833 145.5 -50.5s57 -71.167 68 -112.5s16.5 -79 16.5 -113v-19h-407v-8c0 -33.333 7.5 -64.166 22.5 -92.499s35.667 -51 62 -68
s56.5 -25.5 90.5 -25.5c37.333 0 69.5 9.5 96.5 28.5s46.833 44.833 59.5 77.5h68c-14 -47.333 -39.667 -86.666 -77 -117.999s-86 -47 -146 -47c-51.333 0 -95 12.5 -131 37.5s-62.333 58.167 -79 99.5h-5c-18 -44.667 -46.167 -78.667 -84.5 -102s-81.5 -35 -129.5 -35
c-54.667 0 -98.667 14.167 -132 42.5zM826.999 295.999c-2.66699 66 -18.667 113.499 -48 142.499s-67.333 43.5 -114 43.5c-52 0 -93.5 -17.167 -124.5 -51.5s-47.5 -79.166 -49.5 -134.499h336zM338.499 72.998c25.667 14 45.168 32.168 58.501 54.501s20 45.833 20 70.5
v49h-137c-42.667 0 -79.334 -5.83301 -110.001 -17.5s-46 -37.834 -46 -78.501c0 -32 11 -56.5 33 -73.5s52 -25.5 90 -25.5c35.333 0 65.833 7 91.5 21z" />
    <glyph glyph-name="ccedilla" unicode="&#xe7;" horiz-adv-x="577" 
d="M412 92.5c27.333 25.667 44.334 59.499 51.001 101.499h67c-6.66699 -52 -27.334 -97 -62.001 -135s-81.667 -59.667 -141 -65l-19 -55h29c32 0 56 -8 72 -24s24 -36.333 24 -61c0 -27.333 -10 -51.166 -30 -71.499s-49 -30.5 -87 -30.5c-18.667 0 -36.667 2.66699 -54 8
l2 43c16 -4 33.667 -6 53 -6c23.333 0 41.333 5.16699 54 15.5s19 23.833 19 40.5c0 18.667 -6.33301 31 -19 37s-25.667 9 -39 9h-81v4l30 91c-50 3.33301 -92 18.333 -126 45s-59.167 60.167 -75.5 100.5s-24.5 83.166 -24.5 128.499c0 46.667 9 90.834 27 132.501
s45.5 75.667 82.5 102s82.833 39.5 137.5 39.5c46 0 85.333 -9.33301 118 -28s58 -43.334 76 -74.001s29.333 -63.667 34 -99h-67c-6.66699 41.333 -23.667 75 -51 101s-64 39 -110 39c-57.333 0 -101.166 -20.167 -131.499 -60.5s-45.5 -91.166 -45.5 -152.499
c0 -62 15.167 -113.167 45.5 -153.5s74.166 -60.5 131.499 -60.5c46 0 82.667 12.833 110 38.5z" />
    <glyph glyph-name="egrave" unicode="&#xe8;" horiz-adv-x="585" 
d="M164 33c-36.667 26 -64.001 59.998 -82.001 101.998s-27 86.333 -27 133s9 91 27 133s45.333 76 82 102s81.667 39 135 39c70 0 126 -23.667 168 -71s63 -115.666 63 -204.999v-19h-406v-7c0 -32 7.16699 -62.5 21.5 -91.5s34.833 -52.167 61.5 -69.5s57 -26 91 -26
c37.333 0 69.333 9.5 96 28.5s46.667 44.833 60 77.5h68c-14.667 -47.333 -40.667 -86.666 -78 -117.999s-85.666 -47 -144.999 -47c-53.333 0 -98.333 13 -135 39zM460.999 297.998c-2.66699 66 -18.667 113.667 -48 143s-67.333 44 -114 44
c-52 0 -93.167 -17.333 -123.5 -52s-46.833 -79.667 -49.5 -135h335zM150.999 769.998h76l98 -174h-56z" />
    <glyph glyph-name="eacute" unicode="&#xe9;" horiz-adv-x="585" 
d="M164 33c-36.667 26 -64.001 59.998 -82.001 101.998s-27 86.333 -27 133s9 91 27 133s45.333 76 82 102s81.667 39 135 39c70 0 126 -23.667 168 -71s63 -115.666 63 -204.999v-19h-406v-7c0 -32 7.16699 -62.5 21.5 -91.5s34.833 -52.167 61.5 -69.5s57 -26 91 -26
c37.333 0 69.333 9.5 96 28.5s46.667 44.833 60 77.5h68c-14.667 -47.333 -40.667 -86.666 -78 -117.999s-85.666 -47 -144.999 -47c-53.333 0 -98.333 13 -135 39zM460.999 297.998c-2.66699 66 -18.667 113.667 -48 143s-67.333 44 -114 44
c-52 0 -93.167 -17.333 -123.5 -52s-46.833 -79.667 -49.5 -135h335zM273.999 595.998l98 174h76l-118 -174h-56z" />
    <glyph glyph-name="ecircumflex" unicode="&#xea;" horiz-adv-x="585" 
d="M164 33c-36.667 26 -64.001 59.998 -82.001 101.998s-27 86.333 -27 133s9 91 27 133s45.333 76 82 102s81.667 39 135 39c70 0 126 -23.667 168 -71s63 -115.666 63 -204.999v-19h-406v-7c0 -32 7.16699 -62.5 21.5 -91.5s34.833 -52.167 61.5 -69.5s57 -26 91 -26
c37.333 0 69.333 9.5 96 28.5s46.667 44.833 60 77.5h68c-14.667 -47.333 -40.667 -86.666 -78 -117.999s-85.666 -47 -144.999 -47c-53.333 0 -98.333 13 -135 39zM460.999 297.998c-2.66699 66 -18.667 113.667 -48 143s-67.333 44 -114 44
c-52 0 -93.167 -17.333 -123.5 -52s-46.833 -79.667 -49.5 -135h335zM266.999 734.998h65l128 -141h-73l-86 94h-4l-86 -94h-72z" />
    <glyph glyph-name="edieresis" unicode="&#xeb;" horiz-adv-x="585" 
d="M164 33c-36.667 26 -64.001 59.998 -82.001 101.998s-27 86.333 -27 133s9 91 27 133s45.333 76 82 102s81.667 39 135 39c70 0 126 -23.667 168 -71s63 -115.666 63 -204.999v-19h-406v-7c0 -32 7.16699 -62.5 21.5 -91.5s34.833 -52.167 61.5 -69.5s57 -26 91 -26
c37.333 0 69.333 9.5 96 28.5s46.667 44.833 60 77.5h68c-14.667 -47.333 -40.667 -86.666 -78 -117.999s-85.666 -47 -144.999 -47c-53.333 0 -98.333 13 -135 39zM460.999 297.998c-2.66699 66 -18.667 113.667 -48 143s-67.333 44 -114 44
c-52 0 -93.167 -17.333 -123.5 -52s-46.833 -79.667 -49.5 -135h335zM353.999 640.498c-9.33301 9.66699 -14 21.5 -14 35.5c0 13.333 4.66699 24.833 14 34.5s21 14.5 35 14.5s25.667 -4.83301 35 -14.5s14 -21.167 14 -34.5c0 -14 -4.66699 -25.833 -14 -35.5
s-21 -14.5 -35 -14.5s-25.667 4.83301 -35 14.5zM175.999 640.498c-9.33301 9.66699 -14 21.5 -14 35.5c0 13.333 4.66699 24.833 14 34.5s21 14.5 35 14.5s25.667 -4.83301 35 -14.5s14 -21.167 14 -34.5c0 -14 -4.66699 -25.833 -14 -35.5s-21 -14.5 -35 -14.5
s-25.667 4.83301 -35 14.5z" />
    <glyph glyph-name="igrave" unicode="&#xec;" horiz-adv-x="239" 
d="M85 526h69v-526h-69v526zM-29 770h76l98 -174h-56z" />
    <glyph glyph-name="iacute" unicode="&#xed;" horiz-adv-x="239" 
d="M85 526h69v-526h-69v526zM94 596l98 174h76l-118 -174h-56z" />
    <glyph glyph-name="icircumflex" unicode="&#xee;" horiz-adv-x="239" 
d="M85 526h69v-526h-69v526zM87 735h65l128 -141h-73l-86 94h-4l-86 -94h-72z" />
    <glyph glyph-name="idieresis" unicode="&#xef;" horiz-adv-x="239" 
d="M85 526h69v-526h-69v526zM174 640.5c-9.33301 9.66699 -14 21.5 -14 35.5c0 13.333 4.66699 24.833 14 34.5s21 14.5 35 14.5s25.667 -4.83301 35 -14.5s14 -21.167 14 -34.5c0 -14 -4.66699 -25.833 -14 -35.5s-21 -14.5 -35 -14.5s-25.667 4.83301 -35 14.5zM-4 640.5
c-9.33301 9.66699 -14 21.5 -14 35.5c0 13.333 4.66699 24.833 14 34.5s21 14.5 35 14.5s25.667 -4.83301 35 -14.5s14 -21.167 14 -34.5c0 -14 -4.66699 -25.833 -14 -35.5s-21 -14.5 -35 -14.5s-25.667 4.83301 -35 14.5z" />
    <glyph glyph-name="eth" unicode="&#xf0;" horiz-adv-x="616" 
d="M534 433l-0.00195312 -161c0 -49.333 -9.33301 -95.166 -28 -137.499s-46.334 -76.333 -83.001 -102s-81 -38.5 -133 -38.5s-96.333 12.667 -133 38s-64.167 59.166 -82.5 101.499s-27.5 88.5 -27.5 138.5c0 49.333 9 94.333 27 135s44 73.167 78 97.5
s74.667 36.5 122 36.5c48.667 0 87.834 -11.167 117.501 -33.5s52.167 -49.5 67.5 -81.5h7v11c0 97.333 -26.667 172 -80 224l-95 -55l-23 38l81 46c-22.667 14 -45.167 23.833 -67.5 29.5s-39.833 8.5 -52.5 8.5v54c22.667 0 50.334 -4.16699 83.001 -12.5
s64.334 -23.5 95.001 -45.5l92 53l22 -38l-78 -45c60.667 -62 91 -149 91 -261zM418.998 115.5c30 40.333 45 91.168 45 152.501s-15 112.166 -45 152.499s-73 60.5 -129 60.5s-98.667 -20.333 -128 -61s-44 -91.667 -44 -153c0 -60.667 14.667 -111.167 44 -151.5
s72 -60.5 128 -60.5s99 20.167 129 60.5z" />
    <glyph glyph-name="ntilde" unicode="&#xf1;" 
d="M80 526h70v-99h7c14 32 36.5 59.167 67.5 81.5s68.833 33.5 113.5 33.5c44 0 81.333 -10.333 112 -31s53.667 -48.5 69 -83.5s23 -73.5 23 -115.5v-312h-68v305c0 56 -15 98.667 -45 128s-68.333 44 -115 44c-49.333 0 -89 -15.833 -119 -47.5s-45 -73.167 -45 -124.5
v-305h-70v526zM188 694.5c12.667 21 33.667 31.5 63 31.5c12.667 0 23.667 -2.66699 33 -8s21 -13.333 35 -24c10 -8 18.167 -13.833 24.5 -17.5s13.166 -5.5 20.499 -5.5c23.333 0 35 18.333 35 55h45c1.33301 -26.667 -4.33398 -50.5 -17.001 -71.5
s-33.667 -31.5 -63 -31.5c-12.667 0 -24.167 2.66699 -34.5 8s-21.833 13 -34.5 23c-10 8 -18.167 13.833 -24.5 17.5s-13.166 5.5 -20.499 5.5c-12.667 0 -21.667 -5.16699 -27 -15.5s-7.66602 -23.5 -6.99902 -39.5h-46c-0.666992 27.333 5.33301 51.5 18 72.5z" />
    <glyph glyph-name="ograve" unicode="&#xf2;" horiz-adv-x="598" 
d="M165 33c-36.667 26 -64.167 59.833 -82.5 101.5s-27.5 85.834 -27.5 132.501c0 47.333 9.16699 91.833 27.5 133.5s45.833 75.5 82.5 101.5s81.334 39 134.001 39s97.334 -13 134.001 -39s64.167 -59.833 82.5 -101.5s27.5 -85.834 27.5 -132.501
c0 -47.333 -9.16699 -91.833 -27.5 -133.5s-45.833 -75.5 -82.5 -101.5s-81.334 -39 -134.001 -39s-97.334 13 -134.001 39zM391.5 83.5c26.333 19 46.668 44.6689 61.001 77.002s21.5 68.166 21.5 107.499c0 40 -7 76.167 -21 108.5s-34.333 57.833 -61 76.5
s-57.667 28 -93 28s-66.333 -9.33301 -93 -28s-47 -44.334 -61 -77.001s-21 -68.667 -21 -108c0 -40 7 -76.167 21 -108.5s34.167 -57.833 60.5 -76.5s57.5 -28 93.5 -28c35.333 0 66.166 9.5 92.499 28.5zM150.002 770.002h76l98 -174h-56z" />
    <glyph glyph-name="oacute" unicode="&#xf3;" horiz-adv-x="598" 
d="M165 33c-36.667 26 -64.167 59.833 -82.5 101.5s-27.5 85.834 -27.5 132.501c0 47.333 9.16699 91.833 27.5 133.5s45.833 75.5 82.5 101.5s81.334 39 134.001 39s97.334 -13 134.001 -39s64.167 -59.833 82.5 -101.5s27.5 -85.834 27.5 -132.501
c0 -47.333 -9.16699 -91.833 -27.5 -133.5s-45.833 -75.5 -82.5 -101.5s-81.334 -39 -134.001 -39s-97.334 13 -134.001 39zM391.5 83.5c26.333 19 46.668 44.6689 61.001 77.002s21.5 68.166 21.5 107.499c0 40 -7 76.167 -21 108.5s-34.333 57.833 -61 76.5
s-57.667 28 -93 28s-66.333 -9.33301 -93 -28s-47 -44.334 -61 -77.001s-21 -68.667 -21 -108c0 -40 7 -76.167 21 -108.5s34.167 -57.833 60.5 -76.5s57.5 -28 93.5 -28c35.333 0 66.166 9.5 92.499 28.5zM274.002 596.002l98 174h76l-118 -174h-56z" />
    <glyph glyph-name="ocircumflex" unicode="&#xf4;" horiz-adv-x="598" 
d="M165 33c-36.667 26 -64.167 59.833 -82.5 101.5s-27.5 85.834 -27.5 132.501c0 47.333 9.16699 91.833 27.5 133.5s45.833 75.5 82.5 101.5s81.334 39 134.001 39s97.334 -13 134.001 -39s64.167 -59.833 82.5 -101.5s27.5 -85.834 27.5 -132.501
c0 -47.333 -9.16699 -91.833 -27.5 -133.5s-45.833 -75.5 -82.5 -101.5s-81.334 -39 -134.001 -39s-97.334 13 -134.001 39zM391.5 83.5c26.333 19 46.668 44.6689 61.001 77.002s21.5 68.166 21.5 107.499c0 40 -7 76.167 -21 108.5s-34.333 57.833 -61 76.5
s-57.667 28 -93 28s-66.333 -9.33301 -93 -28s-47 -44.334 -61 -77.001s-21 -68.667 -21 -108c0 -40 7 -76.167 21 -108.5s34.167 -57.833 60.5 -76.5s57.5 -28 93.5 -28c35.333 0 66.166 9.5 92.499 28.5zM267.002 735.002h65l128 -141h-73l-86 94h-4l-86 -94h-72z" />
    <glyph glyph-name="otilde" unicode="&#xf5;" horiz-adv-x="598" 
d="M165 33c-36.667 26 -64.167 59.833 -82.5 101.5s-27.5 85.834 -27.5 132.501c0 47.333 9.16699 91.833 27.5 133.5s45.833 75.5 82.5 101.5s81.334 39 134.001 39s97.334 -13 134.001 -39s64.167 -59.833 82.5 -101.5s27.5 -85.834 27.5 -132.501
c0 -47.333 -9.16699 -91.833 -27.5 -133.5s-45.833 -75.5 -82.5 -101.5s-81.334 -39 -134.001 -39s-97.334 13 -134.001 39zM391.5 83.5c26.333 19 46.668 44.6689 61.001 77.002s21.5 68.166 21.5 107.499c0 40 -7 76.167 -21 108.5s-34.333 57.833 -61 76.5
s-57.667 28 -93 28s-66.333 -9.33301 -93 -28s-47 -44.334 -61 -77.001s-21 -68.667 -21 -108c0 -40 7 -76.167 21 -108.5s34.167 -57.833 60.5 -76.5s57.5 -28 93.5 -28c35.333 0 66.166 9.5 92.499 28.5zM180.002 694.502c12.667 21 33.667 31.5 63 31.5
c12.667 0 23.667 -2.66699 33 -8s21 -13.333 35 -24c10 -8 18.167 -13.833 24.5 -17.5s13.166 -5.5 20.499 -5.5c23.333 0 35 18.333 35 55h45c1.33301 -26.667 -4.33398 -50.5 -17.001 -71.5s-33.667 -31.5 -63 -31.5c-12.667 0 -24.167 2.66699 -34.5 8
s-21.833 13 -34.5 23c-10 8 -18.167 13.833 -24.5 17.5s-13.166 5.5 -20.499 5.5c-12.667 0 -21.667 -5.16699 -27 -15.5s-7.66602 -23.5 -6.99902 -39.5h-46c-0.666992 27.333 5.33301 51.5 18 72.5z" />
    <glyph glyph-name="odieresis" unicode="&#xf6;" horiz-adv-x="598" 
d="M165 33c-36.667 26 -64.167 59.833 -82.5 101.5s-27.5 85.834 -27.5 132.501c0 47.333 9.16699 91.833 27.5 133.5s45.833 75.5 82.5 101.5s81.334 39 134.001 39s97.334 -13 134.001 -39s64.167 -59.833 82.5 -101.5s27.5 -85.834 27.5 -132.501
c0 -47.333 -9.16699 -91.833 -27.5 -133.5s-45.833 -75.5 -82.5 -101.5s-81.334 -39 -134.001 -39s-97.334 13 -134.001 39zM391.5 83.5c26.333 19 46.668 44.6689 61.001 77.002s21.5 68.166 21.5 107.499c0 40 -7 76.167 -21 108.5s-34.333 57.833 -61 76.5
s-57.667 28 -93 28s-66.333 -9.33301 -93 -28s-47 -44.334 -61 -77.001s-21 -68.667 -21 -108c0 -40 7 -76.167 21 -108.5s34.167 -57.833 60.5 -76.5s57.5 -28 93.5 -28c35.333 0 66.166 9.5 92.499 28.5zM354.002 640.502c-9.33301 9.66699 -14 21.5 -14 35.5
c0 13.333 4.66699 24.833 14 34.5s21 14.5 35 14.5s25.667 -4.83301 35 -14.5s14 -21.167 14 -34.5c0 -14 -4.66699 -25.833 -14 -35.5s-21 -14.5 -35 -14.5s-25.667 4.83301 -35 14.5zM176.002 640.502c-9.33301 9.66699 -14 21.5 -14 35.5
c0 13.333 4.66699 24.833 14 34.5s21 14.5 35 14.5s25.667 -4.83301 35 -14.5s14 -21.167 14 -34.5c0 -14 -4.66699 -25.833 -14 -35.5s-21 -14.5 -35 -14.5s-25.667 4.83301 -35 14.5z" />
    <glyph glyph-name="divide" unicode="&#xf7;" horiz-adv-x="600" 
d="M232.5 452c-9.66699 10 -14.5 22 -14.5 36s4.83301 26 14.5 36s21.834 15 36.501 15s26.834 -5 36.501 -15s14.5 -22 14.5 -36s-4.83301 -26 -14.5 -36s-21.834 -15 -36.501 -15s-26.834 5 -36.501 15zM75 342h386v-60h-386v60zM232.5 109
c-9.66699 10 -14.5 22.333 -14.5 37c0 14 4.83301 25.833 14.5 35.5s21.834 14.5 36.501 14.5s26.834 -4.83301 36.501 -14.5s14.5 -21.5 14.5 -35.5c0 -14.667 -4.83301 -27 -14.5 -37s-21.834 -15 -36.501 -15s-26.834 5 -36.501 15z" />
    <glyph glyph-name="oslash" unicode="&#xf8;" horiz-adv-x="598" 
d="M519 392.5c16 -39.667 24.001 -81.166 24.001 -124.499c0 -46.667 -9.16699 -90.834 -27.5 -132.501s-45.833 -75.5 -82.5 -101.5s-81.334 -39 -134.001 -39c-41.333 0 -78 8.33301 -110 25l-34 -63h-57l50 90c-30.667 26 -53.834 58.5 -69.501 97.5
s-23.5 80.167 -23.5 123.5c0 47.333 9.16699 91.833 27.5 133.5s45.833 75.5 82.5 101.5s81.334 39 134.001 39c38.667 0 74.667 -8 108 -24l37 68h57l-52 -95c30.667 -26 54 -58.833 70 -98.5zM138.501 177.501c9.66699 -28.333 23.5 -52.168 41.5 -71.501l197 357
c-24 12.667 -50 19 -78 19c-35.333 0 -66.333 -9.5 -93 -28.5s-47 -44.667 -61 -77s-21 -68.166 -21 -107.499c0 -32.667 4.83301 -63.167 14.5 -91.5zM391.501 83.499c26.333 19 46.6689 44.835 61.002 77.502s21.5 68.667 21.5 108c0 33.333 -4.83301 64.166 -14.5 92.499
s-23.834 52.166 -42.501 71.499l-197 -358c22.667 -13.333 49 -20 79 -20c35.333 0 66.166 9.5 92.499 28.5z" />
    <glyph glyph-name="ugrave" unicode="&#xf9;" horiz-adv-x="605" 
d="M532 0h-69v105h-6c-14 -32 -36.167 -59 -66.5 -81s-67.5 -33 -111.5 -33c-43.333 0 -80 10.5 -110 31.5s-52.333 48.833 -67 83.5s-22 72.667 -22 114v306h69v-298c0 -56.667 14.5 -99.667 43.5 -129s66.167 -44 111.5 -44c48 0 86.5 16 115.5 48s43.5 73.667 43.5 125
v298h69v-526zM141 770h76l98 -174h-56z" />
    <glyph glyph-name="uacute" unicode="&#xfa;" horiz-adv-x="605" 
d="M532 0h-69v105h-6c-14 -32 -36.167 -59 -66.5 -81s-67.5 -33 -111.5 -33c-43.333 0 -80 10.5 -110 31.5s-52.333 48.833 -67 83.5s-22 72.667 -22 114v306h69v-298c0 -56.667 14.5 -99.667 43.5 -129s66.167 -44 111.5 -44c48 0 86.5 16 115.5 48s43.5 73.667 43.5 125
v298h69v-526zM264 596l98 174h76l-118 -174h-56z" />
    <glyph glyph-name="ucircumflex" unicode="&#xfb;" horiz-adv-x="605" 
d="M532 0h-69v105h-6c-14 -32 -36.167 -59 -66.5 -81s-67.5 -33 -111.5 -33c-43.333 0 -80 10.5 -110 31.5s-52.333 48.833 -67 83.5s-22 72.667 -22 114v306h69v-298c0 -56.667 14.5 -99.667 43.5 -129s66.167 -44 111.5 -44c48 0 86.5 16 115.5 48s43.5 73.667 43.5 125
v298h69v-526zM257 735h65l128 -141h-73l-86 94h-4l-86 -94h-72z" />
    <glyph glyph-name="udieresis" unicode="&#xfc;" horiz-adv-x="605" 
d="M532 0h-69v105h-6c-14 -32 -36.167 -59 -66.5 -81s-67.5 -33 -111.5 -33c-43.333 0 -80 10.5 -110 31.5s-52.333 48.833 -67 83.5s-22 72.667 -22 114v306h69v-298c0 -56.667 14.5 -99.667 43.5 -129s66.167 -44 111.5 -44c48 0 86.5 16 115.5 48s43.5 73.667 43.5 125
v298h69v-526zM344 640.5c-9.33301 9.66699 -14 21.5 -14 35.5c0 13.333 4.66699 24.833 14 34.5s21 14.5 35 14.5s25.667 -4.83301 35 -14.5s14 -21.167 14 -34.5c0 -14 -4.66699 -25.833 -14 -35.5s-21 -14.5 -35 -14.5s-25.667 4.83301 -35 14.5zM166 640.5
c-9.33301 9.66699 -14 21.5 -14 35.5c0 13.333 4.66699 24.833 14 34.5s21 14.5 35 14.5s25.667 -4.83301 35 -14.5s14 -21.167 14 -34.5c0 -14 -4.66699 -25.833 -14 -35.5s-21 -14.5 -35 -14.5s-25.667 4.83301 -35 14.5z" />
    <glyph glyph-name="yacute" unicode="&#xfd;" horiz-adv-x="535" 
d="M226.5 -132.5c-9.66699 -15.667 -24.833 -30.332 -45.5 -43.999s-47 -20.5 -79 -20.5c-19.333 0 -37.666 2.33301 -54.999 7v53c10.667 -2.66699 25 -4 43 -4c22 0 39.5 4.16699 52.5 12.5s23.5 19.333 31.5 33s17.667 34.167 29 61.5l26 64l-197 496h73l157 -419h6
l167 419h73l-251 -598c-10.667 -24.667 -20.834 -44.834 -30.501 -60.501zM240.001 596.002l98 174h76l-118 -174h-56z" />
    <glyph glyph-name="thorn" unicode="&#xfe;" horiz-adv-x="622" 
d="M226.5 27.5c-30.333 22.333 -53.834 50.166 -70.501 83.499h-7v-342h-69v981h69v-324h7c16 32.667 38.833 60.167 68.5 82.5s68.167 33.5 115.5 33.5c48 0 89.167 -12 123.5 -36s60.333 -56.833 78 -98.5s26.5 -88.5 26.5 -140.5
c0 -51.333 -8.83301 -97.666 -26.5 -138.999s-43.5 -74 -77.5 -98s-74.333 -36 -121 -36c-47.333 0 -86.166 11.167 -116.499 33.5zM452.999 115.5c29.333 40.333 44 91.168 44 152.501c0 60.667 -14.667 111.167 -44 151.5s-72.333 60.5 -129 60.5
c-55.333 0 -98 -20.333 -128 -61s-45 -91.334 -45 -152.001s15 -111.167 45 -151.5s72.667 -60.5 128 -60.5c56.667 0 99.667 20.167 129 60.5z" />
    <glyph glyph-name="ydieresis" unicode="&#xff;" horiz-adv-x="535" 
d="M226.5 -132.5c-9.66699 -15.667 -24.833 -30.332 -45.5 -43.999s-47 -20.5 -79 -20.5c-19.333 0 -37.666 2.33301 -54.999 7v53c10.667 -2.66699 25 -4 43 -4c22 0 39.5 4.16699 52.5 12.5s23.5 19.333 31.5 33s17.667 34.167 29 61.5l26 64l-197 496h73l157 -419h6
l167 419h73l-251 -598c-10.667 -24.667 -20.834 -44.834 -30.501 -60.501zM320.001 640.502c-9.33301 9.66699 -14 21.5 -14 35.5c0 13.333 4.66699 24.833 14 34.5s21 14.5 35 14.5s25.667 -4.83301 35 -14.5s14 -21.167 14 -34.5c0 -14 -4.66699 -25.833 -14 -35.5
s-21 -14.5 -35 -14.5s-25.667 4.83301 -35 14.5zM142.001 640.502c-9.33301 9.66699 -14 21.5 -14 35.5c0 13.333 4.66699 24.833 14 34.5s21 14.5 35 14.5s25.667 -4.83301 35 -14.5s14 -21.167 14 -34.5c0 -14 -4.66699 -25.833 -14 -35.5s-21 -14.5 -35 -14.5
s-25.667 4.83301 -35 14.5z" />
    <glyph glyph-name="Amacron" unicode="&#x100;" horiz-adv-x="682" 
d="M492 214h-301l-80 -214h-70l266 700h67l269 -700h-70zM471 271l-129 340h-4l-126 -340h259zM193 842h293v-39h-293v39z" />
    <glyph glyph-name="amacron" unicode="&#x101;" horiz-adv-x="621" 
d="M154.5 30c-33.667 24 -59.334 56.668 -77.001 98.001s-26.5 87.666 -26.5 138.999c0 52 8.83301 98.833 26.5 140.5s43.667 74.5 78 98.5s75.5 36 123.5 36c47.333 0 85.833 -11.5 115.5 -34.5s52.5 -50.833 68.5 -83.5h7v102h69v-526h-69v114h-7
c-17.333 -34 -41.166 -62.5 -71.499 -85.5s-69.166 -34.5 -116.499 -34.5c-46.667 0 -86.834 12 -120.501 36zM422.5 115.501c29.667 40.333 44.5 91.166 44.5 152.499s-14.833 112 -44.5 152s-72.5 60 -128.5 60c-56.667 0 -99.5 -20.167 -128.5 -60.5
s-43.5 -90.833 -43.5 -151.5c0 -61.333 14.667 -112.166 44 -152.499s72 -60.5 128 -60.5s98.833 20.167 128.5 60.5zM159 668.001h293v-39h-293v39z" />
    <glyph glyph-name="Abreve" unicode="&#x102;" horiz-adv-x="682" 
d="M492 214h-301l-80 -214h-70l266 700h67l269 -700h-70zM471 271l-129 340h-4l-126 -340h259zM243.5 807c-25.667 16 -48.168 41 -67.501 75h62c21.333 -35.333 55 -53 101 -53c46.667 0 80.334 17.667 101.001 53h63c-19.333 -34 -42 -59 -68 -75s-58 -24 -96 -24
s-69.833 8 -95.5 24z" />
    <glyph glyph-name="abreve" unicode="&#x103;" horiz-adv-x="621" 
d="M154.5 30c-33.667 24 -59.334 56.668 -77.001 98.001s-26.5 87.666 -26.5 138.999c0 52 8.83301 98.833 26.5 140.5s43.667 74.5 78 98.5s75.5 36 123.5 36c47.333 0 85.833 -11.5 115.5 -34.5s52.5 -50.833 68.5 -83.5h7v102h69v-526h-69v114h-7
c-17.333 -34 -41.166 -62.5 -71.499 -85.5s-69.166 -34.5 -116.499 -34.5c-46.667 0 -86.834 12 -120.501 36zM422.5 115.501c29.667 40.333 44.5 91.166 44.5 152.499s-14.833 112 -44.5 152s-72.5 60 -128.5 60c-56.667 0 -99.5 -20.167 -128.5 -60.5
s-43.5 -90.833 -43.5 -151.5c0 -61.333 14.667 -112.166 44 -152.499s72 -60.5 128 -60.5s98.833 20.167 128.5 60.5zM209.5 633.001c-25.667 16 -48.168 41 -67.501 75h62c21.333 -35.333 55 -53 101 -53c46.667 0 80.334 17.667 101.001 53h63
c-19.333 -34 -42 -59 -68 -75s-58 -24 -96 -24s-69.833 8 -95.5 24z" />
    <glyph glyph-name="Aogonek" unicode="&#x104;" horiz-adv-x="682" 
d="M670 -110v-42.999c-16.667 -3.33301 -32.667 -5 -48 -5c-30 0 -53.833 7.66699 -71.5 23s-26.5 34.666 -26.5 57.999c0 33.333 15.667 61 47 83l-79 208h-301l-80 -214h-70l266 700h67l269 -700h-11c-18 -12 -31.833 -23 -41.5 -33s-14.5 -22.667 -14.5 -38
c0 -12.667 4.33301 -23 13 -31s22.667 -12 42 -12c11.333 0 24.333 1.33301 39 4zM471 271.001l-129 340h-4l-126 -340h259z" />
    <glyph glyph-name="aogonek" unicode="&#x105;" horiz-adv-x="621" 
d="M577 -110v-42.999c-16.667 -3.33301 -32.667 -5 -48 -5c-30 0 -53.833 7.66699 -71.5 23s-26.5 34.666 -26.5 57.999c0 30.667 13 56.334 39 77.001v114h-7c-17.333 -34 -41.166 -62.5 -71.499 -85.5s-69.166 -34.5 -116.499 -34.5c-46.667 0 -86.834 12 -120.501 36
s-59.334 56.667 -77.001 98s-26.5 87.666 -26.5 138.999c0 52 8.83301 98.833 26.5 140.5s43.667 74.5 78 98.5s75.5 36 123.5 36c47.333 0 85.833 -11.5 115.5 -34.5s52.5 -50.833 68.5 -83.5h7v102h69v-526c-18 -12 -31.833 -23 -41.5 -33s-14.5 -22.667 -14.5 -38
c0 -12.667 4.33301 -23 13 -31s22.667 -12 42 -12c11.333 0 24.333 1.33301 39 4zM422.5 115.501c29.667 40.333 44.5 91.166 44.5 152.499s-14.833 112 -44.5 152s-72.5 60 -128.5 60c-56.667 0 -99.5 -20.167 -128.5 -60.5s-43.5 -90.833 -43.5 -151.5
c0 -61.333 14.667 -112.166 44 -152.499s72 -60.5 128 -60.5s98.833 20.167 128.5 60.5z" />
    <glyph glyph-name="Cacute" unicode="&#x106;" horiz-adv-x="716" 
d="M204.5 40c-47 30.667 -82.999 73.167 -107.999 127.5s-37.5 116.5 -37.5 186.5c0 70.667 12.5 133.167 37.5 187.5s61 96.833 108 127.5s102.833 46 167.5 46c78 0 142.833 -21.667 194.5 -65s86.167 -102.333 103.5 -177h-68
c-15.333 54.667 -43.166 98.167 -83.499 130.5s-88.833 48.5 -145.5 48.5c-77.333 0 -136.833 -26.667 -178.5 -80s-62.5 -125.666 -62.5 -216.999c0 -90.667 20.833 -162.834 62.5 -216.501s101.167 -80.5 178.5 -80.5c53.333 0 99.166 14.167 137.499 42.5
s66.166 66.833 83.499 115.5h70c-19.333 -68 -54.333 -122 -105 -162s-113 -60 -187 -60c-64.667 0 -120.5 15.333 -167.5 46zM335.001 770l98 174h76l-118 -174h-56z" />
    <glyph glyph-name="cacute" unicode="&#x107;" horiz-adv-x="577" 
d="M164.5 32c-37 26 -64.5 60 -82.5 102s-27 86.667 -27 134c0 46.667 9 90.834 27 132.501s45.5 75.667 82.5 102s82.833 39.5 137.5 39.5c46 0 85.333 -9.33301 118 -28s58 -43.334 76 -74.001s29.333 -63.667 34 -99h-67c-6.66699 41.333 -23.667 75 -51 101
s-64 39 -110 39c-57.333 0 -101.166 -20.167 -131.499 -60.5s-45.5 -91.166 -45.5 -152.499c0 -62 15.167 -113.167 45.5 -153.5s74.166 -60.5 131.499 -60.5c46 0 82.667 12.833 110 38.5s44.333 59.5 51 101.5h67c-4.66699 -35.333 -16 -68.333 -34 -99
s-43.333 -55.334 -76 -74.001s-72 -28 -118 -28c-54.667 0 -100.5 13 -137.5 39zM277 596l98 174h76l-118 -174h-56z" />
    <glyph glyph-name="Cdotaccent" unicode="&#x10a;" horiz-adv-x="716" 
d="M204.5 40c-47 30.667 -82.999 73.167 -107.999 127.5s-37.5 116.5 -37.5 186.5c0 70.667 12.5 133.167 37.5 187.5s61 96.833 108 127.5s102.833 46 167.5 46c78 0 142.833 -21.667 194.5 -65s86.167 -102.333 103.5 -177h-68
c-15.333 54.667 -43.166 98.167 -83.499 130.5s-88.833 48.5 -145.5 48.5c-77.333 0 -136.833 -26.667 -178.5 -80s-62.5 -125.666 -62.5 -216.999c0 -90.667 20.833 -162.834 62.5 -216.501s101.167 -80.5 178.5 -80.5c53.333 0 99.166 14.167 137.499 42.5
s66.166 66.833 83.499 115.5h70c-19.333 -68 -54.333 -122 -105 -162s-113 -60 -187 -60c-64.667 0 -120.5 15.333 -167.5 46zM324.001 814.5c-9.33301 9.66699 -14 21.5 -14 35.5c0 13.333 4.66699 24.833 14 34.5s21 14.5 35 14.5s25.667 -4.83301 35 -14.5
s14 -21.167 14 -34.5c0 -14 -4.66699 -25.833 -14 -35.5s-21 -14.5 -35 -14.5s-25.667 4.83301 -35 14.5z" />
    <glyph glyph-name="cdotaccent" unicode="&#x10b;" horiz-adv-x="577" 
d="M164.5 32c-37 26 -64.5 60 -82.5 102s-27 86.667 -27 134c0 46.667 9 90.834 27 132.501s45.5 75.667 82.5 102s82.833 39.5 137.5 39.5c46 0 85.333 -9.33301 118 -28s58 -43.334 76 -74.001s29.333 -63.667 34 -99h-67c-6.66699 41.333 -23.667 75 -51 101
s-64 39 -110 39c-57.333 0 -101.166 -20.167 -131.499 -60.5s-45.5 -91.166 -45.5 -152.499c0 -62 15.167 -113.167 45.5 -153.5s74.166 -60.5 131.499 -60.5c46 0 82.667 12.833 110 38.5s44.333 59.5 51 101.5h67c-4.66699 -35.333 -16 -68.333 -34 -99
s-43.333 -55.334 -76 -74.001s-72 -28 -118 -28c-54.667 0 -100.5 13 -137.5 39zM266 640.5c-9.33301 9.66699 -14 21.5 -14 35.5c0 13.333 4.66699 24.833 14 34.5s21 14.5 35 14.5s25.667 -4.83301 35 -14.5s14 -21.167 14 -34.5c0 -14 -4.66699 -25.833 -14 -35.5
s-21 -14.5 -35 -14.5s-25.667 4.83301 -35 14.5z" />
    <glyph glyph-name="Ccaron" unicode="&#x10c;" horiz-adv-x="716" 
d="M204.5 40c-47 30.667 -82.999 73.167 -107.999 127.5s-37.5 116.5 -37.5 186.5c0 70.667 12.5 133.167 37.5 187.5s61 96.833 108 127.5s102.833 46 167.5 46c78 0 142.833 -21.667 194.5 -65s86.167 -102.333 103.5 -177h-68
c-15.333 54.667 -43.166 98.167 -83.499 130.5s-88.833 48.5 -145.5 48.5c-77.333 0 -136.833 -26.667 -178.5 -80s-62.5 -125.666 -62.5 -216.999c0 -90.667 20.833 -162.834 62.5 -216.501s101.167 -80.5 178.5 -80.5c53.333 0 99.166 14.167 137.499 42.5
s66.166 66.833 83.499 115.5h70c-19.333 -68 -54.333 -122 -105 -162s-113 -60 -187 -60c-64.667 0 -120.5 15.333 -167.5 46zM271.001 909l86 -94h4l86 94h73l-128 -141h-65l-127 141h71z" />
    <glyph glyph-name="ccaron" unicode="&#x10d;" horiz-adv-x="577" 
d="M164.5 32c-37 26 -64.5 60 -82.5 102s-27 86.667 -27 134c0 46.667 9 90.834 27 132.501s45.5 75.667 82.5 102s82.833 39.5 137.5 39.5c46 0 85.333 -9.33301 118 -28s58 -43.334 76 -74.001s29.333 -63.667 34 -99h-67c-6.66699 41.333 -23.667 75 -51 101
s-64 39 -110 39c-57.333 0 -101.166 -20.167 -131.499 -60.5s-45.5 -91.166 -45.5 -152.499c0 -62 15.167 -113.167 45.5 -153.5s74.166 -60.5 131.499 -60.5c46 0 82.667 12.833 110 38.5s44.333 59.5 51 101.5h67c-4.66699 -35.333 -16 -68.333 -34 -99
s-43.333 -55.334 -76 -74.001s-72 -28 -118 -28c-54.667 0 -100.5 13 -137.5 39zM213 735l86 -94h4l86 94h73l-128 -141h-65l-127 141h71z" />
    <glyph glyph-name="Dcaron" unicode="&#x10e;" horiz-adv-x="689" 
d="M80 700l252 0.00195312c62.667 0 117.5 -14.167 164.5 -42.5s83.333 -69 109 -122s38.5 -114.833 38.5 -185.5s-12.833 -132.334 -38.5 -185.001s-62 -93.334 -109 -122.001s-102.167 -43 -165.5 -43h-251v700zM323 64.002c49.333 0 92.833 11.168 130.5 33.501
s66.834 55.166 87.501 98.499s31 95 31 155s-10.333 111.5 -31 154.5s-49.834 75.667 -87.501 98s-81.167 33.5 -130.5 33.5h-175v-573h175zM244 909.003l86 -94h4l86 94h73l-128 -141h-65l-127 141h71z" />
    <glyph glyph-name="dcaron" unicode="&#x10f;" horiz-adv-x="723" 
d="M156 30c-34 24 -59.8311 56.668 -77.498 98.001s-26.5 87.666 -26.5 138.999c0 52 8.83301 98.833 26.5 140.5s43.667 74.5 78 98.5s75.5 36 123.5 36c47.333 0 85.833 -11.5 115.5 -34.5s52.5 -50.833 68.5 -83.5h7v326h69v-750h-69v114h-7
c-16.667 -34 -40.334 -62.5 -71.001 -85.5s-69.334 -34.5 -116.001 -34.5s-87 12 -121 36zM424.002 115.501c30 40.333 45 90.8311 45 151.498s-15 111.334 -45 152.001s-72.667 61 -128 61c-56.667 0 -99.667 -20.167 -129 -60.5s-44 -90.833 -44 -151.5
c0 -61.333 14.667 -112.166 44 -152.499s72.333 -60.5 129 -60.5c55.333 0 98 20.167 128 60.5zM604.002 561.999c20.667 8.66699 35.5 20.001 44.5 34.001s13.5 28.667 13.5 44s-2.5 25.333 -7.5 30s-12.167 7 -21.5 7c-16.667 0 -28.667 4 -36 12s-11 18.333 -11 31
c0 16 4.83301 28.667 14.5 38s23.167 14 40.5 14c26.667 0 44.167 -6.66699 52.5 -20s12.5 -29.333 12.5 -48v-35c0 -38.667 -9.5 -69.334 -28.5 -92.001s-43.5 -39 -73.5 -49v34z" />
    <glyph glyph-name="Dcroat" unicode="&#x110;" horiz-adv-x="716" 
d="M579 608.5c61.333 -61 92.001 -147.167 92.001 -258.5c0 -112 -30.833 -198.5 -92.5 -259.5s-147.834 -91.5 -258.501 -91.5h-212v333h-58v49h58v319h213c110.667 0 196.667 -30.5 258 -91.5zM434.501 78.5c40.333 10.333 77.833 36.668 112.5 79.001s52 106.5 52 192.5
s-17.333 150.167 -52 192.5s-72.167 68.666 -112.5 78.999s-81.166 15.5 -122.499 15.5h-137v-256h145v-49h-145v-269h137c41.333 0 82.166 5.16699 122.499 15.5z" />
    <glyph glyph-name="dcroat" unicode="&#x111;" horiz-adv-x="620" 
d="M617 614l-76.998 0.000976562v-614h-69v114h-7c-16.667 -34 -40.334 -62.5 -71.001 -85.5s-69.334 -34.5 -116.001 -34.5s-87 12 -121 36s-59.833 56.667 -77.5 98s-26.5 87.666 -26.5 138.999c0 52 8.83301 98.833 26.5 140.5s43.667 74.5 78 98.5s75.5 36 123.5 36
c47.333 0 85.833 -11.5 115.5 -34.5s52.5 -50.833 68.5 -83.5h7v190h-167v50h167v86h69v-86h77v-50zM424.002 115.501c30 40.333 45 90.8311 45 151.498s-15 111.334 -45 152.001s-72.667 61 -128 61c-56.667 0 -99.667 -20.167 -129 -60.5s-44 -90.833 -44 -151.5
c0 -61.333 14.667 -112.166 44 -152.499s72.333 -60.5 129 -60.5c55.333 0 98 20.167 128 60.5z" />
    <glyph glyph-name="Emacron" unicode="&#x112;" horiz-adv-x="570" 
d="M150 637v-250h312v-58h-312v-266h352v-63h-421v700h421v-63h-352zM144 842h293v-39h-293v39z" />
    <glyph glyph-name="emacron" unicode="&#x113;" horiz-adv-x="585" 
d="M164 33c-36.667 26 -64.001 59.998 -82.001 101.998s-27 86.333 -27 133s9 91 27 133s45.333 76 82 102s81.667 39 135 39c70 0 126 -23.667 168 -71s63 -115.666 63 -204.999v-19h-406v-7c0 -32 7.16699 -62.5 21.5 -91.5s34.833 -52.167 61.5 -69.5s57 -26 91 -26
c37.333 0 69.333 9.5 96 28.5s46.667 44.833 60 77.5h68c-14.667 -47.333 -40.667 -86.666 -78 -117.999s-85.666 -47 -144.999 -47c-53.333 0 -98.333 13 -135 39zM460.999 297.998c-2.66699 66 -18.667 113.667 -48 143s-67.333 44 -114 44
c-52 0 -93.167 -17.333 -123.5 -52s-46.833 -79.667 -49.5 -135h335zM152.999 667.998h293v-39h-293v39z" />
    <glyph glyph-name="Edotaccent" unicode="&#x116;" horiz-adv-x="570" 
d="M150 637v-250h312v-58h-312v-266h352v-63h-421v700h421v-63h-352zM255 814.5c-9.33301 9.66699 -14 21.5 -14 35.5c0 13.333 4.66699 24.833 14 34.5s21 14.5 35 14.5s25.667 -4.83301 35 -14.5s14 -21.167 14 -34.5c0 -14 -4.66699 -25.833 -14 -35.5
s-21 -14.5 -35 -14.5s-25.667 4.83301 -35 14.5z" />
    <glyph glyph-name="edotaccent" unicode="&#x117;" horiz-adv-x="585" 
d="M164 33c-36.667 26 -64.001 59.998 -82.001 101.998s-27 86.333 -27 133s9 91 27 133s45.333 76 82 102s81.667 39 135 39c70 0 126 -23.667 168 -71s63 -115.666 63 -204.999v-19h-406v-7c0 -32 7.16699 -62.5 21.5 -91.5s34.833 -52.167 61.5 -69.5s57 -26 91 -26
c37.333 0 69.333 9.5 96 28.5s46.667 44.833 60 77.5h68c-14.667 -47.333 -40.667 -86.666 -78 -117.999s-85.666 -47 -144.999 -47c-53.333 0 -98.333 13 -135 39zM460.999 297.998c-2.66699 66 -18.667 113.667 -48 143s-67.333 44 -114 44
c-52 0 -93.167 -17.333 -123.5 -52s-46.833 -79.667 -49.5 -135h335zM262.999 640.498c-9.33301 9.66699 -14 21.5 -14 35.5c0 13.333 4.66699 24.833 14 34.5s21 14.5 35 14.5s25.667 -4.83301 35 -14.5s14 -21.167 14 -34.5c0 -14 -4.66699 -25.833 -14 -35.5
s-21 -14.5 -35 -14.5s-25.667 4.83301 -35 14.5z" />
    <glyph glyph-name="Eogonek" unicode="&#x118;" horiz-adv-x="570" 
d="M540 -110v-43c-16.667 -3.33301 -32.667 -5 -48 -5c-30 0 -53.833 7.66699 -71.5 23s-26.5 34.666 -26.5 57.999c0 30.667 13 56.334 39 77.001h-352v700h421v-63h-352v-250h312v-58h-312v-266h352v-63c-18 -12 -31.833 -23 -41.5 -33s-14.5 -22.667 -14.5 -38
c0 -12.667 4.33301 -23 13 -31s22.667 -12 42 -12c11.333 0 24.333 1.33301 39 4z" />
    <glyph glyph-name="eogonek" unicode="&#x119;" horiz-adv-x="585" 
d="M124 247l0.000976562 -7c0 -32 7.16699 -62.5 21.5 -91.5s34.833 -52.167 61.5 -69.5s57 -26 91 -26c37.333 0 69.333 9.5 96 28.5s46.667 44.833 60 77.5h68c-12.667 -42 -34.667 -78 -66 -108s-71.333 -48.333 -120 -55c-18 -12 -31.833 -23 -41.5 -33
s-14.5 -22.667 -14.5 -38c0 -12.667 4.33301 -23 13 -31s22.667 -12 42 -12c11.333 0 24.333 1.33301 39 4v-43c-16.667 -3.33301 -32.667 -5 -48 -5c-30 0 -53.833 7.66699 -71.5 23s-26.5 34.666 -26.5 57.999c0 28.667 12.667 54.334 38 77.001
c-46 5.33301 -84.833 21.5 -116.5 48.5s-55.334 60.167 -71.001 99.5s-23.5 80.666 -23.5 123.999c0 46.667 9 91 27 133s45.333 76 82 102s81.667 39 135 39c70 0 126 -23.667 168 -71s63 -115.666 63 -204.999v-19h-406zM175.501 433
c-30.333 -34.667 -46.833 -79.667 -49.5 -135h335c-2.66699 66 -18.667 113.667 -48 143s-67.333 44 -114 44c-52 0 -93.167 -17.333 -123.5 -52z" />
    <glyph glyph-name="Ecaron" unicode="&#x11a;" horiz-adv-x="570" 
d="M150 637v-250h312v-58h-312v-266h352v-63h-421v700h421v-63h-352zM202 909l86 -94h4l86 94h73l-128 -141h-65l-127 141h71z" />
    <glyph glyph-name="ecaron" unicode="&#x11b;" horiz-adv-x="585" 
d="M164 33c-36.667 26 -64.001 59.998 -82.001 101.998s-27 86.333 -27 133s9 91 27 133s45.333 76 82 102s81.667 39 135 39c70 0 126 -23.667 168 -71s63 -115.666 63 -204.999v-19h-406v-7c0 -32 7.16699 -62.5 21.5 -91.5s34.833 -52.167 61.5 -69.5s57 -26 91 -26
c37.333 0 69.333 9.5 96 28.5s46.667 44.833 60 77.5h68c-14.667 -47.333 -40.667 -86.666 -78 -117.999s-85.666 -47 -144.999 -47c-53.333 0 -98.333 13 -135 39zM460.999 297.998c-2.66699 66 -18.667 113.667 -48 143s-67.333 44 -114 44
c-52 0 -93.167 -17.333 -123.5 -52s-46.833 -79.667 -49.5 -135h335zM210.999 734.998l86 -94h4l86 94h73l-128 -141h-65l-127 141h71z" />
    <glyph glyph-name="Gbreve" unicode="&#x11e;" horiz-adv-x="715" 
d="M188.5 46.5c-45.667 35 -79.1621 79.834 -100.495 134.501s-32 112 -32 172c0 60.667 10.667 118.5 32 173.5s55.166 100.167 101.499 135.5s104.833 53 175.5 53c78 0 140.833 -20.833 188.5 -62.5s80.5 -93.834 98.5 -156.501h-73
c-14.667 49.333 -39.834 87.5 -75.501 114.5s-81.834 40.5 -138.501 40.5c-74 0 -132.167 -26.667 -174.5 -80s-63.5 -126 -63.5 -218c0 -62 9.66699 -115.5 29 -160.5s47.166 -79.333 83.499 -103s78.833 -35.5 127.5 -35.5c44.667 0 83.334 9.33301 116.001 28
s57.834 44.5 75.501 77.5s27.167 70.5 28.5 112.5l1 31h-212v54h275v-357h-57v121h-8c-12.667 -26 -35.334 -53.667 -68.001 -83s-85.334 -44 -158.001 -44c-68.667 0 -125.834 17.5 -171.501 52.5zM269.505 807.001c-25.667 16 -48.168 41 -67.501 75h62
c21.333 -35.333 55 -53 101 -53c46.667 0 80.334 17.667 101.001 53h63c-19.333 -34 -42 -59 -68 -75s-58 -24 -96 -24s-69.833 8 -95.5 24z" />
    <glyph glyph-name="gbreve" unicode="&#x11f;" horiz-adv-x="624" 
d="M228 -193v59.002c8 -2.66699 19.333 -5 34 -7s29.667 -3 45 -3c54 0 95.333 15 124 45s43 71 43 123v104h-8c-15.333 -34 -39 -62 -71 -84s-70.333 -33 -115 -33c-44 0 -83 11.333 -117 34s-60.5 54.167 -79.5 94.5s-28.5 86.166 -28.5 137.499
s9.16699 97.166 27.5 137.499s44.5 71.833 78.5 94.5s73.333 34 118 34c46.667 0 86.167 -12 118.5 -36s55.5 -53.333 69.5 -88h7v106h69v-501c0 -38 -8 -74.667 -24 -110s-41.167 -64.333 -75.5 -87s-77.833 -34 -130.5 -34c-30.667 0 -59 4.66699 -85 14zM394 100.502
c26 19 45.5 44.167 58.5 75.5s19.5 65.666 19.5 102.999c0 36 -6.5 69.5 -19.5 100.5s-32.333 55.833 -58 74.5s-57.167 28 -94.5 28s-68.833 -9.33301 -94.5 -28s-45 -43.5 -58 -74.5s-19.5 -64.5 -19.5 -100.5c0 -37.333 6.5 -71.666 19.5 -102.999s32.333 -56.5 58 -75.5
s57.167 -28.5 94.5 -28.5c36.667 0 68 9.5 94 28.5zM209.5 633.002c-25.667 16 -48.168 41 -67.501 75h62c21.333 -35.333 55 -53 101 -53c46.667 0 80.334 17.667 101.001 53h63c-19.333 -34 -42 -59 -68 -75s-58 -24 -96 -24s-69.833 8 -95.5 24z" />
    <glyph glyph-name="Gdotaccent" unicode="&#x120;" horiz-adv-x="715" 
d="M188.5 46.5c-45.667 35 -79.1621 79.834 -100.495 134.501s-32 112 -32 172c0 60.667 10.667 118.5 32 173.5s55.166 100.167 101.499 135.5s104.833 53 175.5 53c78 0 140.833 -20.833 188.5 -62.5s80.5 -93.834 98.5 -156.501h-73
c-14.667 49.333 -39.834 87.5 -75.501 114.5s-81.834 40.5 -138.501 40.5c-74 0 -132.167 -26.667 -174.5 -80s-63.5 -126 -63.5 -218c0 -62 9.66699 -115.5 29 -160.5s47.166 -79.333 83.499 -103s78.833 -35.5 127.5 -35.5c44.667 0 83.334 9.33301 116.001 28
s57.834 44.5 75.501 77.5s27.167 70.5 28.5 112.5l1 31h-212v54h275v-357h-57v121h-8c-12.667 -26 -35.334 -53.667 -68.001 -83s-85.334 -44 -158.001 -44c-68.667 0 -125.834 17.5 -171.501 52.5zM329.005 814.501c-9.33301 9.66699 -14 21.5 -14 35.5
c0 13.333 4.66699 24.833 14 34.5s21 14.5 35 14.5s25.667 -4.83301 35 -14.5s14 -21.167 14 -34.5c0 -14 -4.66699 -25.833 -14 -35.5s-21 -14.5 -35 -14.5s-25.667 4.83301 -35 14.5z" />
    <glyph glyph-name="gdotaccent" unicode="&#x121;" horiz-adv-x="624" 
d="M228 -193v59.002c8 -2.66699 19.333 -5 34 -7s29.667 -3 45 -3c54 0 95.333 15 124 45s43 71 43 123v104h-8c-15.333 -34 -39 -62 -71 -84s-70.333 -33 -115 -33c-44 0 -83 11.333 -117 34s-60.5 54.167 -79.5 94.5s-28.5 86.166 -28.5 137.499
s9.16699 97.166 27.5 137.499s44.5 71.833 78.5 94.5s73.333 34 118 34c46.667 0 86.167 -12 118.5 -36s55.5 -53.333 69.5 -88h7v106h69v-501c0 -38 -8 -74.667 -24 -110s-41.167 -64.333 -75.5 -87s-77.833 -34 -130.5 -34c-30.667 0 -59 4.66699 -85 14zM394 100.502
c26 19 45.5 44.167 58.5 75.5s19.5 65.666 19.5 102.999c0 36 -6.5 69.5 -19.5 100.5s-32.333 55.833 -58 74.5s-57.167 28 -94.5 28s-68.833 -9.33301 -94.5 -28s-45 -43.5 -58 -74.5s-19.5 -64.5 -19.5 -100.5c0 -37.333 6.5 -71.666 19.5 -102.999s32.333 -56.5 58 -75.5
s57.167 -28.5 94.5 -28.5c36.667 0 68 9.5 94 28.5zM269 640.502c-9.33301 9.66699 -14 21.5 -14 35.5c0 13.333 4.66699 24.833 14 34.5s21 14.5 35 14.5s25.667 -4.83301 35 -14.5s14 -21.167 14 -34.5c0 -14 -4.66699 -25.833 -14 -35.5s-21 -14.5 -35 -14.5
s-25.667 4.83301 -35 14.5z" />
    <glyph glyph-name="Hbar" unicode="&#x126;" horiz-adv-x="694" 
d="M665 517h-60v-517h-69v324h-379v-324h-69v517h-60v58h60v125h69v-125h379v125h69v-125h60v-58zM536 517h-379v-136h379v136z" />
    <glyph glyph-name="hbar" unicode="&#x127;" horiz-adv-x="604" 
d="M514 469.5c22.667 -48.333 34.001 -97.499 34.001 -147.499v-322h-68v313c0 39.333 -8.83301 76.666 -26.5 111.999s-56.5 53 -116.5 53c-57.333 0 -102 -18.833 -134 -56.5s-48 -85.5 -48 -143.5v-278h-69v614h-78v50h78v86h69v-86h166v-50h-166v-196h8
c2 8 9.5 21.667 22.5 41s34.167 38 63.5 56s66.666 27 111.999 27c79.333 0 130.333 -24.167 153 -72.5z" />
    <glyph glyph-name="Itilde" unicode="&#x128;" horiz-adv-x="235" 
d="M83 700h70v-700h-70v700zM-1 868.5c12.667 21 33.667 31.5 63 31.5c12.667 0 23.667 -2.66699 33 -8s21 -13.333 35 -24c10 -8 18.167 -13.833 24.5 -17.5s13.166 -5.5 20.499 -5.5c23.333 0 35 18.333 35 55h45c1.33301 -26.667 -4.33398 -50.5 -17.001 -71.5
s-33.667 -31.5 -63 -31.5c-12.667 0 -24.167 2.66699 -34.5 8s-21.833 13 -34.5 23c-10 8 -18.167 13.833 -24.5 17.5s-13.166 5.5 -20.499 5.5c-12.667 0 -21.667 -5.16699 -27 -15.5s-7.66602 -23.5 -6.99902 -39.5h-46c-0.666992 27.333 5.33301 51.5 18 72.5z" />
    <glyph glyph-name="itilde" unicode="&#x129;" horiz-adv-x="239" 
d="M85 526h69v-526h-69v526zM0 694.5c12.667 21 33.667 31.5 63 31.5c12.667 0 23.667 -2.66699 33 -8s21 -13.333 35 -24c10 -8 18.167 -13.833 24.5 -17.5s13.166 -5.5 20.499 -5.5c23.333 0 35 18.333 35 55h45c1.33301 -26.667 -4.33398 -50.5 -17.001 -71.5
s-33.667 -31.5 -63 -31.5c-12.667 0 -24.167 2.66699 -34.5 8s-21.833 13 -34.5 23c-10 8 -18.167 13.833 -24.5 17.5s-13.166 5.5 -20.499 5.5c-12.667 0 -21.667 -5.16699 -27 -15.5s-7.66602 -23.5 -6.99902 -39.5h-46c-0.666992 27.333 5.33301 51.5 18 72.5z" />
    <glyph glyph-name="Imacron" unicode="&#x12a;" horiz-adv-x="235" 
d="M83 700h70v-700h-70v700zM-29 842h293v-39h-293v39z" />
    <glyph glyph-name="imacron" unicode="&#x12b;" horiz-adv-x="239" 
d="M85 526h69v-526h-69v526zM-27 668h293v-39h-293v39z" />
    <glyph glyph-name="Iogonek" unicode="&#x12e;" horiz-adv-x="235" 
d="M191 -110v-43c-16.667 -3.33301 -32.667 -5 -48 -5c-30 0 -53.833 7.66699 -71.5 23s-26.5 34.666 -26.5 57.999c0 30.667 13 56.334 39 77.001h-1v700h70v-700c-18 -12 -31.833 -23 -41.5 -33s-14.5 -22.667 -14.5 -38c0 -12.667 4.33301 -23 13 -31s22.667 -12 42 -12
c11.333 0 24.333 1.33301 39 4z" />
    <glyph glyph-name="iogonek" unicode="&#x12f;" horiz-adv-x="239" 
d="M83 640.5c-9.33301 9.66699 -14 21.5 -14 35.5c0 13.333 4.66699 24.833 14 34.5s21 14.5 35 14.5s25.667 -4.83301 35 -14.5s14 -21.167 14 -34.5c0 -14 -4.66699 -25.833 -14 -35.5s-21 -14.5 -35 -14.5s-25.667 4.83301 -35 14.5zM192 -110v-43
c-16.667 -3.33301 -32.667 -5 -48 -5c-30 0 -53.833 7.66699 -71.5 23s-26.5 34.666 -26.5 57.999c0 30.667 13 56.334 39 77.001v526h69v-526c-18 -12 -31.833 -23 -41.5 -33s-14.5 -22.667 -14.5 -38c0 -12.667 4.33301 -23 13 -31s22.667 -12 42 -12
c11.333 0 24.333 1.33301 39 4z" />
    <glyph glyph-name="Idotaccent" unicode="&#x130;" horiz-adv-x="235" 
d="M83 700h70v-700h-70v700zM82 814.5c-9.33301 9.66699 -14 21.5 -14 35.5c0 13.333 4.66699 24.833 14 34.5s21 14.5 35 14.5s25.667 -4.83301 35 -14.5s14 -21.167 14 -34.5c0 -14 -4.66699 -25.833 -14 -35.5s-21 -14.5 -35 -14.5s-25.667 4.83301 -35 14.5z" />
    <glyph glyph-name="dotlessi" unicode="&#x131;" horiz-adv-x="239" 
d="M85 526h69v-526h-69v526z" />
    <glyph glyph-name="Lacute" unicode="&#x139;" horiz-adv-x="527" 
d="M485 63v-63h-404l-1 700h70l-1 -637h336zM90 770l98 174h76l-118 -174h-56z" />
    <glyph glyph-name="lacute" unicode="&#x13a;" horiz-adv-x="304" 
d="M124.5 13c-17.667 12 -28.999 27.833 -33.999 47.5s-7.5 45.5 -7.5 77.5v612h69v-603c0 -26 1.16699 -45.333 3.5 -58s8.66602 -22.667 18.999 -30s26.833 -11 49.5 -11c6.66699 0 14 0.5 22 1.5s13.667 1.5 17 1.5v-50c-20 -4 -39.333 -6 -58 -6
c-36 0 -62.833 6 -80.5 18zM92.001 817l98 174h76l-118 -174h-56z" />
    <glyph glyph-name="Lcaron" unicode="&#x13d;" horiz-adv-x="527" 
d="M485 63v-63h-404l-1 700h70l-1 -637h336zM27 909l86 -94h4l86 94h73l-128 -141h-65l-127 141h71z" />
    <glyph glyph-name="lcaron" unicode="&#x13e;" horiz-adv-x="336" 
d="M124.5 13c-17.667 12 -28.999 27.833 -33.999 47.5s-7.5 45.5 -7.5 77.5v612h69v-603c0 -26 1.16699 -45.333 3.5 -58s8.66602 -22.667 18.999 -30s26.833 -11 49.5 -11c6.66699 0 14 0.5 22 1.5s13.667 1.5 17 1.5v-50c-20 -4 -39.333 -6 -58 -6
c-36 0 -62.833 6 -80.5 18zM216.001 562c20.667 8.66699 35.5 20.001 44.5 34.001s13.5 28.667 13.5 44s-2.5 25.333 -7.5 30s-12.167 7 -21.5 7c-16.667 0 -28.667 4 -36 12s-11 18.333 -11 31c0 16 4.83301 28.667 14.5 38s23.167 14 40.5 14
c26.667 0 44.167 -6.66699 52.5 -20s12.5 -29.333 12.5 -48v-35c0 -38.667 -9.5 -69.334 -28.5 -92.001s-43.5 -39 -73.5 -49v34z" />
    <glyph glyph-name="Nacute" unicode="&#x143;" horiz-adv-x="714" 
d="M80 700h77l405 -587h3v587h69v-700h-77l-404 582h-4v-582h-69v700zM332 770l98 174h76l-118 -174h-56z" />
    <glyph glyph-name="nacute" unicode="&#x144;" 
d="M80 526h70v-99h7c14 32 36.5 59.167 67.5 81.5s68.833 33.5 113.5 33.5c44 0 81.333 -10.333 112 -31s53.667 -48.5 69 -83.5s23 -73.5 23 -115.5v-312h-68v305c0 56 -15 98.667 -45 128s-68.333 44 -115 44c-49.333 0 -89 -15.833 -119 -47.5s-45 -73.167 -45 -124.5
v-305h-70v526zM282 596l98 174h76l-118 -174h-56z" />
    <glyph glyph-name="Ncaron" unicode="&#x147;" horiz-adv-x="714" 
d="M80 700h77l405 -587h3v587h69v-700h-77l-404 582h-4v-582h-69v700zM269 909l86 -94h4l86 94h73l-128 -141h-65l-127 141h71z" />
    <glyph glyph-name="ncaron" unicode="&#x148;" 
d="M80 526h70v-99h7c14 32 36.5 59.167 67.5 81.5s68.833 33.5 113.5 33.5c44 0 81.333 -10.333 112 -31s53.667 -48.5 69 -83.5s23 -73.5 23 -115.5v-312h-68v305c0 56 -15 98.667 -45 128s-68.333 44 -115 44c-49.333 0 -89 -15.833 -119 -47.5s-45 -73.167 -45 -124.5
v-305h-70v526zM219 735l86 -94h4l86 94h73l-128 -141h-65l-127 141h71z" />
    <glyph glyph-name="Omacron" unicode="&#x14c;" horiz-adv-x="739" 
d="M200 39.5c-47.333 30.333 -83.334 72.665 -108.001 126.998s-37 116.5 -37 186.5c0 70.667 12.5 133.334 37.5 188.001s61 97.334 108 128.001s103.167 46 168.5 46s121.5 -15.167 168.5 -45.5s83 -72.833 108 -127.5s37.5 -117.667 37.5 -189
c0 -70.667 -12.5 -133 -37.5 -187s-61 -96.167 -108 -126.5s-103.167 -45.5 -168.5 -45.5s-121.666 15.167 -168.999 45.5zM497.499 95.999c36.333 24.667 64.333 59.333 84 104s29.5 96.334 29.5 155.001c0 58 -9.83301 109.333 -29.5 154s-47.667 79.5 -84 104.5
s-79.166 37.5 -128.499 37.5s-92.166 -12.5 -128.499 -37.5s-64.333 -60 -84 -105s-29.5 -96.5 -29.5 -154.5s9.83301 -109.333 29.5 -154s47.667 -79.334 84 -104.001s79.166 -37 128.499 -37s92.166 12.333 128.499 37zM222.999 841.998h293v-39h-293v39z" />
    <glyph glyph-name="omacron" unicode="&#x14d;" horiz-adv-x="598" 
d="M165 33c-36.667 26 -64.167 59.833 -82.5 101.5s-27.5 85.834 -27.5 132.501c0 47.333 9.16699 91.833 27.5 133.5s45.833 75.5 82.5 101.5s81.334 39 134.001 39s97.334 -13 134.001 -39s64.167 -59.833 82.5 -101.5s27.5 -85.834 27.5 -132.501
c0 -47.333 -9.16699 -91.833 -27.5 -133.5s-45.833 -75.5 -82.5 -101.5s-81.334 -39 -134.001 -39s-97.334 13 -134.001 39zM391.5 83.5c26.333 19 46.668 44.6689 61.001 77.002s21.5 68.166 21.5 107.499c0 40 -7 76.167 -21 108.5s-34.333 57.833 -61 76.5
s-57.667 28 -93 28s-66.333 -9.33301 -93 -28s-47 -44.334 -61 -77.001s-21 -68.667 -21 -108c0 -40 7 -76.167 21 -108.5s34.167 -57.833 60.5 -76.5s57.5 -28 93.5 -28c35.333 0 66.166 9.5 92.499 28.5zM152.002 668.002h293v-39h-293v39z" />
    <glyph glyph-name="OE" unicode="&#x152;" horiz-adv-x="960" 
d="M191 44c-47.333 29.333 -83.334 70.5 -108.001 123.5s-37 113.833 -37 182.5s12.5 129.5 37.5 182.5s61 94.167 108 123.5s103.167 44 168.5 44h532v-63h-351v-250h312v-58h-312v-266h351v-63h-532c-65.333 0 -121.666 14.667 -168.999 44zM470.999 63v574.001h-111
c-49.333 0 -92.333 -12 -129 -36s-64.834 -57.667 -84.501 -101s-29.5 -93 -29.5 -149c0 -56.667 9.83301 -106.834 29.5 -150.501s47.834 -77.5 84.501 -101.5s79.667 -36 129 -36h111z" />
    <glyph glyph-name="oe" unicode="&#x153;" horiz-adv-x="1004" 
d="M164.5 32c-36.333 26 -63.667 59.834 -82 101.501s-27.5 85.834 -27.5 132.501c0 47.333 9.16699 91.833 27.5 133.5s45.666 75.5 81.999 101.5s80.166 39 131.499 39s95 -13.5 131 -40.5s62.333 -61.167 79 -102.5h6c16.667 42.667 42.5 77.5 77.5 104.5
s78.5 40.5 130.5 40.5c44.667 0 84.334 -10.333 119.001 -31s61.667 -51.667 81 -93s29 -92 29 -152v-19h-402v-7c0 -32.667 7.5 -63.334 22.5 -92.001s35.667 -51.667 62 -69s55.5 -26 87.5 -26c36 0 67.667 9.5 95 28.5s47.333 44.833 60 77.5h67
c-14 -46.667 -40 -85.834 -78 -117.501s-86 -47.5 -144 -47.5c-52 0 -95.167 13.167 -129.5 39.5s-60.166 60.5 -77.499 102.5h-6c-16.667 -40.667 -42.834 -74.667 -78.501 -102s-79.5 -41 -131.5 -41c-51.333 0 -95.166 13 -131.499 39zM880.999 298.001
c-2.66699 66 -18.834 113.667 -48.501 143s-67.5 44 -113.5 44c-48.667 0 -88.667 -17.333 -120 -52s-48.666 -79.667 -51.999 -135h334zM386.499 80.501c26.333 18.333 47.001 43.666 62.001 75.999s22.5 68.5 22.5 108.5s-7.5 76.5 -22.5 109.5s-36 58.833 -63 77.5
s-57.5 28 -91.5 28c-34.667 0 -64.834 -9.5 -90.501 -28.5s-45.5 -44.667 -59.5 -77s-21 -68.5 -21 -108.5c0 -40.667 7.33301 -77.167 22 -109.5s35 -57.666 61 -75.999s56 -27.5 90 -27.5s64.167 9.16699 90.5 27.5z" />
    <glyph glyph-name="Racute" unicode="&#x154;" horiz-adv-x="605" 
d="M285 288h-136v-288h-69v700h231c57.333 0 104 -10.333 140 -31s61.667 -46.667 77 -78s23 -64 23 -98c0 -48.667 -15.167 -92.5 -45.5 -131.5s-78.833 -62.5 -145.5 -70.5l194 -291h-77zM149 348l155 -0.000976562c50.667 0 93.334 11 128.001 33s52 59.333 52 112
s-17.333 89.834 -52 111.501s-77.334 32.5 -128.001 32.5h-155v-289zM256 769.999l98 174h76l-118 -174h-56z" />
    <glyph glyph-name="racute" unicode="&#x155;" horiz-adv-x="341" 
d="M75 526l68 0.000976562v-84h5c9.33301 23.333 25 43.166 47 59.499s49.333 24.5 82 24.5c12 0 21.5 -0.5 28.5 -1.5s14.5 -3.16699 22.5 -6.5l-2 -68c-11.333 3.33301 -20.833 5.5 -28.5 6.5s-17.167 1.5 -28.5 1.5c-38 0 -68.5 -11.5 -91.5 -34.5
s-34.5 -61.167 -34.5 -114.5v-309h-68v526zM145 596.001l98 174h76l-118 -174h-56z" />
    <glyph glyph-name="Rcaron" unicode="&#x158;" horiz-adv-x="605" 
d="M285 288h-136v-288h-69v700h231c57.333 0 104 -10.333 140 -31s61.667 -46.667 77 -78s23 -64 23 -98c0 -48.667 -15.167 -92.5 -45.5 -131.5s-78.833 -62.5 -145.5 -70.5l194 -291h-77zM149 348l155 -0.000976562c50.667 0 93.334 11 128.001 33s52 59.333 52 112
s-17.333 89.834 -52 111.501s-77.334 32.5 -128.001 32.5h-155v-289zM193 908.999l86 -94h4l86 94h73l-128 -141h-65l-127 141h71z" />
    <glyph glyph-name="rcaron" unicode="&#x159;" horiz-adv-x="341" 
d="M75 526l68 0.000976562v-84h5c9.33301 23.333 25 43.166 47 59.499s49.333 24.5 82 24.5c12 0 21.5 -0.5 28.5 -1.5s14.5 -3.16699 22.5 -6.5l-2 -68c-11.333 3.33301 -20.833 5.5 -28.5 6.5s-17.167 1.5 -28.5 1.5c-38 0 -68.5 -11.5 -91.5 -34.5
s-34.5 -61.167 -34.5 -114.5v-309h-68v526zM81 735.001l86 -94h4l86 94h73l-128 -141h-65l-127 141h71z" />
    <glyph glyph-name="Sacute" unicode="&#x15a;" horiz-adv-x="598" 
d="M167.5 26c-37.667 22.667 -66.002 51.665 -85.002 86.998s-28.5 72.333 -28.5 111v3h76v-4c0 -25.333 6 -50.666 18 -75.999s31.167 -46.666 57.5 -63.999s59.833 -26 100.5 -26c48 0 87.833 12.5 119.5 37.5s47.5 58.5 47.5 100.5c0 35.333 -11.333 63 -34 83
s-51.667 33.333 -87 40l-107 21c-38.667 7.33301 -77 23.666 -115 48.999s-57 69 -57 131c0 38.667 9.33301 72.834 28 102.501s45.167 52.667 79.5 69s73.5 24.5 117.5 24.5c50.667 0 94 -10.333 130 -31s63 -47.5 81 -80.5s27 -67.167 27 -102.5v-3h-76v3
c0 21.333 -5.16699 43.5 -15.5 66.5s-27.666 42.833 -51.999 59.5s-56.5 25 -96.5 25c-47.333 0 -84.666 -12.667 -111.999 -38s-41 -57 -41 -95c0 -31.333 10.167 -57 30.5 -77s48.5 -33.667 84.5 -41l95 -18c128.667 -26 193 -88 193 -186c0 -39.333 -10 -74.5 -30 -105.5
s-48.167 -55.333 -84.5 -73s-78.5 -26.5 -126.5 -26.5c-54 0 -99.833 11.333 -137.5 34zM284.998 769.998l98 174h76l-118 -174h-56z" />
    <glyph glyph-name="sacute" unicode="&#x15b;" horiz-adv-x="497" 
d="M146.5 19c-31 16.667 -54.666 38.5 -70.999 65.5s-24.5 55.167 -24.5 84.5v4h70v-4c0 -18.667 5.16699 -37 15.5 -55s25.833 -32.667 46.5 -44s45.667 -17 75 -17c35.333 0 64.666 8.5 87.999 25.5s35 40.833 35 71.5c0 25.333 -8.83301 45.333 -26.5 60
s-39.834 24 -66.501 28l-72 10c-44.667 6.66699 -81.167 21.5 -109.5 44.5s-42.5 55.5 -42.5 97.5c0 47.333 17.333 84.5 52 111.5s79 40.5 133 40.5c39.333 0 73.333 -7.5 102 -22.5s50.5 -34.833 65.5 -59.5s22.5 -51.334 22.5 -80.001v-3h-70v2
c0 14.667 -4 30.167 -12 46.5s-21.167 30.5 -39.5 42.5s-41.833 18 -70.5 18c-35.333 0 -63.833 -9 -85.5 -27s-32.5 -41 -32.5 -69c0 -22 7.83301 -40.5 23.5 -55.5s35.834 -24.167 60.501 -27.5l79 -11c44.667 -7.33301 82.167 -22.166 112.5 -44.499
s45.5 -55.833 45.5 -100.5c0 -30.667 -8.5 -58 -25.5 -82s-40.167 -42.5 -69.5 -55.5s-62.333 -19.5 -99 -19.5c-42 0 -78.5 8.33301 -109.5 25zM226.001 600l98 174h76l-118 -174h-56z" />
    <glyph glyph-name="Scedilla" unicode="&#x15e;" horiz-adv-x="598" 
d="M518.5 95c-18.333 -30 -44.333 -54.1699 -78 -72.5029s-72.834 -28.5 -117.501 -30.5l-19 -55h29c32 0 56 -8 72 -24s24 -36.333 24 -61c0 -27.333 -10 -51.166 -30 -71.499s-49 -30.5 -87 -30.5c-18.667 0 -36.667 2.66699 -54 8l2 43c16 -4 33.667 -6 53 -6
c23.333 0 41.333 5.16699 54 15.5s19 23.833 19 40.5c0 18.667 -6.33301 31 -19 37s-25.667 9 -39 9h-81v4l30 92c-48 4 -88.833 17.5 -122.5 40.5s-58.834 51.5 -75.501 85.5s-25 69 -25 105v3h76v-4c0 -25.333 6 -50.666 18 -75.999s31.167 -46.666 57.5 -63.999
s59.833 -26 100.5 -26c48 0 87.833 12.5 119.5 37.5s47.5 58.5 47.5 100.5c0 35.333 -11.333 63 -34 83s-51.667 33.333 -87 40l-107 21c-38.667 7.33301 -77 23.666 -115 48.999s-57 69 -57 131c0 38.667 9.33301 72.834 28 102.501s45.167 52.667 79.5 69
s73.5 24.5 117.5 24.5c50.667 0 94 -10.333 130 -31s63 -47.5 81 -80.5s27 -67.167 27 -102.5v-3h-76v3c0 21.333 -5.16699 43.5 -15.5 66.5s-27.666 42.833 -51.999 59.5s-56.5 25 -96.5 25c-47.333 0 -84.666 -12.667 -111.999 -38s-41 -57 -41 -95
c0 -31.333 10.167 -57 30.5 -77s48.5 -33.667 84.5 -41l95 -18c128.667 -26 193 -88 193 -186c0 -38 -9.16699 -72 -27.5 -102z" />
    <glyph glyph-name="scedilla" unicode="&#x15f;" horiz-adv-x="497" 
d="M403.5 45c-31 -28 -71.166 -44.668 -120.499 -50.001l-19 -57h29c32 0 56 -8 72 -24s24 -36.333 24 -61c0 -27.333 -10 -51.166 -30 -71.499s-49 -30.5 -87 -30.5c-18.667 0 -36.667 2.66699 -54 8l2 43c16 -4 33.667 -6 53 -6c23.333 0 41.333 5.16699 54 15.5
s19 23.833 19 40.5c0 18.667 -6.33301 31 -19 37s-25.667 9 -39 9h-81v4l30 93c-38.667 2.66699 -72 12.5 -100 29.5s-49.333 38.333 -64 64s-22 52.5 -22 80.5v4h70v-4c0 -18.667 5.16699 -37 15.5 -55s25.833 -32.667 46.5 -44s45.667 -17 75 -17
c35.333 0 64.666 8.5 87.999 25.5s35 40.833 35 71.5c0 25.333 -8.83301 45.333 -26.5 60s-39.834 24 -66.501 28l-72 10c-44.667 6.66699 -81.167 21.5 -109.5 44.5s-42.5 55.5 -42.5 97.5c0 47.333 17.333 84.5 52 111.5s79 40.5 133 40.5c39.333 0 73.333 -7.5 102 -22.5
s50.5 -34.833 65.5 -59.5s22.5 -51.334 22.5 -80.001v-3h-70v2c0 14.667 -4 30.167 -12 46.5s-21.167 30.5 -39.5 42.5s-41.833 18 -70.5 18c-35.333 0 -63.833 -9 -85.5 -27s-32.5 -41 -32.5 -69c0 -22 7.83301 -40.5 23.5 -55.5s35.834 -24.167 60.501 -27.5l79 -11
c44.667 -7.33301 82.167 -22.166 112.5 -44.499s45.5 -55.833 45.5 -100.5c0 -42.667 -15.5 -78 -46.5 -106z" />
    <glyph glyph-name="Scaron" unicode="&#x160;" horiz-adv-x="598" 
d="M167.5 26c-37.667 22.667 -66.002 51.665 -85.002 86.998s-28.5 72.333 -28.5 111v3h76v-4c0 -25.333 6 -50.666 18 -75.999s31.167 -46.666 57.5 -63.999s59.833 -26 100.5 -26c48 0 87.833 12.5 119.5 37.5s47.5 58.5 47.5 100.5c0 35.333 -11.333 63 -34 83
s-51.667 33.333 -87 40l-107 21c-38.667 7.33301 -77 23.666 -115 48.999s-57 69 -57 131c0 38.667 9.33301 72.834 28 102.501s45.167 52.667 79.5 69s73.5 24.5 117.5 24.5c50.667 0 94 -10.333 130 -31s63 -47.5 81 -80.5s27 -67.167 27 -102.5v-3h-76v3
c0 21.333 -5.16699 43.5 -15.5 66.5s-27.666 42.833 -51.999 59.5s-56.5 25 -96.5 25c-47.333 0 -84.666 -12.667 -111.999 -38s-41 -57 -41 -95c0 -31.333 10.167 -57 30.5 -77s48.5 -33.667 84.5 -41l95 -18c128.667 -26 193 -88 193 -186c0 -39.333 -10 -74.5 -30 -105.5
s-48.167 -55.333 -84.5 -73s-78.5 -26.5 -126.5 -26.5c-54 0 -99.833 11.333 -137.5 34zM221.998 908.998l86 -94h4l86 94h73l-128 -141h-65l-127 141h71z" />
    <glyph glyph-name="scaron" unicode="&#x161;" horiz-adv-x="497" 
d="M146.5 19c-31 16.667 -54.666 38.5 -70.999 65.5s-24.5 55.167 -24.5 84.5v4h70v-4c0 -18.667 5.16699 -37 15.5 -55s25.833 -32.667 46.5 -44s45.667 -17 75 -17c35.333 0 64.666 8.5 87.999 25.5s35 40.833 35 71.5c0 25.333 -8.83301 45.333 -26.5 60
s-39.834 24 -66.501 28l-72 10c-44.667 6.66699 -81.167 21.5 -109.5 44.5s-42.5 55.5 -42.5 97.5c0 47.333 17.333 84.5 52 111.5s79 40.5 133 40.5c39.333 0 73.333 -7.5 102 -22.5s50.5 -34.833 65.5 -59.5s22.5 -51.334 22.5 -80.001v-3h-70v2
c0 14.667 -4 30.167 -12 46.5s-21.167 30.5 -39.5 42.5s-41.833 18 -70.5 18c-35.333 0 -63.833 -9 -85.5 -27s-32.5 -41 -32.5 -69c0 -22 7.83301 -40.5 23.5 -55.5s35.834 -24.167 60.501 -27.5l79 -11c44.667 -7.33301 82.167 -22.166 112.5 -44.499
s45.5 -55.833 45.5 -100.5c0 -30.667 -8.5 -58 -25.5 -82s-40.167 -42.5 -69.5 -55.5s-62.333 -19.5 -99 -19.5c-42 0 -78.5 8.33301 -109.5 25zM163.001 739l86 -94h4l86 94h73l-128 -141h-65l-127 141h71z" />
    <glyph glyph-name="uni0162" unicode="&#x162;" horiz-adv-x="587" 
d="M540 637h-212v-637h-69v637h-212v63h493v-63zM352 -188.5c12.667 10.333 19 23.832 19 40.499c0 18.667 -6.33301 31 -19 37s-25.667 9 -39 9h-81v4l32 98h46l-21 -62h29c32 0 56 -8 72 -24s24 -36.333 24 -61c0 -27.333 -10 -51.166 -30 -71.499s-49 -30.5 -87 -30.5
c-18.667 0 -36.667 2.66699 -54 8l2 43c16 -4 33.667 -6 53 -6c23.333 0 41.333 5.16699 54 15.5z" />
    <glyph glyph-name="uni0163" unicode="&#x163;" horiz-adv-x="384" 
d="M332 -85c16 -16 24 -36.333 24 -61c0 -27.333 -10 -51.166 -30 -71.499s-49 -30.5 -87 -30.5c-18.667 0 -36.667 2.66699 -54 8l2 43c16 -4 33.667 -6 53 -6c23.333 0 41.333 5.16699 54 15.5s19 23.833 19 40.5c0 18.667 -6.33301 31 -19 37s-25.667 9 -39 9h-81v4
l32 97c-29.333 6.66699 -48.666 20 -57.999 40s-14 48.667 -14 86l1 344h-102v56h102v174h69v-174h127v-56h-127v-329c0 -25.333 1.16699 -43.833 3.5 -55.5s8.5 -20.834 18.5 -27.501s26.333 -10 49 -10c17.333 0 36 2.33301 56 7v-50
c-6.66699 -2.66699 -16.834 -5 -30.501 -7s-28.167 -3 -43.5 -3h-7l-19 -56h29c32 0 56 -8 72 -24z" />
    <glyph glyph-name="Tcaron" unicode="&#x164;" horiz-adv-x="587" 
d="M540 637h-212v-637h-69v637h-212v63h493v-63zM205 909l86 -94h4l86 94h73l-128 -141h-65l-127 141h71z" />
    <glyph glyph-name="tcaron" unicode="&#x165;" horiz-adv-x="481" 
d="M204 470l0.00195312 -328.999c0 -25.333 1.16699 -43.833 3.5 -55.5s8.5 -20.834 18.5 -27.501s26.333 -10 49 -10c17.333 0 36 2.33301 56 7v-50c-6.66699 -2.66699 -16.834 -5 -30.501 -7s-28.167 -3 -43.5 -3c-35.333 0 -61.833 5.16699 -79.5 15.5
s-29.334 24.5 -35.001 42.5s-8.5 42.333 -8.5 73l1 344h-102v56h102v174h69v-174h127v-56h-127zM361.002 562.001c20.667 8.66699 35.5 20.001 44.5 34.001s13.5 28.667 13.5 44s-2.5 25.333 -7.5 30s-12.167 7 -21.5 7c-16.667 0 -28.667 4 -36 12s-11 18.333 -11 31
c0 16 4.83301 28.667 14.5 38s23.167 14 40.5 14c26.667 0 44.167 -6.66699 52.5 -20s12.5 -29.333 12.5 -48v-35c0 -38.667 -9.5 -69.334 -28.5 -92.001s-43.5 -39 -73.5 -49v34z" />
    <glyph glyph-name="Tbar" unicode="&#x166;" horiz-adv-x="587" 
d="M328 637v-217h172v-53h-172v-367h-69v367h-172v53h172v217h-212v63h493v-63h-212z" />
    <glyph glyph-name="tbar" unicode="&#x167;" horiz-adv-x="384" 
d="M204 470l0.000976562 -146h128v-42h-128v-135c0 -26 1.16699 -45.333 3.5 -58s8.66602 -22.667 18.999 -30s26.833 -11 49.5 -11c17.333 0 36 2.33301 56 7v-50c-6.66699 -2.66699 -17 -5 -31 -7s-28.667 -3 -44 -3c-36 0 -62.833 6 -80.5 18s-29 27.833 -34 47.5
s-7.5 45.5 -7.5 77.5v144h-101v42h101l1 146h-102v56h102v174h68v-174h128v-56h-128z" />
    <glyph glyph-name="Utilde" unicode="&#x168;" horiz-adv-x="683" 
d="M137 75.5c-46 56.333 -69.002 134.166 -69.002 233.499v391h68v-391c0 -60 13.333 -117 40 -171s82.334 -81 167.001 -81c82.667 0 137.334 26.833 164.001 80.5s40 110.834 40 171.501v391h67v-391c0 -100 -22.833 -178 -68.5 -234s-113.167 -84 -202.5 -84
c-91.333 0 -160 28.167 -206 84.5zM222.998 868.5c12.667 21 33.667 31.5 63 31.5c12.667 0 23.667 -2.66699 33 -8s21 -13.333 35 -24c10 -8 18.167 -13.833 24.5 -17.5s13.166 -5.5 20.499 -5.5c23.333 0 35 18.333 35 55h45
c1.33301 -26.667 -4.33398 -50.5 -17.001 -71.5s-33.667 -31.5 -63 -31.5c-12.667 0 -24.167 2.66699 -34.5 8s-21.833 13 -34.5 23c-10 8 -18.167 13.833 -24.5 17.5s-13.166 5.5 -20.499 5.5c-12.667 0 -21.667 -5.16699 -27 -15.5s-7.66602 -23.5 -6.99902 -39.5h-46
c-0.666992 27.333 5.33301 51.5 18 72.5z" />
    <glyph glyph-name="utilde" unicode="&#x169;" horiz-adv-x="605" 
d="M532 0h-69v105h-6c-14 -32 -36.167 -59 -66.5 -81s-67.5 -33 -111.5 -33c-43.333 0 -80 10.5 -110 31.5s-52.333 48.833 -67 83.5s-22 72.667 -22 114v306h69v-298c0 -56.667 14.5 -99.667 43.5 -129s66.167 -44 111.5 -44c48 0 86.5 16 115.5 48s43.5 73.667 43.5 125
v298h69v-526zM170 694.5c12.667 21 33.667 31.5 63 31.5c12.667 0 23.667 -2.66699 33 -8s21 -13.333 35 -24c10 -8 18.167 -13.833 24.5 -17.5s13.166 -5.5 20.499 -5.5c23.333 0 35 18.333 35 55h45c1.33301 -26.667 -4.33398 -50.5 -17.001 -71.5
s-33.667 -31.5 -63 -31.5c-12.667 0 -24.167 2.66699 -34.5 8s-21.833 13 -34.5 23c-10 8 -18.167 13.833 -24.5 17.5s-13.166 5.5 -20.499 5.5c-12.667 0 -21.667 -5.16699 -27 -15.5s-7.66602 -23.5 -6.99902 -39.5h-46c-0.666992 27.333 5.33301 51.5 18 72.5z" />
    <glyph glyph-name="Umacron" unicode="&#x16a;" horiz-adv-x="683" 
d="M137 75.5c-46 56.333 -69.002 134.166 -69.002 233.499v391h68v-391c0 -60 13.333 -117 40 -171s82.334 -81 167.001 -81c82.667 0 137.334 26.833 164.001 80.5s40 110.834 40 171.501v391h67v-391c0 -100 -22.833 -178 -68.5 -234s-113.167 -84 -202.5 -84
c-91.333 0 -160 28.167 -206 84.5zM195.998 842h293v-39h-293v39z" />
    <glyph glyph-name="umacron" unicode="&#x16b;" horiz-adv-x="605" 
d="M532 0h-69v105h-6c-14 -32 -36.167 -59 -66.5 -81s-67.5 -33 -111.5 -33c-43.333 0 -80 10.5 -110 31.5s-52.333 48.833 -67 83.5s-22 72.667 -22 114v306h69v-298c0 -56.667 14.5 -99.667 43.5 -129s66.167 -44 111.5 -44c48 0 86.5 16 115.5 48s43.5 73.667 43.5 125
v298h69v-526zM143 668h293v-39h-293v39z" />
    <glyph glyph-name="Uring" unicode="&#x16e;" horiz-adv-x="683" 
d="M137 75.5c-46 56.333 -69.002 134.166 -69.002 233.499v391h68v-391c0 -60 13.333 -117 40 -171s82.334 -81 167.001 -81c82.667 0 137.334 26.833 164.001 80.5s40 110.834 40 171.501v391h67v-391c0 -100 -22.833 -178 -68.5 -234s-113.167 -84 -202.5 -84
c-91.333 0 -160 28.167 -206 84.5zM283.498 815c-16.333 16.667 -24.5 36.334 -24.5 59.001s8.16699 42.167 24.5 58.5s35.833 24.5 58.5 24.5s42.334 -8.16699 59.001 -24.5s25 -35.833 25 -58.5s-8.33301 -42.334 -25 -59.001s-36.334 -25 -59.001 -25
s-42.167 8.33301 -58.5 25zM376.498 839.5c9.66699 9.66699 14.5 21.167 14.5 34.5s-4.83301 24.666 -14.5 33.999s-21.167 14 -34.5 14s-24.666 -4.66699 -33.999 -14s-14 -20.666 -14 -33.999s4.66699 -24.833 14 -34.5s20.666 -14.5 33.999 -14.5
s24.833 4.83301 34.5 14.5z" />
    <glyph glyph-name="uring" unicode="&#x16f;" horiz-adv-x="605" 
d="M532 0h-69v105h-6c-14 -32 -36.167 -59 -66.5 -81s-67.5 -33 -111.5 -33c-43.333 0 -80 10.5 -110 31.5s-52.333 48.833 -67 83.5s-22 72.667 -22 114v306h69v-298c0 -56.667 14.5 -99.667 43.5 -129s66.167 -44 111.5 -44c48 0 86.5 16 115.5 48s43.5 73.667 43.5 125
v298h69v-526zM230.5 641c-16.333 16.667 -24.5 36.334 -24.5 59.001s8.16699 42.167 24.5 58.5s35.833 24.5 58.5 24.5s42.334 -8.16699 59.001 -24.5s25 -35.833 25 -58.5s-8.33301 -42.334 -25 -59.001s-36.334 -25 -59.001 -25s-42.167 8.33301 -58.5 25zM323.5 665.5
c9.66699 9.66699 14.5 21.167 14.5 34.5s-4.83301 24.666 -14.5 33.999s-21.167 14 -34.5 14s-24.666 -4.66699 -33.999 -14s-14 -20.666 -14 -33.999s4.66699 -24.833 14 -34.5s20.666 -14.5 33.999 -14.5s24.833 4.83301 34.5 14.5z" />
    <glyph glyph-name="Uogonek" unicode="&#x172;" horiz-adv-x="683" 
d="M614 700l-0.00195312 -391.001c0 -92.667 -19.833 -166.667 -59.5 -222s-98.5 -86.666 -176.5 -93.999c-18 -12 -31.667 -23 -41 -33s-14 -22.667 -14 -38c0 -12.667 4.33301 -23 13 -31s22.667 -12 42 -12c11.333 0 24.333 1.33301 39 4v-43
c-16.667 -3.33301 -32.667 -5 -48 -5c-30 0 -53.833 7.66699 -71.5 23s-26.5 34.666 -26.5 57.999c0 29.333 12.667 54.666 38 75.999c-80 7.33301 -140.167 38.833 -180.5 94.5s-60.5 129.834 -60.5 222.501v391h68v-391c0 -60 13.333 -117 40 -171s82.334 -81 167.001 -81
c82.667 0 137.334 26.833 164.001 80.5s40 110.834 40 171.501v391h67z" />
    <glyph glyph-name="uogonek" unicode="&#x173;" horiz-adv-x="605" 
d="M551 -110v-42.999c-16.667 -3.33301 -32.667 -5 -48 -5c-30 0 -53.833 7.66699 -71.5 23s-26.5 34.666 -26.5 57.999c0 36.667 19.333 67 58 91v91h-6c-14 -32 -36.167 -59 -66.5 -81s-67.5 -33 -111.5 -33c-43.333 0 -80 10.5 -110 31.5s-52.333 48.833 -67 83.5
s-22 72.667 -22 114v306h69v-298c0 -56.667 14.5 -99.667 43.5 -129s66.167 -44 111.5 -44c48 0 86.5 16 115.5 48s43.5 73.667 43.5 125v298h69v-526h-19c-18 -12 -31.833 -23 -41.5 -33s-14.5 -22.667 -14.5 -38c0 -12.667 4.33301 -23 13 -31s22.667 -12 42 -12
c11.333 0 24.333 1.33301 39 4z" />
    <glyph glyph-name="Wcircumflex" unicode="&#x174;" horiz-adv-x="992" 
d="M16 700h69l167 -622h6l206 622h64l205 -622h6l168 622h69l-190 -700h-97l-190 582h-6l-190 -582h-97zM464 909h65l128 -141h-73l-86 94h-4l-86 -94h-72z" />
    <glyph glyph-name="wcircumflex" unicode="&#x175;" horiz-adv-x="816" 
d="M37 526h67l126 -450h4l143 450h62l145 -450h4l124 450h67l-148 -526h-91l-129 408h-6l-128 -408h-90zM376 735h65l128 -141h-73l-86 94h-4l-86 -94h-72z" />
    <glyph glyph-name="Ycircumflex" unicode="&#x176;" horiz-adv-x="605" 
d="M265 -1v258l-228 443h77l182 -361h8l179 361h78l-227 -443v-257zM267 909h65l128 -141h-73l-86 94h-4l-86 -94h-72z" />
    <glyph glyph-name="ycircumflex" unicode="&#x177;" horiz-adv-x="535" 
d="M226.5 -132.5c-9.66699 -15.667 -24.833 -30.332 -45.5 -43.999s-47 -20.5 -79 -20.5c-19.333 0 -37.666 2.33301 -54.999 7v53c10.667 -2.66699 25 -4 43 -4c22 0 39.5 4.16699 52.5 12.5s23.5 19.333 31.5 33s17.667 34.167 29 61.5l26 64l-197 496h73l157 -419h6
l167 419h73l-251 -598c-10.667 -24.667 -20.834 -44.834 -30.501 -60.501zM233.001 735.002h65l128 -141h-73l-86 94h-4l-86 -94h-72z" />
    <glyph glyph-name="Ydieresis" unicode="&#x178;" horiz-adv-x="605" 
d="M265 -1v258l-228 443h77l182 -361h8l179 361h78l-227 -443v-257zM354 814.5c-9.33301 9.66699 -14 21.5 -14 35.5c0 13.333 4.66699 24.833 14 34.5s21 14.5 35 14.5s25.667 -4.83301 35 -14.5s14 -21.167 14 -34.5c0 -14 -4.66699 -25.833 -14 -35.5
s-21 -14.5 -35 -14.5s-25.667 4.83301 -35 14.5zM176 814.5c-9.33301 9.66699 -14 21.5 -14 35.5c0 13.333 4.66699 24.833 14 34.5s21 14.5 35 14.5s25.667 -4.83301 35 -14.5s14 -21.167 14 -34.5c0 -14 -4.66699 -25.833 -14 -35.5s-21 -14.5 -35 -14.5
s-25.667 4.83301 -35 14.5z" />
    <glyph glyph-name="Zacute" unicode="&#x179;" horiz-adv-x="608" 
d="M55 65l400 568v2h-400v65h485v-65l-401 -568v-2h401v-65h-485v65zM279 770l98 174h76l-118 -174h-56z" />
    <glyph glyph-name="zacute" unicode="&#x17a;" horiz-adv-x="500" 
d="M52 56l324 409v3h-305v59h384v-57l-324 -409v-2h324v-59h-403v56zM230 596l98 174h76l-118 -174h-56z" />
    <glyph glyph-name="Zdotaccent" unicode="&#x17b;" horiz-adv-x="608" 
d="M55 65l400 568v2h-400v65h485v-65l-401 -568v-2h401v-65h-485v65zM268 814.5c-9.33301 9.66699 -14 21.5 -14 35.5c0 13.333 4.66699 24.833 14 34.5s21 14.5 35 14.5s25.667 -4.83301 35 -14.5s14 -21.167 14 -34.5c0 -14 -4.66699 -25.833 -14 -35.5
s-21 -14.5 -35 -14.5s-25.667 4.83301 -35 14.5z" />
    <glyph glyph-name="zdotaccent" unicode="&#x17c;" horiz-adv-x="500" 
d="M52 56l324 409v3h-305v59h384v-57l-324 -409v-2h324v-59h-403v56zM220 640.5c-9.33301 9.66699 -14 21.5 -14 35.5c0 13.333 4.66699 24.833 14 34.5s21 14.5 35 14.5s25.667 -4.83301 35 -14.5s14 -21.167 14 -34.5c0 -14 -4.66699 -25.833 -14 -35.5
s-21 -14.5 -35 -14.5s-25.667 4.83301 -35 14.5z" />
    <glyph glyph-name="Zcaron" unicode="&#x17d;" horiz-adv-x="608" 
d="M55 65l400 568v2h-400v65h485v-65l-401 -568v-2h401v-65h-485v65zM216 909l86 -94h4l86 94h73l-128 -141h-65l-127 141h71z" />
    <glyph glyph-name="zcaron" unicode="&#x17e;" horiz-adv-x="500" 
d="M52 56l324 409v3h-305v59h384v-57l-324 -409v-2h324v-59h-403v56zM167 735l86 -94h4l86 94h73l-128 -141h-65l-127 141h71z" />
    <glyph glyph-name="Ohorn" unicode="&#x1a0;" horiz-adv-x="739" 
d="M648.5 535c23 -53.333 34.498 -114.001 34.498 -182.001c0 -70.667 -12.5 -133 -37.5 -187s-61 -96.167 -108 -126.5s-103.167 -45.5 -168.5 -45.5s-121.666 15.167 -168.999 45.5s-83.333 72.666 -108 126.999s-37 116.5 -37 186.5c0 70.667 12.5 133.334 37.5 188.001
s61 97.334 108 128.001s103.167 46 168.5 46c37.333 0 71.333 -5 102 -15h42c18.667 0 31.834 4 39.501 12s11.5 25.333 11.5 52v24h59v-29c0 -58 -24.333 -90.667 -73 -98c42.667 -30.667 75.5 -72.667 98.5 -126zM497.498 95.999c36.333 24.667 64.333 59.333 84 104
s29.5 96.334 29.5 155.001c0 58 -9.83301 109.333 -29.5 154s-47.667 79.5 -84 104.5s-79.166 37.5 -128.499 37.5s-92.166 -12.5 -128.499 -37.5s-64.333 -60 -84 -105s-29.5 -96.5 -29.5 -154.5s9.83301 -109.333 29.5 -154s47.667 -79.334 84 -104.001
s79.166 -37 128.499 -37s92.166 12.333 128.499 37z" />
    <glyph glyph-name="ohorn" unicode="&#x1a1;" horiz-adv-x="606" 
d="M520.5 389c15 -38.667 22.5 -79.001 22.5 -121.001c0 -47.333 -9.16699 -91.833 -27.5 -133.5s-45.833 -75.5 -82.5 -101.5s-81.334 -39 -134.001 -39s-97.334 13 -134.001 39s-64.167 59.833 -82.5 101.5s-27.5 85.834 -27.5 132.501
c0 47.333 9.16699 91.833 27.5 133.5s45.833 75.5 82.5 101.5s81.334 39 134.001 39c32.667 0 61.667 -5 87 -15h44c18.667 0 31.834 4 39.501 12s11.5 25.333 11.5 52v24h58v-29c0 -34 -8 -58.667 -24 -74s-36.333 -24 -61 -26c29.333 -25.333 51.5 -57.333 66.5 -96z
M391.5 83.499c26.333 19 46.668 44.6689 61.001 77.002s21.5 68.166 21.5 107.499c0 40 -7 76.167 -21 108.5s-34.333 57.833 -61 76.5s-57.667 28 -93 28s-66.333 -9.33301 -93 -28s-47 -44.334 -61 -77.001s-21 -68.667 -21 -108c0 -40 7 -76.167 21 -108.5
s34.167 -57.833 60.5 -76.5s57.5 -28 93.5 -28c35.333 0 66.166 9.5 92.499 28.5z" />
    <glyph glyph-name="Uhorn" unicode="&#x1af;" horiz-adv-x="683" 
d="M721 788l-0.00292969 -29c0 -36 -9 -61.667 -27 -77s-40.667 -23 -68 -23h-12v-350c0 -100 -22.833 -178 -68.5 -234s-113.167 -84 -202.5 -84c-91.333 0 -160 28.167 -206 84.5s-69 134.166 -69 233.499v391h68v-391c0 -60 13.333 -117 40 -171s82.334 -81 167.001 -81
c82.667 0 137.334 26.833 164.001 80.5s40 110.834 40 171.501v391h64c18.667 0 31.834 4 39.501 12s11.5 25.333 11.5 52v24h59z" />
    <glyph glyph-name="uhorn" unicode="&#x1b0;" horiz-adv-x="613" 
d="M639 614l-0.000976562 -29c0 -36 -9 -61.667 -27 -77s-40.667 -23 -68 -23h-12v-485h-69v105h-6c-14 -32 -36.167 -59 -66.5 -81s-67.5 -33 -111.5 -33c-43.333 0 -80 10.5 -110 31.5s-52.333 48.833 -67 83.5s-22 72.667 -22 114v306h69v-298
c0 -56.667 14.5 -99.667 43.5 -129s66.167 -44 111.5 -44c48 0 86.5 16 115.5 48s43.5 73.667 43.5 125v298h67c18.667 0 31.834 4 39.501 12s11.5 25.333 11.5 52v24h58z" />
    <glyph glyph-name="circumflex" unicode="&#x2c6;" horiz-adv-x="397" 
d="M166 735h65l128 -141h-73l-86 94h-4l-86 -94h-72z" />
    <glyph glyph-name="caron" unicode="&#x2c7;" horiz-adv-x="380" 
d="M102 735l86 -94h4l86 94h73l-128 -141h-65l-127 141h71z" />
    <glyph glyph-name="breve" unicode="&#x2d8;" horiz-adv-x="388" 
d="M98.5 633c-25.667 16 -48.168 41 -67.501 75h62c21.333 -35.333 55 -53 101 -53c46.667 0 80.334 17.667 101.001 53h63c-19.333 -34 -42 -59 -68 -75s-58 -24 -96 -24s-69.833 8 -95.5 24z" />
    <glyph glyph-name="dotaccent" unicode="&#x2d9;" horiz-adv-x="156" 
d="M44 640.5c-9.33301 9.66699 -14 21.5 -14 35.5c0 13.333 4.66699 24.833 14 34.5s21 14.5 35 14.5s25.667 -4.83301 35 -14.5s14 -21.167 14 -34.5c0 -14 -4.66699 -25.833 -14 -35.5s-21 -14.5 -35 -14.5s-25.667 4.83301 -35 14.5z" />
    <glyph glyph-name="ring" unicode="&#x2da;" horiz-adv-x="227" 
d="M54.5 641c-16.333 16.667 -24.5 36.334 -24.5 59.001s8.16699 42.167 24.5 58.5s35.833 24.5 58.5 24.5s42.334 -8.16699 59.001 -24.5s25 -35.833 25 -58.5s-8.33301 -42.334 -25 -59.001s-36.334 -25 -59.001 -25s-42.167 8.33301 -58.5 25zM147.5 665.5
c9.66699 9.66699 14.5 21.167 14.5 34.5s-4.83301 24.666 -14.5 33.999s-21.167 14 -34.5 14s-24.666 -4.66699 -33.999 -14s-14 -20.666 -14 -33.999s4.66699 -24.833 14 -34.5s20.666 -14.5 33.999 -14.5s24.833 4.83301 34.5 14.5z" />
    <glyph glyph-name="ogonek" unicode="&#x2db;" horiz-adv-x="206" 
d="M96.5 -55c-9.66699 -10 -14.5 -22.665 -14.5 -37.998c0 -12.667 4.33301 -23 13 -31s22.667 -12 42 -12c11.333 0 24.333 1.33301 39 4v-43c-16.667 -3.33301 -32.667 -5 -48 -5c-30 0 -53.833 7.66699 -71.5 23s-26.5 34.666 -26.5 57.999c0 41.333 25 74.666 75 99.999
l33 -23c-18 -12 -31.833 -23 -41.5 -33z" />
    <glyph glyph-name="tilde" unicode="&#x2dc;" horiz-adv-x="380" 
d="M71 694.5c12.667 21 33.667 31.5 63 31.5c12.667 0 23.667 -2.66699 33 -8s21 -13.333 35 -24c10 -8 18.167 -13.833 24.5 -17.5s13.166 -5.5 20.499 -5.5c23.333 0 35 18.333 35 55h45c1.33301 -26.667 -4.33398 -50.5 -17.001 -71.5s-33.667 -31.5 -63 -31.5
c-12.667 0 -24.167 2.66699 -34.5 8s-21.833 13 -34.5 23c-10 8 -18.167 13.833 -24.5 17.5s-13.166 5.5 -20.499 5.5c-12.667 0 -21.667 -5.16699 -27 -15.5s-7.66602 -23.5 -6.99902 -39.5h-46c-0.666992 27.333 5.33301 51.5 18 72.5z" />
    <glyph glyph-name="gravecomb" unicode="&#x300;" horiz-adv-x="0" 
d="M-221 798h76l98 -174h-56z" />
    <glyph glyph-name="acutecomb" unicode="&#x301;" horiz-adv-x="0" 
d="M-183 624l98 174h76l-118 -174h-56z" />
    <glyph glyph-name="uni0302" unicode="&#x302;" horiz-adv-x="0" 
d="M-218 735h65l128 -141h-73l-86 94h-4l-86 -94h-72z" />
    <glyph glyph-name="tildecomb" unicode="&#x303;" horiz-adv-x="0" 
d="M-285 694.5c12.667 21 33.667 31.5 63 31.5c12.667 0 23.667 -2.66699 33 -8s21 -13.333 35 -24c10 -8 18.167 -13.833 24.5 -17.5s13.166 -5.5 20.499 -5.5c23.333 0 35 18.333 35 55h45c1.33301 -26.667 -4.33398 -50.5 -17.001 -71.5s-33.667 -31.5 -63 -31.5
c-12.667 0 -24.167 2.66699 -34.5 8s-21.833 13 -34.5 23c-10 8 -18.167 13.833 -24.5 17.5s-13.166 5.5 -20.499 5.5c-12.667 0 -21.667 -5.16699 -27 -15.5s-7.66602 -23.5 -6.99902 -39.5h-46c-0.666992 27.333 5.33301 51.5 18 72.5z" />
    <glyph glyph-name="uni0304" unicode="&#x304;" horiz-adv-x="0" 
d="M-343 678h293v-39h-293v39z" />
    <glyph glyph-name="uni0306" unicode="&#x306;" horiz-adv-x="0" 
d="M-287.5 633c-25.667 16 -48.168 41 -67.501 75h62c21.333 -35.333 55 -53 101 -53c46.667 0 80.334 17.667 101.001 53h63c-19.333 -34 -42 -59 -68 -75s-58 -24 -96 -24s-69.833 8 -95.5 24z" />
    <glyph glyph-name="uni0307" unicode="&#x307;" horiz-adv-x="0" 
d="M-156 640.5c-9.33301 9.66699 -14 21.5 -14 35.5c0 13.333 4.66699 24.833 14 34.5s21 14.5 35 14.5s25.667 -4.83301 35 -14.5s14 -21.167 14 -34.5c0 -14 -4.66699 -25.833 -14 -35.5s-21 -14.5 -35 -14.5s-25.667 4.83301 -35 14.5z" />
    <glyph glyph-name="uni0308" unicode="&#x308;" horiz-adv-x="0" 
d="M-153 640.5c-9.33301 9.66699 -14 21.5 -14 35.5c0 13.333 4.66699 24.833 14 34.5s21 14.5 35 14.5s25.667 -4.83301 35 -14.5s14 -21.167 14 -34.5c0 -14 -4.66699 -25.833 -14 -35.5s-21 -14.5 -35 -14.5s-25.667 4.83301 -35 14.5zM-331 640.5
c-9.33301 9.66699 -14 21.5 -14 35.5c0 13.333 4.66699 24.833 14 34.5s21 14.5 35 14.5s25.667 -4.83301 35 -14.5s14 -21.167 14 -34.5c0 -14 -4.66699 -25.833 -14 -35.5s-21 -14.5 -35 -14.5s-25.667 4.83301 -35 14.5z" />
    <glyph glyph-name="hookabovecomb" unicode="&#x309;" horiz-adv-x="0" 
d="M-148 641c5.33301 5.33301 13.001 11.668 23.001 19.001c13.333 10 23.666 19.167 30.999 27.5s11 18.166 11 29.499c0 10.667 -3.5 20 -10.5 28s-18.833 12 -35.5 12c-12.667 0 -22.834 -3 -30.501 -9s-12.5 -13.667 -14.5 -23h-55c4 22 14 40.333 30 55
s39.333 22 70 22c30 0 53.833 -7.66699 71.5 -23s26.5 -34.666 26.5 -57.999c0 -16 -3.66699 -28.833 -11 -38.5s-17.666 -19.834 -30.999 -30.501c-6 -4 -11.5 -8.5 -16.5 -13.5s-8.16699 -9.83301 -9.5 -14.5h-60c2 6 5.66699 11.667 11 17z" />
    <glyph glyph-name="uni030A" unicode="&#x30a;" horiz-adv-x="0" 
d="M-192.5 641c-16.333 16.667 -24.5 36.334 -24.5 59.001s8.16699 42.167 24.5 58.5s35.833 24.5 58.5 24.5s42.334 -8.16699 59.001 -24.5s25 -35.833 25 -58.5s-8.33301 -42.334 -25 -59.001s-36.334 -25 -59.001 -25s-42.167 8.33301 -58.5 25zM-99.5 665.5
c9.66699 9.66699 14.5 21.167 14.5 34.5s-4.83301 24.666 -14.5 33.999s-21.167 14 -34.5 14s-24.666 -4.66699 -33.999 -14s-14 -20.666 -14 -33.999s4.66699 -24.833 14 -34.5s20.666 -14.5 33.999 -14.5s24.833 4.83301 34.5 14.5z" />
    <glyph glyph-name="uni030C" unicode="&#x30c;" horiz-adv-x="0" 
d="M-287 735l86 -94h4l86 94h73l-128 -141h-65l-127 141h71z" />
    <glyph glyph-name="uni031B" unicode="&#x31b;" horiz-adv-x="0" 
d="M-32 631c0 -36 -9.00098 -61.667 -27.001 -77s-40.667 -23 -68 -23h-64v41h49c18.667 0 31.834 4 39.501 12s11.5 25.333 11.5 52v24h59v-29z" />
    <glyph glyph-name="dotbelowcomb" unicode="&#x323;" horiz-adv-x="0" 
d="M-102.5 -201.5c-9.66699 9.66699 -14.5 21.5 -14.5 35.5s4.83301 25.833 14.5 35.5s21.5 14.5 35.5 14.5s25.833 -5 35.5 -15s14.5 -21.667 14.5 -35s-4.83301 -25 -14.5 -35s-21.5 -15 -35.5 -15s-25.833 4.83301 -35.5 14.5z" />
    <glyph glyph-name="uni0327" unicode="&#x327;" horiz-adv-x="0" 
d="M-92 -188.5c12.667 10.333 19 23.832 19 40.499c0 18.667 -6.33301 31 -19 37s-25.667 9 -39 9h-81v4l32 98h46l-21 -62h29c32 0 56 -8 72 -24s24 -36.333 24 -61c0 -27.333 -10 -51.166 -30 -71.499s-49 -30.5 -87 -30.5c-18.667 0 -36.667 2.66699 -54 8l2 43
c16 -4 33.667 -6 53 -6c23.333 0 41.333 5.16699 54 15.5z" />
    <glyph glyph-name="uni0328" unicode="&#x328;" horiz-adv-x="0" 
d="M-111.5 -55c-9.66699 -10 -14.5 -22.665 -14.5 -37.998c0 -12.667 4.33301 -23 13 -31s22.667 -12 42 -12c11.333 0 24.333 1.33301 39 4v-43c-16.667 -3.33301 -32.667 -5 -48 -5c-30 0 -53.833 7.66699 -71.5 23s-26.5 34.666 -26.5 57.999
c0 41.333 25 74.666 75 99.999l33 -23c-18 -12 -31.833 -23 -41.5 -33z" />
    <glyph glyph-name="Wgrave" unicode="&#x1e80;" horiz-adv-x="992" 
d="M16 700h69l167 -622h6l206 622h64l205 -622h6l168 622h69l-190 -700h-97l-190 582h-6l-190 -582h-97zM347 944h76l98 -174h-56z" />
    <glyph glyph-name="wgrave" unicode="&#x1e81;" horiz-adv-x="816" 
d="M37 526h67l126 -450h4l143 450h62l145 -450h4l124 450h67l-148 -526h-91l-129 408h-6l-128 -408h-90zM259 770h76l98 -174h-56z" />
    <glyph glyph-name="Wacute" unicode="&#x1e82;" horiz-adv-x="992" 
d="M16 700h69l167 -622h6l206 622h64l205 -622h6l168 622h69l-190 -700h-97l-190 582h-6l-190 -582h-97zM470 770l98 174h76l-118 -174h-56z" />
    <glyph glyph-name="wacute" unicode="&#x1e83;" horiz-adv-x="816" 
d="M37 526h67l126 -450h4l143 450h62l145 -450h4l124 450h67l-148 -526h-91l-129 408h-6l-128 -408h-90zM383 596l98 174h76l-118 -174h-56z" />
    <glyph glyph-name="Wdieresis" unicode="&#x1e84;" horiz-adv-x="992" 
d="M16 700h69l167 -622h6l206 622h64l205 -622h6l168 622h69l-190 -700h-97l-190 582h-6l-190 -582h-97zM550 814.5c-9.33301 9.66699 -14 21.5 -14 35.5c0 13.333 4.66699 24.833 14 34.5s21 14.5 35 14.5s25.667 -4.83301 35 -14.5s14 -21.167 14 -34.5
c0 -14 -4.66699 -25.833 -14 -35.5s-21 -14.5 -35 -14.5s-25.667 4.83301 -35 14.5zM372 814.5c-9.33301 9.66699 -14 21.5 -14 35.5c0 13.333 4.66699 24.833 14 34.5s21 14.5 35 14.5s25.667 -4.83301 35 -14.5s14 -21.167 14 -34.5c0 -14 -4.66699 -25.833 -14 -35.5
s-21 -14.5 -35 -14.5s-25.667 4.83301 -35 14.5z" />
    <glyph glyph-name="wdieresis" unicode="&#x1e85;" horiz-adv-x="816" 
d="M37 526h67l126 -450h4l143 450h62l145 -450h4l124 450h67l-148 -526h-91l-129 408h-6l-128 -408h-90zM463 640.5c-9.33301 9.66699 -14 21.5 -14 35.5c0 13.333 4.66699 24.833 14 34.5s21 14.5 35 14.5s25.667 -4.83301 35 -14.5s14 -21.167 14 -34.5
c0 -14 -4.66699 -25.833 -14 -35.5s-21 -14.5 -35 -14.5s-25.667 4.83301 -35 14.5zM285 640.5c-9.33301 9.66699 -14 21.5 -14 35.5c0 13.333 4.66699 24.833 14 34.5s21 14.5 35 14.5s25.667 -4.83301 35 -14.5s14 -21.167 14 -34.5c0 -14 -4.66699 -25.833 -14 -35.5
s-21 -14.5 -35 -14.5s-25.667 4.83301 -35 14.5z" />
    <glyph glyph-name="uni1EA0" unicode="&#x1ea0;" horiz-adv-x="682" 
d="M492 214h-301l-80 -214h-70l266 700h67l269 -700h-70zM471 271l-129 340h-4l-126 -340h259zM304.5 -201.5c-9.66699 9.66699 -14.5 21.5 -14.5 35.5s4.83301 25.833 14.5 35.5s21.5 14.5 35.5 14.5s25.833 -5 35.5 -15s14.5 -21.667 14.5 -35s-4.83301 -25 -14.5 -35
s-21.5 -15 -35.5 -15s-25.833 4.83301 -35.5 14.5z" />
    <glyph glyph-name="uni1EA1" unicode="&#x1ea1;" horiz-adv-x="621" 
d="M154.5 30c-33.667 24 -59.334 56.668 -77.001 98.001s-26.5 87.666 -26.5 138.999c0 52 8.83301 98.833 26.5 140.5s43.667 74.5 78 98.5s75.5 36 123.5 36c47.333 0 85.833 -11.5 115.5 -34.5s52.5 -50.833 68.5 -83.5h7v102h69v-526h-69v114h-7
c-17.333 -34 -41.166 -62.5 -71.499 -85.5s-69.166 -34.5 -116.499 -34.5c-46.667 0 -86.834 12 -120.501 36zM422.5 115.501c29.667 40.333 44.5 91.166 44.5 152.499s-14.833 112 -44.5 152s-72.5 60 -128.5 60c-56.667 0 -99.5 -20.167 -128.5 -60.5
s-43.5 -90.833 -43.5 -151.5c0 -61.333 14.667 -112.166 44 -152.499s72 -60.5 128 -60.5s98.833 20.167 128.5 60.5zM274.5 -201.499c-9.66699 9.66699 -14.5 21.5 -14.5 35.5s4.83301 25.833 14.5 35.5s21.5 14.5 35.5 14.5s25.833 -5 35.5 -15s14.5 -21.667 14.5 -35
s-4.83301 -25 -14.5 -35s-21.5 -15 -35.5 -15s-25.833 4.83301 -35.5 14.5z" />
    <glyph glyph-name="uni1EA2" unicode="&#x1ea2;" horiz-adv-x="682" 
d="M492 214h-301l-80 -214h-70l266 700h67l269 -700h-70zM471 271l-129 340h-4l-126 -340h259zM322 787c5.33301 5.33301 13.001 11.668 23.001 19.001c13.333 10 23.666 19.167 30.999 27.5s11 18.166 11 29.499c0 10.667 -3.5 20 -10.5 28s-18.833 12 -35.5 12
c-12.667 0 -22.834 -3 -30.501 -9s-12.5 -13.667 -14.5 -23h-55c4 22 14 40.333 30 55s39.333 22 70 22c30 0 53.833 -7.66699 71.5 -23s26.5 -34.666 26.5 -57.999c0 -16 -3.66699 -28.833 -11 -38.5s-17.666 -19.834 -30.999 -30.501c-6 -4 -11.5 -8.5 -16.5 -13.5
s-8.16699 -9.83301 -9.5 -14.5h-60c2 6 5.66699 11.667 11 17z" />
    <glyph glyph-name="uni1EA3" unicode="&#x1ea3;" horiz-adv-x="621" 
d="M154.5 30c-33.667 24 -59.334 56.668 -77.001 98.001s-26.5 87.666 -26.5 138.999c0 52 8.83301 98.833 26.5 140.5s43.667 74.5 78 98.5s75.5 36 123.5 36c47.333 0 85.833 -11.5 115.5 -34.5s52.5 -50.833 68.5 -83.5h7v102h69v-526h-69v114h-7
c-17.333 -34 -41.166 -62.5 -71.499 -85.5s-69.166 -34.5 -116.499 -34.5c-46.667 0 -86.834 12 -120.501 36zM422.5 115.501c29.667 40.333 44.5 91.166 44.5 152.499s-14.833 112 -44.5 152s-72.5 60 -128.5 60c-56.667 0 -99.5 -20.167 -128.5 -60.5
s-43.5 -90.833 -43.5 -151.5c0 -61.333 14.667 -112.166 44 -152.499s72 -60.5 128 -60.5s98.833 20.167 128.5 60.5zM288 613.001c5.33301 5.33301 13.001 11.668 23.001 19.001c13.333 10 23.666 19.167 30.999 27.5s11 18.166 11 29.499c0 10.667 -3.5 20 -10.5 28
s-18.833 12 -35.5 12c-12.667 0 -22.834 -3 -30.501 -9s-12.5 -13.667 -14.5 -23h-55c4 22 14 40.333 30 55s39.333 22 70 22c30 0 53.833 -7.66699 71.5 -23s26.5 -34.666 26.5 -57.999c0 -16 -3.66699 -28.833 -11 -38.5s-17.666 -19.834 -30.999 -30.501
c-6 -4 -11.5 -8.5 -16.5 -13.5s-8.16699 -9.83301 -9.5 -14.5h-60c2 6 5.66699 11.667 11 17z" />
    <glyph glyph-name="uni1EA4" unicode="&#x1ea4;" horiz-adv-x="682" 
d="M492 214h-301l-80 -214h-70l266 700h67l269 -700h-70zM471 271l-129 340h-4l-126 -340h259zM308 909h65l128 -141h-73l-86 94h-4l-86 -94h-72zM456 891l98 174h76l-118 -174h-56z" />
    <glyph glyph-name="uni1EA5" unicode="&#x1ea5;" horiz-adv-x="621" 
d="M154.5 30c-33.667 24 -59.334 56.668 -77.001 98.001s-26.5 87.666 -26.5 138.999c0 52 8.83301 98.833 26.5 140.5s43.667 74.5 78 98.5s75.5 36 123.5 36c47.333 0 85.833 -11.5 115.5 -34.5s52.5 -50.833 68.5 -83.5h7v102h69v-526h-69v114h-7
c-17.333 -34 -41.166 -62.5 -71.499 -85.5s-69.166 -34.5 -116.499 -34.5c-46.667 0 -86.834 12 -120.501 36zM422.5 115.501c29.667 40.333 44.5 91.166 44.5 152.499s-14.833 112 -44.5 152s-72.5 60 -128.5 60c-56.667 0 -99.5 -20.167 -128.5 -60.5
s-43.5 -90.833 -43.5 -151.5c0 -61.333 14.667 -112.166 44 -152.499s72 -60.5 128 -60.5s98.833 20.167 128.5 60.5zM274 735.001h65l128 -141h-73l-86 94h-4l-86 -94h-72zM422 717.001l98 174h76l-118 -174h-56z" />
    <glyph glyph-name="uni1EA6" unicode="&#x1ea6;" horiz-adv-x="682" 
d="M492 214h-301l-80 -214h-70l266 700h67l269 -700h-70zM471 271l-129 340h-4l-126 -340h259zM308 909h65l128 -141h-73l-86 94h-4l-86 -94h-72zM338 1065h76l98 -174h-56z" />
    <glyph glyph-name="uni1EA7" unicode="&#x1ea7;" horiz-adv-x="621" 
d="M154.5 30c-33.667 24 -59.334 56.668 -77.001 98.001s-26.5 87.666 -26.5 138.999c0 52 8.83301 98.833 26.5 140.5s43.667 74.5 78 98.5s75.5 36 123.5 36c47.333 0 85.833 -11.5 115.5 -34.5s52.5 -50.833 68.5 -83.5h7v102h69v-526h-69v114h-7
c-17.333 -34 -41.166 -62.5 -71.499 -85.5s-69.166 -34.5 -116.499 -34.5c-46.667 0 -86.834 12 -120.501 36zM422.5 115.501c29.667 40.333 44.5 91.166 44.5 152.499s-14.833 112 -44.5 152s-72.5 60 -128.5 60c-56.667 0 -99.5 -20.167 -128.5 -60.5
s-43.5 -90.833 -43.5 -151.5c0 -61.333 14.667 -112.166 44 -152.499s72 -60.5 128 -60.5s98.833 20.167 128.5 60.5zM273 735.001h65l128 -141h-73l-86 94h-4l-86 -94h-72zM303 891.001h76l98 -174h-56z" />
    <glyph glyph-name="uni1EA8" unicode="&#x1ea8;" horiz-adv-x="682" 
d="M492 214h-301l-80 -214h-70l266 700h67l269 -700h-70zM471 271l-129 340h-4l-126 -340h259zM308 909h65l128 -141h-73l-86 94h-4l-86 -94h-72zM464 912c5.33301 5.33301 13.001 11.668 23.001 19.001c13.333 10 23.666 19.167 30.999 27.5s11 18.166 11 29.499
c0 10.667 -3.5 20 -10.5 28s-18.833 12 -35.5 12c-12.667 0 -22.834 -3 -30.501 -9s-12.5 -13.667 -14.5 -23h-55c4 22 14 40.333 30 55s39.333 22 70 22c30 0 53.833 -7.66699 71.5 -23s26.5 -34.666 26.5 -57.999c0 -16 -3.66699 -28.833 -11 -38.5
s-17.666 -19.834 -30.999 -30.501c-6 -4 -11.5 -8.5 -16.5 -13.5s-8.16699 -9.83301 -9.5 -14.5h-60c2 6 5.66699 11.667 11 17z" />
    <glyph glyph-name="uni1EA9" unicode="&#x1ea9;" horiz-adv-x="621" 
d="M154.5 30c-33.667 24 -59.334 56.668 -77.001 98.001s-26.5 87.666 -26.5 138.999c0 52 8.83301 98.833 26.5 140.5s43.667 74.5 78 98.5s75.5 36 123.5 36c47.333 0 85.833 -11.5 115.5 -34.5s52.5 -50.833 68.5 -83.5h7v102h69v-526h-69v114h-7
c-17.333 -34 -41.166 -62.5 -71.499 -85.5s-69.166 -34.5 -116.499 -34.5c-46.667 0 -86.834 12 -120.501 36zM422.5 115.501c29.667 40.333 44.5 91.166 44.5 152.499s-14.833 112 -44.5 152s-72.5 60 -128.5 60c-56.667 0 -99.5 -20.167 -128.5 -60.5
s-43.5 -90.833 -43.5 -151.5c0 -61.333 14.667 -112.166 44 -152.499s72 -60.5 128 -60.5s98.833 20.167 128.5 60.5zM274 735.001h65l128 -141h-73l-86 94h-4l-86 -94h-72zM430 738.001c5.33301 5.33301 13.001 11.668 23.001 19.001c13.333 10 23.666 19.167 30.999 27.5
s11 18.166 11 29.499c0 10.667 -3.5 20 -10.5 28s-18.833 12 -35.5 12c-12.667 0 -22.834 -3 -30.501 -9s-12.5 -13.667 -14.5 -23h-55c4 22 14 40.333 30 55s39.333 22 70 22c30 0 53.833 -7.66699 71.5 -23s26.5 -34.666 26.5 -57.999c0 -16 -3.66699 -28.833 -11 -38.5
s-17.666 -19.834 -30.999 -30.501c-6 -4 -11.5 -8.5 -16.5 -13.5s-8.16699 -9.83301 -9.5 -14.5h-60c2 6 5.66699 11.667 11 17z" />
    <glyph glyph-name="uni1EAA" unicode="&#x1eaa;" horiz-adv-x="682" 
d="M492 214h-301l-80 -214h-70l266 700h67l269 -700h-70zM471 271l-129 340h-4l-126 -340h259zM308 909h65l128 -141h-73l-86 94h-4l-86 -94h-72zM224 1017.5c12.667 21 33.667 31.5 63 31.5c12.667 0 23.667 -2.66699 33 -8s21 -13.333 35 -24
c10 -8 18.167 -13.833 24.5 -17.5s13.166 -5.5 20.499 -5.5c23.333 0 35 18.333 35 55h45c1.33301 -26.667 -4.33398 -50.5 -17.001 -71.5s-33.667 -31.5 -63 -31.5c-12.667 0 -24.167 2.66699 -34.5 8s-21.833 13 -34.5 23c-10 8 -18.167 13.833 -24.5 17.5
s-13.166 5.5 -20.499 5.5c-12.667 0 -21.667 -5.16699 -27 -15.5s-7.66602 -23.5 -6.99902 -39.5h-46c-0.666992 27.333 5.33301 51.5 18 72.5z" />
    <glyph glyph-name="uni1EAB" unicode="&#x1eab;" horiz-adv-x="621" 
d="M154.5 30c-33.667 24 -59.334 56.668 -77.001 98.001s-26.5 87.666 -26.5 138.999c0 52 8.83301 98.833 26.5 140.5s43.667 74.5 78 98.5s75.5 36 123.5 36c47.333 0 85.833 -11.5 115.5 -34.5s52.5 -50.833 68.5 -83.5h7v102h69v-526h-69v114h-7
c-17.333 -34 -41.166 -62.5 -71.499 -85.5s-69.166 -34.5 -116.499 -34.5c-46.667 0 -86.834 12 -120.501 36zM422.5 115.501c29.667 40.333 44.5 91.166 44.5 152.499s-14.833 112 -44.5 152s-72.5 60 -128.5 60c-56.667 0 -99.5 -20.167 -128.5 -60.5
s-43.5 -90.833 -43.5 -151.5c0 -61.333 14.667 -112.166 44 -152.499s72 -60.5 128 -60.5s98.833 20.167 128.5 60.5zM273 735.001h65l128 -141h-73l-86 94h-4l-86 -94h-72zM189 843.501c12.667 21 33.667 31.5 63 31.5c12.667 0 23.667 -2.66699 33 -8s21 -13.333 35 -24
c10 -8 18.167 -13.833 24.5 -17.5s13.166 -5.5 20.499 -5.5c23.333 0 35 18.333 35 55h45c1.33301 -26.667 -4.33398 -50.5 -17.001 -71.5s-33.667 -31.5 -63 -31.5c-12.667 0 -24.167 2.66699 -34.5 8s-21.833 13 -34.5 23c-10 8 -18.167 13.833 -24.5 17.5
s-13.166 5.5 -20.499 5.5c-12.667 0 -21.667 -5.16699 -27 -15.5s-7.66602 -23.5 -6.99902 -39.5h-46c-0.666992 27.333 5.33301 51.5 18 72.5z" />
    <glyph glyph-name="uni1EAC" unicode="&#x1eac;" horiz-adv-x="682" 
d="M492 214h-301l-80 -214h-70l266 700h67l269 -700h-70zM471 271l-129 340h-4l-126 -340h259zM304.5 -201.5c-9.66699 9.66699 -14.5 21.5 -14.5 35.5s4.83301 25.833 14.5 35.5s21.5 14.5 35.5 14.5s25.833 -5 35.5 -15s14.5 -21.667 14.5 -35s-4.83301 -25 -14.5 -35
s-21.5 -15 -35.5 -15s-25.833 4.83301 -35.5 14.5zM308 909h65l128 -141h-73l-86 94h-4l-86 -94h-72z" />
    <glyph glyph-name="uni1EAD" unicode="&#x1ead;" horiz-adv-x="621" 
d="M154.5 30c-33.667 24 -59.334 56.668 -77.001 98.001s-26.5 87.666 -26.5 138.999c0 52 8.83301 98.833 26.5 140.5s43.667 74.5 78 98.5s75.5 36 123.5 36c47.333 0 85.833 -11.5 115.5 -34.5s52.5 -50.833 68.5 -83.5h7v102h69v-526h-69v114h-7
c-17.333 -34 -41.166 -62.5 -71.499 -85.5s-69.166 -34.5 -116.499 -34.5c-46.667 0 -86.834 12 -120.501 36zM422.5 115.501c29.667 40.333 44.5 91.166 44.5 152.499s-14.833 112 -44.5 152s-72.5 60 -128.5 60c-56.667 0 -99.5 -20.167 -128.5 -60.5
s-43.5 -90.833 -43.5 -151.5c0 -61.333 14.667 -112.166 44 -152.499s72 -60.5 128 -60.5s98.833 20.167 128.5 60.5zM274 735.001h65l128 -141h-73l-86 94h-4l-86 -94h-72zM274.5 -201.499c-9.66699 9.66699 -14.5 21.5 -14.5 35.5s4.83301 25.833 14.5 35.5
s21.5 14.5 35.5 14.5s25.833 -5 35.5 -15s14.5 -21.667 14.5 -35s-4.83301 -25 -14.5 -35s-21.5 -15 -35.5 -15s-25.833 4.83301 -35.5 14.5z" />
    <glyph glyph-name="uni1EAE" unicode="&#x1eae;" horiz-adv-x="682" 
d="M492 214h-301l-80 -214h-70l266 700h67l269 -700h-70zM471 271l-129 340h-4l-126 -340h259zM243.5 807c-25.667 16 -48.168 41 -67.501 75h62c21.333 -35.333 55 -53 101 -53c46.667 0 80.334 17.667 101.001 53h63c-19.333 -34 -42 -59 -68 -75s-58 -24 -96 -24
s-69.833 8 -95.5 24zM313.999 904l98 174h76l-118 -174h-56z" />
    <glyph glyph-name="uni1EAF" unicode="&#x1eaf;" horiz-adv-x="621" 
d="M154.5 30c-33.667 24 -59.334 56.668 -77.001 98.001s-26.5 87.666 -26.5 138.999c0 52 8.83301 98.833 26.5 140.5s43.667 74.5 78 98.5s75.5 36 123.5 36c47.333 0 85.833 -11.5 115.5 -34.5s52.5 -50.833 68.5 -83.5h7v102h69v-526h-69v114h-7
c-17.333 -34 -41.166 -62.5 -71.499 -85.5s-69.166 -34.5 -116.499 -34.5c-46.667 0 -86.834 12 -120.501 36zM422.5 115.501c29.667 40.333 44.5 91.166 44.5 152.499s-14.833 112 -44.5 152s-72.5 60 -128.5 60c-56.667 0 -99.5 -20.167 -128.5 -60.5
s-43.5 -90.833 -43.5 -151.5c0 -61.333 14.667 -112.166 44 -152.499s72 -60.5 128 -60.5s98.833 20.167 128.5 60.5zM209.5 633.001c-25.667 16 -48.168 41 -67.501 75h62c21.333 -35.333 55 -53 101 -53c46.667 0 80.334 17.667 101.001 53h63
c-19.333 -34 -42 -59 -68 -75s-58 -24 -96 -24s-69.833 8 -95.5 24zM279.999 730.001l98 174h76l-118 -174h-56z" />
    <glyph glyph-name="uni1EB0" unicode="&#x1eb0;" horiz-adv-x="682" 
d="M492 214h-301l-80 -214h-70l266 700h67l269 -700h-70zM471 271l-129 340h-4l-126 -340h259zM245.5 807c-25.667 16 -48.168 41 -67.501 75h62c21.333 -35.333 55 -53 101 -53c46.667 0 80.334 17.667 101.001 53h63c-19.333 -34 -42 -59 -68 -75s-58 -24 -96 -24
s-69.833 8 -95.5 24zM191.999 1078h76l98 -174h-56z" />
    <glyph glyph-name="uni1EB1" unicode="&#x1eb1;" horiz-adv-x="621" 
d="M154.5 30c-33.667 24 -59.334 56.668 -77.001 98.001s-26.5 87.666 -26.5 138.999c0 52 8.83301 98.833 26.5 140.5s43.667 74.5 78 98.5s75.5 36 123.5 36c47.333 0 85.833 -11.5 115.5 -34.5s52.5 -50.833 68.5 -83.5h7v102h69v-526h-69v114h-7
c-17.333 -34 -41.166 -62.5 -71.499 -85.5s-69.166 -34.5 -116.499 -34.5c-46.667 0 -86.834 12 -120.501 36zM422.5 115.501c29.667 40.333 44.5 91.166 44.5 152.499s-14.833 112 -44.5 152s-72.5 60 -128.5 60c-56.667 0 -99.5 -20.167 -128.5 -60.5
s-43.5 -90.833 -43.5 -151.5c0 -61.333 14.667 -112.166 44 -152.499s72 -60.5 128 -60.5s98.833 20.167 128.5 60.5zM211.5 633.001c-25.667 16 -48.168 41 -67.501 75h62c21.333 -35.333 55 -53 101 -53c46.667 0 80.334 17.667 101.001 53h63
c-19.333 -34 -42 -59 -68 -75s-58 -24 -96 -24s-69.833 8 -95.5 24zM157.999 904.001h76l98 -174h-56z" />
    <glyph glyph-name="uni1EB2" unicode="&#x1eb2;" horiz-adv-x="682" 
d="M492 214h-301l-80 -214h-70l266 700h67l269 -700h-70zM471 271l-129 340h-4l-126 -340h259zM243.5 807c-25.667 16 -48.168 41 -67.501 75h62c21.333 -35.333 55 -53 101 -53c46.667 0 80.334 17.667 101.001 53h63c-19.333 -34 -42 -59 -68 -75s-58 -24 -96 -24
s-69.833 8 -95.5 24zM321.999 921c5.33301 5.33301 13.001 11.668 23.001 19.001c13.333 10 23.666 19.167 30.999 27.5s11 18.166 11 29.499c0 10.667 -3.5 20 -10.5 28s-18.833 12 -35.5 12c-12.667 0 -22.834 -3 -30.501 -9s-12.5 -13.667 -14.5 -23h-55
c4 22 14 40.333 30 55s39.333 22 70 22c30 0 53.833 -7.66699 71.5 -23s26.5 -34.666 26.5 -57.999c0 -16 -3.66699 -28.833 -11 -38.5s-17.666 -19.834 -30.999 -30.501c-6 -4 -11.5 -8.5 -16.5 -13.5s-8.16699 -9.83301 -9.5 -14.5h-60c2 6 5.66699 11.667 11 17z" />
    <glyph glyph-name="uni1EB3" unicode="&#x1eb3;" horiz-adv-x="621" 
d="M154.5 30c-33.667 24 -59.334 56.668 -77.001 98.001s-26.5 87.666 -26.5 138.999c0 52 8.83301 98.833 26.5 140.5s43.667 74.5 78 98.5s75.5 36 123.5 36c47.333 0 85.833 -11.5 115.5 -34.5s52.5 -50.833 68.5 -83.5h7v102h69v-526h-69v114h-7
c-17.333 -34 -41.166 -62.5 -71.499 -85.5s-69.166 -34.5 -116.499 -34.5c-46.667 0 -86.834 12 -120.501 36zM422.5 115.501c29.667 40.333 44.5 91.166 44.5 152.499s-14.833 112 -44.5 152s-72.5 60 -128.5 60c-56.667 0 -99.5 -20.167 -128.5 -60.5
s-43.5 -90.833 -43.5 -151.5c0 -61.333 14.667 -112.166 44 -152.499s72 -60.5 128 -60.5s98.833 20.167 128.5 60.5zM209.5 633.001c-25.667 16 -48.168 41 -67.501 75h62c21.333 -35.333 55 -53 101 -53c46.667 0 80.334 17.667 101.001 53h63
c-19.333 -34 -42 -59 -68 -75s-58 -24 -96 -24s-69.833 8 -95.5 24zM287.999 747.001c5.33301 5.33301 13.001 11.668 23.001 19.001c13.333 10 23.666 19.167 30.999 27.5s11 18.166 11 29.499c0 10.667 -3.5 20 -10.5 28s-18.833 12 -35.5 12
c-12.667 0 -22.834 -3 -30.501 -9s-12.5 -13.667 -14.5 -23h-55c4 22 14 40.333 30 55s39.333 22 70 22c30 0 53.833 -7.66699 71.5 -23s26.5 -34.666 26.5 -57.999c0 -16 -3.66699 -28.833 -11 -38.5s-17.666 -19.834 -30.999 -30.501c-6 -4 -11.5 -8.5 -16.5 -13.5
s-8.16699 -9.83301 -9.5 -14.5h-60c2 6 5.66699 11.667 11 17z" />
    <glyph glyph-name="uni1EB4" unicode="&#x1eb4;" horiz-adv-x="682" 
d="M492 214h-301l-80 -214h-70l266 700h67l269 -700h-70zM471 271l-129 340h-4l-126 -340h259zM243.5 807c-25.667 16 -48.168 41 -67.501 75h62c21.333 -35.333 55 -53 101 -53c46.667 0 80.334 17.667 101.001 53h63c-19.333 -34 -42 -59 -68 -75s-58 -24 -96 -24
s-69.833 8 -95.5 24zM219.999 1002.5c12.667 21 33.667 31.5 63 31.5c12.667 0 23.667 -2.66699 33 -8s21 -13.333 35 -24c10 -8 18.167 -13.833 24.5 -17.5s13.166 -5.5 20.499 -5.5c23.333 0 35 18.333 35 55h45c1.33301 -26.667 -4.33398 -50.5 -17.001 -71.5
s-33.667 -31.5 -63 -31.5c-12.667 0 -24.167 2.66699 -34.5 8s-21.833 13 -34.5 23c-10 8 -18.167 13.833 -24.5 17.5s-13.166 5.5 -20.499 5.5c-12.667 0 -21.667 -5.16699 -27 -15.5s-7.66602 -23.5 -6.99902 -39.5h-46c-0.666992 27.333 5.33301 51.5 18 72.5z" />
    <glyph glyph-name="uni1EB5" unicode="&#x1eb5;" horiz-adv-x="621" 
d="M154.5 30c-33.667 24 -59.334 56.668 -77.001 98.001s-26.5 87.666 -26.5 138.999c0 52 8.83301 98.833 26.5 140.5s43.667 74.5 78 98.5s75.5 36 123.5 36c47.333 0 85.833 -11.5 115.5 -34.5s52.5 -50.833 68.5 -83.5h7v102h69v-526h-69v114h-7
c-17.333 -34 -41.166 -62.5 -71.499 -85.5s-69.166 -34.5 -116.499 -34.5c-46.667 0 -86.834 12 -120.501 36zM422.5 115.501c29.667 40.333 44.5 91.166 44.5 152.499s-14.833 112 -44.5 152s-72.5 60 -128.5 60c-56.667 0 -99.5 -20.167 -128.5 -60.5
s-43.5 -90.833 -43.5 -151.5c0 -61.333 14.667 -112.166 44 -152.499s72 -60.5 128 -60.5s98.833 20.167 128.5 60.5zM209.5 633.001c-25.667 16 -48.168 41 -67.501 75h62c21.333 -35.333 55 -53 101 -53c46.667 0 80.334 17.667 101.001 53h63
c-19.333 -34 -42 -59 -68 -75s-58 -24 -96 -24s-69.833 8 -95.5 24zM185.999 828.501c12.667 21 33.667 31.5 63 31.5c12.667 0 23.667 -2.66699 33 -8s21 -13.333 35 -24c10 -8 18.167 -13.833 24.5 -17.5s13.166 -5.5 20.499 -5.5c23.333 0 35 18.333 35 55h45
c1.33301 -26.667 -4.33398 -50.5 -17.001 -71.5s-33.667 -31.5 -63 -31.5c-12.667 0 -24.167 2.66699 -34.5 8s-21.833 13 -34.5 23c-10 8 -18.167 13.833 -24.5 17.5s-13.166 5.5 -20.499 5.5c-12.667 0 -21.667 -5.16699 -27 -15.5s-7.66602 -23.5 -6.99902 -39.5h-46
c-0.666992 27.333 5.33301 51.5 18 72.5z" />
    <glyph glyph-name="uni1EB6" unicode="&#x1eb6;" horiz-adv-x="682" 
d="M492 214h-301l-80 -214h-70l266 700h67l269 -700h-70zM471 271l-129 340h-4l-126 -340h259zM304.5 -201.5c-9.66699 9.66699 -14.5 21.5 -14.5 35.5s4.83301 25.833 14.5 35.5s21.5 14.5 35.5 14.5s25.833 -5 35.5 -15s14.5 -21.667 14.5 -35s-4.83301 -25 -14.5 -35
s-21.5 -15 -35.5 -15s-25.833 4.83301 -35.5 14.5zM243.5 807c-25.667 16 -48.168 41 -67.501 75h62c21.333 -35.333 55 -53 101 -53c46.667 0 80.334 17.667 101.001 53h63c-19.333 -34 -42 -59 -68 -75s-58 -24 -96 -24s-69.833 8 -95.5 24z" />
    <glyph glyph-name="uni1EB7" unicode="&#x1eb7;" horiz-adv-x="621" 
d="M154.5 30c-33.667 24 -59.334 56.668 -77.001 98.001s-26.5 87.666 -26.5 138.999c0 52 8.83301 98.833 26.5 140.5s43.667 74.5 78 98.5s75.5 36 123.5 36c47.333 0 85.833 -11.5 115.5 -34.5s52.5 -50.833 68.5 -83.5h7v102h69v-526h-69v114h-7
c-17.333 -34 -41.166 -62.5 -71.499 -85.5s-69.166 -34.5 -116.499 -34.5c-46.667 0 -86.834 12 -120.501 36zM422.5 115.501c29.667 40.333 44.5 91.166 44.5 152.499s-14.833 112 -44.5 152s-72.5 60 -128.5 60c-56.667 0 -99.5 -20.167 -128.5 -60.5
s-43.5 -90.833 -43.5 -151.5c0 -61.333 14.667 -112.166 44 -152.499s72 -60.5 128 -60.5s98.833 20.167 128.5 60.5zM209.5 633.001c-25.667 16 -48.168 41 -67.501 75h62c21.333 -35.333 55 -53 101 -53c46.667 0 80.334 17.667 101.001 53h63
c-19.333 -34 -42 -59 -68 -75s-58 -24 -96 -24s-69.833 8 -95.5 24zM274.499 -201.499c-9.66699 9.66699 -14.5 21.5 -14.5 35.5s4.83301 25.833 14.5 35.5s21.5 14.5 35.5 14.5s25.833 -5 35.5 -15s14.5 -21.667 14.5 -35s-4.83301 -25 -14.5 -35s-21.5 -15 -35.5 -15
s-25.833 4.83301 -35.5 14.5z" />
    <glyph glyph-name="uni1EB8" unicode="&#x1eb8;" horiz-adv-x="570" 
d="M150 637v-250h312v-58h-312v-266h352v-63h-421v700h421v-63h-352zM255.5 -201.5c-9.66699 9.66699 -14.5 21.5 -14.5 35.5s4.83301 25.833 14.5 35.5s21.5 14.5 35.5 14.5s25.833 -5 35.5 -15s14.5 -21.667 14.5 -35s-4.83301 -25 -14.5 -35s-21.5 -15 -35.5 -15
s-25.833 4.83301 -35.5 14.5z" />
    <glyph glyph-name="uni1EB9" unicode="&#x1eb9;" horiz-adv-x="585" 
d="M164 33c-36.667 26 -64.001 59.998 -82.001 101.998s-27 86.333 -27 133s9 91 27 133s45.333 76 82 102s81.667 39 135 39c70 0 126 -23.667 168 -71s63 -115.666 63 -204.999v-19h-406v-7c0 -32 7.16699 -62.5 21.5 -91.5s34.833 -52.167 61.5 -69.5s57 -26 91 -26
c37.333 0 69.333 9.5 96 28.5s46.667 44.833 60 77.5h68c-14.667 -47.333 -40.667 -86.666 -78 -117.999s-85.666 -47 -144.999 -47c-53.333 0 -98.333 13 -135 39zM460.999 297.998c-2.66699 66 -18.667 113.667 -48 143s-67.333 44 -114 44
c-52 0 -93.167 -17.333 -123.5 -52s-46.833 -79.667 -49.5 -135h335zM264.499 -201.502c-9.66699 9.66699 -14.5 21.5 -14.5 35.5s4.83301 25.833 14.5 35.5s21.5 14.5 35.5 14.5s25.833 -5 35.5 -15s14.5 -21.667 14.5 -35s-4.83301 -25 -14.5 -35s-21.5 -15 -35.5 -15
s-25.833 4.83301 -35.5 14.5z" />
    <glyph glyph-name="uni1EBA" unicode="&#x1eba;" horiz-adv-x="570" 
d="M150 637v-250h312v-58h-312v-266h352v-63h-421v700h421v-63h-352zM273 787c5.33301 5.33301 13.001 11.668 23.001 19.001c13.333 10 23.666 19.167 30.999 27.5s11 18.166 11 29.499c0 10.667 -3.5 20 -10.5 28s-18.833 12 -35.5 12c-12.667 0 -22.834 -3 -30.501 -9
s-12.5 -13.667 -14.5 -23h-55c4 22 14 40.333 30 55s39.333 22 70 22c30 0 53.833 -7.66699 71.5 -23s26.5 -34.666 26.5 -57.999c0 -16 -3.66699 -28.833 -11 -38.5s-17.666 -19.834 -30.999 -30.501c-6 -4 -11.5 -8.5 -16.5 -13.5s-8.16699 -9.83301 -9.5 -14.5h-60
c2 6 5.66699 11.667 11 17z" />
    <glyph glyph-name="uni1EBB" unicode="&#x1ebb;" horiz-adv-x="585" 
d="M164 33c-36.667 26 -64.001 59.998 -82.001 101.998s-27 86.333 -27 133s9 91 27 133s45.333 76 82 102s81.667 39 135 39c70 0 126 -23.667 168 -71s63 -115.666 63 -204.999v-19h-406v-7c0 -32 7.16699 -62.5 21.5 -91.5s34.833 -52.167 61.5 -69.5s57 -26 91 -26
c37.333 0 69.333 9.5 96 28.5s46.667 44.833 60 77.5h68c-14.667 -47.333 -40.667 -86.666 -78 -117.999s-85.666 -47 -144.999 -47c-53.333 0 -98.333 13 -135 39zM460.999 297.998c-2.66699 66 -18.667 113.667 -48 143s-67.333 44 -114 44
c-52 0 -93.167 -17.333 -123.5 -52s-46.833 -79.667 -49.5 -135h335zM281.999 612.998c5.33301 5.33301 13.001 11.668 23.001 19.001c13.333 10 23.666 19.167 30.999 27.5s11 18.166 11 29.499c0 10.667 -3.5 20 -10.5 28s-18.833 12 -35.5 12
c-12.667 0 -22.834 -3 -30.501 -9s-12.5 -13.667 -14.5 -23h-55c4 22 14 40.333 30 55s39.333 22 70 22c30 0 53.833 -7.66699 71.5 -23s26.5 -34.666 26.5 -57.999c0 -16 -3.66699 -28.833 -11 -38.5s-17.666 -19.834 -30.999 -30.501c-6 -4 -11.5 -8.5 -16.5 -13.5
s-8.16699 -9.83301 -9.5 -14.5h-60c2 6 5.66699 11.667 11 17z" />
    <glyph glyph-name="uni1EBC" unicode="&#x1ebc;" horiz-adv-x="570" 
d="M150 637v-250h312v-58h-312v-266h352v-63h-421v700h421v-63h-352zM171 868.5c12.667 21 33.667 31.5 63 31.5c12.667 0 23.667 -2.66699 33 -8s21 -13.333 35 -24c10 -8 18.167 -13.833 24.5 -17.5s13.166 -5.5 20.499 -5.5c23.333 0 35 18.333 35 55h45
c1.33301 -26.667 -4.33398 -50.5 -17.001 -71.5s-33.667 -31.5 -63 -31.5c-12.667 0 -24.167 2.66699 -34.5 8s-21.833 13 -34.5 23c-10 8 -18.167 13.833 -24.5 17.5s-13.166 5.5 -20.499 5.5c-12.667 0 -21.667 -5.16699 -27 -15.5s-7.66602 -23.5 -6.99902 -39.5h-46
c-0.666992 27.333 5.33301 51.5 18 72.5z" />
    <glyph glyph-name="uni1EBD" unicode="&#x1ebd;" horiz-adv-x="585" 
d="M164 33c-36.667 26 -64.001 59.998 -82.001 101.998s-27 86.333 -27 133s9 91 27 133s45.333 76 82 102s81.667 39 135 39c70 0 126 -23.667 168 -71s63 -115.666 63 -204.999v-19h-406v-7c0 -32 7.16699 -62.5 21.5 -91.5s34.833 -52.167 61.5 -69.5s57 -26 91 -26
c37.333 0 69.333 9.5 96 28.5s46.667 44.833 60 77.5h68c-14.667 -47.333 -40.667 -86.666 -78 -117.999s-85.666 -47 -144.999 -47c-53.333 0 -98.333 13 -135 39zM460.999 297.998c-2.66699 66 -18.667 113.667 -48 143s-67.333 44 -114 44
c-52 0 -93.167 -17.333 -123.5 -52s-46.833 -79.667 -49.5 -135h335zM179.999 694.498c12.667 21 33.667 31.5 63 31.5c12.667 0 23.667 -2.66699 33 -8s21 -13.333 35 -24c10 -8 18.167 -13.833 24.5 -17.5s13.166 -5.5 20.499 -5.5c23.333 0 35 18.333 35 55h45
c1.33301 -26.667 -4.33398 -50.5 -17.001 -71.5s-33.667 -31.5 -63 -31.5c-12.667 0 -24.167 2.66699 -34.5 8s-21.833 13 -34.5 23c-10 8 -18.167 13.833 -24.5 17.5s-13.166 5.5 -20.499 5.5c-12.667 0 -21.667 -5.16699 -27 -15.5s-7.66602 -23.5 -6.99902 -39.5h-46
c-0.666992 27.333 5.33301 51.5 18 72.5z" />
    <glyph glyph-name="uni1EBE" unicode="&#x1ebe;" horiz-adv-x="570" 
d="M150 637v-250h312v-58h-312v-266h352v-63h-421v700h421v-63h-352zM259 909h65l128 -141h-73l-86 94h-4l-86 -94h-72zM407 891l98 174h76l-118 -174h-56z" />
    <glyph glyph-name="uni1EBF" unicode="&#x1ebf;" horiz-adv-x="585" 
d="M164 33c-36.667 26 -64.001 59.998 -82.001 101.998s-27 86.333 -27 133s9 91 27 133s45.333 76 82 102s81.667 39 135 39c70 0 126 -23.667 168 -71s63 -115.666 63 -204.999v-19h-406v-7c0 -32 7.16699 -62.5 21.5 -91.5s34.833 -52.167 61.5 -69.5s57 -26 91 -26
c37.333 0 69.333 9.5 96 28.5s46.667 44.833 60 77.5h68c-14.667 -47.333 -40.667 -86.666 -78 -117.999s-85.666 -47 -144.999 -47c-53.333 0 -98.333 13 -135 39zM460.999 297.998c-2.66699 66 -18.667 113.667 -48 143s-67.333 44 -114 44
c-52 0 -93.167 -17.333 -123.5 -52s-46.833 -79.667 -49.5 -135h335zM267.999 734.998h65l128 -141h-73l-86 94h-4l-86 -94h-72zM415.999 716.998l98 174h76l-118 -174h-56z" />
    <glyph glyph-name="uni1EC0" unicode="&#x1ec0;" horiz-adv-x="570" 
d="M150 637v-250h312v-58h-312v-266h352v-63h-421v700h421v-63h-352zM258 909h65l128 -141h-73l-86 94h-4l-86 -94h-72zM288 1065h76l98 -174h-56z" />
    <glyph glyph-name="uni1EC1" unicode="&#x1ec1;" horiz-adv-x="585" 
d="M164 33c-36.667 26 -64.001 59.998 -82.001 101.998s-27 86.333 -27 133s9 91 27 133s45.333 76 82 102s81.667 39 135 39c70 0 126 -23.667 168 -71s63 -115.666 63 -204.999v-19h-406v-7c0 -32 7.16699 -62.5 21.5 -91.5s34.833 -52.167 61.5 -69.5s57 -26 91 -26
c37.333 0 69.333 9.5 96 28.5s46.667 44.833 60 77.5h68c-14.667 -47.333 -40.667 -86.666 -78 -117.999s-85.666 -47 -144.999 -47c-53.333 0 -98.333 13 -135 39zM460.999 297.998c-2.66699 66 -18.667 113.667 -48 143s-67.333 44 -114 44
c-52 0 -93.167 -17.333 -123.5 -52s-46.833 -79.667 -49.5 -135h335zM266.999 734.998h65l128 -141h-73l-86 94h-4l-86 -94h-72zM296.999 890.998h76l98 -174h-56z" />
    <glyph glyph-name="uni1EC2" unicode="&#x1ec2;" horiz-adv-x="570" 
d="M150 637v-250h312v-58h-312v-266h352v-63h-421v700h421v-63h-352zM259 909h65l128 -141h-73l-86 94h-4l-86 -94h-72zM415 912c5.33301 5.33301 13.001 11.668 23.001 19.001c13.333 10 23.666 19.167 30.999 27.5s11 18.166 11 29.499c0 10.667 -3.5 20 -10.5 28
s-18.833 12 -35.5 12c-12.667 0 -22.834 -3 -30.501 -9s-12.5 -13.667 -14.5 -23h-55c4 22 14 40.333 30 55s39.333 22 70 22c30 0 53.833 -7.66699 71.5 -23s26.5 -34.666 26.5 -57.999c0 -16 -3.66699 -28.833 -11 -38.5s-17.666 -19.834 -30.999 -30.501
c-6 -4 -11.5 -8.5 -16.5 -13.5s-8.16699 -9.83301 -9.5 -14.5h-60c2 6 5.66699 11.667 11 17z" />
    <glyph glyph-name="uni1EC3" unicode="&#x1ec3;" horiz-adv-x="585" 
d="M164 33c-36.667 26 -64.001 59.998 -82.001 101.998s-27 86.333 -27 133s9 91 27 133s45.333 76 82 102s81.667 39 135 39c70 0 126 -23.667 168 -71s63 -115.666 63 -204.999v-19h-406v-7c0 -32 7.16699 -62.5 21.5 -91.5s34.833 -52.167 61.5 -69.5s57 -26 91 -26
c37.333 0 69.333 9.5 96 28.5s46.667 44.833 60 77.5h68c-14.667 -47.333 -40.667 -86.666 -78 -117.999s-85.666 -47 -144.999 -47c-53.333 0 -98.333 13 -135 39zM460.999 297.998c-2.66699 66 -18.667 113.667 -48 143s-67.333 44 -114 44
c-52 0 -93.167 -17.333 -123.5 -52s-46.833 -79.667 -49.5 -135h335zM267.999 734.998h65l128 -141h-73l-86 94h-4l-86 -94h-72zM423.999 737.998c5.33301 5.33301 13.001 11.668 23.001 19.001c13.333 10 23.666 19.167 30.999 27.5s11 18.166 11 29.499
c0 10.667 -3.5 20 -10.5 28s-18.833 12 -35.5 12c-12.667 0 -22.834 -3 -30.501 -9s-12.5 -13.667 -14.5 -23h-55c4 22 14 40.333 30 55s39.333 22 70 22c30 0 53.833 -7.66699 71.5 -23s26.5 -34.666 26.5 -57.999c0 -16 -3.66699 -28.833 -11 -38.5
s-17.666 -19.834 -30.999 -30.501c-6 -4 -11.5 -8.5 -16.5 -13.5s-8.16699 -9.83301 -9.5 -14.5h-60c2 6 5.66699 11.667 11 17z" />
    <glyph glyph-name="uni1EC4" unicode="&#x1ec4;" horiz-adv-x="570" 
d="M150 637v-250h312v-58h-312v-266h352v-63h-421v700h421v-63h-352zM258 909h65l128 -141h-73l-86 94h-4l-86 -94h-72zM174 1017.5c12.667 21 33.667 31.5 63 31.5c12.667 0 23.667 -2.66699 33 -8s21 -13.333 35 -24c10 -8 18.167 -13.833 24.5 -17.5
s13.166 -5.5 20.499 -5.5c23.333 0 35 18.333 35 55h45c1.33301 -26.667 -4.33398 -50.5 -17.001 -71.5s-33.667 -31.5 -63 -31.5c-12.667 0 -24.167 2.66699 -34.5 8s-21.833 13 -34.5 23c-10 8 -18.167 13.833 -24.5 17.5s-13.166 5.5 -20.499 5.5
c-12.667 0 -21.667 -5.16699 -27 -15.5s-7.66602 -23.5 -6.99902 -39.5h-46c-0.666992 27.333 5.33301 51.5 18 72.5z" />
    <glyph glyph-name="uni1EC5" unicode="&#x1ec5;" horiz-adv-x="585" 
d="M164 33c-36.667 26 -64.001 59.998 -82.001 101.998s-27 86.333 -27 133s9 91 27 133s45.333 76 82 102s81.667 39 135 39c70 0 126 -23.667 168 -71s63 -115.666 63 -204.999v-19h-406v-7c0 -32 7.16699 -62.5 21.5 -91.5s34.833 -52.167 61.5 -69.5s57 -26 91 -26
c37.333 0 69.333 9.5 96 28.5s46.667 44.833 60 77.5h68c-14.667 -47.333 -40.667 -86.666 -78 -117.999s-85.666 -47 -144.999 -47c-53.333 0 -98.333 13 -135 39zM460.999 297.998c-2.66699 66 -18.667 113.667 -48 143s-67.333 44 -114 44
c-52 0 -93.167 -17.333 -123.5 -52s-46.833 -79.667 -49.5 -135h335zM266.999 734.998h65l128 -141h-73l-86 94h-4l-86 -94h-72zM182.999 843.498c12.667 21 33.667 31.5 63 31.5c12.667 0 23.667 -2.66699 33 -8s21 -13.333 35 -24c10 -8 18.167 -13.833 24.5 -17.5
s13.166 -5.5 20.499 -5.5c23.333 0 35 18.333 35 55h45c1.33301 -26.667 -4.33398 -50.5 -17.001 -71.5s-33.667 -31.5 -63 -31.5c-12.667 0 -24.167 2.66699 -34.5 8s-21.833 13 -34.5 23c-10 8 -18.167 13.833 -24.5 17.5s-13.166 5.5 -20.499 5.5
c-12.667 0 -21.667 -5.16699 -27 -15.5s-7.66602 -23.5 -6.99902 -39.5h-46c-0.666992 27.333 5.33301 51.5 18 72.5z" />
    <glyph glyph-name="uni1EC6" unicode="&#x1ec6;" horiz-adv-x="570" 
d="M150 637v-250h312v-58h-312v-266h352v-63h-421v700h421v-63h-352zM255.5 -201.5c-9.66699 9.66699 -14.5 21.5 -14.5 35.5s4.83301 25.833 14.5 35.5s21.5 14.5 35.5 14.5s25.833 -5 35.5 -15s14.5 -21.667 14.5 -35s-4.83301 -25 -14.5 -35s-21.5 -15 -35.5 -15
s-25.833 4.83301 -35.5 14.5zM258 909h65l128 -141h-73l-86 94h-4l-86 -94h-72z" />
    <glyph glyph-name="uni1EC7" unicode="&#x1ec7;" horiz-adv-x="585" 
d="M164 33c-36.667 26 -64.001 59.998 -82.001 101.998s-27 86.333 -27 133s9 91 27 133s45.333 76 82 102s81.667 39 135 39c70 0 126 -23.667 168 -71s63 -115.666 63 -204.999v-19h-406v-7c0 -32 7.16699 -62.5 21.5 -91.5s34.833 -52.167 61.5 -69.5s57 -26 91 -26
c37.333 0 69.333 9.5 96 28.5s46.667 44.833 60 77.5h68c-14.667 -47.333 -40.667 -86.666 -78 -117.999s-85.666 -47 -144.999 -47c-53.333 0 -98.333 13 -135 39zM460.999 297.998c-2.66699 66 -18.667 113.667 -48 143s-67.333 44 -114 44
c-52 0 -93.167 -17.333 -123.5 -52s-46.833 -79.667 -49.5 -135h335zM264.499 -201.502c-9.66699 9.66699 -14.5 21.5 -14.5 35.5s4.83301 25.833 14.5 35.5s21.5 14.5 35.5 14.5s25.833 -5 35.5 -15s14.5 -21.667 14.5 -35s-4.83301 -25 -14.5 -35s-21.5 -15 -35.5 -15
s-25.833 4.83301 -35.5 14.5zM266.999 734.998h65l128 -141h-73l-86 94h-4l-86 -94h-72z" />
    <glyph glyph-name="uni1EC8" unicode="&#x1ec8;" horiz-adv-x="235" 
d="M83 700h70v-700h-70v700zM100 787c5.33301 5.33301 13.001 11.668 23.001 19.001c13.333 10 23.666 19.167 30.999 27.5s11 18.166 11 29.499c0 10.667 -3.5 20 -10.5 28s-18.833 12 -35.5 12c-12.667 0 -22.834 -3 -30.501 -9s-12.5 -13.667 -14.5 -23h-55
c4 22 14 40.333 30 55s39.333 22 70 22c30 0 53.833 -7.66699 71.5 -23s26.5 -34.666 26.5 -57.999c0 -16 -3.66699 -28.833 -11 -38.5s-17.666 -19.834 -30.999 -30.501c-6 -4 -11.5 -8.5 -16.5 -13.5s-8.16699 -9.83301 -9.5 -14.5h-60c2 6 5.66699 11.667 11 17z" />
    <glyph glyph-name="uni1EC9" unicode="&#x1ec9;" horiz-adv-x="239" 
d="M85 526h69v-526h-69v526zM102 613c5.33301 5.33301 13.001 11.668 23.001 19.001c13.333 10 23.666 19.167 30.999 27.5s11 18.166 11 29.499c0 10.667 -3.5 20 -10.5 28s-18.833 12 -35.5 12c-12.667 0 -22.834 -3 -30.501 -9s-12.5 -13.667 -14.5 -23h-55
c4 22 14 40.333 30 55s39.333 22 70 22c30 0 53.833 -7.66699 71.5 -23s26.5 -34.666 26.5 -57.999c0 -16 -3.66699 -28.833 -11 -38.5s-17.666 -19.834 -30.999 -30.501c-6 -4 -11.5 -8.5 -16.5 -13.5s-8.16699 -9.83301 -9.5 -14.5h-60c2 6 5.66699 11.667 11 17z" />
    <glyph glyph-name="uni1ECA" unicode="&#x1eca;" horiz-adv-x="235" 
d="M83 700h70v-700h-70v700zM82.5 -201.5c-9.66699 9.66699 -14.5 21.5 -14.5 35.5s4.83301 25.833 14.5 35.5s21.5 14.5 35.5 14.5s25.833 -5 35.5 -15s14.5 -21.667 14.5 -35s-4.83301 -25 -14.5 -35s-21.5 -15 -35.5 -15s-25.833 4.83301 -35.5 14.5z" />
    <glyph glyph-name="uni1ECB" unicode="&#x1ecb;" horiz-adv-x="239" 
d="M85 526h69v-526h-69v526zM83 640.5c-9.33301 9.66699 -14 21.5 -14 35.5c0 13.333 4.66699 24.833 14 34.5s21 14.5 35 14.5s25.667 -4.83301 35 -14.5s14 -21.167 14 -34.5c0 -14 -4.66699 -25.833 -14 -35.5s-21 -14.5 -35 -14.5s-25.667 4.83301 -35 14.5z
M84.5 -201.5c-9.66699 9.66699 -14.5 21.5 -14.5 35.5s4.83301 25.833 14.5 35.5s21.5 14.5 35.5 14.5s25.833 -5 35.5 -15s14.5 -21.667 14.5 -35s-4.83301 -25 -14.5 -35s-21.5 -15 -35.5 -15s-25.833 4.83301 -35.5 14.5z" />
    <glyph glyph-name="uni1ECC" unicode="&#x1ecc;" horiz-adv-x="739" 
d="M200 39.5c-47.333 30.333 -83.334 72.665 -108.001 126.998s-37 116.5 -37 186.5c0 70.667 12.5 133.334 37.5 188.001s61 97.334 108 128.001s103.167 46 168.5 46s121.5 -15.167 168.5 -45.5s83 -72.833 108 -127.5s37.5 -117.667 37.5 -189
c0 -70.667 -12.5 -133 -37.5 -187s-61 -96.167 -108 -126.5s-103.167 -45.5 -168.5 -45.5s-121.666 15.167 -168.999 45.5zM497.499 95.999c36.333 24.667 64.333 59.333 84 104s29.5 96.334 29.5 155.001c0 58 -9.83301 109.333 -29.5 154s-47.667 79.5 -84 104.5
s-79.166 37.5 -128.499 37.5s-92.166 -12.5 -128.499 -37.5s-64.333 -60 -84 -105s-29.5 -96.5 -29.5 -154.5s9.83301 -109.333 29.5 -154s47.667 -79.334 84 -104.001s79.166 -37 128.499 -37s92.166 12.333 128.499 37zM334.499 -201.502
c-9.66699 9.66699 -14.5 21.5 -14.5 35.5s4.83301 25.833 14.5 35.5s21.5 14.5 35.5 14.5s25.833 -5 35.5 -15s14.5 -21.667 14.5 -35s-4.83301 -25 -14.5 -35s-21.5 -15 -35.5 -15s-25.833 4.83301 -35.5 14.5z" />
    <glyph glyph-name="uni1ECD" unicode="&#x1ecd;" horiz-adv-x="598" 
d="M165 33c-36.667 26 -64.167 59.833 -82.5 101.5s-27.5 85.834 -27.5 132.501c0 47.333 9.16699 91.833 27.5 133.5s45.833 75.5 82.5 101.5s81.334 39 134.001 39s97.334 -13 134.001 -39s64.167 -59.833 82.5 -101.5s27.5 -85.834 27.5 -132.501
c0 -47.333 -9.16699 -91.833 -27.5 -133.5s-45.833 -75.5 -82.5 -101.5s-81.334 -39 -134.001 -39s-97.334 13 -134.001 39zM391.5 83.5c26.333 19 46.668 44.6689 61.001 77.002s21.5 68.166 21.5 107.499c0 40 -7 76.167 -21 108.5s-34.333 57.833 -61 76.5
s-57.667 28 -93 28s-66.333 -9.33301 -93 -28s-47 -44.334 -61 -77.001s-21 -68.667 -21 -108c0 -40 7 -76.167 21 -108.5s34.167 -57.833 60.5 -76.5s57.5 -28 93.5 -28c35.333 0 66.166 9.5 92.499 28.5zM263.502 -201.498c-9.66699 9.66699 -14.5 21.5 -14.5 35.5
s4.83301 25.833 14.5 35.5s21.5 14.5 35.5 14.5s25.833 -5 35.5 -15s14.5 -21.667 14.5 -35s-4.83301 -25 -14.5 -35s-21.5 -15 -35.5 -15s-25.833 4.83301 -35.5 14.5z" />
    <glyph glyph-name="uni1ECE" unicode="&#x1ece;" horiz-adv-x="739" 
d="M200 39.5c-47.333 30.333 -83.334 72.665 -108.001 126.998s-37 116.5 -37 186.5c0 70.667 12.5 133.334 37.5 188.001s61 97.334 108 128.001s103.167 46 168.5 46s121.5 -15.167 168.5 -45.5s83 -72.833 108 -127.5s37.5 -117.667 37.5 -189
c0 -70.667 -12.5 -133 -37.5 -187s-61 -96.167 -108 -126.5s-103.167 -45.5 -168.5 -45.5s-121.666 15.167 -168.999 45.5zM497.499 95.999c36.333 24.667 64.333 59.333 84 104s29.5 96.334 29.5 155.001c0 58 -9.83301 109.333 -29.5 154s-47.667 79.5 -84 104.5
s-79.166 37.5 -128.499 37.5s-92.166 -12.5 -128.499 -37.5s-64.333 -60 -84 -105s-29.5 -96.5 -29.5 -154.5s9.83301 -109.333 29.5 -154s47.667 -79.334 84 -104.001s79.166 -37 128.499 -37s92.166 12.333 128.499 37zM351.999 786.998
c5.33301 5.33301 13.001 11.668 23.001 19.001c13.333 10 23.666 19.167 30.999 27.5s11 18.166 11 29.499c0 10.667 -3.5 20 -10.5 28s-18.833 12 -35.5 12c-12.667 0 -22.834 -3 -30.501 -9s-12.5 -13.667 -14.5 -23h-55c4 22 14 40.333 30 55s39.333 22 70 22
c30 0 53.833 -7.66699 71.5 -23s26.5 -34.666 26.5 -57.999c0 -16 -3.66699 -28.833 -11 -38.5s-17.666 -19.834 -30.999 -30.501c-6 -4 -11.5 -8.5 -16.5 -13.5s-8.16699 -9.83301 -9.5 -14.5h-60c2 6 5.66699 11.667 11 17z" />
    <glyph glyph-name="uni1ECF" unicode="&#x1ecf;" horiz-adv-x="598" 
d="M165 33c-36.667 26 -64.167 59.833 -82.5 101.5s-27.5 85.834 -27.5 132.501c0 47.333 9.16699 91.833 27.5 133.5s45.833 75.5 82.5 101.5s81.334 39 134.001 39s97.334 -13 134.001 -39s64.167 -59.833 82.5 -101.5s27.5 -85.834 27.5 -132.501
c0 -47.333 -9.16699 -91.833 -27.5 -133.5s-45.833 -75.5 -82.5 -101.5s-81.334 -39 -134.001 -39s-97.334 13 -134.001 39zM391.5 83.5c26.333 19 46.668 44.6689 61.001 77.002s21.5 68.166 21.5 107.499c0 40 -7 76.167 -21 108.5s-34.333 57.833 -61 76.5
s-57.667 28 -93 28s-66.333 -9.33301 -93 -28s-47 -44.334 -61 -77.001s-21 -68.667 -21 -108c0 -40 7 -76.167 21 -108.5s34.167 -57.833 60.5 -76.5s57.5 -28 93.5 -28c35.333 0 66.166 9.5 92.499 28.5zM281.002 613.002c5.33301 5.33301 13.001 11.668 23.001 19.001
c13.333 10 23.666 19.167 30.999 27.5s11 18.166 11 29.499c0 10.667 -3.5 20 -10.5 28s-18.833 12 -35.5 12c-12.667 0 -22.834 -3 -30.501 -9s-12.5 -13.667 -14.5 -23h-55c4 22 14 40.333 30 55s39.333 22 70 22c30 0 53.833 -7.66699 71.5 -23
s26.5 -34.666 26.5 -57.999c0 -16 -3.66699 -28.833 -11 -38.5s-17.666 -19.834 -30.999 -30.501c-6 -4 -11.5 -8.5 -16.5 -13.5s-8.16699 -9.83301 -9.5 -14.5h-60c2 6 5.66699 11.667 11 17z" />
    <glyph glyph-name="uni1ED0" unicode="&#x1ed0;" horiz-adv-x="739" 
d="M200 39.5c-47.333 30.333 -83.334 72.665 -108.001 126.998s-37 116.5 -37 186.5c0 70.667 12.5 133.334 37.5 188.001s61 97.334 108 128.001s103.167 46 168.5 46s121.5 -15.167 168.5 -45.5s83 -72.833 108 -127.5s37.5 -117.667 37.5 -189
c0 -70.667 -12.5 -133 -37.5 -187s-61 -96.167 -108 -126.5s-103.167 -45.5 -168.5 -45.5s-121.666 15.167 -168.999 45.5zM497.499 95.999c36.333 24.667 64.333 59.333 84 104s29.5 96.334 29.5 155.001c0 58 -9.83301 109.333 -29.5 154s-47.667 79.5 -84 104.5
s-79.166 37.5 -128.499 37.5s-92.166 -12.5 -128.499 -37.5s-64.333 -60 -84 -105s-29.5 -96.5 -29.5 -154.5s9.83301 -109.333 29.5 -154s47.667 -79.334 84 -104.001s79.166 -37 128.499 -37s92.166 12.333 128.499 37zM337.999 908.998h65l128 -141h-73l-86 94h-4
l-86 -94h-72zM485.999 890.998l98 174h76l-118 -174h-56z" />
    <glyph glyph-name="uni1ED1" unicode="&#x1ed1;" horiz-adv-x="598" 
d="M165 33c-36.667 26 -64.167 59.833 -82.5 101.5s-27.5 85.834 -27.5 132.501c0 47.333 9.16699 91.833 27.5 133.5s45.833 75.5 82.5 101.5s81.334 39 134.001 39s97.334 -13 134.001 -39s64.167 -59.833 82.5 -101.5s27.5 -85.834 27.5 -132.501
c0 -47.333 -9.16699 -91.833 -27.5 -133.5s-45.833 -75.5 -82.5 -101.5s-81.334 -39 -134.001 -39s-97.334 13 -134.001 39zM391.5 83.5c26.333 19 46.668 44.6689 61.001 77.002s21.5 68.166 21.5 107.499c0 40 -7 76.167 -21 108.5s-34.333 57.833 -61 76.5
s-57.667 28 -93 28s-66.333 -9.33301 -93 -28s-47 -44.334 -61 -77.001s-21 -68.667 -21 -108c0 -40 7 -76.167 21 -108.5s34.167 -57.833 60.5 -76.5s57.5 -28 93.5 -28c35.333 0 66.166 9.5 92.499 28.5zM267.002 735.002h65l128 -141h-73l-86 94h-4l-86 -94h-72z
M415.002 717.002l98 174h76l-118 -174h-56z" />
    <glyph glyph-name="uni1ED2" unicode="&#x1ed2;" horiz-adv-x="739" 
d="M200 39.5c-47.333 30.333 -83.334 72.665 -108.001 126.998s-37 116.5 -37 186.5c0 70.667 12.5 133.334 37.5 188.001s61 97.334 108 128.001s103.167 46 168.5 46s121.5 -15.167 168.5 -45.5s83 -72.833 108 -127.5s37.5 -117.667 37.5 -189
c0 -70.667 -12.5 -133 -37.5 -187s-61 -96.167 -108 -126.5s-103.167 -45.5 -168.5 -45.5s-121.666 15.167 -168.999 45.5zM497.499 95.999c36.333 24.667 64.333 59.333 84 104s29.5 96.334 29.5 155.001c0 58 -9.83301 109.333 -29.5 154s-47.667 79.5 -84 104.5
s-79.166 37.5 -128.499 37.5s-92.166 -12.5 -128.499 -37.5s-64.333 -60 -84 -105s-29.5 -96.5 -29.5 -154.5s9.83301 -109.333 29.5 -154s47.667 -79.334 84 -104.001s79.166 -37 128.499 -37s92.166 12.333 128.499 37zM336.999 908.998h65l128 -141h-73l-86 94h-4
l-86 -94h-72zM366.999 1065h76l98 -174h-56z" />
    <glyph glyph-name="uni1ED3" unicode="&#x1ed3;" horiz-adv-x="598" 
d="M165 33c-36.667 26 -64.167 59.833 -82.5 101.5s-27.5 85.834 -27.5 132.501c0 47.333 9.16699 91.833 27.5 133.5s45.833 75.5 82.5 101.5s81.334 39 134.001 39s97.334 -13 134.001 -39s64.167 -59.833 82.5 -101.5s27.5 -85.834 27.5 -132.501
c0 -47.333 -9.16699 -91.833 -27.5 -133.5s-45.833 -75.5 -82.5 -101.5s-81.334 -39 -134.001 -39s-97.334 13 -134.001 39zM391.5 83.5c26.333 19 46.668 44.6689 61.001 77.002s21.5 68.166 21.5 107.499c0 40 -7 76.167 -21 108.5s-34.333 57.833 -61 76.5
s-57.667 28 -93 28s-66.333 -9.33301 -93 -28s-47 -44.334 -61 -77.001s-21 -68.667 -21 -108c0 -40 7 -76.167 21 -108.5s34.167 -57.833 60.5 -76.5s57.5 -28 93.5 -28c35.333 0 66.166 9.5 92.499 28.5zM267.002 735.002h65l128 -141h-73l-86 94h-4l-86 -94h-72z
M297.002 891.002h76l98 -174h-56z" />
    <glyph glyph-name="uni1ED4" unicode="&#x1ed4;" horiz-adv-x="739" 
d="M200 39.5c-47.333 30.333 -83.334 72.665 -108.001 126.998s-37 116.5 -37 186.5c0 70.667 12.5 133.334 37.5 188.001s61 97.334 108 128.001s103.167 46 168.5 46s121.5 -15.167 168.5 -45.5s83 -72.833 108 -127.5s37.5 -117.667 37.5 -189
c0 -70.667 -12.5 -133 -37.5 -187s-61 -96.167 -108 -126.5s-103.167 -45.5 -168.5 -45.5s-121.666 15.167 -168.999 45.5zM497.499 95.999c36.333 24.667 64.333 59.333 84 104s29.5 96.334 29.5 155.001c0 58 -9.83301 109.333 -29.5 154s-47.667 79.5 -84 104.5
s-79.166 37.5 -128.499 37.5s-92.166 -12.5 -128.499 -37.5s-64.333 -60 -84 -105s-29.5 -96.5 -29.5 -154.5s9.83301 -109.333 29.5 -154s47.667 -79.334 84 -104.001s79.166 -37 128.499 -37s92.166 12.333 128.499 37zM337.999 908.998h65l128 -141h-73l-86 94h-4
l-86 -94h-72zM493.999 911.998c5.33301 5.33301 13.001 11.668 23.001 19.001c13.333 10 23.666 19.167 30.999 27.5s11 18.166 11 29.499c0 10.667 -3.5 20 -10.5 28s-18.833 12 -35.5 12c-12.667 0 -22.834 -3 -30.501 -9s-12.5 -13.667 -14.5 -23h-55
c4 22 14 40.333 30 55s39.333 22 70 22c30 0 53.833 -7.66699 71.5 -23s26.5 -34.666 26.5 -57.999c0 -16 -3.66699 -28.833 -11 -38.5s-17.666 -19.834 -30.999 -30.501c-6 -4 -11.5 -8.5 -16.5 -13.5s-8.16699 -9.83301 -9.5 -14.5h-60c2 6 5.66699 11.667 11 17z" />
    <glyph glyph-name="uni1ED5" unicode="&#x1ed5;" horiz-adv-x="598" 
d="M165 33c-36.667 26 -64.167 59.833 -82.5 101.5s-27.5 85.834 -27.5 132.501c0 47.333 9.16699 91.833 27.5 133.5s45.833 75.5 82.5 101.5s81.334 39 134.001 39s97.334 -13 134.001 -39s64.167 -59.833 82.5 -101.5s27.5 -85.834 27.5 -132.501
c0 -47.333 -9.16699 -91.833 -27.5 -133.5s-45.833 -75.5 -82.5 -101.5s-81.334 -39 -134.001 -39s-97.334 13 -134.001 39zM391.5 83.5c26.333 19 46.668 44.6689 61.001 77.002s21.5 68.166 21.5 107.499c0 40 -7 76.167 -21 108.5s-34.333 57.833 -61 76.5
s-57.667 28 -93 28s-66.333 -9.33301 -93 -28s-47 -44.334 -61 -77.001s-21 -68.667 -21 -108c0 -40 7 -76.167 21 -108.5s34.167 -57.833 60.5 -76.5s57.5 -28 93.5 -28c35.333 0 66.166 9.5 92.499 28.5zM267.002 735.002h65l128 -141h-73l-86 94h-4l-86 -94h-72z
M423.002 738.002c5.33301 5.33301 13.001 11.668 23.001 19.001c13.333 10 23.666 19.167 30.999 27.5s11 18.166 11 29.499c0 10.667 -3.5 20 -10.5 28s-18.833 12 -35.5 12c-12.667 0 -22.834 -3 -30.501 -9s-12.5 -13.667 -14.5 -23h-55c4 22 14 40.333 30 55
s39.333 22 70 22c30 0 53.833 -7.66699 71.5 -23s26.5 -34.666 26.5 -57.999c0 -16 -3.66699 -28.833 -11 -38.5s-17.666 -19.834 -30.999 -30.501c-6 -4 -11.5 -8.5 -16.5 -13.5s-8.16699 -9.83301 -9.5 -14.5h-60c2 6 5.66699 11.667 11 17z" />
    <glyph glyph-name="uni1ED6" unicode="&#x1ed6;" horiz-adv-x="739" 
d="M200 39.5c-47.333 30.333 -83.334 72.665 -108.001 126.998s-37 116.5 -37 186.5c0 70.667 12.5 133.334 37.5 188.001s61 97.334 108 128.001s103.167 46 168.5 46s121.5 -15.167 168.5 -45.5s83 -72.833 108 -127.5s37.5 -117.667 37.5 -189
c0 -70.667 -12.5 -133 -37.5 -187s-61 -96.167 -108 -126.5s-103.167 -45.5 -168.5 -45.5s-121.666 15.167 -168.999 45.5zM497.499 95.999c36.333 24.667 64.333 59.333 84 104s29.5 96.334 29.5 155.001c0 58 -9.83301 109.333 -29.5 154s-47.667 79.5 -84 104.5
s-79.166 37.5 -128.499 37.5s-92.166 -12.5 -128.499 -37.5s-64.333 -60 -84 -105s-29.5 -96.5 -29.5 -154.5s9.83301 -109.333 29.5 -154s47.667 -79.334 84 -104.001s79.166 -37 128.499 -37s92.166 12.333 128.499 37zM336.999 908.998h65l128 -141h-73l-86 94h-4
l-86 -94h-72zM252.999 1017.5c12.667 21 33.667 31.5 63 31.5c12.667 0 23.667 -2.66699 33 -8s21 -13.333 35 -24c10 -8 18.167 -13.833 24.5 -17.5s13.166 -5.5 20.499 -5.5c23.333 0 35 18.333 35 55h45c1.33301 -26.667 -4.33398 -50.5 -17.001 -71.5
s-33.667 -31.5 -63 -31.5c-12.667 0 -24.167 2.66699 -34.5 8s-21.833 13 -34.5 23c-10 8 -18.167 13.833 -24.5 17.5s-13.166 5.5 -20.499 5.5c-12.667 0 -21.667 -5.16699 -27 -15.5s-7.66602 -23.5 -6.99902 -39.5h-46c-0.666992 27.333 5.33301 51.5 18 72.5z" />
    </font>
</defs>
</svg>
